<svg width="21" height="20" viewBox="0 0 21 20" fill="none" xmlns="http://www.w3.org/2000/svg">
<path d="M18.4305 9.74649C18.6885 9.81048 18.6885 10.1895 18.4305 10.2535C12.9053 11.6239 11.5548 13.0292 10.2524 18.8124C10.1928 19.0773 9.8018 19.0773 9.74213 18.8124C8.43976 13.0292 7.08928 11.6239 1.56404 10.2535C1.30606 10.1895 1.30606 9.81048 1.56403 9.74649C7.08928 8.37605 8.43976 6.97083 9.74213 1.18765C9.8018 0.922656 10.1928 0.922656 10.2524 1.18765C11.5548 6.97083 12.9053 8.37605 18.4305 9.74649Z" stroke="#2B7CD6" stroke-width="1.25"/>
<path d="M19.8577 3.4098C20.0114 3.45225 20.0114 3.68477 19.8577 3.72723C18.4704 4.11042 18.0291 4.56548 17.6638 6.00806C17.6238 6.16605 17.3827 6.16605 17.3427 6.00806C16.9774 4.56548 16.5361 4.11042 15.1488 3.72723C14.9951 3.68477 14.9951 3.45225 15.1488 3.40979C16.5361 3.02661 16.9774 2.57155 17.3427 1.12899C17.3827 0.970998 17.6238 0.971001 17.6638 1.12899C18.0291 2.57166 18.4704 3.02663 19.8577 3.4098Z" stroke="#2B7CD6" stroke-width="0.75"/>
</svg>
