<svg width="59" height="31" viewBox="0 0 59 31" fill="none" xmlns="http://www.w3.org/2000/svg">
<path d="M58.4768 0.869141H0.276489V30.5215H58.4768V0.869141Z" fill="#10467F"/>
<path d="M16.421 15.7578H17.3921V10.9068H29.5936V9.7627H16.421V15.7578Z" fill="white"/>
<path d="M0.331177 9.76221V10.9063H12.5424V15.7573H13.5038V9.76221H0.331177Z" fill="white"/>
<path d="M17.3921 5.99441V0.899414H16.421V6.89452H29.5936V5.99441H17.3921Z" fill="white"/>
<path d="M13.5038 0.899414H12.5424V5.99441H0.331177V6.89452H13.5038V0.899414Z" fill="white"/>
<path d="M16.4223 0.899414H13.5038V6.89452H0.331177V9.76237H13.5038V15.7575H16.4223V9.76237H29.5949V6.89452H16.4223V0.899414Z" fill="#D21D10"/>
<path d="M15.6313 20.2227L16.3153 22.0041L18.0963 21.4432L17.1682 23.1039L18.705 24.186L16.8639 24.4753L16.9993 26.3855L15.6313 25.0856L14.2634 26.3855L14.3989 24.4753L12.5577 24.186L14.0945 23.1039L13.1665 21.4432L14.9474 22.0041L15.6313 20.2227Z" fill="white"/>
<path d="M44.6445 23.4766L45.012 24.4315L45.9688 24.1309L45.4703 25.021L46.2959 25.601L45.3067 25.756L45.3794 26.7799L44.6445 26.0832L43.9096 26.7799L43.9824 25.756L42.9933 25.601L43.8189 25.021L43.3203 24.1309L44.2771 24.4315L44.6445 23.4766Z" fill="white"/>
<path d="M38.1505 11.4766L38.5179 12.4315L39.4747 12.1309L38.9761 13.021L39.8017 13.601L38.8126 13.756L38.8854 14.7799L38.1505 14.0832L37.4156 14.7799L37.4883 13.756L36.4991 13.601L37.3248 13.021L36.8262 12.1309L37.7831 12.4315L38.1505 11.4766Z" fill="white"/>
<path d="M44.6445 5.08984L45.012 6.04468L45.9688 5.74404L45.4703 6.63424L46.2959 7.21423L45.3067 7.36921L45.3794 8.39323L44.6445 7.69637L43.9096 8.39323L43.9824 7.36921L42.9933 7.21423L43.8189 6.63424L43.3203 5.74404L44.2771 6.04468L44.6445 5.08984Z" fill="white"/>
<path d="M51.2715 11.0107L51.6389 11.9657L52.5957 11.6651L52.0971 12.5551L52.9227 13.1351L51.9336 13.2902L52.0064 14.3141L51.2715 13.6174L50.5366 14.3141L50.6094 13.2902L49.6201 13.1351L50.4459 12.5551L49.9472 11.6651L50.904 11.9657L51.2715 11.0107Z" fill="white"/>
<path d="M48.9466 15.9868L49.2502 16.6336L49.9292 16.7373L49.4379 17.2407L49.5538 17.9516L48.9466 17.616L48.3393 17.9516L48.4553 17.2407L47.964 16.7373L48.6429 16.6336L48.9466 15.9868Z" fill="white"/>
<path d="M12.5424 5.99441V5.44261L3.36726 0.899414H0.331177V1.09358L10.2286 5.99441H12.5424Z" fill="white"/>
<path d="M0.331177 1.09375V2.11956L8.15694 5.99458H10.2286L0.331177 1.09375Z" fill="#D21D10"/>
<path d="M0.331177 5.99454H6.84325L0.331177 2.77002V5.99454Z" fill="#10467F"/>
<path d="M12.5434 0.899414H3.36829L12.5434 5.44261V0.899414Z" fill="#10467F"/>
<path d="M0.331177 2.77013L6.84325 5.99465H8.15694L0.331177 2.11963V2.77013Z" fill="white"/>
<path d="M17.3937 0.899414V5.54334L26.5205 0.899414H17.3937Z" fill="#10467F"/>
<path d="M29.5945 0.899414H27.618L17.6046 5.99441H19.6952L29.5945 0.957486V0.899414Z" fill="#D21D10"/>
<path d="M29.5937 0.95752L19.6945 5.99445H23.1593L29.5937 2.72046V0.95752Z" fill="white"/>
<path d="M29.5956 2.72021L23.1613 5.99421H29.5956V2.72021Z" fill="#10467F"/>
<path d="M26.5205 0.899414L17.3937 5.54334V5.99441H17.6053L27.6187 0.899414H26.5205Z" fill="white"/>
<path d="M0.331177 10.9062V14.1158L6.82008 10.9062H0.331177Z" fill="#10467F"/>
<path d="M6.82008 10.9062L0.331177 14.1158V15.7573H0.400221L10.2076 10.9062H6.82008Z" fill="white"/>
<path d="M10.2069 10.9062L0.399536 15.7573H2.52307L12.3304 10.9062H10.2069Z" fill="#D21D10"/>
<path d="M12.3316 10.9067L2.52429 15.7577H3.78825L12.5429 11.4275V10.9067H12.3316Z" fill="white"/>
<path d="M12.5429 15.7575V11.4272L3.78821 15.7575H12.5429Z" fill="#10467F"/>
<path d="M29.5963 14.096L23.1545 10.9062H21.8409L29.5963 14.7465V14.096Z" fill="white"/>
<path d="M21.8406 10.9062H19.8195L29.5959 15.7472V14.7465L21.8406 10.9062Z" fill="#D21D10"/>
<path d="M17.3937 10.9062V11.3567L26.2806 15.7573H29.5952V15.7472L19.8187 10.9062H17.3937Z" fill="white"/>
<path d="M17.3937 15.7575H26.2806L17.3937 11.3569V15.7575Z" fill="#10467F"/>
<path d="M29.5952 10.9062H23.1534L29.5952 14.096V10.9062Z" fill="#10467F"/>
</svg>
