<svg width="1921" height="5351" viewBox="0 0 1921 5351" fill="none" xmlns="http://www.w3.org/2000/svg">
<line x1="80.6235" y1="-6.44096e-09" x2="80.6237" y2="5351" stroke="#BFBFBF" stroke-width="0.25"/>
<line x1="190.624" y1="-6.44096e-09" x2="190.624" y2="5351" stroke="#BFBFBF" stroke-width="0.25"/>
<line x1="300.624" y1="-6.44096e-09" x2="300.624" y2="5351" stroke="#BFBFBF" stroke-width="0.25"/>
<line x1="410.624" y1="-6.44096e-09" x2="410.624" y2="5351" stroke="#BFBFBF" stroke-width="0.25"/>
<line x1="520.624" y1="-6.44096e-09" x2="520.624" y2="5351" stroke="#BFBFBF" stroke-width="0.25"/>
<line x1="630.624" y1="-6.44096e-09" x2="630.624" y2="5351" stroke="#BFBFBF" stroke-width="0.25"/>
<line x1="740.625" y1="-6.44096e-09" x2="740.625" y2="5351" stroke="#BFBFBF" stroke-width="0.25"/>
<line x1="850.625" y1="-6.44096e-09" x2="850.625" y2="5351" stroke="#BFBFBF" stroke-width="0.25"/>
<line x1="960.625" y1="-6.44096e-09" x2="960.625" y2="5351" stroke="#BFBFBF" stroke-width="0.25"/>
<line x1="1070.62" y1="-6.44096e-09" x2="1070.63" y2="5351" stroke="#BFBFBF" stroke-width="0.25"/>
<line x1="1180.63" y1="-6.44096e-09" x2="1180.63" y2="5351" stroke="#BFBFBF" stroke-width="0.25"/>
<line x1="1290.63" y1="-6.44096e-09" x2="1290.63" y2="5351" stroke="#BFBFBF" stroke-width="0.25"/>
<line x1="1400.63" y1="-6.44096e-09" x2="1400.63" y2="5351" stroke="#BFBFBF" stroke-width="0.25"/>
<line x1="1510.63" y1="-6.44096e-09" x2="1510.63" y2="5351" stroke="#BFBFBF" stroke-width="0.25"/>
<line x1="1620.63" y1="-6.44096e-09" x2="1620.63" y2="5351" stroke="#BFBFBF" stroke-width="0.25"/>
<line x1="1730.63" y1="-6.44096e-09" x2="1730.63" y2="5351" stroke="#BFBFBF" stroke-width="0.25"/>
<line x1="1840.63" y1="-6.44096e-09" x2="1840.63" y2="5351" stroke="#BFBFBF" stroke-width="0.25"/>
<line x1="1920.5" y1="13.3875" x2="0.5" y2="13.3875" stroke="#BFBFBF" stroke-width="0.25"/>
<line x1="1920.5" y1="149.912" x2="0.5" y2="149.912" stroke="#BFBFBF" stroke-width="0.25"/>
<line x1="1920.5" y1="286.438" x2="0.5" y2="286.438" stroke="#BFBFBF" stroke-width="0.25"/>
<line x1="1920.5" y1="422.962" x2="0.5" y2="422.962" stroke="#BFBFBF" stroke-width="0.25"/>
<line x1="1920.5" y1="559.487" x2="0.5" y2="559.487" stroke="#BFBFBF" stroke-width="0.25"/>
<line x1="1920.5" y1="696.012" x2="0.5" y2="696.012" stroke="#BFBFBF" stroke-width="0.25"/>
<line x1="1920.5" y1="832.537" x2="0.5" y2="832.537" stroke="#BFBFBF" stroke-width="0.25"/>
<line x1="1920.5" y1="969.062" x2="0.5" y2="969.062" stroke="#BFBFBF" stroke-width="0.25"/>
<line x1="1920.5" y1="1105.59" x2="0.5" y2="1105.59" stroke="#BFBFBF" stroke-width="0.25"/>
<line x1="1920.5" y1="1242.11" x2="0.5" y2="1242.11" stroke="#BFBFBF" stroke-width="0.25"/>
<line x1="1920.5" y1="1378.64" x2="0.5" y2="1378.64" stroke="#BFBFBF" stroke-width="0.25"/>
<line x1="1920.5" y1="1515.16" x2="0.5" y2="1515.16" stroke="#BFBFBF" stroke-width="0.25"/>
<line x1="1920.5" y1="1651.69" x2="0.5" y2="1651.69" stroke="#BFBFBF" stroke-width="0.25"/>
<line x1="1920.5" y1="1788.21" x2="0.5" y2="1788.21" stroke="#BFBFBF" stroke-width="0.25"/>
<line x1="1920.5" y1="1924.74" x2="0.5" y2="1924.74" stroke="#BFBFBF" stroke-width="0.25"/>
<line x1="1920.5" y1="2061.26" x2="0.5" y2="2061.26" stroke="#BFBFBF" stroke-width="0.25"/>
<line x1="1920.5" y1="2197.79" x2="0.5" y2="2197.79" stroke="#BFBFBF" stroke-width="0.25"/>
<line x1="1920.5" y1="2334.31" x2="0.5" y2="2334.31" stroke="#BFBFBF" stroke-width="0.25"/>
<line x1="1920.5" y1="2470.84" x2="0.5" y2="2470.84" stroke="#BFBFBF" stroke-width="0.25"/>
<line x1="1920.5" y1="2607.36" x2="0.5" y2="2607.36" stroke="#BFBFBF" stroke-width="0.25"/>
<line x1="1920.5" y1="2743.89" x2="0.5" y2="2743.89" stroke="#BFBFBF" stroke-width="0.25"/>
<line x1="1920.5" y1="2880.41" x2="0.5" y2="2880.41" stroke="#BFBFBF" stroke-width="0.25"/>
<line x1="1920.5" y1="3016.94" x2="0.5" y2="3016.94" stroke="#BFBFBF" stroke-width="0.25"/>
<line x1="1920.5" y1="3153.46" x2="0.5" y2="3153.46" stroke="#BFBFBF" stroke-width="0.25"/>
<line x1="1920.5" y1="3289.99" x2="0.5" y2="3289.99" stroke="#BFBFBF" stroke-width="0.25"/>
<line x1="1920.5" y1="3426.51" x2="0.5" y2="3426.51" stroke="#BFBFBF" stroke-width="0.25"/>
<line x1="1920.5" y1="3563.04" x2="0.5" y2="3563.04" stroke="#BFBFBF" stroke-width="0.25"/>
<line x1="1920.5" y1="3699.56" x2="0.5" y2="3699.56" stroke="#BFBFBF" stroke-width="0.25"/>
<line x1="1920.5" y1="3836.09" x2="0.5" y2="3836.09" stroke="#BFBFBF" stroke-width="0.25"/>
<line x1="1920.5" y1="3972.61" x2="0.5" y2="3972.61" stroke="#BFBFBF" stroke-width="0.25"/>
<line x1="1920.5" y1="4109.14" x2="0.5" y2="4109.14" stroke="#BFBFBF" stroke-width="0.25"/>
<line x1="1920.5" y1="4245.66" x2="0.5" y2="4245.66" stroke="#BFBFBF" stroke-width="0.25"/>
<line x1="1920.5" y1="4382.19" x2="0.5" y2="4382.19" stroke="#BFBFBF" stroke-width="0.25"/>
<line x1="1920.5" y1="4518.71" x2="0.5" y2="4518.71" stroke="#BFBFBF" stroke-width="0.25"/>
<line x1="1920.5" y1="4655.24" x2="0.5" y2="4655.24" stroke="#BFBFBF" stroke-width="0.25"/>
<line x1="1920.5" y1="4791.76" x2="0.5" y2="4791.76" stroke="#BFBFBF" stroke-width="0.25"/>
<line x1="1920.5" y1="4928.29" x2="0.5" y2="4928.29" stroke="#BFBFBF" stroke-width="0.25"/>
<line x1="1920.5" y1="5064.81" x2="0.5" y2="5064.81" stroke="#BFBFBF" stroke-width="0.25"/>
<line x1="1920.5" y1="5201.34" x2="0.5" y2="5201.34" stroke="#BFBFBF" stroke-width="0.25"/>
<line x1="1920.5" y1="5337.86" x2="0.5" y2="5337.86" stroke="#BFBFBF" stroke-width="0.25"/>
</svg>
