<svg width="424" height="245" viewBox="0 0 424 245" fill="none" xmlns="http://www.w3.org/2000/svg">
<path d="M88.1424 62.2503C91.3827 60.0857 95.6077 60.0857 98.8479 62.2503L106.491 67.356C108.615 68.7753 111.217 69.2927 113.723 68.7945L122.738 67.0023C126.56 66.2425 130.463 67.8593 132.628 71.0991L137.736 78.741C139.155 80.8652 141.36 82.3387 143.866 82.8374L152.881 84.6315C156.703 85.3921 159.69 88.3797 160.451 92.2015L162.245 101.216C162.744 103.722 164.217 105.927 166.341 107.347L173.983 112.454C177.223 114.619 178.84 118.523 178.08 122.345L176.288 131.36C175.79 133.866 176.307 136.467 177.726 138.591L182.832 146.234C184.997 149.475 184.997 153.7 182.832 156.94L177.726 164.583C176.307 166.707 175.79 169.309 176.288 171.815L178.08 180.83C178.84 184.652 177.223 188.555 173.983 190.72L166.341 195.828C164.217 197.247 162.744 199.452 162.245 201.958L160.451 210.973C159.69 214.795 156.703 217.782 152.881 218.543L143.866 220.337C141.36 220.836 139.155 222.309 137.736 224.433L132.628 232.075C130.463 235.315 126.56 236.932 122.738 236.172L113.723 234.38C111.217 233.882 108.615 234.399 106.491 235.818L98.8479 240.924C95.6077 243.089 91.3827 243.089 88.1424 240.924L80.4995 235.818C78.3749 234.399 75.7737 233.882 73.2678 234.38L64.2527 236.172C60.4308 236.932 56.5274 235.315 54.3621 232.075L49.2548 224.433C47.8352 222.309 45.6299 220.836 43.1241 220.337L34.1094 218.543C30.2876 217.782 27.3001 214.795 26.5395 210.973L24.7454 201.958C24.2467 199.452 22.7732 197.247 20.649 195.828L13.0071 190.72C9.76729 188.555 8.15044 184.652 8.91027 180.83L10.7025 171.815C11.2007 169.309 10.6833 166.707 9.26402 164.583L4.15832 156.94C1.99373 153.7 1.99373 149.475 4.15832 146.234L9.26401 138.591C10.6833 136.467 11.2007 133.866 10.7025 131.36L8.91027 122.345C8.15044 118.523 9.76728 114.619 13.0071 112.454L20.649 107.347C22.7732 105.927 24.2467 103.722 24.7454 101.216L26.5395 92.2015C27.3001 88.3797 30.2876 85.3921 34.1094 84.6315L43.1241 82.8374C45.6299 82.3387 47.8352 80.8652 49.2548 78.741L54.3621 71.0991C56.5274 67.8593 60.4308 66.2425 64.2527 67.0023L73.2678 68.7945C75.7737 69.2927 78.3749 68.7753 80.4995 67.356L88.1424 62.2503Z" fill="#CEE8F2"/>
<line x1="44.907" y1="108.479" x2="52.0282" y2="109.711" stroke="#0E1B2C" stroke-width="2.40905" stroke-linecap="round"/>
<line x1="123.952" y1="189.227" x2="131.073" y2="190.459" stroke="#0E1B2C" stroke-width="2.40905" stroke-linecap="round"/>
<line x1="53.1012" y1="119.814" x2="54.1346" y2="112.661" stroke="#0E1B2C" stroke-width="2.40905" stroke-linecap="round"/>
<line x1="132.147" y1="200.562" x2="133.18" y2="193.409" stroke="#0E1B2C" stroke-width="2.40905" stroke-linecap="round"/>
<line x1="55.4419" y1="107.647" x2="56.9809" y2="100.586" stroke="#0E1B2C" stroke-width="2.40905" stroke-linecap="round"/>
<line x1="134.487" y1="188.395" x2="136.026" y2="181.334" stroke="#0E1B2C" stroke-width="2.40905" stroke-linecap="round"/>
<line x1="57.7334" y1="110.63" x2="64.8793" y2="111.711" stroke="#0E1B2C" stroke-width="2.40905" stroke-linecap="round"/>
<line x1="136.779" y1="192.063" x2="143.925" y2="193.144" stroke="#0E1B2C" stroke-width="2.40905" stroke-linecap="round"/>
<path d="M85.1634 180.413H102.423C116.806 180.413 122.56 174.66 122.56 160.277V143.017C122.56 128.634 116.806 122.88 102.423 122.88H85.1634C70.7801 122.88 65.0269 128.634 65.0269 143.017V160.277C65.0269 174.66 70.7801 180.413 85.1634 180.413Z" fill="#0E1B2C" stroke="#0E1B2C" stroke-width="4.31496" stroke-linecap="round" stroke-linejoin="round"/>
<path d="M79.0645 169.338V163.384" stroke="#CEE8F2" stroke-width="4.31496" stroke-linecap="round"/>
<path d="M93.793 169.338V157.429" stroke="#CEE8F2" stroke-width="4.31496" stroke-linecap="round"/>
<path d="M108.521 169.338V151.445" stroke="#CEE8F2" stroke-width="4.31496" stroke-linecap="round"/>
<path d="M108.521 133.955L107.198 135.509C99.8626 144.081 90.0245 150.151 79.0645 152.884" stroke="#CEE8F2" stroke-width="4.31496" stroke-linecap="round"/>
<path d="M100.093 133.955H108.521V142.355" stroke="#CEE8F2" stroke-width="4.31496" stroke-linecap="round" stroke-linejoin="round"/>
<circle cx="357.952" cy="66.041" r="148.109" stroke="#2B7CD6" stroke-width="12.0453"/>
<circle cx="357.952" cy="66.041" r="114.575" stroke="#2B7CD6" stroke-width="12.0453"/>
<circle cx="357.952" cy="66.041" r="82.1419" stroke="#2B7CD6" stroke-width="12.0453"/>
<circle cx="357.952" cy="66.041" r="49.1363" stroke="#2B7CD6" stroke-width="12.0453"/>
<circle cx="357.952" cy="66.041" r="16.8364" stroke="#2B7CD6" stroke-width="12.0453"/>
</svg>
