<svg width="32" height="32" viewBox="0 0 32 32" fill="none" xmlns="http://www.w3.org/2000/svg">
<path d="M10.6665 15.1999C10.6665 16.2265 11.4665 17.0665 12.4398 17.0665H14.4398C15.2932 17.0665 15.9865 16.3332 15.9865 15.4399C15.9865 14.4665 15.5598 14.1199 14.9332 13.8932L11.7332 12.7732C11.0932 12.5465 10.6665 12.1999 10.6665 11.2265C10.6665 10.3332 11.3598 9.59985 12.2132 9.59985H14.2132C15.1998 9.61319 15.9998 10.4399 15.9998 11.4665" stroke="#30589F" stroke-width="2" stroke-linecap="round" stroke-linejoin="round"/>
<path d="M13.3335 17.1335V18.1202" stroke="#30589F" stroke-width="2" stroke-linecap="round" stroke-linejoin="round"/>
<path d="M13.3335 8.54663V9.58663" stroke="#30589F" stroke-width="2" stroke-linecap="round" stroke-linejoin="round"/>
<path d="M13.3198 23.9734C19.2035 23.9734 23.9732 19.2038 23.9732 13.3201C23.9732 7.43641 19.2035 2.66675 13.3198 2.66675C7.43616 2.66675 2.6665 7.43641 2.6665 13.3201C2.6665 19.2038 7.43616 23.9734 13.3198 23.9734Z" stroke="#30589F" stroke-width="2.66667" stroke-linecap="round" stroke-linejoin="round"/>
<path d="M17.3066 26.5066C18.5066 28.1999 20.4666 29.3066 22.7066 29.3066C26.3466 29.3066 29.3066 26.3466 29.3066 22.7066C29.3066 20.4933 28.2133 18.5333 26.5466 17.3333" stroke="#30589F" stroke-width="2.66667" stroke-linecap="round" stroke-linejoin="round"/>
</svg>
