<svg width="567" height="404" viewBox="0 0 567 404" fill="none" xmlns="http://www.w3.org/2000/svg">
<path d="M61.0212 402.793L499.685 403.9C499.685 403.9 585.378 363.565 562.67 258.054C539.96 152.544 494.545 156.239 416.098 146.134C337.649 136.029 366.551 57.5811 286.039 22.486C205.527 -12.609 65.1484 17.924 50.6977 146.134C36.2481 274.344 7.34465 289.774 1.1531 324.378C-5.04004 358.984 34.1773 402.905 61.0212 402.793Z" fill="#5FD3FF"/>
<path d="M86.1428 19.2275C86.1428 29.8464 77.5359 38.455 66.9169 38.455C56.299 38.455 47.6899 29.847 47.6899 19.2275C47.6899 8.60853 56.299 2.48665e-08 66.9169 2.48665e-08C77.5359 -0.000534236 86.1428 8.60799 86.1428 19.2275Z" fill="#5FD3FF"/>
<path d="M441.531 101.305C441.531 112.863 432.16 122.233 420.602 122.233C409.042 122.233 399.672 112.863 399.672 101.305C399.672 89.7472 409.042 80.3762 420.602 80.3762C432.16 80.3762 441.531 89.7472 441.531 101.305Z" fill="#5FD3FF"/>
<path d="M299.516 228.415C299.516 228.415 338.626 242.992 374.965 262.686C411.302 282.38 448.194 313.447 442.091 344.515C435.989 375.581 396.045 375.581 369.694 371.697L353.329 366.149L356.658 403.596H125.596C125.596 403.596 93.4194 390.282 106.18 360.048C118.94 329.812 141.961 278.496 168.036 258.802C194.11 239.109 216.578 230.509 221.571 230.233C226.564 229.955 299.516 228.415 299.516 228.415Z" fill="#0F62AF"/>
<path d="M172.938 121.869C172.938 121.869 171.105 58.7521 187.25 42.3514C203.393 25.9528 259.851 -5.35808 323.465 34.2146C323.465 34.2146 350.582 54.4887 349.649 96.7332C348.714 138.977 343.066 148.498 343.066 148.498L237.288 131.115L165.185 134.485L172.938 121.869Z" fill="#8F3A27"/>
<path d="M379.681 316.006C379.681 316.006 391.884 301.058 392.439 300.318C392.993 299.577 395.471 291.071 389.24 290.887C383.009 290.702 368.955 305.496 368.955 305.496C368.955 305.496 374.317 294.052 375.981 286.645C377.646 279.237 377.275 269.436 370.248 270.915C370.248 270.915 368.955 269.991 365.253 281.456C361.556 292.923 357.303 295.326 357.303 295.326C357.303 295.326 357.49 278.383 355.825 270.766C354.161 263.149 347.689 261.3 344.174 264.073C340.661 266.847 345.469 287.373 342.879 295.326C342.879 295.326 333.632 284.416 329.564 281.827C325.498 279.237 315.226 278.543 310.099 289.431C304.97 300.319 313.107 297.174 317.916 295.511C322.722 293.846 326.607 297.729 327.716 300.319C328.824 302.907 325.681 312.153 325.681 312.153L319.579 310.305C319.579 310.305 314.585 300.319 311.997 299.763C309.408 299.209 301.27 293.661 303.861 307.343C306.449 321.03 310.887 328.24 314.216 329.535C317.544 330.83 339.55 350.431 343.803 351.911C348.057 353.39 366.059 355.795 366.059 355.795C366.059 355.795 381.158 355.054 381.343 354.499C381.528 353.945 379.308 327.131 379.308 327.131L379.681 316.006Z" fill="#FBB98E"/>
<path d="M336.028 346.563C336.028 346.563 358.414 351.912 363.406 342.481C368.399 333.049 372.837 320.658 372.837 320.658L378.941 334.366L375.637 355.214L354.161 355.794L343.804 351.911L336.028 346.563Z" fill="#EB9C72"/>
<path d="M255.968 278.774L242.915 399.16H281.406L266.507 278.774H255.968Z" fill="#0E1B2C"/>
<path d="M232.482 383.533C232.482 383.533 238.028 384.457 250.973 385.012C263.919 385.569 292.026 386.676 297.205 395.554C302.381 404.429 296.094 402.394 296.094 402.394C296.094 402.394 295.725 396.293 292.212 394.443C292.212 394.443 298.128 401.596 293.136 402.596C288.143 403.597 284.259 397.033 277.602 395.924C270.947 394.815 281.855 396.478 285.001 401.1C288.144 405.724 270.021 401.801 261.145 402.699C252.269 403.597 224.162 401.656 224.162 401.656C224.162 401.656 230.276 383.239 232.482 383.533Z" fill="#FBB98E"/>
<path d="M242.929 267.957C242.929 267.957 252.915 284.045 256.245 286.265C259.573 288.482 271.777 280.994 280.098 263.796C288.42 246.598 254.302 247.43 254.302 247.43C254.302 247.43 242.429 262.688 242.929 267.957Z" fill="#0E1B2C"/>
<path d="M226.361 220.104C226.361 220.104 207.981 233.283 215.468 253.532C222.959 273.781 235.442 282.658 235.442 282.658L261.94 251.382L290.363 282.658C290.363 282.658 311.167 262.409 310.056 244.934C308.947 227.458 291.384 223.156 291.384 223.156L226.361 220.104Z" fill="white"/>
<path d="M177.189 109.732C177.189 109.732 174.139 60.7523 194.11 41.8897C214.083 23.0276 273.997 2.2246 327.809 41.8897C327.809 41.8897 344.569 50.4924 343.066 114.01L350.047 119.28C350.047 119.28 350.277 93.76 348.058 74.3433C345.838 54.9273 334.466 31.6271 300.071 18.0355C265.675 4.44446 215.468 14.9833 192.725 32.7368C169.977 50.4902 168.53 104.036 171.509 125.117C174.486 146.199 177.468 125.117 177.468 125.117L177.189 109.732Z" fill="#0E1B2C"/>
<path d="M172.752 114.01C172.752 114.01 157.774 117.615 155.276 132.038C152.781 146.463 154.72 171.611 175.941 173.184L172.752 114.01Z" fill="#CCCCCD"/>
<path d="M346.393 114.01C346.393 114.01 362.206 116.506 364.424 133.149C366.642 149.792 357.765 179.472 340.846 173.645C323.927 167.821 346.393 114.01 346.393 114.01Z" fill="#CCCCCD"/>
<path d="M232.851 222.837C232.851 222.837 179.962 208.042 188.101 124.827C188.101 124.827 188.101 57.8859 205.113 56.4071C222.126 54.9267 266.507 80.8164 304.971 80.8164C304.971 80.8164 285.369 84.1448 275.014 80.0759C275.014 80.0759 297.575 88.2122 314.586 85.6237C331.6 83.0352 332.339 132.225 330.121 146.279C327.902 160.333 327.531 200.646 296.095 215.81C264.657 230.973 237.384 224.612 232.851 222.837Z" fill="#FBB98E"/>
<path d="M232.111 216.55C232.111 216.55 231.741 235.411 233.961 238.74C236.181 242.069 248.015 254.643 271.316 250.575C294.615 246.507 288.951 234.066 290.917 225.678C292.883 217.29 290.917 205.454 290.917 205.454L232.111 216.55Z" fill="#FBB98E"/>
<path d="M188.167 120.399C188.167 120.399 188.47 109.293 183.662 110.034C178.854 110.773 170.347 108.159 170.718 115.199C171.086 122.238 176.266 176.607 176.266 176.607C176.266 176.607 186.713 179.472 191.151 175.309C191.151 175.309 188.933 137.863 188.933 134.998C188.933 132.131 188.167 120.399 188.167 120.399Z" fill="#0E1B2C"/>
<path d="M330.176 145.903C330.134 145.632 331.507 112.437 334.466 110.958C337.425 109.478 349.445 108.092 349.999 114.75C350.554 121.406 346.023 174.572 344.266 176.606C342.51 178.64 325.328 178.53 326.797 169.821C328.265 161.11 330.511 148.024 330.176 145.903Z" fill="#0E1B2C"/>
<path d="M180.888 333.049L185.697 365.595L237.661 382.607L159.068 360.972L172.197 357.828L180.888 333.049Z" fill="#30589F"/>
<path d="M229.338 376.875C229.338 376.875 215.838 397.402 215.284 402.394H225.454L237.661 381.5C237.661 381.5 233.037 376.32 229.338 376.875Z" fill="white"/>
<path d="M342.879 349.692C342.879 349.692 343.436 364.855 357.674 366.52C371.913 368.184 387.816 360.972 389.111 341.185C390.405 321.399 381.529 313.816 381.529 313.816L372.837 320.658C372.837 320.658 380.365 337.301 374.131 351.726L358.414 350.431L342.879 349.692Z" fill="white"/>
<g opacity="0.4">
<path d="M374.424 351.027C374.424 351.027 369.878 365.595 356.564 365.41C343.25 365.225 342.879 349.692 342.879 349.692L374.424 351.027Z" fill="#898C9A"/>
</g>
<path d="M335.298 324.544C335.298 324.544 328.5 313.018 327.347 311.783C326.194 310.549 326.052 311.006 326.052 311.006L324.733 311.865L319.579 310.305L335.298 324.544Z" fill="#EB9C72"/>
<path d="M154.428 141.01H151.593C151.593 141.01 149.32 168.584 159.984 181.694C170.645 194.803 181.307 208.787 205.253 213.506C205.253 213.506 208.749 222.595 218.363 222.944C227.977 223.293 231.122 211.933 228.5 207.389C225.881 202.844 216.091 195.503 206.127 208.787C206.127 208.787 180.084 204.066 169.596 188.511C159.109 172.956 153.768 153.29 154.428 141.01Z" fill="#0E1B2C"/>
<path d="M483.32 161.834H399.741V186.195H483.32V161.834Z" fill="#30589F"/>
<path d="M435.608 183.828L445.084 193.302L452.53 183.828H435.608Z" fill="#30589F"/>
<path d="M474.524 169.507H405.936V172.186H474.524V169.507Z" fill="white"/>
<path d="M441.53 176.207H406.545V178.277H441.53V176.207Z" fill="white"/>
<path d="M50.7513 177.483L55.0452 193.241C55.0452 193.241 48.4962 195.744 53.4044 203.638C58.3116 211.532 68.7869 222.056 68.7869 222.056L75.9102 219.049L90.0066 228.832C90.0066 228.832 81.3917 238.239 76.7719 235.994C72.1506 233.749 22.2923 207.596 50.7513 177.483Z" fill="#30589F"/>
<path d="M56.4299 191.589L52.2568 177.483L54.3431 176.53L58.0626 191.589H56.4299Z" fill="#30589F"/>
<path d="M78.2017 217.671L90.0067 227.511L91.8093 226.06L79.4716 216.625L78.2017 217.671Z" fill="#30589F"/>
</svg>
