<svg width="61" height="60" viewBox="0 0 61 60" fill="none" xmlns="http://www.w3.org/2000/svg">
<rect x="0.5" width="60" height="60" rx="8" fill="#30589F"/>
<path d="M23.8438 34.6597C23.8438 37.2397 25.8238 39.3197 28.2838 39.3197H33.3037C35.4437 39.3197 37.1838 37.4997 37.1838 35.2597C37.1838 32.8197 36.1238 31.9597 34.5438 31.3997L26.4837 28.5997C24.9037 28.0397 23.8438 27.1797 23.8438 24.7397C23.8438 22.4997 25.5837 20.6797 27.7237 20.6797H32.7437C35.2037 20.6797 37.1838 22.7597 37.1838 25.3397" stroke="white" stroke-width="2" stroke-linecap="round" stroke-linejoin="round"/>
<path d="M30.5 18V42" stroke="white" stroke-width="2" stroke-linecap="round" stroke-linejoin="round"/>
<path d="M30.5 50C41.5457 50 50.5 41.0457 50.5 30C50.5 18.9543 41.5457 10 30.5 10C19.4543 10 10.5 18.9543 10.5 30C10.5 41.0457 19.4543 50 30.5 50Z" stroke="white" stroke-width="2" stroke-linecap="round" stroke-linejoin="round"/>
</svg>
