<svg width="65" height="65" viewBox="0 0 65 65" fill="none" xmlns="http://www.w3.org/2000/svg">
<path d="M32.0798 64.4142C14.4066 64.4142 0.078125 50.1273 0.078125 32.5035C0.078125 14.8797 14.405 0.592773 32.0781 0.592773C49.7513 0.592773 64.0798 14.8797 64.0798 32.5035C64.0798 50.1273 49.7529 64.4142 32.0798 64.4142Z" fill="#233F7B"/>
<path d="M27.2029 51.7918H34.9919V32.3385H40.4267L41.0068 25.8256H34.9919C34.9919 25.8256 34.9919 23.3941 34.9919 22.1163C34.9919 20.5803 35.3013 19.9733 36.7912 19.9733C37.9884 19.9733 41.0068 19.9733 41.0068 19.9733V13.2139C41.0068 13.2139 36.5625 13.2139 35.6124 13.2139C29.8161 13.2139 27.2029 15.7593 27.2029 20.6323C27.2029 24.8765 27.2029 25.8256 27.2029 25.8256H23.1504V32.4207H27.2029V51.7918Z" fill="white"/>
</svg>
