<svg width="60" height="61" viewBox="0 0 60 61" fill="none" xmlns="http://www.w3.org/2000/svg">
<rect y="0.5" width="60" height="60" rx="8" fill="#30589F"/>
<path d="M44.5999 22.339V32.639C44.5999 38.799 41.0799 41.439 35.7999 41.439H18.2199C17.3199 41.439 16.4599 41.3591 15.6599 41.1791C15.1599 41.0991 14.6799 40.9591 14.2399 40.7991C11.2399 39.6791 9.41992 37.079 9.41992 32.639V22.339C9.41992 16.179 12.9399 13.5391 18.2199 13.5391H35.7999C40.2799 13.5391 43.4999 15.4391 44.3599 19.7791C44.4999 20.5791 44.5999 21.399 44.5999 22.339Z" stroke="white" stroke-width="2" stroke-miterlimit="10" stroke-linecap="round" stroke-linejoin="round"/>
<path d="M50.6021 28.3412V38.6412C50.6021 44.8012 47.0821 47.4412 41.8021 47.4412H24.2221C22.7421 47.4412 21.4021 47.2413 20.2421 46.8013C17.8621 45.9213 16.2421 44.1013 15.6621 41.1813C16.4621 41.3613 17.3221 41.4412 18.2221 41.4412H35.8021C41.0821 41.4412 44.6021 38.8012 44.6021 32.6412V22.3412C44.6021 21.4012 44.5221 20.5612 44.3621 19.7812C48.1621 20.5813 50.6021 23.2612 50.6021 28.3412Z" stroke="white" stroke-width="2" stroke-miterlimit="10" stroke-linecap="round" stroke-linejoin="round"/>
<path d="M26.9968 32.7788C29.9129 32.7788 32.2769 30.4148 32.2769 27.4988C32.2769 24.5827 29.9129 22.2188 26.9968 22.2188C24.0808 22.2188 21.7168 24.5827 21.7168 27.4988C21.7168 30.4148 24.0808 32.7788 26.9968 32.7788Z" stroke="white" stroke-width="2" stroke-miterlimit="10" stroke-linecap="round" stroke-linejoin="round"/>
<path d="M15.5596 23.0977V31.8977" stroke="white" stroke-width="2" stroke-miterlimit="10" stroke-linecap="round" stroke-linejoin="round"/>
<path d="M38.4434 23.1016V31.9016" stroke="white" stroke-width="2" stroke-miterlimit="10" stroke-linecap="round" stroke-linejoin="round"/>
</svg>
