<svg width="25" height="24" viewBox="0 0 25 24" fill="none" xmlns="http://www.w3.org/2000/svg">
<path d="M21.5977 5.98047C18.2677 5.65047 14.9177 5.48047 11.5777 5.48047C9.59766 5.48047 7.61766 5.58047 5.63766 5.78047L3.59766 5.98047" stroke="#BFBFBF" stroke-width="1.5" stroke-linecap="round" stroke-linejoin="round"/>
<path d="M9.09766 4.97L9.31766 3.66C9.47766 2.71 9.59766 2 11.2877 2H13.9077C15.5977 2 15.7277 2.75 15.8777 3.67L16.0977 4.97" stroke="#BFBFBF" stroke-width="1.5" stroke-linecap="round" stroke-linejoin="round"/>
<path d="M19.448 9.13965L18.798 19.2096C18.688 20.7796 18.598 21.9996 15.808 21.9996H9.38805C6.59805 21.9996 6.50805 20.7796 6.39805 19.2096L5.74805 9.13965" stroke="#BFBFBF" stroke-width="1.5" stroke-linecap="round" stroke-linejoin="round"/>
<path d="M10.9277 16.5H14.2577" stroke="#BFBFBF" stroke-width="1.5" stroke-linecap="round" stroke-linejoin="round"/>
<path d="M10.0977 12.5H15.0977" stroke="#BFBFBF" stroke-width="1.5" stroke-linecap="round" stroke-linejoin="round"/>
</svg>
