<svg width="65" height="65" viewBox="0 0 65 65" fill="none" xmlns="http://www.w3.org/2000/svg">
<path d="M32.781 64.1647C15.1078 64.1647 0.779297 49.8778 0.779297 32.254C0.779297 14.6301 15.1061 0.343262 32.7793 0.343262C50.4524 0.343262 64.7793 14.6301 64.7793 32.254C64.781 49.8778 50.4541 64.1647 32.781 64.1647Z" fill="#233F7B"/>
<mask id="path-2-inside-1_605_2094" fill="white">
<path d="M46.7029 16.6331H19.4345C18.1545 16.6187 17.0889 17.6566 17.0732 18.9331V46.2383C17.0883 47.5157 18.1537 48.5547 19.4345 48.5411H46.7029C47.9868 48.5572 49.056 47.5181 49.0732 46.2383V18.9312C49.056 17.652 47.9854 16.6142 46.7029 16.6311M44.3394 43.8208H39.5977V36.4161C39.5977 34.6501 39.5662 32.3772 37.1317 32.3772C34.6622 32.3772 34.2843 34.3009 34.2843 36.2873V43.82H29.5429V28.5931H34.0946V30.6739H34.1584C35.0853 29.0938 36.8149 28.1465 38.6496 28.2144C43.4551 28.2144 44.3413 31.3665 44.3413 35.4674L44.3394 43.8208ZM24.1929 26.5116C22.6834 26.5116 21.4408 25.2731 21.4408 23.7679C21.4408 22.2626 22.6829 21.024 24.1923 21.024C25.7017 21.024 26.9436 22.2623 26.9439 23.7673C26.9439 25.2723 25.7021 26.5115 24.1929 26.5116ZM26.5636 43.8208H21.8172V28.5931H26.5636V43.8208Z"/>
</mask>
<path d="M46.7029 16.6331H19.4345C18.1545 16.6187 17.0889 17.6566 17.0732 18.9331V46.2383C17.0883 47.5157 18.1537 48.5547 19.4345 48.5411H46.7029C47.9868 48.5572 49.056 47.5181 49.0732 46.2383V18.9312C49.056 17.652 47.9854 16.6142 46.7029 16.6311M44.3394 43.8208H39.5977V36.4161C39.5977 34.6501 39.5662 32.3772 37.1317 32.3772C34.6622 32.3772 34.2843 34.3009 34.2843 36.2873V43.82H29.5429V28.5931H34.0946V30.6739H34.1584C35.0853 29.0938 36.8149 28.1465 38.6496 28.2144C43.4551 28.2144 44.3413 31.3665 44.3413 35.4674L44.3394 43.8208ZM24.1929 26.5116C22.6834 26.5116 21.4408 25.2731 21.4408 23.7679C21.4408 22.2626 22.6829 21.024 24.1923 21.024C25.7017 21.024 26.9436 22.2623 26.9439 23.7673C26.9439 25.2723 25.7021 26.5115 24.1929 26.5116ZM26.5636 43.8208H21.8172V28.5931H26.5636V43.8208Z" fill="white"/>
<path d="M46.7029 18.4108C47.6848 18.4108 48.4807 17.6149 48.4807 16.6331C48.4807 15.6512 47.6848 14.8553 46.7029 14.8553V18.4108ZM19.4345 16.6331L19.4145 18.4107L19.4245 18.4108H19.4345V16.6331ZM17.0732 18.9331L15.2956 18.9113L15.2955 18.9222V18.9331H17.0732ZM17.0732 46.2383H15.2955V46.2488L15.2956 46.2593L17.0732 46.2383ZM19.4345 48.5411V46.7633H19.425L19.4155 46.7634L19.4345 48.5411ZM46.7029 48.5411L46.7253 46.7634L46.7141 46.7633H46.7029V48.5411ZM49.0732 46.2383L50.8509 46.2623L50.851 46.2503V46.2383H49.0732ZM49.0732 18.9312H50.851V18.9192L50.8509 18.9072L49.0732 18.9312ZM46.6796 14.8534C45.6978 14.8663 44.9124 15.6727 44.9253 16.6544C44.9382 17.6362 45.7445 18.4216 46.7263 18.4087L46.6796 14.8534ZM44.3394 43.8208V45.5985H46.1167L46.1172 43.8212L44.3394 43.8208ZM39.5977 43.8208H37.8199V45.5985H39.5977V43.8208ZM34.2843 43.82V45.5978H36.062V43.82H34.2843ZM29.5429 43.82H27.7652V45.5978H29.5429V43.82ZM29.5429 28.5931V26.8153H27.7652V28.5931H29.5429ZM34.0946 28.5931H35.8724V26.8153H34.0946V28.5931ZM34.0946 30.6739H32.3168V32.4517H34.0946V30.6739ZM34.1584 30.6739V32.4517H35.1766L35.6918 31.5734L34.1584 30.6739ZM38.6496 28.2144L38.5838 29.991L38.6167 29.9922H38.6496V28.2144ZM44.3413 35.4674L46.1191 35.4678V35.4674H44.3413ZM24.1929 26.5116V28.2894H24.1931L24.1929 26.5116ZM26.9439 23.7673H28.7217V23.7669L26.9439 23.7673ZM26.5636 43.8208V45.5985H28.3414V43.8208H26.5636ZM21.8172 43.8208H20.0394V45.5985H21.8172V43.8208ZM21.8172 28.5931V26.8153H20.0394V28.5931H21.8172ZM26.5636 28.5931H28.3414V26.8153H26.5636V28.5931ZM46.7029 14.8553H19.4345V18.4108H46.7029V14.8553ZM19.4545 14.8554C17.1981 14.83 15.3233 16.6491 15.2956 18.9113L18.8509 18.9548C18.8544 18.6641 19.1109 18.4073 19.4145 18.4107L19.4545 14.8554ZM15.2955 18.9331V46.2383H18.851V18.9331H15.2955ZM15.2956 46.2593C15.3222 48.5221 17.1962 50.3428 19.4534 50.3187L19.4155 46.7634C19.1113 46.7666 18.8543 46.5093 18.8509 46.2174L15.2956 46.2593ZM19.4345 50.3188H46.7029V46.7633H19.4345V50.3188ZM46.6806 50.3187C48.941 50.3471 50.8203 48.5279 50.8509 46.2623L47.2956 46.2144C47.2917 46.5084 47.0327 46.7673 46.7253 46.7634L46.6806 50.3187ZM50.851 46.2383V18.9312H47.2955V46.2383H50.851ZM50.8509 18.9072C50.8203 16.6403 48.9373 14.8238 46.6796 14.8534L46.7263 18.4087C47.0336 18.4047 47.2917 18.6638 47.2956 18.9552L50.8509 18.9072ZM44.3394 42.043H39.5977V45.5985H44.3394V42.043ZM41.3755 43.8208V36.4161H37.8199V43.8208H41.3755ZM41.3755 36.4161C41.3755 35.6125 41.3906 34.2425 40.9307 33.0803C40.6804 32.4476 40.2605 31.7893 39.5607 31.3015C38.8573 30.8113 38.0234 30.5994 37.1317 30.5994V34.155C37.2984 34.155 37.401 34.1745 37.4565 34.19C37.5089 34.2048 37.5268 34.2179 37.5275 34.2184C37.5285 34.2191 37.5354 34.2233 37.5494 34.2424C37.5653 34.2641 37.5929 34.3085 37.6246 34.3885C37.6926 34.5606 37.7506 34.8216 37.7839 35.1973C37.817 35.5698 37.8199 35.9689 37.8199 36.4161H41.3755ZM37.1317 30.5994C36.2839 30.5994 35.4866 30.7654 34.7855 31.1526C34.0739 31.5457 33.5686 32.1077 33.2261 32.7272C32.5873 33.8826 32.5065 35.2612 32.5065 36.2873H36.062C36.062 35.3271 36.1702 34.7505 36.3377 34.4476C36.3984 34.3378 36.4506 34.2948 36.5045 34.265C36.5688 34.2295 36.7448 34.155 37.1317 34.155V30.5994ZM32.5065 36.2873V43.82H36.062V36.2873H32.5065ZM34.2843 42.0423H29.5429V45.5978H34.2843V42.0423ZM31.3207 43.82V28.5931H27.7652V43.82H31.3207ZM29.5429 30.3709H34.0946V26.8153H29.5429V30.3709ZM32.3168 28.5931V30.6739H35.8724V28.5931H32.3168ZM34.0946 32.4517H34.1584V28.8961H34.0946V32.4517ZM35.6918 31.5734C36.2868 30.5591 37.4013 29.9472 38.5838 29.991L38.7154 26.4378C36.2285 26.3458 33.8838 27.6285 32.625 29.7744L35.6918 31.5734ZM38.6496 29.9922C40.6168 29.9922 41.3817 30.5995 41.7949 31.2531C42.3264 32.0938 42.5636 33.4561 42.5636 35.4674H46.1191C46.1191 33.3778 45.9132 31.1136 44.8002 29.3531C43.5689 27.4054 41.4879 26.4366 38.6496 26.4366V29.9922ZM42.5636 35.467L42.5616 43.8203L46.1172 43.8212L46.1191 35.4678L42.5636 35.467ZM24.1929 24.7338C23.66 24.7338 23.2185 24.286 23.2185 23.7679H19.663C19.663 26.2602 21.7069 28.2894 24.1929 28.2894V24.7338ZM23.2185 23.7679C23.2185 23.2491 23.66 22.8017 24.1923 22.8017V19.2462C21.7057 19.2462 19.663 21.2761 19.663 23.7679H23.2185ZM24.1923 22.8017C24.7246 22.8017 25.166 23.249 25.1661 23.7676L28.7217 23.7669C28.7212 21.2756 26.6787 19.2462 24.1923 19.2462V22.8017ZM25.1661 23.7673C25.1661 24.2864 24.7242 24.7338 24.1927 24.7338L24.1931 28.2894C26.68 28.2891 28.7217 26.2581 28.7217 23.7673H25.1661ZM26.5636 42.043H21.8172V45.5985H26.5636V42.043ZM23.595 43.8208V28.5931H20.0394V43.8208H23.595ZM21.8172 30.3709H26.5636V26.8153H21.8172V30.3709ZM24.7858 28.5931V43.8208H28.3414V28.5931H24.7858Z" fill="white" mask="url(#path-2-inside-1_605_2094)"/>
</svg>
