<svg width="102" height="57" viewBox="0 0 102 57" fill="none" xmlns="http://www.w3.org/2000/svg">
<path d="M99.7011 17.139L54.0961 0.658096C52.0979 -0.0638478 49.8971 -0.0638478 47.8992 0.658096L2.29414 17.139C1.0358 17.5937 0.222656 18.7521 0.222656 20.0901C0.222656 21.428 1.03577 22.5865 2.29414 23.0412L17.4538 28.5195V34.9767V43.8375C17.4538 47.3269 21.0901 50.5023 27.6929 52.7792C33.9342 54.9313 42.2106 56.1166 50.9976 56.1166C59.7846 56.1166 68.0609 54.9313 74.3022 52.7792C80.905 50.5023 84.5413 47.3269 84.5413 43.8375V34.9767V28.5196L99.7011 23.0412C100.959 22.5864 101.772 21.428 101.772 20.0901C101.772 18.7521 100.959 17.5938 99.7011 17.139ZM73.5934 50.7236C67.5743 52.7993 59.5496 53.9423 50.9976 53.9423C42.4456 53.9423 34.4209 52.7993 28.4018 50.7236C22.8261 48.801 19.6282 46.2912 19.6282 43.8376V39.4664C21.3549 41.1556 24.0781 42.6719 27.6929 43.9184C33.9343 46.0705 42.2107 47.2558 50.9976 47.2558C59.7846 47.2558 68.061 46.0705 74.3023 43.9184C77.9171 42.6719 80.6404 41.1557 82.3671 39.4664V43.8376C82.367 46.2912 79.1691 48.801 73.5934 50.7236ZM82.367 34.9767C82.367 37.4303 79.1691 39.9402 73.5934 41.8628C67.5743 43.9384 59.5496 45.0814 50.9976 45.0814C42.4456 45.0814 34.4209 43.9384 28.4018 41.8628C22.8261 39.9402 19.6282 37.4303 19.6282 34.9767V29.3053L47.8992 39.5219C48.8984 39.883 49.9478 40.0635 50.9977 40.0635C52.0473 40.0635 53.0972 39.883 54.0961 39.5219L82.3671 29.3053V34.9767H82.367ZM98.9621 20.9962L53.357 37.477C51.8355 38.0267 50.1596 38.0267 48.6381 37.477L3.03305 20.9962C2.44288 20.7829 2.39701 20.2487 2.39701 20.0901C2.39701 19.9314 2.44288 19.3972 3.03305 19.184L48.6382 2.70303C49.3989 2.42813 50.1982 2.29065 50.9976 2.29065C51.797 2.29065 52.5963 2.42813 53.357 2.7031L98.9621 19.184C99.5522 19.3972 99.5981 19.9314 99.5981 20.0901C99.5981 20.2487 99.5522 20.7829 98.9621 20.9962Z" fill="#282F39"/>
<path d="M98.9635 19.184L53.3584 2.70311C52.5976 2.42814 51.7984 2.29065 50.999 2.29065C50.1996 2.29065 49.4003 2.42813 48.6396 2.70303L3.03448 19.184C2.44431 19.3972 2.39844 19.9314 2.39844 20.0901C2.39844 20.2487 2.44431 20.7829 3.03448 20.9962L48.6396 37.477C50.1611 38.0267 51.8369 38.0267 53.3584 37.477L98.9635 20.9962C99.5536 20.7829 99.5995 20.2487 99.5995 20.0901C99.5995 19.9314 99.5536 19.3972 98.9635 19.184Z" fill="#474A56"/>
<path d="M98.9635 19.184L96.7433 18.3816L53.3584 34.0601C51.8369 34.6098 50.161 34.6098 48.6395 34.0601L5.25467 18.3816L3.03448 19.184C2.44431 19.3972 2.39844 19.9314 2.39844 20.09C2.39844 20.2487 2.44431 20.7829 3.03448 20.9961L48.6396 37.477C50.1611 38.0267 51.8369 38.0267 53.3584 37.477L98.9635 20.9961C99.5536 20.7829 99.5995 20.2487 99.5995 20.09C99.5995 19.9314 99.5536 19.3972 98.9635 19.184Z" fill="#3B3D4A"/>
<path d="M50.9983 47.2558C42.2114 47.2558 33.9349 46.0705 27.6936 43.9184C24.0789 42.6719 21.3556 41.1557 19.6289 39.4664V43.8376C19.6289 46.2912 22.8267 48.801 28.4025 50.7236C34.4216 52.7993 42.4463 53.9423 50.9983 53.9423C59.5503 53.9423 67.575 52.7993 73.5941 50.7236C79.1698 48.801 82.3677 46.2912 82.3677 43.8376V39.4664C80.641 41.1556 77.9178 42.6719 74.3029 43.9184C68.0617 46.0705 59.7853 47.2558 50.9983 47.2558Z" fill="#FFAF12"/>
<path d="M50.9984 40.0635C49.9485 40.0635 48.8991 39.883 47.8999 39.5219L19.6289 29.3054V34.9767C19.6289 37.4303 22.8267 39.9402 28.4025 41.8628C34.4216 43.9384 42.4463 45.0815 50.9983 45.0815C59.5503 45.0815 67.575 43.9384 73.5941 41.8628C79.1698 39.9402 82.3677 37.4303 82.3677 34.9767V29.3054L54.0967 39.5219C53.0979 39.883 52.048 40.0635 50.9984 40.0635Z" fill="#3B3D4A"/>
<path d="M29.0848 44.3715C28.6104 44.2254 28.145 44.0748 27.6915 43.9184C25.3323 43.1049 23.3557 42.1758 21.7852 41.1594V47.3682C23.2833 48.584 25.5245 49.732 28.4003 50.7237C28.6254 50.8013 28.8542 50.8772 29.0848 50.9522L29.0848 44.3715Z" fill="white"/>
<path d="M74.3032 43.9184C72.0527 44.6944 69.5364 45.344 66.8281 45.8584V52.5065C69.2759 52.0251 71.551 51.4283 73.5944 50.7236C79.1701 48.801 82.3679 46.2912 82.3679 43.8376V39.4664C80.6413 41.1557 77.918 42.6719 74.3032 43.9184Z" fill="#A2553B"/>
<path d="M60.9258 37.0539V44.5443C65.6567 44.0156 69.9859 43.107 73.5939 41.8628C79.1696 39.9402 82.3674 37.4303 82.3674 34.9767V29.3054L60.9258 37.0539Z" fill="#2F313A"/>
</svg>
