<svg width="36" height="36" viewBox="0 0 36 36" fill="none" xmlns="http://www.w3.org/2000/svg">
<path d="M32.269 17.6013C32.269 9.51938 25.6832 2.93359 17.6013 2.93359C9.51938 2.93359 2.93359 9.51938 2.93359 17.6013C2.93359 21.8549 4.76705 25.6832 7.67126 28.3674C7.67126 28.382 7.67126 28.382 7.65659 28.3967C7.80327 28.5434 7.97928 28.6607 8.12595 28.7927C8.21396 28.8661 8.2873 28.9394 8.37531 28.9981C8.63932 29.2181 8.93268 29.4234 9.21136 29.6288C9.31404 29.7021 9.40204 29.7608 9.50472 29.8341C9.7834 30.0248 10.0768 30.2008 10.3848 30.3622C10.4875 30.4208 10.6048 30.4942 10.7075 30.5528C11.0008 30.7142 11.3088 30.8609 11.6315 30.9929C11.7489 31.0515 11.8662 31.1102 11.9836 31.1542C12.3062 31.2862 12.6289 31.4036 12.9516 31.5062C13.069 31.5502 13.1863 31.5942 13.3036 31.6236C13.6557 31.7263 14.0077 31.8143 14.3597 31.9023C14.4624 31.9316 14.5651 31.9609 14.6824 31.9756C15.0931 32.0636 15.5038 32.1223 15.9292 32.1663C15.9878 32.1663 16.0465 32.181 16.1052 32.1956C16.6039 32.2396 17.1026 32.269 17.6013 32.269C18.1 32.269 18.5987 32.2396 19.0827 32.1956C19.1414 32.1956 19.2001 32.181 19.2587 32.1663C19.6841 32.1223 20.0948 32.0636 20.5055 31.9756C20.6082 31.9609 20.7108 31.9169 20.8282 31.9023C21.1802 31.8143 21.5469 31.7409 21.8842 31.6236C22.0016 31.5796 22.1189 31.5356 22.2363 31.5062C22.559 31.3889 22.8963 31.2862 23.2043 31.1542C23.3217 31.1102 23.439 31.0515 23.5564 30.9929C23.8644 30.8609 24.1724 30.7142 24.4804 30.5528C24.5978 30.4942 24.7004 30.4208 24.8031 30.3622C25.0965 30.1862 25.3898 30.0248 25.6832 29.8341C25.7858 29.7755 25.8739 29.7021 25.9765 29.6288C26.2699 29.4234 26.5486 29.2181 26.8126 28.9981C26.9006 28.9247 26.9739 28.8514 27.0619 28.7927C27.2233 28.6607 27.3846 28.5287 27.5313 28.3967C27.5313 28.382 27.5313 28.382 27.5166 28.3674C30.4355 25.6832 32.269 21.8549 32.269 17.6013ZM24.8471 24.8911C20.8722 22.2216 14.3597 22.2216 10.3554 24.8911C9.71006 25.3165 9.18203 25.8152 8.742 26.3579C6.51251 24.0991 5.13375 21.0042 5.13375 17.6013C5.13375 10.7221 10.7221 5.13375 17.6013 5.13375C24.4804 5.13375 30.0688 10.7221 30.0688 17.6013C30.0688 21.0042 28.6901 24.0991 26.4606 26.3579C26.0352 25.8152 25.4925 25.3165 24.8471 24.8911Z" fill="#BFBFBF"/>
<path d="M17.6019 10.1641C14.5657 10.1641 12.1016 12.6282 12.1016 15.6644C12.1016 18.642 14.4337 21.0622 17.5286 21.1502C17.5726 21.1502 17.6313 21.1502 17.6606 21.1502C17.69 21.1502 17.734 21.1502 17.7633 21.1502C17.778 21.1502 17.7926 21.1502 17.7926 21.1502C20.7555 21.0475 23.0877 18.642 23.1023 15.6644C23.1023 12.6282 20.6382 10.1641 17.6019 10.1641Z" fill="#BFBFBF"/>
</svg>
