<svg width="25" height="25" viewBox="0 0 25 25" fill="none" xmlns="http://www.w3.org/2000/svg">
<path d="M21.2005 5.96438C19.5905 5.80438 17.9805 5.68438 16.3605 5.59438V5.58438L16.1405 4.28438C15.9905 3.36438 15.7705 1.98438 13.4305 1.98438H10.8105C8.48053 1.98438 8.26053 3.30438 8.10053 4.27438L7.89053 5.55438C6.96053 5.61438 6.03053 5.67438 5.10053 5.76438L3.06053 5.96438C2.64053 6.00438 2.34053 6.37438 2.38053 6.78438C2.42053 7.19438 2.78053 7.49438 3.20053 7.45438L5.24053 7.25438C10.4805 6.73438 15.7605 6.93438 21.0605 7.46438C21.0905 7.46438 21.1105 7.46438 21.1405 7.46438C21.5205 7.46438 21.8505 7.17438 21.8905 6.78438C21.9205 6.37438 21.6205 6.00438 21.2005 5.96438Z" fill="white"/>
<path d="M19.3626 8.87438C19.1226 8.62438 18.7926 8.48438 18.4526 8.48438H5.81256C5.47256 8.48438 5.13256 8.62438 4.90256 8.87438C4.67256 9.12438 4.54256 9.46437 4.56256 9.81437L5.18256 20.0744C5.29256 21.5944 5.43256 23.4944 8.92256 23.4944H15.3426C18.8326 23.4944 18.9726 21.6044 19.0826 20.0744L19.7026 9.82438C19.7226 9.46438 19.5926 9.12438 19.3626 8.87438ZM13.7926 18.4844H10.4626C10.0526 18.4844 9.71256 18.1444 9.71256 17.7344C9.71256 17.3244 10.0526 16.9844 10.4626 16.9844H13.7926C14.2026 16.9844 14.5426 17.3244 14.5426 17.7344C14.5426 18.1444 14.2026 18.4844 13.7926 18.4844ZM14.6326 14.4844H9.63256C9.22256 14.4844 8.88256 14.1444 8.88256 13.7344C8.88256 13.3244 9.22256 12.9844 9.63256 12.9844H14.6326C15.0426 12.9844 15.3826 13.3244 15.3826 13.7344C15.3826 14.1444 15.0426 14.4844 14.6326 14.4844Z" fill="white"/>
</svg>
