<svg width="59" height="31" viewBox="0 0 59 31" fill="none" xmlns="http://www.w3.org/2000/svg">
<path d="M58.6335 0.340332H0.77002V30.9097H58.6335V0.340332Z" fill="#F7F7F7"/>
<path d="M17.1465 0.340332H0.77002V30.9097H17.1465V0.340332Z" fill="#FE0000"/>
<path d="M58.6328 0.340332H42.2563V30.9097H58.6328V0.340332Z" fill="#FE0000"/>
<path d="M30.0094 20.2305C30.0599 20.2213 33.9444 20.7045 33.9444 20.7045C33.9444 20.7045 33.5181 19.8115 33.5405 19.4201C33.5854 18.9186 37.4558 15.6526 37.4558 15.6526C37.4558 15.6526 36.5303 15.1939 36.4966 15.0104C36.2947 14.5333 37.2034 12.1297 37.2034 12.1297C37.2034 12.1297 35.1167 12.7902 34.8811 12.6618C34.6455 12.5334 34.3426 11.3591 34.3426 11.3591C34.3426 11.3591 32.5588 13.6342 32.3906 13.726C32.2223 13.8177 31.9026 13.671 31.9362 13.3223C31.9699 12.9737 32.8113 8.66186 32.8113 8.66186C32.8113 8.66186 31.5492 9.46918 31.2967 9.41414C30.7414 9.19394 29.7017 6.42334 29.7017 6.42334C29.7017 6.42334 28.662 9.19394 28.1067 9.41413C27.8543 9.46917 26.5922 8.66184 26.5922 8.66184C26.5922 8.66184 27.4336 12.9737 27.4672 13.3223C27.5009 13.6709 27.1811 13.8177 27.0129 13.726C26.8446 13.6342 25.0608 11.359 25.0608 11.359C25.0608 11.359 24.7579 12.5333 24.5223 12.6618C24.2867 12.7902 22.2 12.1297 22.2 12.1297C22.2 12.1297 23.1088 14.5333 22.9068 15.0104C22.8732 15.1938 21.9476 15.6525 21.9476 15.6525C21.9476 15.6525 25.8181 18.9185 25.8629 19.4201C25.8854 19.8115 25.4591 20.7045 25.4591 20.7045C25.4591 20.7045 29.3435 20.2213 29.394 20.2304C29.4445 20.2396 29.4866 20.2855 29.5202 20.3864C29.5539 20.4873 29.352 24.8267 29.352 24.8267H29.7017H30.0515C30.0515 24.8267 29.8495 20.4873 29.8832 20.3864C29.9168 20.2855 29.9589 20.2396 30.0094 20.2305Z" fill="#FB0708"/>
</svg>
