<svg width="386" height="208" viewBox="0 0 386 208" fill="none" xmlns="http://www.w3.org/2000/svg">
<path d="M87.9674 25.2267C91.2076 23.0621 95.4326 23.0621 98.6729 25.2267L106.316 30.3324C108.44 31.7517 111.042 32.2691 113.548 31.7709L122.563 29.9787C126.385 29.2188 130.288 30.8357 132.453 34.0755L137.56 41.7174C138.98 43.8416 141.185 45.3151 143.691 45.8138L152.706 47.6079C156.528 48.3685 159.515 51.356 160.276 55.1778L162.07 64.1925C162.569 66.6983 164.042 68.9035 166.166 70.3232L173.808 75.4305C177.048 77.5958 178.665 81.4992 177.905 85.3211L176.113 94.3362C175.615 96.8421 176.132 99.4433 177.551 101.568L182.657 109.211C184.822 112.451 184.822 116.676 182.657 119.916L177.551 127.559C176.132 129.684 175.615 132.285 176.113 134.791L177.905 143.806C178.665 147.628 177.048 151.531 173.808 153.697L166.166 158.804C164.042 160.224 162.569 162.429 162.07 164.935L160.276 173.949C159.515 177.771 156.528 180.759 152.706 181.519L143.691 183.313C141.185 183.812 138.98 185.286 137.56 187.41L132.453 195.052C130.288 198.291 126.385 199.908 122.563 199.148L113.548 197.356C111.042 196.858 108.44 197.375 106.316 198.795L98.6729 203.9C95.4326 206.065 91.2076 206.065 87.9674 203.9L80.3244 198.795C78.1999 197.375 75.5987 196.858 73.0927 197.356L64.0777 199.148C60.2557 199.908 56.3523 198.291 54.1871 195.052L49.0798 187.41C47.6601 185.286 45.4549 183.812 42.9491 183.313L33.9344 181.519C30.1126 180.759 27.1251 177.771 26.3645 173.949L24.5704 164.935C24.0716 162.429 22.5982 160.224 20.4739 158.804L12.832 153.697C9.59224 151.531 7.9754 147.628 8.73522 143.806L10.5274 134.791C11.0256 132.285 10.5082 129.684 9.08897 127.559L3.98327 119.916C1.81868 116.676 1.81868 112.451 3.98327 109.211L9.08897 101.568C10.5082 99.4433 11.0256 96.8421 10.5274 94.3362L8.73522 85.3211C7.9754 81.4992 9.59223 77.5958 12.832 75.4305L20.4739 70.3232C22.5982 68.9035 24.0716 66.6983 24.5704 64.1925L26.3645 55.1778C27.1251 51.356 30.1126 48.3685 33.9344 47.6079L42.9491 45.8138C45.4549 45.3151 47.6601 43.8416 49.0798 41.7174L54.1871 34.0755C56.3523 30.8357 60.2557 29.2188 64.0777 29.9787L73.0927 31.7709C75.5987 32.2691 78.1999 31.7517 80.3244 30.3324L87.9674 25.2267Z" fill="#61CAF2"/>
<line x1="44.7322" y1="71.4551" x2="51.8534" y2="72.6877" stroke="#0E1B2C" stroke-width="2.40905" stroke-linecap="round"/>
<line x1="123.777" y1="152.203" x2="130.899" y2="153.436" stroke="#0E1B2C" stroke-width="2.40905" stroke-linecap="round"/>
<line x1="52.9266" y1="82.7903" x2="53.9601" y2="75.6374" stroke="#0E1B2C" stroke-width="2.40905" stroke-linecap="round"/>
<line x1="131.972" y1="163.538" x2="133.005" y2="156.385" stroke="#0E1B2C" stroke-width="2.40905" stroke-linecap="round"/>
<line x1="55.2671" y1="70.6235" x2="56.8061" y2="63.5621" stroke="#0E1B2C" stroke-width="2.40905" stroke-linecap="round"/>
<line x1="134.313" y1="151.371" x2="135.851" y2="144.31" stroke="#0E1B2C" stroke-width="2.40905" stroke-linecap="round"/>
<line x1="57.5586" y1="73.6067" x2="64.7045" y2="74.6876" stroke="#0E1B2C" stroke-width="2.40905" stroke-linecap="round"/>
<line x1="136.604" y1="155.04" x2="143.75" y2="156.121" stroke="#0E1B2C" stroke-width="2.40905" stroke-linecap="round"/>
<path d="M100.883 90.4994C109.698 90.9759 114.119 94.2319 114.119 106.329V122.212C114.119 132.801 111.471 138.095 98.2356 138.095H82.3527C69.1169 138.095 66.4697 132.801 66.4697 122.212V106.329C66.4697 94.2584 70.8905 90.9759 79.7055 90.4994" fill="#0E1B2C"/>
<path d="M100.883 90.4994C109.698 90.9759 114.119 94.2319 114.119 106.329V122.212C114.119 132.801 111.471 138.095 98.2356 138.095H82.3527C69.1169 138.095 66.4697 132.801 66.4697 122.212V106.329C66.4697 94.2584 70.8905 90.9759 79.7055 90.4994" stroke="#0E1B2C" stroke-width="3.97074" stroke-miterlimit="10" stroke-linecap="round" stroke-linejoin="round"/>
<path d="M83.1736 118.771L87.1443 122.742L97.7329 112.153" stroke="#61CAF2" stroke-width="3.97074" stroke-linecap="round" stroke-linejoin="round"/>
<path d="M84.9999 95.7407H95.5885C100.883 95.7407 100.883 93.0936 100.883 90.4464C100.883 85.1521 98.2357 85.1521 95.5885 85.1521H84.9999C82.3527 85.1521 79.7056 85.1521 79.7056 90.4464C79.7056 95.7407 82.3527 95.7407 84.9999 95.7407Z" fill="#61CAF2" stroke="#0E1B2C" stroke-width="3.97074" stroke-miterlimit="10" stroke-linecap="round" stroke-linejoin="round"/>
<path d="M300.686 7.19955C302.495 7.19955 303.962 5.73271 303.962 3.92326C303.962 2.11382 302.495 0.646973 300.686 0.646973C298.876 0.646973 297.409 2.11382 297.409 3.92326C297.409 5.73271 298.876 7.19955 300.686 7.19955Z" fill="#61CAF2"/>
<path d="M331.237 3.92326C331.237 5.73407 329.77 7.19955 327.961 7.19955C326.15 7.19955 324.685 5.73196 324.685 3.92326C324.685 2.11246 326.152 0.646973 327.961 0.646973C329.77 0.646973 331.237 2.11457 331.237 3.92326Z" fill="#61CAF2"/>
<path d="M355.235 7.19955C357.044 7.19955 358.511 5.73271 358.511 3.92326C358.511 2.11382 357.044 0.646973 355.235 0.646973C353.425 0.646973 351.958 2.11382 351.958 3.92326C351.958 5.73271 353.425 7.19955 355.235 7.19955Z" fill="#61CAF2"/>
<path d="M385.785 3.92326C385.785 5.73407 384.317 7.19955 382.508 7.19955C380.698 7.19955 379.232 5.73196 379.232 3.92326C379.232 2.11246 380.7 0.646973 382.508 0.646973C384.317 0.646973 385.785 2.11457 385.785 3.92326Z" fill="#61CAF2"/>
<path d="M301.007 32.7987C302.807 32.6199 304.122 31.0154 303.943 29.2148C303.765 27.4142 302.16 26.0995 300.359 26.2782C298.559 26.457 297.244 28.0616 297.423 29.8622C297.602 31.6627 299.206 32.9775 301.007 32.7987Z" fill="#61CAF2"/>
<path d="M331.237 29.5061C331.237 31.317 329.77 32.7824 327.961 32.7824C326.15 32.7824 324.685 31.3148 324.685 29.5061C324.685 27.6953 326.152 26.2299 327.961 26.2299C329.77 26.2299 331.237 27.6953 331.237 29.5061Z" fill="#61CAF2"/>
<path d="M355.491 32.773C357.294 32.6242 358.635 31.0418 358.487 29.2385C358.338 27.4352 356.755 26.0939 354.952 26.2427C353.149 26.3914 351.808 27.9738 351.956 29.7771C352.105 31.5804 353.687 32.9217 355.491 32.773Z" fill="#61CAF2"/>
<path d="M385.785 29.5061C385.785 31.317 384.317 32.7824 382.508 32.7824C380.698 32.7824 379.232 31.3148 379.232 29.5061C379.232 27.6953 380.7 26.2299 382.508 26.2299C384.317 26.2299 385.785 27.6953 385.785 29.5061Z" fill="#61CAF2"/>
<path d="M303.918 55.2992C304.046 53.4943 302.687 51.927 300.882 51.7985C299.077 51.6701 297.51 53.0291 297.381 54.834C297.253 56.6389 298.612 58.2063 300.417 58.3347C302.222 58.4632 303.789 57.1042 303.918 55.2992Z" fill="#61CAF2"/>
<path d="M331.237 55.0889C331.237 56.8998 329.77 58.3652 327.961 58.3652C326.15 58.3652 324.685 56.8976 324.685 55.0889C324.685 53.2802 326.152 51.8127 327.961 51.8127C329.77 51.8105 331.237 53.2781 331.237 55.0889Z" fill="#61CAF2"/>
<path d="M358.523 55.2718C358.635 53.4658 357.262 51.9108 355.456 51.7986C353.65 51.6864 352.095 53.0595 351.983 54.8656C351.871 56.6716 353.244 58.2266 355.05 58.3388C356.856 58.4509 358.411 57.0778 358.523 55.2718Z" fill="#61CAF2"/>
<path d="M385.785 55.0889C385.785 56.8998 384.317 58.3652 382.508 58.3652C380.698 58.3652 379.232 56.8976 379.232 55.0889C379.232 53.2802 380.7 51.8127 382.508 51.8127C384.317 51.8105 385.785 53.2781 385.785 55.0889Z" fill="#61CAF2"/>
<path d="M303.964 80.672C303.964 82.4828 302.496 83.9483 300.688 83.9483C298.877 83.9483 297.411 82.4807 297.411 80.672C297.411 78.8612 298.879 77.3957 300.688 77.3957C302.496 77.3936 303.964 78.8612 303.964 80.672Z" fill="#61CAF2"/>
<path d="M331.237 80.672C331.237 82.4828 329.77 83.9483 327.961 83.9483C326.15 83.9483 324.685 82.4807 324.685 80.672C324.685 78.8612 326.152 77.3957 327.961 77.3957C329.77 77.3936 331.237 78.8612 331.237 80.672Z" fill="#61CAF2"/>
<path d="M358.511 80.672C358.511 82.4828 357.043 83.9483 355.235 83.9483C353.424 83.9483 351.958 82.4807 351.958 80.672C351.958 78.8612 353.426 77.3957 355.235 77.3957C357.043 77.3936 358.511 78.8612 358.511 80.672Z" fill="#61CAF2"/>
<path d="M385.785 80.672C385.785 82.4828 384.317 83.9483 382.508 83.9483C380.698 83.9483 379.232 82.4807 379.232 80.672C379.232 78.8612 380.7 77.3957 382.508 77.3957C384.317 77.3936 385.785 78.8612 385.785 80.672Z" fill="#61CAF2"/>
<path d="M300.686 109.531C302.495 109.531 303.962 108.064 303.962 106.255C303.962 104.445 302.495 102.979 300.686 102.979C298.876 102.979 297.409 104.445 297.409 106.255C297.409 108.064 298.876 109.531 300.686 109.531Z" fill="#61CAF2"/>
<path d="M331.237 106.255C331.237 108.066 329.77 109.531 327.961 109.531C326.15 109.531 324.685 108.064 324.685 106.255C324.685 104.446 326.152 102.979 327.961 102.979C329.77 102.976 331.237 104.444 331.237 106.255Z" fill="#61CAF2"/>
<path d="M355.235 109.531C357.044 109.531 358.511 108.064 358.511 106.255C358.511 104.445 357.044 102.979 355.235 102.979C353.425 102.979 351.958 104.445 351.958 106.255C351.958 108.064 353.425 109.531 355.235 109.531Z" fill="#61CAF2"/>
<path d="M385.785 106.255C385.785 108.066 384.317 109.531 382.508 109.531C380.698 109.531 379.232 108.064 379.232 106.255C379.232 104.446 380.7 102.979 382.508 102.979C384.317 102.976 385.785 104.444 385.785 106.255Z" fill="#61CAF2"/>
<path d="M300.686 135.112C302.495 135.112 303.962 133.645 303.962 131.835C303.962 130.026 302.495 128.559 300.686 128.559C298.876 128.559 297.409 130.026 297.409 131.835C297.409 133.645 298.876 135.112 300.686 135.112Z" fill="#61CAF2"/>
<path d="M331.237 131.835C331.237 133.646 329.77 135.112 327.961 135.112C326.15 135.112 324.685 133.644 324.685 131.835C324.685 130.025 326.152 128.559 327.961 128.559C329.77 128.559 331.237 130.027 331.237 131.835Z" fill="#61CAF2"/>
<path d="M355.235 135.112C357.044 135.112 358.511 133.645 358.511 131.835C358.511 130.026 357.044 128.559 355.235 128.559C353.425 128.559 351.958 130.026 351.958 131.835C351.958 133.645 353.425 135.112 355.235 135.112Z" fill="#61CAF2"/>
<path d="M385.785 131.835C385.785 133.646 384.317 135.112 382.508 135.112C380.698 135.112 379.232 133.644 379.232 131.835C379.232 130.025 380.7 128.559 382.508 128.559C384.317 128.559 385.785 130.027 385.785 131.835Z" fill="#61CAF2"/>
</svg>
