<svg width="424" height="242" viewBox="0 0 424 242" fill="none" xmlns="http://www.w3.org/2000/svg">
<path d="M88.055 60.0222C91.2953 57.8576 95.5203 57.8576 98.7605 60.0222L106.403 65.1279C108.528 66.5472 111.129 67.0646 113.635 66.5664L122.65 64.7742C126.472 64.0143 130.376 65.6312 132.541 68.871L137.648 76.5129C139.068 78.6371 141.273 80.1106 143.779 80.6093L152.794 82.4034C156.615 83.164 159.603 86.1515 160.363 89.9733L162.158 98.988C162.656 101.494 164.13 103.699 166.254 105.119L173.896 110.226C177.136 112.391 178.753 116.295 177.993 120.117L176.2 129.132C175.702 131.638 176.22 134.239 177.639 136.363L182.745 144.006C184.909 147.247 184.909 151.472 182.745 154.712L177.639 162.355C176.22 164.479 175.702 167.081 176.2 169.586L177.993 178.602C178.753 182.423 177.136 186.327 173.896 188.492L166.254 193.599C164.13 195.019 162.656 197.224 162.158 199.73L160.363 208.745C159.603 212.567 156.615 215.554 152.794 216.315L143.779 218.109C141.273 218.608 139.068 220.081 137.648 222.205L132.541 229.847C130.376 233.087 126.472 234.704 122.65 233.944L113.635 232.152C111.129 231.654 108.528 232.171 106.403 233.59L98.7605 238.696C95.5203 240.861 91.2953 240.861 88.055 238.696L80.4121 233.59C78.2875 232.171 75.6863 231.654 73.1804 232.152L64.1653 233.944C60.3434 234.704 56.44 233.087 54.2747 229.847L49.1674 222.205C47.7477 220.081 45.5425 218.608 43.0367 218.109L34.022 216.315C30.2002 215.554 27.2127 212.567 26.4521 208.745L24.658 199.73C24.1593 197.224 22.6858 195.019 20.5616 193.599L12.9197 188.492C9.67988 186.327 8.06304 182.423 8.82287 178.602L10.6151 169.586C11.1133 167.081 10.5959 164.479 9.17661 162.355L4.07092 154.712C1.90633 151.472 1.90633 147.247 4.07091 144.006L9.17661 136.363C10.5959 134.239 11.1133 131.638 10.6151 129.132L8.82286 120.117C8.06304 116.295 9.67988 112.391 12.9197 110.226L20.5616 105.119C22.6858 103.699 24.1593 101.494 24.658 98.988L26.4521 89.9733C27.2127 86.1515 30.2002 83.164 34.022 82.4034L43.0367 80.6093C45.5425 80.1106 47.7477 78.6371 49.1674 76.5129L54.2747 68.871C56.44 65.6312 60.3434 64.0143 64.1653 64.7742L73.1804 66.5664C75.6863 67.0646 78.2875 66.5472 80.4121 65.1279L88.055 60.0222Z" fill="#2B7CD6"/>
<line x1="44.82" y1="106.251" x2="51.9413" y2="107.483" stroke="white" stroke-width="2.40905" stroke-linecap="round"/>
<line x1="123.865" y1="186.999" x2="130.986" y2="188.231" stroke="white" stroke-width="2.40905" stroke-linecap="round"/>
<line x1="53.0143" y1="117.586" x2="54.0477" y2="110.433" stroke="white" stroke-width="2.40905" stroke-linecap="round"/>
<line x1="132.06" y1="198.334" x2="133.093" y2="191.181" stroke="white" stroke-width="2.40905" stroke-linecap="round"/>
<line x1="55.355" y1="105.419" x2="56.894" y2="98.3576" stroke="white" stroke-width="2.40905" stroke-linecap="round"/>
<line x1="134.4" y1="186.167" x2="135.939" y2="179.106" stroke="white" stroke-width="2.40905" stroke-linecap="round"/>
<line x1="57.6465" y1="108.402" x2="64.7924" y2="109.483" stroke="white" stroke-width="2.40905" stroke-linecap="round"/>
<line x1="136.691" y1="189.835" x2="143.837" y2="190.916" stroke="white" stroke-width="2.40905" stroke-linecap="round"/>
<path d="M116.854 141.125V154.361C116.854 167.596 111.559 172.891 98.3237 172.891H82.4407C69.205 172.891 63.9106 167.596 63.9106 154.361V138.478C63.9106 125.242 69.205 119.948 82.4407 119.948H95.6765" fill="white"/>
<path d="M116.854 141.125H106.265C98.3234 141.125 95.6763 138.478 95.6763 130.536V119.948L116.854 141.125Z" stroke="#2B7CD6" stroke-width="3.97074" stroke-linecap="round" stroke-linejoin="round"/>
<path d="M77.1465 149.066H93.0294" stroke="#2B7CD6" stroke-width="3.97074" stroke-linecap="round" stroke-linejoin="round"/>
<path d="M77.1465 159.655H87.7351" stroke="#2B7CD6" stroke-width="3.97074" stroke-linecap="round" stroke-linejoin="round"/>
<circle cx="322.418" cy="85.9576" r="134.918" fill="#61CAF2"/>
</svg>
