<svg width="25" height="24" viewBox="0 0 25 24" fill="none" xmlns="http://www.w3.org/2000/svg">
<path d="M11.3945 2H9.39453C4.39453 2 2.39453 4 2.39453 9V15C2.39453 20 4.39453 22 9.39453 22H15.3945C20.3945 22 22.3945 20 22.3945 15V13" stroke="#BFBFBF" stroke-width="1.5" stroke-linecap="round" stroke-linejoin="round"/>
<path d="M16.4344 3.02025L8.55441 10.9003C8.25441 11.2003 7.95441 11.7903 7.89441 12.2203L7.46441 15.2303C7.30441 16.3203 8.07441 17.0803 9.16441 16.9303L12.1744 16.5003C12.5944 16.4403 13.1844 16.1403 13.4944 15.8403L21.3744 7.96025C22.7344 6.60025 23.3744 5.02025 21.3744 3.02025C19.3744 1.02025 17.7944 1.66025 16.4344 3.02025Z" stroke="#BFBFBF" stroke-width="1.5" stroke-miterlimit="10" stroke-linecap="round" stroke-linejoin="round"/>
<path d="M15.3066 4.15039C15.9766 6.54039 17.8466 8.41039 20.2466 9.09039" stroke="#BFBFBF" stroke-width="1.5" stroke-miterlimit="10" stroke-linecap="round" stroke-linejoin="round"/>
</svg>
