<svg width="32" height="32" viewBox="0 0 32 32" fill="none" xmlns="http://www.w3.org/2000/svg">
<path d="M10.8802 8.86646H21.1068C21.9602 8.86646 22.6535 9.55979 22.6535 10.4131V12.1198C22.6535 12.7465 22.2668 13.5198 21.8802 13.9065L18.5468 16.8531C18.0802 17.2398 17.7735 18.0131 17.7735 18.6398V21.9731C17.7735 22.4398 17.4668 23.0531 17.0802 23.2931L16.0002 23.9731C14.9868 24.5998 13.6002 23.8931 13.6002 22.6531V18.5465C13.6002 17.9998 13.2935 17.3065 12.9735 16.9198L10.0268 13.8131C9.64016 13.4398 9.3335 12.7331 9.3335 12.2665V10.4931C9.3335 9.55979 10.0268 8.86646 10.8802 8.86646Z" stroke="#0E1B2C" stroke-width="1.5" stroke-miterlimit="10" stroke-linecap="round" stroke-linejoin="round"/>
<path d="M11.9998 29.3334H19.9998C26.6665 29.3334 29.3332 26.6667 29.3332 20.0001V12.0001C29.3332 5.33341 26.6665 2.66675 19.9998 2.66675H11.9998C5.33317 2.66675 2.6665 5.33341 2.6665 12.0001V20.0001C2.6665 26.6667 5.33317 29.3334 11.9998 29.3334Z" stroke="#0E1B2C" stroke-width="1.5" stroke-linecap="round" stroke-linejoin="round"/>
</svg>
