<svg width="65" height="65" viewBox="0 0 65 65" fill="none" xmlns="http://www.w3.org/2000/svg">
<path d="M32.1201 64.4142C14.447 64.4142 0.118408 50.1273 0.118408 32.5035C0.118408 14.8797 14.4453 0.592773 32.1201 0.592773C49.7933 0.592773 64.1218 14.8797 64.1218 32.5035C64.1218 50.1273 49.7949 64.4142 32.1201 64.4142Z" fill="#233F7B"/>
<path d="M32.1198 18.1579C36.8046 18.1579 37.3595 18.1763 39.2092 18.2602C40.9194 18.3373 41.8493 18.6224 42.4681 18.8622C43.287 19.1791 43.8722 19.5581 44.486 20.1701C45.0997 20.7822 45.4798 21.3657 45.7993 22.1823C46.0397 22.7994 46.3256 23.7251 46.4029 25.4321C46.487 27.2767 46.5055 27.83 46.5055 32.5018C46.5055 37.1735 46.487 37.7269 46.4029 39.5714C46.3256 41.2785 46.0397 42.2041 45.7993 42.8212C45.4815 43.6378 45.1014 44.2214 44.486 44.8334C43.8722 45.4455 43.287 45.8245 42.4681 46.1431C41.8493 46.3829 40.9194 46.6679 39.2092 46.7451C37.3595 46.8289 36.8046 46.8473 32.1198 46.8473C27.435 46.8473 26.8801 46.8289 25.0304 46.7451C23.3202 46.6679 22.3903 46.3829 21.7732 46.1431C20.9543 45.8261 20.3691 45.4455 19.7553 44.8334C19.1416 44.2214 18.7615 43.6378 18.442 42.8212C18.2016 42.2041 17.9157 41.2785 17.8384 39.5714C17.7543 37.7269 17.7358 37.1735 17.7358 32.5018C17.7358 27.83 17.7543 27.2767 17.8384 25.4321C17.9174 23.7251 18.2033 22.7994 18.442 22.1823C18.7599 21.3657 19.1399 20.7838 19.7553 20.1701C20.3691 19.5581 20.9543 19.1791 21.7732 18.8622C22.392 18.6224 23.3202 18.3373 25.0304 18.2602C26.8801 18.1763 27.435 18.1579 32.1198 18.1579ZM32.1198 15.0054C27.3543 15.0054 26.7573 15.0255 24.8858 15.111C23.0176 15.1965 21.7429 15.4917 20.6264 15.9243C19.4728 16.372 18.4942 16.969 17.5189 17.9432C16.5436 18.9158 15.9433 19.8918 15.496 21.0421C15.0621 22.1555 14.7662 23.4266 14.6804 25.2896C14.5946 27.1559 14.5745 27.7512 14.5745 32.5034C14.5745 37.2557 14.5946 37.851 14.6804 39.7173C14.7662 41.5803 15.0621 42.8514 15.496 43.9648C15.9449 45.1152 16.5436 46.0911 17.5189 47.0637C18.4942 48.0362 19.4728 48.6349 20.6264 49.0826C21.7429 49.5152 23.0176 49.8104 24.8858 49.8959C26.7573 49.9814 27.3543 50.0015 32.1198 50.0015C36.8853 50.0015 37.4823 49.9814 39.3539 49.8959C41.2221 49.8104 42.4967 49.5152 43.6132 49.0826C44.7668 48.6349 45.7455 48.0362 46.7208 47.0637C47.6961 46.0911 48.2964 45.1152 48.7453 43.9648C49.1792 42.8514 49.4751 41.5803 49.5609 39.7173C49.6467 37.851 49.6668 37.2557 49.6668 32.5034C49.6668 27.7512 49.6467 27.1559 49.5609 25.2896C49.4751 23.4266 49.1792 22.1555 48.7453 21.0421C48.2964 19.8918 47.6978 18.9158 46.7208 17.9432C45.7455 16.9707 44.7668 16.372 43.6132 15.9243C42.4967 15.4917 41.2221 15.1965 39.3539 15.111C37.4823 15.0255 36.8853 15.0054 32.1198 15.0054Z" fill="white"/>
<path d="M32.1194 23.5186C27.1437 23.5186 23.1096 27.5414 23.1096 32.5032C23.1096 37.465 27.1437 41.4878 32.1194 41.4878C37.0951 41.4878 41.1292 37.465 41.1292 32.5032C41.1292 27.5414 37.0968 23.5186 32.1194 23.5186ZM32.1194 38.3354C28.8891 38.3354 26.2709 35.7245 26.2709 32.5032C26.2709 29.2819 28.8891 26.6711 32.1194 26.6711C35.3497 26.6711 37.9678 29.2819 37.9678 32.5032C37.9678 35.7245 35.3497 38.3354 32.1194 38.3354Z" fill="white"/>
<path d="M43.5927 23.1639C43.5927 24.3226 42.6493 25.2633 41.4874 25.2633C40.3237 25.2633 39.3821 24.3226 39.3821 23.1639C39.3821 22.0052 40.3254 21.0645 41.4874 21.0645C42.6493 21.0645 43.5927 22.0035 43.5927 23.1639Z" fill="white"/>
</svg>
