<svg width="61" height="61" viewBox="0 0 61 61" fill="none" xmlns="http://www.w3.org/2000/svg">
<rect x="0.5" y="0.5" width="60" height="60" rx="8" fill="#30589F"/>
<path d="M26.6 11.5586L14.56 19.4186C10.7 21.9386 10.7 27.5786 14.56 30.0986L26.6 37.9586C28.76 39.3786 32.32 39.3786 34.48 37.9586L46.46 30.0986C50.3 27.5786 50.3 21.9586 46.46 19.4386L34.48 11.5786C32.32 10.1386 28.76 10.1386 26.6 11.5586Z" stroke="white" stroke-width="2" stroke-linecap="round" stroke-linejoin="round"/>
<path d="M17.7602 32.6602L17.7402 42.0402C17.7402 44.5802 19.7002 47.3002 22.1002 48.1002L28.4802 50.2202C29.5802 50.5802 31.4002 50.5802 32.5202 50.2202L38.9002 48.1002C41.3002 47.3002 43.2602 44.5802 43.2602 42.0402V32.7602" stroke="white" stroke-width="2" stroke-linecap="round" stroke-linejoin="round"/>
<path d="M49.2998 36.5V24.5" stroke="white" stroke-width="2" stroke-linecap="round" stroke-linejoin="round"/>
</svg>
