<svg width="59" height="32" viewBox="0 0 59 32" fill="none" xmlns="http://www.w3.org/2000/svg">
<g clip-path="url(#clip0_581_2037)">
<path d="M58.4044 0.907715H0.46814V31.4771H58.4044V0.907715Z" fill="#010066"/>
<path d="M28.2606 14.7397V16.6022H26.6585L18.6988 12.334L17.397 11.6359L15.5797 10.6613L15.5518 10.6464L15.2154 10.466L14.6385 10.1566L14.4443 10.0525L14.2124 9.92821L14.1784 9.90996L13.4415 9.51477L13.3508 9.46613L13.6961 9.26014L14.3948 8.84323L14.427 8.82399L14.7767 8.61534L15.2729 8.31925L15.7531 8.03271L16.0293 8.18076L16.7964 8.59213L16.8003 8.5942L16.8605 8.62648L17.397 8.91414L17.5675 9.00557L17.9318 9.20093L18.1994 9.34451L18.6988 9.61223L19.254 9.90996L20.6273 10.6464L28.2606 14.7397Z" fill="white"/>
<path d="M28.2611 15.1972V16.0253L20.6601 11.9493L19.3583 11.2512L18.6992 10.8978L18.2426 10.6529L18.2305 10.6464L17.879 10.458L17.5148 10.2626L17.3975 10.1997L16.8694 9.91655L16.8572 9.91L16.7437 9.84916L15.6575 9.26666L16.3119 8.87612L16.3883 8.83057L16.4571 8.8675L17.3975 9.37173L17.4593 9.40489L18.2304 9.81833L18.4012 9.91L18.4134 9.91655L18.5946 10.0137L19.3583 10.4232L19.7747 10.6464L19.7867 10.6529L20.6601 11.1213L28.2611 15.1972Z" fill="#E4002B"/>
<path d="M0.384155 1.48728V2.31529V2.70645L8.17598 6.8847L9.54927 7.6211L11.9334 8.89948L12.0489 8.96146L12.2535 9.07125L12.5988 8.86519L13.3296 8.42904L13.3507 8.41652L13.4683 8.34636L14.3465 7.82231L14.6558 7.63777L14.6248 7.6211L14.5196 7.56472L14.1554 7.36942L13.3507 6.93793L13.2515 6.8847L12.0489 6.23985L2.12348 0.91748H0.384155V1.48728Z" fill="white"/>
<path d="M13.3296 8.42907L12.5988 8.86522L12.2785 8.69351L12.0489 8.57038L10.2788 7.62113L8.90538 6.88472L0.384155 2.31532V1.4873L10.4496 6.88472L11.8229 7.62113L12.0489 7.74237L13.0094 8.25742L13.3296 8.42907Z" fill="#E4002B"/>
<path d="M1.54634 16.6136H3.01011H3.81889L11.0634 12.2908L12.0506 11.7017L12.3651 11.514L12.8915 11.1999L13.3523 10.9249L13.3648 10.9175L13.6186 10.766L13.8192 10.6464L13.964 10.56L14.1255 10.4636L14.64 10.1566L14.6912 10.126L14.6949 10.1238L15.0533 9.90998L15.4222 9.68989L15.6838 9.53366L14.6539 8.98136L14.3963 8.84325L14.2849 8.78354L13.514 8.37011L13.4699 8.34651L13.3523 8.28346L13.1497 8.1748L13.0111 8.25754L12.3651 8.64292L12.2802 8.69363L12.1132 8.7933L11.935 8.89963L11.3822 9.22951L11.0634 9.41978L11.0369 9.43557L10.2419 9.90998L9.31405 10.4636L9.00771 10.6464L8.07998 11.1999L0.534424 15.7025V16.6136H1.54634Z" fill="white"/>
<path d="M14.2732 9.89293L14.2443 9.91017L14.2137 9.92842L13.3521 10.4425L13.258 10.4987L13.0102 10.6466L12.527 10.9349L12.3535 11.0384L12.1817 11.141L12.0504 11.2193L11.4577 11.5729L11.0516 11.8153L10.2237 12.3093L3.00991 16.6138H1.54614L8.75984 12.3093L9.99391 11.5729L11.0516 10.9419L11.3963 10.7362L11.5464 10.6466L11.7416 10.5301L12.3535 10.1651L12.4726 10.094L12.7805 9.91017L13.3521 9.56909L13.4428 9.51498L13.5022 9.47949L14.2732 9.89293Z" fill="#E4002B"/>
<path d="M28.2635 0.907715V1.82388L19.7821 6.88481L18.8544 7.43837L18.7016 7.5296L18.548 7.62121L17.7145 8.11864L17.6203 8.17477L17.3999 8.30633L16.8634 8.62646L16.4595 8.86744L16.4126 8.89544L16.3831 8.91299L16.3143 8.87606L15.2758 8.31923L15.0064 8.17477L14.9842 8.16282L14.3495 7.82242L14.2133 7.74937L13.9742 7.62121L13.849 7.55414L14.043 7.43837L14.1584 7.36953L14.9707 6.88481L16.4126 6.02439L17.3999 5.43535L17.7145 5.2476L18.7016 4.65856L24.9874 0.907715H28.2635Z" fill="white"/>
<path d="M27.1418 0.907715L18.7006 5.94461L17.7135 6.53366L17.3989 6.72141L17.125 6.88481L16.4116 7.31052L16.1973 7.43837L15.8909 7.62121L14.9833 8.16282L14.3485 7.82242L14.2123 7.74937L14.4271 7.62121L14.5216 7.56483L14.7335 7.43837L15.6613 6.88481L16.4116 6.43708L17.3989 5.84797L17.7135 5.66022L18.7006 5.07117L25.678 0.907715H27.1418Z" fill="#E4002B"/>
<path d="M28.2605 6.88477H0.384155V10.6463H28.2605V6.88477Z" fill="white"/>
<path d="M28.2605 7.62109H0.384155V9.90983H28.2605V7.62109Z" fill="#E4002B"/>
<path d="M16.5333 0.907715H12.1107V7.62121H16.5333V0.907715Z" fill="white"/>
<path d="M16.5333 9.90527H12.1107V16.6188H16.5333V9.90527Z" fill="white"/>
<path d="M15.6669 0.907715H12.976V16.6136H15.6669V0.907715Z" fill="#E4002B"/>
<path d="M37.4307 13.1978L37.9962 14.3434L39.2605 14.5272L38.3456 15.419L38.5616 16.6782L37.4307 16.0837L36.2999 16.6782L36.5158 15.419L35.601 14.5272L36.8653 14.3434L37.4307 13.1978Z" fill="white"/>
<path d="M37.4301 15.7546L36.6859 16.1459L36.828 15.3172L36.226 14.7303L37.058 14.6094L37.4301 13.8555L37.8022 14.6094L38.6342 14.7303L38.0322 15.3172L38.1743 16.1459L37.4301 15.7546Z" fill="#E4002B"/>
<path d="M43.2491 8.2627L43.8145 9.40839L45.0789 9.59211L44.164 10.4839L44.38 11.7431L43.2491 11.1486L42.1182 11.7431L42.3342 10.4839L41.4193 9.59211L42.6837 9.40839L43.2491 8.2627Z" fill="white"/>
<path d="M43.2484 10.8196L42.5043 11.2108L42.6464 10.3821L42.0443 9.79527L42.8763 9.67436L43.2484 8.92041L43.6205 9.67436L44.4526 9.79527L43.8505 10.3821L43.9926 11.2108L43.2484 10.8196Z" fill="#E4002B"/>
<path d="M48.0577 11.9199L48.6231 13.0656L49.8875 13.2493L48.9726 14.1411L49.1885 15.4004L48.0577 14.8058L46.9268 15.4004L47.1428 14.1411L46.2279 13.2493L47.4923 13.0656L48.0577 11.9199Z" fill="white"/>
<path d="M48.057 14.4768L47.3128 14.868L47.455 14.0394L46.8529 13.4525L47.6849 13.3316L48.057 12.5776L48.4291 13.3316L49.2612 13.4525L48.6591 14.0394L48.8012 14.868L48.057 14.4768Z" fill="#E4002B"/>
<path d="M42.5423 20.6411L43.1077 21.7868L44.3721 21.9705L43.4572 22.8623L43.6732 24.1216L42.5423 23.527L41.4114 24.1216L41.6274 22.8623L40.7125 21.9705L41.9769 21.7868L42.5423 20.6411Z" fill="white"/>
<path d="M42.5417 23.198L41.7975 23.5892L41.9396 22.7606L41.3375 22.1737L42.1696 22.0528L42.5417 21.2988L42.9138 22.0528L43.7458 22.1737L43.1437 22.7606L43.2859 23.5892L42.5417 23.198Z" fill="#E4002B"/>
</g>
<defs>
<clipPath id="clip0_581_2037">
<rect x="0.470093" y="0.907715" width="57.9363" height="30.5694" rx="4.36706" fill="white"/>
</clipPath>
</defs>
</svg>
