<svg width="21" height="20" viewBox="0 0 21 20" fill="none" xmlns="http://www.w3.org/2000/svg">
<path d="M8.8694 2.10824L3.85273 5.38324C2.2444 6.43324 2.2444 8.78324 3.85273 9.83324L8.8694 13.1082C9.7694 13.6999 11.2527 13.6999 12.1527 13.1082L17.1444 9.83324C18.7444 8.78324 18.7444 6.44157 17.1444 5.39157L12.1527 2.11657C11.2527 1.51657 9.7694 1.51657 8.8694 2.10824Z" stroke="#2B7CD6" stroke-width="1.25" stroke-linecap="round" stroke-linejoin="round"/>
<path d="M5.18607 10.8999L5.17773 14.8082C5.17773 15.8666 5.9944 16.9999 6.9944 17.3332L9.65273 18.2166C10.1111 18.3666 10.8694 18.3666 11.3361 18.2166L13.9944 17.3332C14.9944 16.9999 15.8111 15.8666 15.8111 14.8082V10.9416" stroke="#2B7CD6" stroke-width="1.25" stroke-linecap="round" stroke-linejoin="round"/>
<path d="M18.3281 12.4998V7.49976" stroke="#2B7CD6" stroke-width="1.25" stroke-linecap="round" stroke-linejoin="round"/>
</svg>
