<svg width="59" height="31" viewBox="0 0 59 31" fill="none" xmlns="http://www.w3.org/2000/svg">
<g clip-path="url(#clip0_581_1998)">
<path d="M58.8143 0.343262H0.893188V30.8602H58.8143V0.343262Z" fill="white"/>
<path d="M58.8178 12.5545H33.3143V0.345215H26.3527V12.5545H0.916626V18.6558H26.3527V30.86H33.3143V18.6558H58.8178V12.5545Z" fill="#CE1124"/>
<path d="M0.893311 3.89697V10.5414H13.5267L0.893311 3.89697Z" fill="#00247D"/>
<path d="M7.86357 0.342285L7.67847 0.350699L24.0596 9.01177V0.342285H7.86357Z" fill="#00247D"/>
<path d="M20.3347 10.4994L0.893311 0.34375V2.73742L15.702 10.4994H20.3347Z" fill="#CE1124"/>
<path d="M39.3876 20.7017L58.8289 30.8573V28.4636L44.0203 20.7017H39.3876Z" fill="#CE1124"/>
<path d="M0.893311 27.3549V20.7104H13.5267L0.893311 27.3549Z" fill="#00247D"/>
<path d="M7.86357 30.9097L7.67847 30.9012L24.0596 22.2402V30.9097H7.86357Z" fill="#00247D"/>
<path d="M20.2362 20.7007L0.906982 30.8518L5.42756 30.8563L24.0786 21.1135V20.7007H20.2362Z" fill="#CE1124"/>
<path d="M58.8293 3.89551V10.5399H46.1959L58.8293 3.89551Z" fill="#00247D"/>
<path d="M51.8587 0.34082L52.0438 0.349205L35.6627 9.01024V0.34082H51.8587Z" fill="#00247D"/>
<path d="M58.8107 0.354842L54.4627 0.354492L35.6803 10.1659V10.5101H39.6541L58.8107 0.354842Z" fill="#CE1124"/>
<path d="M58.8293 27.3524V20.708H46.1959L58.8293 27.3524Z" fill="#00247D"/>
<path d="M51.8587 30.9072L52.0438 30.8988L35.6627 22.2378V30.9072H51.8587Z" fill="#00247D"/>
</g>
<defs>
<clipPath id="clip0_581_1998">
<rect x="0.891235" y="0.340332" width="57.9363" height="30.5694" rx="4.36706" fill="white"/>
</clipPath>
</defs>
</svg>
