<svg width="58" height="31" viewBox="0 0 58 31" fill="none" xmlns="http://www.w3.org/2000/svg">
<path d="M57.9614 0.455078H0.0731201V30.7972H57.9614V0.455078Z" fill="white"/>
<path d="M57.9618 0.34082H0.0750732V2.74101H57.9618V0.34082Z" fill="#B22234"/>
<path d="M57.9619 5.03564H0.0751953V7.43578H57.9619V5.03564Z" fill="#B22234"/>
<path d="M57.9619 9.73047H0.0751953V12.1306H57.9619V9.73047Z" fill="#B22234"/>
<path d="M57.9619 14.4253H0.0751953V16.8255H57.9619V14.4253Z" fill="#B22234"/>
<path d="M57.9619 19.1201H0.0751953V21.5203H57.9619V19.1201Z" fill="#B22234"/>
<path d="M57.9619 23.8149H0.0751953V26.2151H57.9619V23.8149Z" fill="#B22234"/>
<path d="M57.9619 28.5098H0.0751953V30.9099H57.9619V28.5098Z" fill="#B22234"/>
<path d="M23.1926 0.340332H0.072998V16.8259H23.1926V0.340332Z" fill="#3C3B6E"/>
<path d="M2.03838 0.97168L2.25473 1.64461H2.95488L2.38842 2.0605L2.60482 2.73347L2.03838 2.31758L1.47195 2.73347L1.68829 2.0605L1.12183 1.64461H1.82198L2.03838 0.97168Z" fill="white"/>
<path d="M3.94467 2.66309L4.16101 3.33605H4.86117L4.29479 3.75194L4.5111 4.42487L3.94467 4.00901L3.37823 4.42487L3.59458 3.75194L3.0282 3.33605H3.72835L3.94467 2.66309Z" fill="white"/>
<path d="M3.94467 5.96826L4.16101 6.64123H4.86117L4.29479 7.05711L4.5111 7.73005L3.94467 7.31419L3.37823 7.73005L3.59458 7.05711L3.0282 6.64123H3.72835L3.94467 5.96826Z" fill="white"/>
<path d="M3.94467 9.27344L4.16101 9.9464H4.86117L4.29479 10.3623L4.5111 11.0352L3.94467 10.6194L3.37823 11.0352L3.59458 10.3623L3.0282 9.9464H3.72835L3.94467 9.27344Z" fill="white"/>
<path d="M3.94467 12.5781L4.16101 13.2511H4.86117L4.29479 13.667L4.5111 14.3399L3.94467 13.9241L3.37823 14.3399L3.59458 13.667L3.0282 13.2511H3.72835L3.94467 12.5781Z" fill="white"/>
<path d="M7.80596 2.66309L8.02228 3.33605H8.72243L8.156 3.75194L8.3724 4.42487L7.80596 4.00901L7.2395 4.42487L7.45584 3.75194L6.8894 3.33605H7.58956L7.80596 2.66309Z" fill="white"/>
<path d="M7.80596 5.96826L8.02228 6.64123H8.72243L8.156 7.05711L8.3724 7.73005L7.80596 7.31419L7.2395 7.73005L7.45584 7.05711L6.8894 6.64123H7.58956L7.80596 5.96826Z" fill="white"/>
<path d="M7.80596 9.27344L8.02228 9.9464H8.72243L8.156 10.3623L8.3724 11.0352L7.80596 10.6194L7.2395 11.0352L7.45584 10.3623L6.8894 9.9464H7.58956L7.80596 9.27344Z" fill="white"/>
<path d="M7.80596 12.5781L8.02228 13.2511H8.72243L8.156 13.667L8.3724 14.3399L7.80596 13.9241L7.2395 14.3399L7.45584 13.667L6.8894 13.2511H7.58956L7.80596 12.5781Z" fill="white"/>
<path d="M11.6691 2.66309L11.8855 3.33605H12.5856L12.0192 3.75194L12.2356 4.42487L11.6691 4.00901L11.1027 4.42487L11.319 3.75194L10.7526 3.33605H11.4527L11.6691 2.66309Z" fill="white"/>
<path d="M11.6691 5.96826L11.8855 6.64123H12.5856L12.0192 7.05711L12.2356 7.73005L11.6691 7.31419L11.1027 7.73005L11.319 7.05711L10.7526 6.64123H11.4527L11.6691 5.96826Z" fill="white"/>
<path d="M11.6691 9.27295L11.8855 9.94591H12.5856L12.0192 10.3618L12.2356 11.0347L11.6691 10.6189L11.1027 11.0347L11.319 10.3618L10.7526 9.94591H11.4527L11.6691 9.27295Z" fill="white"/>
<path d="M11.6691 12.5781L11.8855 13.2511H12.5856L12.0192 13.667L12.2356 14.3399L11.6691 13.9241L11.1027 14.3399L11.319 13.667L10.7526 13.2511H11.4527L11.6691 12.5781Z" fill="white"/>
<path d="M15.5324 2.66309L15.7488 3.33605H16.449L15.8826 3.75194L16.0989 4.42487L15.5324 4.00901L14.9661 4.42487L15.1824 3.75194L14.616 3.33605H15.3161L15.5324 2.66309Z" fill="white"/>
<path d="M15.5324 5.96826L15.7488 6.64123H16.449L15.8826 7.05711L16.0989 7.73005L15.5324 7.31419L14.9661 7.73005L15.1824 7.05711L14.616 6.64123H15.3161L15.5324 5.96826Z" fill="white"/>
<path d="M15.5324 9.27344L15.7488 9.9464H16.449L15.8826 10.3623L16.0989 11.0352L15.5324 10.6194L14.9661 11.0352L15.1824 10.3623L14.616 9.9464H15.3161L15.5324 9.27344Z" fill="white"/>
<path d="M15.5324 12.5781L15.7488 13.2511H16.449L15.8826 13.667L16.0989 14.3399L15.5324 13.9241L14.9661 14.3399L15.1824 13.667L14.616 13.2511H15.3161L15.5324 12.5781Z" fill="white"/>
<path d="M19.3938 2.66309L19.6102 3.33605H20.3103L19.7439 3.75194L19.9602 4.42487L19.3938 4.00901L18.8274 4.42487L19.0437 3.75194L18.4773 3.33605H19.1775L19.3938 2.66309Z" fill="white"/>
<path d="M19.3938 5.96826L19.6102 6.64123H20.3103L19.7439 7.05711L19.9602 7.73005L19.3938 7.31419L18.8274 7.73005L19.0437 7.05711L18.4773 6.64123H19.1775L19.3938 5.96826Z" fill="white"/>
<path d="M19.3938 9.27344L19.6102 9.9464H20.3103L19.7439 10.3623L19.9602 11.0352L19.3938 10.6194L18.8274 11.0352L19.0437 10.3623L18.4773 9.9464H19.1775L19.3938 9.27344Z" fill="white"/>
<path d="M19.3938 12.5781L19.6102 13.2511H20.3103L19.7439 13.667L19.9602 14.3399L19.3938 13.9241L18.8274 14.3399L19.0437 13.667L18.4773 13.2511H19.1775L19.3938 12.5781Z" fill="white"/>
<path d="M2.03838 4.27686L2.25473 4.94979H2.95488L2.38842 5.36568L2.60482 6.03864L2.03838 5.62275L1.47195 6.03864L1.68829 5.36568L1.12183 4.94979H1.82198L2.03838 4.27686Z" fill="white"/>
<path d="M2.03838 7.58154L2.25473 8.25448H2.95488L2.38842 8.67037L2.60482 9.34333L2.03838 8.92744L1.47195 9.34333L1.68829 8.67037L1.12183 8.25448H1.82198L2.03838 7.58154Z" fill="white"/>
<path d="M2.03838 10.8867L2.25473 11.5597H2.95488L2.38842 11.9755L2.60482 12.6485L2.03838 12.2326L1.47195 12.6485L1.68829 11.9755L1.12183 11.5597H1.82198L2.03838 10.8867Z" fill="white"/>
<path d="M2.03838 14.1919L2.25473 14.8649H2.95488L2.38842 15.2807L2.60482 15.9537L2.03838 15.5378L1.47195 15.9537L1.68829 15.2807L1.12183 14.8649H1.82198L2.03838 14.1919Z" fill="white"/>
<path d="M5.85083 0.97168L6.06714 1.64461H6.76735L6.20092 2.0605L6.41726 2.73347L5.85083 2.31758L5.28436 2.73347L5.50076 2.0605L4.93433 1.64461H5.63448L5.85083 0.97168Z" fill="white"/>
<path d="M5.85083 4.27637L6.06714 4.9493H6.76735L6.20092 5.36519L6.41726 6.03815L5.85083 5.62226L5.28436 6.03815L5.50076 5.36519L4.93433 4.9493H5.63448L5.85083 4.27637Z" fill="white"/>
<path d="M5.85083 7.58203L6.06714 8.25497H6.76735L6.20092 8.67085L6.41726 9.34382L5.85083 8.92793L5.28436 9.34382L5.50076 8.67085L4.93433 8.25497H5.63448L5.85083 7.58203Z" fill="white"/>
<path d="M5.85083 10.8867L6.06714 11.5597H6.76735L6.20092 11.9755L6.41726 12.6485L5.85083 12.2326L5.28436 12.6485L5.50076 11.9755L4.93433 11.5597H5.63448L5.85083 10.8867Z" fill="white"/>
<path d="M5.85083 14.1914L6.06714 14.8644H6.76735L6.20092 15.2802L6.41726 15.9532L5.85083 15.5373L5.28436 15.9532L5.50076 15.2802L4.93433 14.8644H5.63448L5.85083 14.1914Z" fill="white"/>
<path d="M9.76293 0.97168L9.97931 1.64461H10.6794L10.113 2.0605L10.3294 2.73347L9.76293 2.31758L9.19653 2.73347L9.41287 2.0605L8.84644 1.64461H9.54659L9.76293 0.97168Z" fill="white"/>
<path d="M9.76293 4.27637L9.97931 4.9493H10.6794L10.113 5.36519L10.3294 6.03815L9.76293 5.62226L9.19653 6.03815L9.41287 5.36519L8.84644 4.9493H9.54659L9.76293 4.27637Z" fill="white"/>
<path d="M9.76293 7.58203L9.97931 8.25497H10.6794L10.113 8.67085L10.3294 9.34382L9.76293 8.92793L9.19653 9.34382L9.41287 8.67085L8.84644 8.25497H9.54659L9.76293 7.58203Z" fill="white"/>
<path d="M9.76293 10.8867L9.97931 11.5597H10.6794L10.113 11.9755L10.3294 12.6485L9.76293 12.2326L9.19653 12.6485L9.41287 11.9755L8.84644 11.5597H9.54659L9.76293 10.8867Z" fill="white"/>
<path d="M9.76293 14.1914L9.97931 14.8644H10.6794L10.113 15.2802L10.3294 15.9532L9.76293 15.5373L9.19653 15.9532L9.41287 15.2802L8.84644 14.8644H9.54659L9.76293 14.1914Z" fill="white"/>
<path d="M13.601 0.97168L13.8173 1.64461H14.5175L13.951 2.0605L14.1674 2.73347L13.601 2.31758L13.0345 2.73347L13.2509 2.0605L12.6844 1.64461H13.3846L13.601 0.97168Z" fill="white"/>
<path d="M13.601 4.27686L13.8173 4.94979H14.5175L13.951 5.36568L14.1674 6.03864L13.601 5.62275L13.0345 6.03864L13.2509 5.36568L12.6844 4.94979H13.3846L13.601 4.27686Z" fill="white"/>
<path d="M13.601 7.58154L13.8173 8.25448H14.5175L13.951 8.67037L14.1674 9.34333L13.601 8.92744L13.0345 9.34333L13.2509 8.67037L12.6844 8.25448H13.3846L13.601 7.58154Z" fill="white"/>
<path d="M13.601 10.8867L13.8173 11.5597H14.5175L13.951 11.9755L14.1674 12.6485L13.601 12.2326L13.0345 12.6485L13.2509 11.9755L12.6844 11.5597H13.3846L13.601 10.8867Z" fill="white"/>
<path d="M13.601 14.1919L13.8173 14.8649H14.5175L13.951 15.2807L14.1674 15.9537L13.601 15.5378L13.0345 15.9537L13.2509 15.2807L12.6844 14.8649H13.3846L13.601 14.1919Z" fill="white"/>
<path d="M17.4368 0.97168L17.6531 1.64461H18.3533L17.7869 2.0605L18.0033 2.73347L17.4368 2.31758L16.8704 2.73347L17.0867 2.0605L16.5203 1.64461H17.2204L17.4368 0.97168Z" fill="white"/>
<path d="M17.4368 4.27637L17.6531 4.9493H18.3533L17.7869 5.36519L18.0033 6.03815L17.4368 5.62226L16.8704 6.03815L17.0867 5.36519L16.5203 4.9493H17.2204L17.4368 4.27637Z" fill="white"/>
<path d="M17.4368 7.58203L17.6531 8.25497H18.3533L17.7869 8.67085L18.0033 9.34382L17.4368 8.92793L16.8704 9.34382L17.0867 8.67085L16.5203 8.25497H17.2204L17.4368 7.58203Z" fill="white"/>
<path d="M17.4368 10.8867L17.6531 11.5597H18.3533L17.7869 11.9755L18.0033 12.6485L17.4368 12.2326L16.8704 12.6485L17.0867 11.9755L16.5203 11.5597H17.2204L17.4368 10.8867Z" fill="white"/>
<path d="M17.4368 14.1914L17.6531 14.8644H18.3533L17.7869 15.2802L18.0033 15.9532L17.4368 15.5373L16.8704 15.9532L17.0867 15.2802L16.5203 14.8644H17.2204L17.4368 14.1914Z" fill="white"/>
<path d="M21.351 0.97168L21.5674 1.64461H22.2676L21.7011 2.0605L21.9175 2.73347L21.351 2.31758L20.7847 2.73347L21.001 2.0605L20.4346 1.64461H21.1347L21.351 0.97168Z" fill="white"/>
<path d="M21.351 4.27686L21.5674 4.94979H22.2676L21.7011 5.36568L21.9175 6.03864L21.351 5.62275L20.7847 6.03864L21.001 5.36568L20.4346 4.94979H21.1347L21.351 4.27686Z" fill="white"/>
<path d="M21.351 7.58154L21.5674 8.25448H22.2676L21.7011 8.67037L21.9175 9.34333L21.351 8.92744L20.7847 9.34333L21.001 8.67037L20.4346 8.25448H21.1347L21.351 7.58154Z" fill="white"/>
<path d="M21.351 10.8867L21.5674 11.5597H22.2676L21.7011 11.9755L21.9175 12.6485L21.351 12.2326L20.7847 12.6485L21.001 11.9755L20.4346 11.5597H21.1347L21.351 10.8867Z" fill="white"/>
<path d="M21.351 14.1919L21.5674 14.8649H22.2676L21.7011 15.2807L21.9175 15.9537L21.351 15.5378L20.7847 15.9537L21.001 15.2807L20.4346 14.8649H21.1347L21.351 14.1919Z" fill="white"/>
</svg>
