<svg width="64" height="65" viewBox="0 0 64 65" fill="none" xmlns="http://www.w3.org/2000/svg">
<path d="M32.0017 64.4142C14.3285 64.4142 0 50.1273 0 32.5035C0 14.8797 14.3268 0.592773 32 0.592773C49.6731 0.592773 64 14.8797 64 32.5035C64.0017 50.1273 49.6748 64.4142 32.0017 64.4142Z" fill="#233F7B"/>
<path fill-rule="evenodd" clip-rule="evenodd" d="M49.5457 31.6184C49.3119 22.3973 41.6945 14.9956 32.3198 14.9956C23.0578 14.9956 15.5059 22.2296 15.1024 31.3048C15.094 31.5546 15.0855 31.8028 15.0855 32.0527C15.0855 35.279 15.9885 38.2889 17.5541 40.8629L14.4482 50.0102L23.9927 46.9851C26.4613 48.3367 29.3014 49.1097 32.3198 49.1097C41.8408 49.1097 49.5541 41.475 49.5541 32.0527C49.5541 31.9085 49.5541 31.7626 49.5457 31.6184ZM32.3198 46.3898C29.3754 46.3898 26.6395 45.5212 24.3492 44.0154L18.7816 45.7862L20.5893 40.4605C18.8539 38.0944 17.8299 35.1901 17.8299 32.0527C17.8299 31.5865 17.8551 31.1187 17.9022 30.6609C18.6118 23.4034 24.8083 17.7155 32.3198 17.7155C39.9288 17.7155 46.1809 23.5493 46.7627 30.9342C46.7946 31.3048 46.8115 31.6737 46.8115 32.0527C46.8098 39.9608 40.3072 46.3898 32.3198 46.3898Z" fill="white"/>
<path fill-rule="evenodd" clip-rule="evenodd" d="M40.2198 35.4967C39.7927 35.2871 37.7177 34.2743 37.3309 34.1368C36.9442 33.9925 36.6617 33.9272 36.3792 34.3464C36.0967 34.7639 35.2828 35.7064 35.039 35.9797C34.7884 36.2614 34.5479 36.2932 34.1192 36.0836C33.6988 35.874 32.3367 35.4397 30.7224 34.0076C29.4713 32.9059 28.6171 31.5377 28.375 31.1201C28.1328 30.7009 28.3514 30.4762 28.5599 30.2666C28.7533 30.0737 28.9803 29.7753 29.1972 29.5338C29.2544 29.4617 29.3015 29.3963 29.3503 29.3326C29.4478 29.18 29.5201 29.0341 29.6159 28.8329C29.7606 28.5512 29.6883 28.3097 29.584 28.1001C29.4797 27.8905 28.6322 25.8313 28.2774 24.9945C27.931 24.1578 27.5762 24.302 27.3257 24.302C27.0835 24.302 26.801 24.2617 26.5185 24.2617C26.236 24.2617 25.7753 24.3657 25.3885 24.7849C25.0018 25.2041 23.9121 26.217 23.9121 28.2762C23.9121 28.7591 24.0012 29.242 24.1307 29.6998C24.5578 31.1721 25.4776 32.3861 25.6391 32.5957C25.8493 32.8691 28.5599 37.2289 32.8513 38.9108C37.151 40.5759 37.151 40.0209 37.9262 39.9488C38.6997 39.8834 40.4283 38.9427 40.7747 37.9617C41.1296 36.9874 41.1296 36.1507 41.0253 35.9746C40.921 35.8103 40.6385 35.7046 40.2198 35.4967Z" fill="white"/>
</svg>
