<svg width="108" height="57" viewBox="0 0 108 57" fill="none" xmlns="http://www.w3.org/2000/svg">
<path d="M107.039 0.343872H0.933594V56.2478H107.039V0.343872Z" fill="white"/>
<path d="M107.046 22.7134H60.3258V0.34729H47.5729V22.7134H0.976562V33.8903H47.5729V56.2472H60.3258V33.8903H107.046V22.7134Z" fill="#CE1124"/>
<path d="M0.935547 6.85376V19.0256H24.0787L0.935547 6.85376Z" fill="#00247D"/>
<path d="M13.7043 0.341553L13.3652 0.356966L43.3737 16.2232V0.341553H13.7043Z" fill="#00247D"/>
<path d="M36.5502 18.9486L0.935547 0.344482V4.72944L28.0635 18.9486H36.5502Z" fill="#CE1124"/>
<path d="M71.4531 37.6381L107.068 56.2422V51.8572L79.9397 37.6381H71.4531Z" fill="#CE1124"/>
<path d="M0.935547 49.8266V37.6547H24.0787L0.935547 49.8266Z" fill="#00247D"/>
<path d="M13.7043 56.3388L13.3652 56.3233L43.3737 40.4573V56.3388H13.7043Z" fill="#00247D"/>
<path d="M36.3682 37.6367L0.958984 56.2326L9.24021 56.2408L43.4069 38.393V37.6367H36.3682Z" fill="#CE1124"/>
<path d="M107.067 6.85107V19.0229H83.9238L107.067 6.85107Z" fill="#00247D"/>
<path d="M94.2982 0.338867L94.6373 0.354227L64.6289 16.2204V0.338867H94.2982Z" fill="#00247D"/>
<path d="M107.033 0.364898L99.0676 0.364258L64.6602 18.3378V18.9684H71.9397L107.033 0.364898Z" fill="#CE1124"/>
<path d="M107.067 49.822V37.6501H83.9238L107.067 49.822Z" fill="#00247D"/>
<path d="M94.2982 56.3341L94.6373 56.3188L64.6289 40.4526V56.3341H94.2982Z" fill="#00247D"/>
</svg>
