<svg width="106" height="57" viewBox="0 0 106 57" fill="none" xmlns="http://www.w3.org/2000/svg">
<path d="M106 0.338867H0V56.3389H106V0.338867Z" fill="#F7F7F7"/>
<path d="M30 0.338867H0V56.3389H30V0.338867Z" fill="#FE0000"/>
<path d="M106 0.338867H76V56.3389H106V0.338867Z" fill="#FE0000"/>
<path d="M53.5633 36.7755C53.6557 36.7587 60.7717 37.6439 60.7717 37.6439C60.7717 37.6439 59.9907 36.0081 60.0318 35.291C60.114 34.3723 67.2043 28.3893 67.2043 28.3893C67.2043 28.3893 65.5088 27.549 65.4472 27.2129C65.0772 26.339 66.7419 21.9357 66.7419 21.9357C66.7419 21.9357 62.9193 23.1458 62.4877 22.9105C62.0562 22.6752 61.5013 20.524 61.5013 20.524C61.5013 20.524 58.2336 24.6919 57.9253 24.86C57.617 25.0281 57.0313 24.7592 57.093 24.1205C57.1546 23.4819 58.696 15.583 58.696 15.583C58.696 15.583 56.384 17.062 55.9215 16.9611C54.9043 16.5577 52.9996 11.4823 52.9996 11.4823C52.9996 11.4823 51.095 16.5577 50.0777 16.9611C49.6152 17.0619 47.3032 15.583 47.3032 15.583C47.3032 15.583 48.8446 23.4819 48.9062 24.1205C48.9679 24.7591 48.3822 25.0281 48.0739 24.86C47.7656 24.6919 44.4979 20.524 44.4979 20.524C44.4979 20.524 43.943 22.6752 43.5115 22.9105C43.0799 23.1458 39.2573 21.9357 39.2573 21.9357C39.2573 21.9357 40.922 26.3389 40.5521 27.2128C40.4904 27.549 38.7949 28.3893 38.7949 28.3893C38.7949 28.3893 45.8852 34.3722 45.9674 35.291C46.0085 36.008 45.2275 37.6438 45.2275 37.6438C45.2275 37.6438 52.3435 36.7587 52.436 36.7755C52.5284 36.7923 52.6055 36.8763 52.6672 37.0612C52.7288 37.2461 52.3589 45.1954 52.3589 45.1954H52.9996H53.6403C53.6403 45.1954 53.2704 37.2461 53.332 37.0612C53.3937 36.8764 53.4708 36.7923 53.5633 36.7755Z" fill="#FB0708"/>
</svg>
