<svg width="612" height="859" viewBox="0 0 612 859" fill="none" xmlns="http://www.w3.org/2000/svg">
<path d="M611.34 0.569824H0.179688V858.13H611.34V0.569824Z" fill="url(#paint0_linear_1607_4396)"/>
<mask id="mask0_1607_4396" style="mask-type:luminance" maskUnits="userSpaceOnUse" x="0" y="0" width="612" height="859">
<path d="M611.51 0H0V858.69H611.51V0Z" fill="white"/>
</mask>
<g mask="url(#mask0_1607_4396)">
<g style="mix-blend-mode:multiply" opacity="0.66">
<path d="M267.461 526.32V536.81H261.861L267.461 526.32Z" fill="url(#paint1_linear_1607_4396)"/>
<path d="M131.381 526.32L136.981 536.81H131.381V526.32Z" fill="url(#paint2_linear_1607_4396)"/>
<path d="M29.321 664.53H22.791L29.321 674.8V764.46H64.101V800.22H651.701V695.94H594.651V650.12H582.311V482.52H589.801V466.77H563.451V457.2H557.821V435.47H556.131V401.49H552.741V435.47H551.051V457.2H545.421V466.77H519.071V482.52H526.561V650.12H514.221V695.94H516.451V531.98H505.981V528.84H511.221V516.46H451.731V528.84H456.971V531.98H446.501V695.94H369.531V674.79L376.061 664.52H369.531V619.25L376.061 608.98H357.161V596.94H354.051V551.84H357.161V526.47L351.561 533.77V529.71C351.561 515.1 340.371 503.12 326.091 501.84L325.261 489.91C327.171 489.21 328.541 487.4 328.541 485.25C328.541 482.86 326.851 480.86 324.601 480.39L323.561 465.38L322.521 480.39C320.271 480.87 318.581 482.86 318.581 485.25C318.581 487.4 319.951 489.21 321.861 489.91L321.031 501.84C306.751 503.12 295.561 515.1 295.561 529.71V533.77L289.961 526.47V551.84H293.071V596.94H289.961V608.98H269.121V542.89L272.761 536.83H261.111C260.551 506.31 237.861 481.25 208.411 476.95V458.78C208.411 458.78 203.911 454.87 200.801 448.13V440.76H202.701V435.3H200.801V433.86H198.071V435.3H196.171V440.76H198.071V448.13C194.961 454.87 190.461 458.78 190.461 458.78V476.95C161.001 481.26 138.311 506.31 137.761 536.83H126.111L129.751 542.89V608.98H108.911V596.94H105.801V551.84H108.911V526.47L103.311 533.77V529.71C103.311 515.1 92.121 503.12 77.841 501.84L77.011 489.91C78.921 489.21 80.291 487.4 80.291 485.25C80.291 482.86 78.601 480.86 76.351 480.39L75.311 465.38L74.271 480.39C72.021 480.87 70.331 482.86 70.331 485.25C70.331 487.4 71.701 489.21 73.611 489.91L72.781 501.84C58.501 503.12 47.311 515.1 47.311 529.71V533.77L41.711 526.47V551.84H44.821V596.94H41.711V608.98H22.811L29.341 619.25V664.52L29.321 664.53ZM83.541 585.48H67.021V563.33H83.541V585.48ZM96.681 656.28H86.821V634.96H96.681V656.28ZM128.021 656.28H118.161V634.96H128.021V656.28ZM159.221 610.01H147.381V574.41H159.221V610.01ZM210.581 610.01H188.261V587.78C188.261 581.61 193.261 576.62 199.421 576.62C205.581 576.62 210.581 581.62 210.581 587.78V610.01ZM251.451 610.01H239.611V574.41H251.451V610.01ZM280.661 656.28H270.801V634.96H280.661V656.28ZM312.011 656.28H302.151V634.96H312.011V656.28ZM331.811 585.48H315.291V563.33H331.811V585.48ZM343.351 656.28H333.491V634.96H343.351V656.28ZM233.121 695.94H165.721V666.84C165.721 648.26 180.841 633.14 199.421 633.14C218.001 633.14 233.121 648.26 233.121 666.84V695.94ZM55.491 634.96H65.351V656.28H55.491V634.96Z" fill="url(#paint3_linear_1607_4396)"/>
</g>
<path d="M615.831 781.65H-1.21875V860.44H615.831V781.65Z" fill="url(#paint4_linear_1607_4396)"/>
<path d="M102.76 783.97H72.4902L77.4802 634.18H97.7602L102.76 783.97Z" fill="url(#paint5_linear_1607_4396)"/>
<path d="M101.201 628.64H74.0508V637.22H101.201V628.64Z" fill="url(#paint6_linear_1607_4396)"/>
<path d="M164.541 783.97H134.271L139.271 634.18H159.551L164.541 783.97Z" fill="url(#paint7_linear_1607_4396)"/>
<path d="M162.982 628.64H135.832V637.22H162.982V628.64Z" fill="url(#paint8_linear_1607_4396)"/>
<path d="M226.331 783.97H196.061L201.051 634.18H221.341L226.331 783.97Z" fill="url(#paint9_linear_1607_4396)"/>
<path d="M224.771 628.64H197.621V637.22H224.771V628.64Z" fill="url(#paint10_linear_1607_4396)"/>
<path d="M288.122 783.97H257.852L262.842 634.18H283.122L288.122 783.97Z" fill="url(#paint11_linear_1607_4396)"/>
<path d="M286.562 628.64H259.412V637.22H286.562V628.64Z" fill="url(#paint12_linear_1607_4396)"/>
<path d="M349.901 783.97H319.631L324.631 634.18H344.911L349.901 783.97Z" fill="url(#paint13_linear_1607_4396)"/>
<path d="M348.341 628.64H321.191V637.22H348.341V628.64Z" fill="url(#paint14_linear_1607_4396)"/>
<path d="M411.692 783.97H381.422L386.412 634.18H406.702L411.692 783.97Z" fill="url(#paint15_linear_1607_4396)"/>
<path d="M410.132 628.64H382.982V637.22H410.132V628.64Z" fill="url(#paint16_linear_1607_4396)"/>
<path d="M421.361 592.99V587.37H416.841V570.83H421.361V565.21H300.911V553.98H294.671V550.24H189.511V553.98H183.271V565.21H62.8209V570.83H67.3409V587.37H62.8209V592.99H54.7109L60.3309 601.1H62.8309V606.72H67.3509V629.81H416.851V606.72H421.371V601.1H423.871L429.491 592.99H421.381H421.361ZM83.7009 622.79C83.7009 623.38 83.2209 623.86 82.6309 623.86C82.0409 623.86 81.5609 623.38 81.5609 622.79V610C81.5609 609.41 82.0409 608.93 82.6309 608.93C83.2209 608.93 83.7009 609.41 83.7009 610V622.79ZM88.6909 622.79C88.6909 623.38 88.2109 623.86 87.6209 623.86C87.0309 623.86 86.5509 623.38 86.5509 622.79V610C86.5509 609.41 87.0309 608.93 87.6209 608.93C88.2109 608.93 88.6909 609.41 88.6909 610V622.79ZM93.6909 622.79C93.6909 623.38 93.2109 623.86 92.6209 623.86C92.0309 623.86 91.5509 623.38 91.5509 622.79V610C91.5509 609.41 92.0309 608.93 92.6209 608.93C93.2109 608.93 93.6909 609.41 93.6909 610V622.79ZM145.491 622.79C145.491 623.38 145.011 623.86 144.421 623.86C143.831 623.86 143.351 623.38 143.351 622.79V610C143.351 609.41 143.831 608.93 144.421 608.93C145.011 608.93 145.491 609.41 145.491 610V622.79ZM150.481 622.79C150.481 623.38 150.001 623.86 149.411 623.86C148.821 623.86 148.341 623.38 148.341 622.79V610C148.341 609.41 148.821 608.93 149.411 608.93C150.001 608.93 150.481 609.41 150.481 610V622.79ZM155.471 622.79C155.471 623.38 154.991 623.86 154.401 623.86C153.811 623.86 153.331 623.38 153.331 622.79V610C153.331 609.41 153.811 608.93 154.401 608.93C154.991 608.93 155.471 609.41 155.471 610V622.79ZM183.031 582.18H77.8709C77.2809 582.18 76.8009 581.7 76.8009 581.11C76.8009 580.52 77.2809 580.04 77.8709 580.04H183.031C183.621 580.04 184.101 580.52 184.101 581.11C184.101 581.7 183.621 582.18 183.031 582.18ZM183.031 574.56H100.961C100.371 574.56 99.8909 574.08 99.8909 573.49C99.8909 572.9 100.371 572.42 100.961 572.42H183.031C183.621 572.42 184.101 572.9 184.101 573.49C184.101 574.08 183.621 574.56 183.031 574.56ZM207.271 622.79C207.271 623.38 206.791 623.86 206.201 623.86C205.611 623.86 205.131 623.38 205.131 622.79V610C205.131 609.41 205.611 608.93 206.201 608.93C206.791 608.93 207.271 609.41 207.271 610V622.79ZM212.271 622.79C212.271 623.38 211.791 623.86 211.201 623.86C210.611 623.86 210.131 623.38 210.131 622.79V610C210.131 609.41 210.611 608.93 211.201 608.93C211.791 608.93 212.271 609.41 212.271 610V622.79ZM217.261 622.79C217.261 623.38 216.781 623.86 216.191 623.86C215.601 623.86 215.121 623.38 215.121 622.79V610C215.121 609.41 215.601 608.93 216.191 608.93C216.781 608.93 217.261 609.41 217.261 610V622.79ZM269.061 622.79C269.061 623.38 268.581 623.86 267.991 623.86C267.401 623.86 266.921 623.38 266.921 622.79V610C266.921 609.41 267.401 608.93 267.991 608.93C268.581 608.93 269.061 609.41 269.061 610V622.79ZM274.051 622.79C274.051 623.38 273.571 623.86 272.981 623.86C272.391 623.86 271.911 623.38 271.911 622.79V610C271.911 609.41 272.391 608.93 272.981 608.93C273.571 608.93 274.051 609.41 274.051 610V622.79ZM279.051 622.79C279.051 623.38 278.571 623.86 277.981 623.86C277.391 623.86 276.911 623.38 276.911 622.79V610C276.911 609.41 277.391 608.93 277.981 608.93C278.571 608.93 279.051 609.41 279.051 610V622.79ZM288.121 582.32C288.121 583.48 287.181 584.42 286.021 584.42H198.161C197.001 584.42 196.061 583.48 196.061 582.32V564.67C196.061 563.51 197.001 562.57 198.161 562.57H286.021C287.181 562.57 288.121 563.51 288.121 564.67V582.32ZM330.851 622.79C330.851 623.38 330.371 623.86 329.781 623.86C329.191 623.86 328.711 623.38 328.711 622.79V610C328.711 609.41 329.191 608.93 329.781 608.93C330.371 608.93 330.851 609.41 330.851 610V622.79ZM335.841 622.79C335.841 623.38 335.361 623.86 334.771 623.86C334.181 623.86 333.701 623.38 333.701 622.79V610C333.701 609.41 334.181 608.93 334.771 608.93C335.361 608.93 335.841 609.41 335.841 610V622.79ZM340.831 622.79C340.831 623.38 340.351 623.86 339.761 623.86C339.171 623.86 338.691 623.38 338.691 622.79V610C338.691 609.41 339.171 608.93 339.761 608.93C340.351 608.93 340.831 609.41 340.831 610V622.79ZM383.221 582.18H301.151C300.561 582.18 300.081 581.7 300.081 581.11C300.081 580.52 300.561 580.04 301.151 580.04H383.221C383.811 580.04 384.291 580.52 384.291 581.11C384.291 581.7 383.811 582.18 383.221 582.18ZM392.631 622.79C392.631 623.38 392.151 623.86 391.561 623.86C390.971 623.86 390.491 623.38 390.491 622.79V610C390.491 609.41 390.971 608.93 391.561 608.93C392.151 608.93 392.631 609.41 392.631 610V622.79ZM397.631 622.79C397.631 623.38 397.151 623.86 396.561 623.86C395.971 623.86 395.491 623.38 395.491 622.79V610C395.491 609.41 395.971 608.93 396.561 608.93C397.151 608.93 397.631 609.41 397.631 610V622.79ZM402.621 622.79C402.621 623.38 402.141 623.86 401.551 623.86C400.961 623.86 400.481 623.38 400.481 622.79V610C400.481 609.41 400.961 608.93 401.551 608.93C402.141 608.93 402.621 609.41 402.621 610V622.79ZM406.301 574.56H301.141C300.551 574.56 300.071 574.08 300.071 573.49C300.071 572.9 300.551 572.42 301.141 572.42H406.301C406.891 572.42 407.371 572.9 407.371 573.49C407.371 574.08 406.891 574.56 406.301 574.56Z" fill="url(#paint17_linear_1607_4396)"/>
<path d="M269.591 552.43C269.591 552.43 262.901 542.63 269.591 536.13C279.191 526.81 275.441 509.37 287.301 514.52L287.181 523.63C287.161 525.23 286.321 526.7 284.941 527.52C283.501 528.37 283.211 529.53 284.331 533.01C285.181 535.67 283.861 539.56 283.861 539.56C283.861 539.56 288.701 542.21 283.861 549.39L282.691 548.14C282.691 548.14 285.261 544.24 282.461 543.3C282.461 543.3 279.651 547.98 276.841 548.21C274.031 548.44 274.501 552.42 274.501 552.42H269.591V552.43Z" fill="url(#paint18_linear_1607_4396)"/>
<path d="M214.581 552.43C214.581 552.43 221.271 542.63 214.581 536.13C204.981 526.81 208.731 509.37 196.871 514.52L196.991 523.63C197.011 525.23 197.851 526.7 199.231 527.52C200.671 528.37 200.961 529.53 199.841 533.01C198.991 535.67 200.311 539.56 200.311 539.56C200.311 539.56 195.471 542.21 200.311 549.39L201.481 548.14C201.481 548.14 198.911 544.24 201.711 543.3C201.711 543.3 204.521 547.98 207.331 548.21C210.141 548.44 209.671 552.42 209.671 552.42H214.581V552.43Z" fill="url(#paint19_linear_1607_4396)"/>
<path d="M262.881 513.59C261.751 510.7 256.761 504.93 254.731 508.67C252.701 512.41 253.951 524.12 252.231 525.68C250.511 527.24 249.891 515.07 248.491 517.72C247.091 520.37 249.431 524.27 247.091 523.65C244.751 523.03 247.091 512.73 244.591 512.42L242.091 512.11L239.591 512.42C237.091 512.73 239.431 523.03 237.091 523.65C234.751 524.27 237.091 520.37 235.691 517.72C234.291 515.07 233.661 527.24 231.951 525.68C230.231 524.12 231.481 512.42 229.451 508.67C227.421 504.93 222.431 510.7 221.301 513.59C220.171 516.48 224.461 521 224.491 525.68C224.521 530.36 219.161 531.14 222.281 538.01C225.401 544.88 224.311 552.44 224.311 552.44H259.881C259.881 552.44 258.791 544.87 261.911 538.01C265.031 531.15 259.671 530.37 259.701 525.68C259.731 521 264.021 516.48 262.891 513.59H262.881Z" fill="url(#paint20_linear_1607_4396)"/>
<path d="M243.52 487.12H240.66V512.45H243.52V487.12Z" fill="url(#paint21_linear_1607_4396)"/>
<path d="M242.091 499.83C239.951 499.83 238.211 498.09 238.211 495.96C238.211 493.83 239.951 492.08 242.091 492.08C244.231 492.08 245.961 493.82 245.961 495.96C245.961 498.1 244.221 499.83 242.091 499.83ZM242.091 493.52C240.741 493.52 239.651 494.62 239.651 495.96C239.651 497.3 240.751 498.4 242.091 498.4C243.431 498.4 244.531 497.3 244.531 495.96C244.531 494.62 243.431 493.52 242.091 493.52Z" fill="url(#paint22_linear_1607_4396)"/>
<path d="M248.722 480.15C244.502 480.31 244.512 486.7 243.492 484.83C242.482 482.96 242.542 483.23 242.092 483.23C241.642 483.23 241.702 482.96 240.692 484.83C239.682 486.7 239.682 480.31 235.462 480.15C231.332 479.99 230.002 478.2 230.002 478.2C230.002 478.2 230.692 483.28 235.662 486.39C236.112 486.67 236.392 486.96 236.552 487.64C236.862 488.99 238.002 489.98 239.382 489.98H244.812C246.192 489.98 247.332 488.99 247.642 487.64C247.802 486.96 248.082 486.67 248.532 486.39C253.502 483.28 254.192 478.2 254.192 478.2C254.192 478.2 252.862 479.99 248.732 480.15H248.722Z" fill="url(#paint23_linear_1607_4396)"/>
<path d="M797.691 684.22H396.981L390.941 671.82H803.731L797.691 684.22Z" fill="url(#paint24_linear_1607_4396)"/>
<path d="M456.29 626.96V623.76C456.29 622.43 455.21 621.36 453.89 621.36C452.57 621.36 451.49 622.44 451.49 623.76V626.96H444.09V623.76C444.09 622.43 443.01 621.36 441.69 621.36C440.37 621.36 439.29 622.44 439.29 623.76V626.96H431.89V623.76C431.89 622.43 430.81 621.36 429.49 621.36C428.17 621.36 427.09 622.44 427.09 623.76V626.96H419.69V623.76C419.69 622.43 418.61 621.36 417.29 621.36C415.97 621.36 414.89 622.44 414.89 623.76V626.96H406.48L409.07 631.27V682.01H462.12V631.27L464.71 626.96H456.3H456.29ZM422.7 656.67H417.9V648.26C417.9 646.93 418.98 645.86 420.3 645.86C421.62 645.86 422.7 646.94 422.7 648.26V656.67ZM437.99 656.67H433.19V648.26C433.19 646.93 434.27 645.86 435.59 645.86C436.91 645.86 437.99 646.94 437.99 648.26V656.67ZM453.27 656.67H448.47V648.26C448.47 646.93 449.55 645.86 450.87 645.86C452.19 645.86 453.27 646.94 453.27 648.26V656.67Z" fill="url(#paint25_linear_1607_4396)"/>
<path d="M470.712 664.83C469.492 664.83 468.512 665.82 468.512 667.03V672.34H472.922V667.03C472.922 665.81 471.932 664.83 470.722 664.83H470.712Z" fill="url(#paint26_linear_1607_4396)"/>
<path d="M488.513 664.83C487.293 664.83 486.312 665.82 486.312 667.03V672.34H490.723V667.03C490.723 665.81 489.733 664.83 488.523 664.83H488.513Z" fill="url(#paint27_linear_1607_4396)"/>
<path d="M506.302 664.83C505.082 664.83 504.102 665.82 504.102 667.03V672.34H508.512V667.03C508.512 665.81 507.522 664.83 506.312 664.83H506.302Z" fill="url(#paint28_linear_1607_4396)"/>
<path d="M524.102 664.83C522.882 664.83 521.902 665.82 521.902 667.03V672.34H526.312V667.03C526.312 665.81 525.322 664.83 524.112 664.83H524.102Z" fill="url(#paint29_linear_1607_4396)"/>
<path d="M529.561 648.27L532.921 653.87V700.919H661.751V653.87L665.111 648.27H529.561Z" fill="url(#paint30_linear_1607_4396)"/>
<path d="M597.341 708.48C624.563 708.48 646.631 686.412 646.631 659.19C646.631 631.968 624.563 609.9 597.341 609.9C570.119 609.9 548.051 631.968 548.051 659.19C548.051 686.412 570.119 708.48 597.341 708.48Z" fill="url(#paint31_linear_1607_4396)"/>
<path d="M545.79 636.6V624.55H548.69L542.75 602.91L536.8 624.55H539.701V636.6L534.23 648.65H544.391H551.271L545.79 636.6Z" fill="url(#paint32_linear_1607_4396)"/>
<path d="M396.98 681.31V783.97H797.69V681.31H396.98ZM723.72 712H734.29V722.57H723.72V712ZM702.21 712H712.78V722.57H702.21V712ZM680.7 712H691.27V722.57H680.7V712ZM659.19 712H669.76V722.57H659.19V712ZM525.64 712H536.21V722.57H525.64V712ZM504.13 712H514.7V722.57H504.13V712ZM482.62 712H493.19V722.57H482.62V712ZM461.11 712H471.68V722.57H461.11V712ZM444.09 770.21H427.08V720.72H444.09V770.21ZM444.09 710.72H427.08V697.65C427.08 692.95 430.89 689.15 435.58 689.15C440.27 689.15 444.08 692.96 444.08 697.65V710.72H444.09ZM472.99 770.21H459.79V740.94C459.79 737.29 462.75 734.34 466.39 734.34C470.03 734.34 472.99 737.3 472.99 740.94V770.21ZM494.5 770.21H481.3V740.94C481.3 737.29 484.26 734.34 487.9 734.34C491.54 734.34 494.5 737.3 494.5 740.94V770.21ZM516.02 770.21H502.82V740.94C502.82 737.29 505.78 734.34 509.42 734.34C513.06 734.34 516.02 737.3 516.02 740.94V770.21ZM537.53 770.21H524.33V740.94C524.33 737.29 527.29 734.34 530.93 734.34C534.57 734.34 537.53 737.3 537.53 740.94V770.21ZM671.07 770.21H657.87V740.94C657.87 737.29 660.83 734.34 664.47 734.34C668.111 734.34 671.07 737.3 671.07 740.94V770.21ZM692.59 770.21H679.39V740.94C679.39 737.29 682.35 734.34 685.99 734.34C689.63 734.34 692.59 737.3 692.59 740.94V770.21ZM714.1 770.21H700.9V740.94C700.9 737.29 703.86 734.34 707.5 734.34C711.14 734.34 714.1 737.3 714.1 740.94V770.21ZM735.61 770.21H722.41V740.94C722.41 737.29 725.37 734.34 729.01 734.34C732.65 734.34 735.61 737.3 735.61 740.94V770.21ZM767.59 770.21H750.58V720.72H767.59V770.21ZM767.59 710.72H750.58V697.65C750.58 692.95 754.39 689.15 759.08 689.15C763.77 689.15 767.58 692.96 767.58 697.65V710.72H767.59Z" fill="url(#paint33_linear_1607_4396)"/>
<path d="M429.312 432H418.702C416.342 432 414.432 430.09 414.432 427.73C414.432 425.37 416.342 423.46 418.702 423.46H429.312C431.672 423.46 433.592 425.37 433.592 427.73C433.592 430.09 431.682 432 429.312 432Z" fill="url(#paint34_linear_1607_4396)"/>
<path d="M424.002 417.35C436.373 417.35 446.402 407.321 446.402 394.95C446.402 382.579 436.373 372.55 424.002 372.55C411.63 372.55 401.602 382.579 401.602 394.95C401.602 407.321 411.63 417.35 424.002 417.35Z" fill="url(#paint35_linear_1607_4396)"/>
<path d="M431.481 353.81H416.521V380.52H431.481V353.81Z" fill="url(#paint36_linear_1607_4396)"/>
<path d="M427.131 300.19H420.881V364.31H427.131V300.19Z" fill="url(#paint37_linear_1607_4396)"/>
<path d="M425.561 255.3H422.441V319.42H425.561V255.3Z" fill="url(#paint38_linear_1607_4396)"/>
<path d="M42.471 555.78H21.291V696.61H42.471V555.78Z" fill="url(#paint39_linear_1607_4396)"/>
<path d="M42.4711 555.78H31.8811H21.2911L18.1211 552.25V535.66H31.8811H45.6511V552.25L42.4711 555.78Z" fill="url(#paint40_linear_1607_4396)"/>
<path d="M31.8801 533.21C31.8801 533.21 37.5301 533.19 40.5301 530.36C40.5301 530.36 34.0001 523.83 34.8801 518.54C35.7601 513.25 45.6501 516.78 48.6501 505.3C48.6501 505.3 38.0601 506.71 34.1801 511.48C34.1801 511.48 35.2401 504.95 32.7701 503.89C30.3001 502.83 27.3001 512.01 27.3001 512.01C27.3001 512.01 17.4201 510.07 12.8301 505.13C12.8301 505.13 16.0101 515.99 24.4801 518.5C32.9501 521.01 25.5401 530.72 25.5401 530.72C25.5401 530.72 28.5601 533.52 31.8901 533.21H31.8801Z" fill="url(#paint41_linear_1607_4396)"/>
<path d="M35.77 528.96H28V541.14H35.77V528.96Z" fill="url(#paint42_linear_1607_4396)"/>
<path d="M49.0017 688.85H14.7617V697.67H49.0017V688.85Z" fill="url(#paint43_linear_1607_4396)"/>
<path d="M53.0612 695.02H10.7012V703.84H53.0612V695.02Z" fill="url(#paint44_linear_1607_4396)"/>
<path d="M64.1818 750.61H-0.408203V759.43H64.1818V750.61Z" fill="url(#paint45_linear_1607_4396)"/>
<path d="M77.4116 761.73H-13.6484V781.67H77.4116V761.73Z" fill="url(#paint46_linear_1607_4396)"/>
<path d="M64.1818 700.85H-0.408203V705.44H64.1818V700.85Z" fill="url(#paint47_linear_1607_4396)"/>
<path d="M82.8909 759.44H-19.1191V764.03H82.8909V759.44Z" fill="url(#paint48_linear_1607_4396)"/>
<path d="M82.8909 779.38H-19.1191V783.97H82.8909V779.38Z" fill="url(#paint49_linear_1607_4396)"/>
<path d="M46.5305 703.14H17.2305V752.02H46.5305V703.14Z" fill="url(#paint50_linear_1607_4396)"/>
<path d="M5.32141 703.14H2.94141V752.02H5.32141V703.14Z" fill="url(#paint51_linear_1607_4396)"/>
<path d="M10.0011 703.14H7.62109V752.02H10.0011V703.14Z" fill="url(#paint52_linear_1607_4396)"/>
<path d="M14.6808 703.14H12.3008V752.02H14.6808V703.14Z" fill="url(#paint53_linear_1607_4396)"/>
<path d="M51.4718 703.14H49.0918V752.02H51.4718V703.14Z" fill="url(#paint54_linear_1607_4396)"/>
<path d="M56.1515 703.14H53.7715V752.02H56.1515V703.14Z" fill="url(#paint55_linear_1607_4396)"/>
<path d="M60.8312 703.14H58.4512V752.02H60.8312V703.14Z" fill="url(#paint56_linear_1607_4396)"/>
<path d="M432.912 630.56L427.882 412.05H420.122L415.102 630.56H432.912Z" fill="url(#paint57_linear_1607_4396)"/>
</g>
<defs>
<linearGradient id="paint0_linear_1607_4396" x1="305.76" y1="858.12" x2="305.76" y2="0.569824" gradientUnits="userSpaceOnUse">
<stop stop-color="white"/>
<stop offset="0.1" stop-color="#C4EFF4"/>
<stop offset="0.25" stop-color="#71D8E4"/>
<stop offset="0.37" stop-color="#34C7D8"/>
<stop offset="0.46" stop-color="#0EBCD1"/>
<stop offset="0.51" stop-color="#00B9CF"/>
<stop offset="0.6" stop-color="#08ABBF"/>
<stop offset="0.8" stop-color="#1D8696"/>
<stop offset="1" stop-color="#385A65"/>
</linearGradient>
<linearGradient id="paint1_linear_1607_4396" x1="264.651" y1="536.81" x2="264.651" y2="526.32" gradientUnits="userSpaceOnUse">
<stop stop-color="#00B9CF"/>
<stop offset="0.17" stop-color="#02B4C9"/>
<stop offset="0.38" stop-color="#0AA6BA"/>
<stop offset="0.61" stop-color="#1890A1"/>
<stop offset="0.85" stop-color="#2A717E"/>
<stop offset="1" stop-color="#385A65"/>
</linearGradient>
<linearGradient id="paint2_linear_1607_4396" x1="134.171" y1="0.000298554" x2="134.171" y2="0.000298554" gradientUnits="userSpaceOnUse">
<stop stop-color="#00B9CF"/>
<stop offset="0.17" stop-color="#02B4C9"/>
<stop offset="0.38" stop-color="#0AA6BA"/>
<stop offset="0.61" stop-color="#1890A1"/>
<stop offset="0.85" stop-color="#2A717E"/>
<stop offset="1" stop-color="#385A65"/>
</linearGradient>
<linearGradient id="paint3_linear_1607_4396" x1="337.241" y1="800.22" x2="337.241" y2="401.48" gradientUnits="userSpaceOnUse">
<stop stop-color="#00B9CF"/>
<stop offset="0.17" stop-color="#02B4C9"/>
<stop offset="0.38" stop-color="#0AA6BA"/>
<stop offset="0.61" stop-color="#1890A1"/>
<stop offset="0.85" stop-color="#2A717E"/>
<stop offset="1" stop-color="#385A65"/>
</linearGradient>
<linearGradient id="paint4_linear_1607_4396" x1="307.311" y1="907.17" x2="307.311" y2="452.64" gradientUnits="userSpaceOnUse">
<stop offset="0.01" stop-color="#0099A9"/>
<stop offset="0.1" stop-color="#00919F"/>
<stop offset="0.47" stop-color="#00777F"/>
<stop offset="0.78" stop-color="#00676C"/>
<stop offset="0.99" stop-color="#006265"/>
</linearGradient>
<linearGradient id="paint5_linear_1607_4396" x1="87.6202" y1="858.79" x2="87.6202" y2="578.11" gradientUnits="userSpaceOnUse">
<stop offset="0.01" stop-color="#0099A9"/>
<stop offset="0.1" stop-color="#00919F"/>
<stop offset="0.47" stop-color="#00777F"/>
<stop offset="0.78" stop-color="#00676C"/>
<stop offset="0.99" stop-color="#006265"/>
</linearGradient>
<linearGradient id="paint6_linear_1607_4396" x1="87.6208" y1="858.788" x2="87.6208" y2="578.11" gradientUnits="userSpaceOnUse">
<stop offset="0.01" stop-color="#0099A9"/>
<stop offset="0.1" stop-color="#00919F"/>
<stop offset="0.47" stop-color="#00777F"/>
<stop offset="0.78" stop-color="#00676C"/>
<stop offset="0.99" stop-color="#006265"/>
</linearGradient>
<linearGradient id="paint7_linear_1607_4396" x1="149.411" y1="858.79" x2="149.411" y2="578.11" gradientUnits="userSpaceOnUse">
<stop offset="0.01" stop-color="#0099A9"/>
<stop offset="0.1" stop-color="#00919F"/>
<stop offset="0.47" stop-color="#00777F"/>
<stop offset="0.78" stop-color="#00676C"/>
<stop offset="0.99" stop-color="#006265"/>
</linearGradient>
<linearGradient id="paint8_linear_1607_4396" x1="149.412" y1="858.788" x2="149.412" y2="578.11" gradientUnits="userSpaceOnUse">
<stop offset="0.01" stop-color="#0099A9"/>
<stop offset="0.1" stop-color="#00919F"/>
<stop offset="0.47" stop-color="#00777F"/>
<stop offset="0.78" stop-color="#00676C"/>
<stop offset="0.99" stop-color="#006265"/>
</linearGradient>
<linearGradient id="paint9_linear_1607_4396" x1="211.191" y1="858.79" x2="211.191" y2="578.11" gradientUnits="userSpaceOnUse">
<stop offset="0.01" stop-color="#0099A9"/>
<stop offset="0.1" stop-color="#00919F"/>
<stop offset="0.47" stop-color="#00777F"/>
<stop offset="0.78" stop-color="#00676C"/>
<stop offset="0.99" stop-color="#006265"/>
</linearGradient>
<linearGradient id="paint10_linear_1607_4396" x1="211.191" y1="858.788" x2="211.191" y2="578.11" gradientUnits="userSpaceOnUse">
<stop offset="0.01" stop-color="#0099A9"/>
<stop offset="0.1" stop-color="#00919F"/>
<stop offset="0.47" stop-color="#00777F"/>
<stop offset="0.78" stop-color="#00676C"/>
<stop offset="0.99" stop-color="#006265"/>
</linearGradient>
<linearGradient id="paint11_linear_1607_4396" x1="272.982" y1="858.79" x2="272.982" y2="578.11" gradientUnits="userSpaceOnUse">
<stop offset="0.01" stop-color="#0099A9"/>
<stop offset="0.1" stop-color="#00919F"/>
<stop offset="0.47" stop-color="#00777F"/>
<stop offset="0.78" stop-color="#00676C"/>
<stop offset="0.99" stop-color="#006265"/>
</linearGradient>
<linearGradient id="paint12_linear_1607_4396" x1="272.982" y1="858.788" x2="272.982" y2="578.11" gradientUnits="userSpaceOnUse">
<stop offset="0.01" stop-color="#0099A9"/>
<stop offset="0.1" stop-color="#00919F"/>
<stop offset="0.47" stop-color="#00777F"/>
<stop offset="0.78" stop-color="#00676C"/>
<stop offset="0.99" stop-color="#006265"/>
</linearGradient>
<linearGradient id="paint13_linear_1607_4396" x1="334.771" y1="858.79" x2="334.771" y2="578.11" gradientUnits="userSpaceOnUse">
<stop offset="0.01" stop-color="#0099A9"/>
<stop offset="0.1" stop-color="#00919F"/>
<stop offset="0.47" stop-color="#00777F"/>
<stop offset="0.78" stop-color="#00676C"/>
<stop offset="0.99" stop-color="#006265"/>
</linearGradient>
<linearGradient id="paint14_linear_1607_4396" x1="334.771" y1="858.788" x2="334.771" y2="578.11" gradientUnits="userSpaceOnUse">
<stop offset="0.01" stop-color="#0099A9"/>
<stop offset="0.1" stop-color="#00919F"/>
<stop offset="0.47" stop-color="#00777F"/>
<stop offset="0.78" stop-color="#00676C"/>
<stop offset="0.99" stop-color="#006265"/>
</linearGradient>
<linearGradient id="paint15_linear_1607_4396" x1="396.552" y1="858.79" x2="396.552" y2="578.11" gradientUnits="userSpaceOnUse">
<stop offset="0.01" stop-color="#0099A9"/>
<stop offset="0.1" stop-color="#00919F"/>
<stop offset="0.47" stop-color="#00777F"/>
<stop offset="0.78" stop-color="#00676C"/>
<stop offset="0.99" stop-color="#006265"/>
</linearGradient>
<linearGradient id="paint16_linear_1607_4396" x1="396.552" y1="858.788" x2="396.552" y2="578.11" gradientUnits="userSpaceOnUse">
<stop offset="0.01" stop-color="#0099A9"/>
<stop offset="0.1" stop-color="#00919F"/>
<stop offset="0.47" stop-color="#00777F"/>
<stop offset="0.78" stop-color="#00676C"/>
<stop offset="0.99" stop-color="#006265"/>
</linearGradient>
<linearGradient id="paint17_linear_1607_4396" x1="242.091" y1="858.79" x2="242.091" y2="578.11" gradientUnits="userSpaceOnUse">
<stop offset="0.01" stop-color="#0099A9"/>
<stop offset="0.1" stop-color="#00919F"/>
<stop offset="0.47" stop-color="#00777F"/>
<stop offset="0.78" stop-color="#00676C"/>
<stop offset="0.99" stop-color="#006265"/>
</linearGradient>
<linearGradient id="paint18_linear_1607_4396" x1="276.961" y1="858.79" x2="276.961" y2="578.11" gradientUnits="userSpaceOnUse">
<stop offset="0.01" stop-color="#0099A9"/>
<stop offset="0.1" stop-color="#00919F"/>
<stop offset="0.47" stop-color="#00777F"/>
<stop offset="0.78" stop-color="#00676C"/>
<stop offset="0.99" stop-color="#006265"/>
</linearGradient>
<linearGradient id="paint19_linear_1607_4396" x1="207.221" y1="858.79" x2="207.221" y2="578.11" gradientUnits="userSpaceOnUse">
<stop offset="0.01" stop-color="#0099A9"/>
<stop offset="0.1" stop-color="#00919F"/>
<stop offset="0.47" stop-color="#00777F"/>
<stop offset="0.78" stop-color="#00676C"/>
<stop offset="0.99" stop-color="#006265"/>
</linearGradient>
<linearGradient id="paint20_linear_1607_4396" x1="242.091" y1="858.79" x2="242.091" y2="578.11" gradientUnits="userSpaceOnUse">
<stop offset="0.01" stop-color="#0099A9"/>
<stop offset="0.1" stop-color="#00919F"/>
<stop offset="0.47" stop-color="#00777F"/>
<stop offset="0.78" stop-color="#00676C"/>
<stop offset="0.99" stop-color="#006265"/>
</linearGradient>
<linearGradient id="paint21_linear_1607_4396" x1="242.09" y1="858.79" x2="242.09" y2="578.11" gradientUnits="userSpaceOnUse">
<stop offset="0.01" stop-color="#0099A9"/>
<stop offset="0.1" stop-color="#00919F"/>
<stop offset="0.47" stop-color="#00777F"/>
<stop offset="0.78" stop-color="#00676C"/>
<stop offset="0.99" stop-color="#006265"/>
</linearGradient>
<linearGradient id="paint22_linear_1607_4396" x1="242.091" y1="858.79" x2="242.091" y2="578.11" gradientUnits="userSpaceOnUse">
<stop offset="0.01" stop-color="#0099A9"/>
<stop offset="0.1" stop-color="#00919F"/>
<stop offset="0.47" stop-color="#00777F"/>
<stop offset="0.78" stop-color="#00676C"/>
<stop offset="0.99" stop-color="#006265"/>
</linearGradient>
<linearGradient id="paint23_linear_1607_4396" x1="242.092" y1="858.79" x2="242.092" y2="578.11" gradientUnits="userSpaceOnUse">
<stop offset="0.01" stop-color="#0099A9"/>
<stop offset="0.1" stop-color="#00919F"/>
<stop offset="0.47" stop-color="#00777F"/>
<stop offset="0.78" stop-color="#00676C"/>
<stop offset="0.99" stop-color="#006265"/>
</linearGradient>
<linearGradient id="paint24_linear_1607_4396" x1="597.341" y1="859.969" x2="597.341" y2="574.87" gradientUnits="userSpaceOnUse">
<stop offset="0.01" stop-color="#0099A9"/>
<stop offset="0.1" stop-color="#00919F"/>
<stop offset="0.47" stop-color="#00777F"/>
<stop offset="0.78" stop-color="#00676C"/>
<stop offset="0.99" stop-color="#006265"/>
</linearGradient>
<linearGradient id="paint25_linear_1607_4396" x1="435.58" y1="859.97" x2="435.58" y2="574.87" gradientUnits="userSpaceOnUse">
<stop offset="0.01" stop-color="#0099A9"/>
<stop offset="0.1" stop-color="#00919F"/>
<stop offset="0.47" stop-color="#00777F"/>
<stop offset="0.78" stop-color="#00676C"/>
<stop offset="0.99" stop-color="#006265"/>
</linearGradient>
<linearGradient id="paint26_linear_1607_4396" x1="470.712" y1="859.97" x2="470.712" y2="574.869" gradientUnits="userSpaceOnUse">
<stop offset="0.01" stop-color="#0099A9"/>
<stop offset="0.1" stop-color="#00919F"/>
<stop offset="0.47" stop-color="#00777F"/>
<stop offset="0.78" stop-color="#00676C"/>
<stop offset="0.99" stop-color="#006265"/>
</linearGradient>
<linearGradient id="paint27_linear_1607_4396" x1="488.513" y1="859.97" x2="488.513" y2="574.869" gradientUnits="userSpaceOnUse">
<stop offset="0.01" stop-color="#0099A9"/>
<stop offset="0.1" stop-color="#00919F"/>
<stop offset="0.47" stop-color="#00777F"/>
<stop offset="0.78" stop-color="#00676C"/>
<stop offset="0.99" stop-color="#006265"/>
</linearGradient>
<linearGradient id="paint28_linear_1607_4396" x1="506.302" y1="859.97" x2="506.302" y2="574.869" gradientUnits="userSpaceOnUse">
<stop offset="0.01" stop-color="#0099A9"/>
<stop offset="0.1" stop-color="#00919F"/>
<stop offset="0.47" stop-color="#00777F"/>
<stop offset="0.78" stop-color="#00676C"/>
<stop offset="0.99" stop-color="#006265"/>
</linearGradient>
<linearGradient id="paint29_linear_1607_4396" x1="524.102" y1="859.97" x2="524.102" y2="574.869" gradientUnits="userSpaceOnUse">
<stop offset="0.01" stop-color="#0099A9"/>
<stop offset="0.1" stop-color="#00919F"/>
<stop offset="0.47" stop-color="#00777F"/>
<stop offset="0.78" stop-color="#00676C"/>
<stop offset="0.99" stop-color="#006265"/>
</linearGradient>
<linearGradient id="paint30_linear_1607_4396" x1="597.341" y1="859.969" x2="597.341" y2="574.87" gradientUnits="userSpaceOnUse">
<stop offset="0.01" stop-color="#0099A9"/>
<stop offset="0.1" stop-color="#00919F"/>
<stop offset="0.47" stop-color="#00777F"/>
<stop offset="0.78" stop-color="#00676C"/>
<stop offset="0.99" stop-color="#006265"/>
</linearGradient>
<linearGradient id="paint31_linear_1607_4396" x1="597.341" y1="859.97" x2="597.341" y2="574.87" gradientUnits="userSpaceOnUse">
<stop offset="0.01" stop-color="#0099A9"/>
<stop offset="0.1" stop-color="#00919F"/>
<stop offset="0.47" stop-color="#00777F"/>
<stop offset="0.78" stop-color="#00676C"/>
<stop offset="0.99" stop-color="#006265"/>
</linearGradient>
<linearGradient id="paint32_linear_1607_4396" x1="542.75" y1="859.97" x2="542.75" y2="574.87" gradientUnits="userSpaceOnUse">
<stop offset="0.01" stop-color="#0099A9"/>
<stop offset="0.1" stop-color="#00919F"/>
<stop offset="0.47" stop-color="#00777F"/>
<stop offset="0.78" stop-color="#00676C"/>
<stop offset="0.99" stop-color="#006265"/>
</linearGradient>
<linearGradient id="paint33_linear_1607_4396" x1="597.34" y1="859.97" x2="597.34" y2="574.87" gradientUnits="userSpaceOnUse">
<stop offset="0.01" stop-color="#0099A9"/>
<stop offset="0.1" stop-color="#00919F"/>
<stop offset="0.47" stop-color="#00777F"/>
<stop offset="0.78" stop-color="#00676C"/>
<stop offset="0.99" stop-color="#006265"/>
</linearGradient>
<linearGradient id="paint34_linear_1607_4396" x1="424.002" y1="859.97" x2="424.002" y2="574.87" gradientUnits="userSpaceOnUse">
<stop offset="0.01" stop-color="#0099A9"/>
<stop offset="0.1" stop-color="#00919F"/>
<stop offset="0.47" stop-color="#00777F"/>
<stop offset="0.78" stop-color="#00676C"/>
<stop offset="0.99" stop-color="#006265"/>
</linearGradient>
<linearGradient id="paint35_linear_1607_4396" x1="424.002" y1="859.97" x2="424.002" y2="574.87" gradientUnits="userSpaceOnUse">
<stop offset="0.01" stop-color="#0099A9"/>
<stop offset="0.1" stop-color="#00919F"/>
<stop offset="0.47" stop-color="#00777F"/>
<stop offset="0.78" stop-color="#00676C"/>
<stop offset="0.99" stop-color="#006265"/>
</linearGradient>
<linearGradient id="paint36_linear_1607_4396" x1="424.001" y1="859.969" x2="424.001" y2="574.869" gradientUnits="userSpaceOnUse">
<stop offset="0.01" stop-color="#0099A9"/>
<stop offset="0.1" stop-color="#00919F"/>
<stop offset="0.47" stop-color="#00777F"/>
<stop offset="0.78" stop-color="#00676C"/>
<stop offset="0.99" stop-color="#006265"/>
</linearGradient>
<linearGradient id="paint37_linear_1607_4396" x1="424.001" y1="859.97" x2="424.001" y2="574.87" gradientUnits="userSpaceOnUse">
<stop offset="0.01" stop-color="#0099A9"/>
<stop offset="0.1" stop-color="#00919F"/>
<stop offset="0.47" stop-color="#00777F"/>
<stop offset="0.78" stop-color="#00676C"/>
<stop offset="0.99" stop-color="#006265"/>
</linearGradient>
<linearGradient id="paint38_linear_1607_4396" x1="424.001" y1="859.97" x2="424.001" y2="574.87" gradientUnits="userSpaceOnUse">
<stop offset="0.01" stop-color="#0099A9"/>
<stop offset="0.1" stop-color="#00919F"/>
<stop offset="0.47" stop-color="#00777F"/>
<stop offset="0.78" stop-color="#00676C"/>
<stop offset="0.99" stop-color="#006265"/>
</linearGradient>
<linearGradient id="paint39_linear_1607_4396" x1="31.881" y1="851.72" x2="31.881" y2="597.55" gradientUnits="userSpaceOnUse">
<stop offset="0.01" stop-color="#0099A9"/>
<stop offset="0.1" stop-color="#00919F"/>
<stop offset="0.47" stop-color="#00777F"/>
<stop offset="0.78" stop-color="#00676C"/>
<stop offset="0.99" stop-color="#006265"/>
</linearGradient>
<linearGradient id="paint40_linear_1607_4396" x1="31.8811" y1="851.721" x2="31.8811" y2="597.55" gradientUnits="userSpaceOnUse">
<stop offset="0.01" stop-color="#0099A9"/>
<stop offset="0.1" stop-color="#00919F"/>
<stop offset="0.47" stop-color="#00777F"/>
<stop offset="0.78" stop-color="#00676C"/>
<stop offset="0.99" stop-color="#006265"/>
</linearGradient>
<linearGradient id="paint41_linear_1607_4396" x1="30.7401" y1="851.72" x2="30.7401" y2="597.55" gradientUnits="userSpaceOnUse">
<stop offset="0.01" stop-color="#0099A9"/>
<stop offset="0.1" stop-color="#00919F"/>
<stop offset="0.47" stop-color="#00777F"/>
<stop offset="0.78" stop-color="#00676C"/>
<stop offset="0.99" stop-color="#006265"/>
</linearGradient>
<linearGradient id="paint42_linear_1607_4396" x1="31.88" y1="851.72" x2="31.88" y2="597.55" gradientUnits="userSpaceOnUse">
<stop offset="0.01" stop-color="#0099A9"/>
<stop offset="0.1" stop-color="#00919F"/>
<stop offset="0.47" stop-color="#00777F"/>
<stop offset="0.78" stop-color="#00676C"/>
<stop offset="0.99" stop-color="#006265"/>
</linearGradient>
<linearGradient id="paint43_linear_1607_4396" x1="31.8817" y1="851.72" x2="31.8817" y2="597.55" gradientUnits="userSpaceOnUse">
<stop offset="0.01" stop-color="#0099A9"/>
<stop offset="0.1" stop-color="#00919F"/>
<stop offset="0.47" stop-color="#00777F"/>
<stop offset="0.78" stop-color="#00676C"/>
<stop offset="0.99" stop-color="#006265"/>
</linearGradient>
<linearGradient id="paint44_linear_1607_4396" x1="31.8812" y1="851.72" x2="31.8812" y2="597.55" gradientUnits="userSpaceOnUse">
<stop offset="0.01" stop-color="#0099A9"/>
<stop offset="0.1" stop-color="#00919F"/>
<stop offset="0.47" stop-color="#00777F"/>
<stop offset="0.78" stop-color="#00676C"/>
<stop offset="0.99" stop-color="#006265"/>
</linearGradient>
<linearGradient id="paint45_linear_1607_4396" x1="31.8818" y1="851.73" x2="31.8818" y2="597.55" gradientUnits="userSpaceOnUse">
<stop offset="0.01" stop-color="#0099A9"/>
<stop offset="0.1" stop-color="#00919F"/>
<stop offset="0.47" stop-color="#00777F"/>
<stop offset="0.78" stop-color="#00676C"/>
<stop offset="0.99" stop-color="#006265"/>
</linearGradient>
<linearGradient id="paint46_linear_1607_4396" x1="31.8816" y1="851.73" x2="31.8816" y2="597.55" gradientUnits="userSpaceOnUse">
<stop offset="0.01" stop-color="#0099A9"/>
<stop offset="0.1" stop-color="#00919F"/>
<stop offset="0.47" stop-color="#00777F"/>
<stop offset="0.78" stop-color="#00676C"/>
<stop offset="0.99" stop-color="#006265"/>
</linearGradient>
<linearGradient id="paint47_linear_1607_4396" x1="31.8818" y1="851.721" x2="31.8818" y2="597.549" gradientUnits="userSpaceOnUse">
<stop offset="0.01" stop-color="#0099A9"/>
<stop offset="0.1" stop-color="#00919F"/>
<stop offset="0.47" stop-color="#00777F"/>
<stop offset="0.78" stop-color="#00676C"/>
<stop offset="0.99" stop-color="#006265"/>
</linearGradient>
<linearGradient id="paint48_linear_1607_4396" x1="31.8809" y1="851.73" x2="31.8809" y2="597.549" gradientUnits="userSpaceOnUse">
<stop offset="0.01" stop-color="#0099A9"/>
<stop offset="0.1" stop-color="#00919F"/>
<stop offset="0.47" stop-color="#00777F"/>
<stop offset="0.78" stop-color="#00676C"/>
<stop offset="0.99" stop-color="#006265"/>
</linearGradient>
<linearGradient id="paint49_linear_1607_4396" x1="31.8809" y1="851.719" x2="31.8809" y2="597.551" gradientUnits="userSpaceOnUse">
<stop offset="0.01" stop-color="#0099A9"/>
<stop offset="0.1" stop-color="#00919F"/>
<stop offset="0.47" stop-color="#00777F"/>
<stop offset="0.78" stop-color="#00676C"/>
<stop offset="0.99" stop-color="#006265"/>
</linearGradient>
<linearGradient id="paint50_linear_1607_4396" x1="31.8805" y1="851.73" x2="31.8805" y2="597.55" gradientUnits="userSpaceOnUse">
<stop offset="0.01" stop-color="#0099A9"/>
<stop offset="0.1" stop-color="#00919F"/>
<stop offset="0.47" stop-color="#00777F"/>
<stop offset="0.78" stop-color="#00676C"/>
<stop offset="0.99" stop-color="#006265"/>
</linearGradient>
<linearGradient id="paint51_linear_1607_4396" x1="4.13141" y1="851.73" x2="4.13141" y2="597.55" gradientUnits="userSpaceOnUse">
<stop offset="0.01" stop-color="#0099A9"/>
<stop offset="0.1" stop-color="#00919F"/>
<stop offset="0.47" stop-color="#00777F"/>
<stop offset="0.78" stop-color="#00676C"/>
<stop offset="0.99" stop-color="#006265"/>
</linearGradient>
<linearGradient id="paint52_linear_1607_4396" x1="8.8111" y1="851.73" x2="8.8111" y2="597.55" gradientUnits="userSpaceOnUse">
<stop offset="0.01" stop-color="#0099A9"/>
<stop offset="0.1" stop-color="#00919F"/>
<stop offset="0.47" stop-color="#00777F"/>
<stop offset="0.78" stop-color="#00676C"/>
<stop offset="0.99" stop-color="#006265"/>
</linearGradient>
<linearGradient id="paint53_linear_1607_4396" x1="13.4908" y1="851.73" x2="13.4908" y2="597.55" gradientUnits="userSpaceOnUse">
<stop offset="0.01" stop-color="#0099A9"/>
<stop offset="0.1" stop-color="#00919F"/>
<stop offset="0.47" stop-color="#00777F"/>
<stop offset="0.78" stop-color="#00676C"/>
<stop offset="0.99" stop-color="#006265"/>
</linearGradient>
<linearGradient id="paint54_linear_1607_4396" x1="50.2818" y1="851.73" x2="50.2818" y2="597.55" gradientUnits="userSpaceOnUse">
<stop offset="0.01" stop-color="#0099A9"/>
<stop offset="0.1" stop-color="#00919F"/>
<stop offset="0.47" stop-color="#00777F"/>
<stop offset="0.78" stop-color="#00676C"/>
<stop offset="0.99" stop-color="#006265"/>
</linearGradient>
<linearGradient id="paint55_linear_1607_4396" x1="54.9615" y1="851.73" x2="54.9615" y2="597.55" gradientUnits="userSpaceOnUse">
<stop offset="0.01" stop-color="#0099A9"/>
<stop offset="0.1" stop-color="#00919F"/>
<stop offset="0.47" stop-color="#00777F"/>
<stop offset="0.78" stop-color="#00676C"/>
<stop offset="0.99" stop-color="#006265"/>
</linearGradient>
<linearGradient id="paint56_linear_1607_4396" x1="59.6412" y1="851.73" x2="59.6412" y2="597.55" gradientUnits="userSpaceOnUse">
<stop offset="0.01" stop-color="#0099A9"/>
<stop offset="0.1" stop-color="#00919F"/>
<stop offset="0.47" stop-color="#00777F"/>
<stop offset="0.78" stop-color="#00676C"/>
<stop offset="0.99" stop-color="#006265"/>
</linearGradient>
<linearGradient id="paint57_linear_1607_4396" x1="424.002" y1="859.97" x2="424.002" y2="574.87" gradientUnits="userSpaceOnUse">
<stop offset="0.01" stop-color="#0099A9"/>
<stop offset="0.1" stop-color="#00919F"/>
<stop offset="0.47" stop-color="#00777F"/>
<stop offset="0.78" stop-color="#00676C"/>
<stop offset="0.99" stop-color="#006265"/>
</linearGradient>
</defs>
</svg>
