<svg width="1035" height="1035" viewBox="0 0 1035 1035" fill="none" xmlns="http://www.w3.org/2000/svg">
<g clip-path="url(#clip0_1607_4721)">
<path d="M1035 0H0V1035H1035V0Z" fill="#F0AE76"/>
<path d="M1035 0H0V1035H1035V0Z" fill="url(#paint0_linear_1607_4721)"/>
<path d="M1035 758.208V363.014C1025.5 368.04 1019.03 378.009 1019.03 389.502C1019.03 391.193 1019.18 392.845 1019.45 394.46C1018.38 394.832 1017.31 395.234 1016.25 395.648C1007.37 384.925 988.864 384.629 974.07 395.279C958.781 406.286 953.276 424.781 961.776 436.588C963.268 438.66 965.106 440.368 967.183 441.751C961.83 453.279 958.824 466.117 958.824 479.663C958.824 480.305 958.855 480.936 958.867 481.574C958.01 481.497 957.147 481.443 956.272 481.443C941.039 481.443 928.563 493.159 927.312 508.07C924.145 507.357 920.92 506.805 917.637 506.434C914.516 493.221 902.673 483.377 888.506 483.377C871.958 483.377 858.545 496.79 858.545 513.338C858.545 515.561 858.804 517.72 859.263 519.804C850.869 525.122 843.415 531.779 837.203 539.488C832.633 537.712 827.679 536.7 822.481 536.7C811.239 536.7 801.063 541.256 793.694 548.621C784.95 541.624 773.865 537.43 761.795 537.43C756.537 537.43 751.466 538.227 746.692 539.701C745.999 536.429 745.092 533.239 743.991 530.138C756.475 527.819 765.933 516.892 765.933 503.737C765.933 488.895 753.902 476.864 739.06 476.864C728.224 476.864 718.911 483.292 714.659 492.53C702.672 484.532 688.275 479.862 672.783 479.862C634.074 479.862 602.184 508.976 597.77 546.499C595.21 546.236 592.612 546.102 589.983 546.102C558.115 546.102 530.876 565.841 519.773 593.751C508.806 590.24 497.123 588.328 484.991 588.328C466.102 588.328 448.302 592.948 432.613 601.079C424.774 582.648 406.502 569.724 385.21 569.724C363.341 569.724 344.669 583.364 337.205 602.594C331.09 595.504 323.843 589.425 315.733 584.643C318.619 578.216 320.235 571.095 320.235 563.593C320.235 535.155 297.182 512.102 268.744 512.102C262.168 512.102 255.883 513.348 250.102 515.596C249.717 515.12 249.338 514.638 248.946 514.166C254.952 509.237 258.785 501.76 258.785 493.385C258.785 478.543 246.754 466.512 231.912 466.512C227.87 466.512 224.051 467.431 220.61 469.029C215.16 454.792 201.405 444.665 185.251 444.665C167.335 444.665 152.36 457.114 148.413 473.823C144.262 474.291 140.182 474.989 136.179 475.891C134.598 457.036 118.82 442.219 99.5566 442.219C98.4492 442.219 97.3562 442.289 96.2736 442.384C96.2902 441.579 96.3295 440.778 96.3295 439.967C96.3295 390.08 64.288 347.684 19.6629 332.219C20.0045 330.178 20.2011 328.087 20.2011 325.949C20.2011 311.415 12.0101 298.809 0 292.452V758.202H1035V758.208Z" fill="#EFDEB3"/>
<path d="M379.722 210.85C379.722 206.282 376.018 202.579 371.45 202.579C369.986 202.579 368.631 202.991 367.438 203.659C365.513 200.161 361.793 197.791 357.519 197.791C356.405 197.791 355.331 197.959 354.315 198.259C351.663 191.047 344.753 185.89 336.622 185.89C335.637 185.89 334.678 185.988 333.735 186.135C331.704 169.484 317.543 156.577 300.343 156.577C284.696 156.577 271.583 167.265 267.805 181.728C265.213 180.678 262.388 180.086 259.42 180.086C248.237 180.086 238.999 188.308 237.357 199.033C233.342 200.171 230.396 203.858 230.396 208.24C230.396 209.211 230.543 210.147 230.812 211.029C213.528 211.625 200.793 213.657 200.793 216.075C200.793 218.961 218.92 221.3 241.28 221.3C243.352 221.3 245.389 221.279 247.378 221.24C250.856 223.471 254.981 224.782 259.422 224.782C262.655 224.782 265.719 224.082 268.494 222.846C270.573 226.595 274.568 229.135 279.159 229.135C283.963 229.135 288.108 226.349 290.093 222.308C293.328 223.341 296.769 223.91 300.345 223.91C302.759 223.91 305.109 223.645 307.379 223.163C309.615 225.75 312.912 227.394 316.599 227.394C321.186 227.394 325.175 224.858 327.258 221.116C330.019 222.701 333.213 223.62 336.626 223.62C341.131 223.62 345.264 222.037 348.508 219.402C350.665 219.739 353.145 220.039 355.884 220.296C356.277 220.354 356.674 220.389 357.078 220.406C363.543 220.969 371.336 221.3 379.726 221.3C402.086 221.3 420.215 218.961 420.215 216.075C420.215 213.19 402.084 210.85 379.722 210.85Z" fill="#EFDEB3"/>
<path d="M957.253 415.781C957.253 411.212 953.55 407.509 948.981 407.509C947.518 407.509 946.162 407.921 944.97 408.589C943.044 405.091 939.325 402.721 935.05 402.721C933.936 402.721 932.862 402.889 931.846 403.189C929.196 395.977 922.286 390.823 914.153 390.823C913.168 390.823 912.21 390.92 911.266 391.067C909.235 374.416 895.074 361.509 877.875 361.509C862.227 361.509 849.114 372.197 845.336 386.66C842.745 385.61 839.919 385.018 836.951 385.018C825.769 385.018 816.53 393.24 814.889 403.965C810.873 405.103 807.927 408.79 807.927 413.172C807.927 414.143 808.074 415.079 808.343 415.963C791.059 416.559 778.324 418.592 778.324 421.009C778.324 423.895 796.451 426.234 818.811 426.234C820.883 426.234 822.92 426.213 824.91 426.176C828.387 428.408 832.513 429.718 836.953 429.718C840.186 429.718 843.25 429.016 846.026 427.782C848.104 431.531 852.099 434.071 856.69 434.071C861.495 434.071 865.639 431.285 867.624 427.244C870.859 428.277 874.3 428.846 877.877 428.846C880.29 428.846 882.64 428.581 884.911 428.099C887.146 430.687 890.444 432.33 894.13 432.33C898.717 432.33 902.706 429.794 904.789 426.052C907.552 427.638 910.744 428.557 914.158 428.557C918.662 428.557 922.796 426.973 926.039 424.338C928.196 424.675 930.676 424.975 933.415 425.232C933.808 425.29 934.206 425.325 934.609 425.342C941.074 425.905 948.867 426.234 957.257 426.234C979.617 426.234 997.746 423.895 997.746 421.009C997.742 418.12 979.615 415.781 957.253 415.781Z" fill="#EFDEB3"/>
<path d="M537.155 355.765C537.155 352.25 540.003 349.402 543.518 349.402C544.644 349.402 545.688 349.719 546.605 350.232C548.087 347.541 550.947 345.718 554.237 345.718C555.094 345.718 555.92 345.846 556.702 346.078C558.741 340.528 564.057 336.564 570.314 336.564C571.072 336.564 571.811 336.639 572.536 336.75C574.098 323.939 584.993 314.009 598.226 314.009C610.263 314.009 620.355 322.231 623.261 333.36C625.254 332.552 627.428 332.097 629.713 332.097C638.316 332.097 645.424 338.423 646.687 346.674C649.778 347.552 652.042 350.387 652.042 353.757C652.042 354.505 651.928 355.225 651.723 355.904C665.021 356.361 674.82 357.926 674.82 359.787C674.82 362.006 660.875 363.807 643.671 363.807C642.077 363.807 640.51 363.793 638.98 363.762C636.304 365.478 633.131 366.486 629.715 366.486C627.227 366.486 624.869 365.948 622.735 364.997C621.135 367.881 618.063 369.837 614.53 369.837C610.833 369.837 607.645 367.693 606.117 364.586C603.629 365.38 600.981 365.817 598.228 365.817C596.372 365.817 594.562 365.614 592.817 365.242C591.097 367.233 588.562 368.498 585.724 368.498C582.194 368.498 579.124 366.548 577.524 363.667C575.398 364.886 572.941 365.594 570.316 365.594C566.851 365.594 563.672 364.374 561.175 362.348C559.517 362.607 557.607 362.839 555.502 363.037C555.199 363.081 554.893 363.11 554.582 363.122C549.608 363.557 543.614 363.809 537.157 363.809C519.953 363.809 506.008 362.011 506.008 359.789C506.008 357.568 519.951 355.765 537.155 355.765Z" fill="#EFDEB3"/>
<path d="M714.132 227.446C714.132 226.003 716.982 224.833 720.497 224.833C721.623 224.833 722.666 224.964 723.583 225.175C725.065 224.07 727.926 223.322 731.215 223.322C732.072 223.322 732.898 223.374 733.681 223.469C735.72 221.192 741.035 219.563 747.293 219.563C748.051 219.563 748.788 219.594 749.514 219.64C751.077 214.382 761.971 210.306 775.205 210.306C787.242 210.306 797.333 213.68 800.24 218.247C802.233 217.915 804.406 217.729 806.692 217.729C815.295 217.729 822.403 220.325 823.666 223.711C826.756 224.072 829.021 225.235 829.021 226.618C829.021 226.924 828.907 227.22 828.7 227.498C841.998 227.686 851.797 228.328 851.797 229.091C851.797 230.002 837.851 230.741 820.648 230.741C819.054 230.741 817.487 230.735 815.957 230.723C813.281 231.426 810.107 231.84 806.692 231.84C804.204 231.84 801.846 231.619 799.712 231.23C798.112 232.414 795.04 233.215 791.506 233.215C787.809 233.215 784.621 232.335 783.094 231.06C780.606 231.387 777.958 231.565 775.205 231.565C773.348 231.565 771.539 231.482 769.794 231.329C768.074 232.147 765.538 232.664 762.7 232.664C759.171 232.664 756.101 231.863 754.501 230.681C752.375 231.182 749.92 231.472 747.293 231.472C743.828 231.472 740.648 230.971 738.152 230.139C736.492 230.244 734.583 230.34 732.478 230.42C732.176 230.439 731.869 230.449 731.559 230.456C726.587 230.634 720.59 230.737 714.134 230.737C696.93 230.737 682.984 229.998 682.984 229.087C682.984 228.176 696.928 227.446 714.132 227.446Z" fill="#EFDEB3"/>
<path d="M1016.51 568.205V636.645H996.061V663.489H966.82V679.393H952.227V617.661H943.195V609.803H910.624V617.661H897.278V587.189H880.385V576.911L862.676 575.083V560.97L840.594 563.591V572.802L814.801 570.14V587.189H797.904V613.308H776.984V679.393H751.101V655.389H712.03V636.889L702.688 637.997V627.719L680.603 630.34V640.617L671.261 641.727V655.389H651.727V669.9H622.923V660.113H546.482V644.977H526.947V630.723L517.603 629.566V618.845L495.52 616.111V626.833L486.176 625.678V644.977H447.107V670.015H421.224V601.078H400.302V573.831H383.405V556.045L357.615 558.823V549.212L335.532 546.48V561.202L317.821 563.11V573.831H300.928V605.62H287.585V597.421H255.013V605.62H245.982V670.015H231.386V653.427H202.148V625.424H181.7V554.027L132.012 546.583V625.424H114.177V601.078H93.7768V590.588L71.692 587.855V601.078H64.4884V624.542H48.3362V605.62H0.871094V772.11H573.065H625.144H1035V565.549L1016.51 568.205Z" fill="#D35359"/>
<path d="M1035 632.884V629.692C1013 620.903 997.978 613.42 992.517 610.592C991.834 609.039 990.42 607.866 988.656 607.572L979.929 606.117C979.499 605.723 978.878 605.626 978.348 605.854L948.608 600.896C945.464 600.372 942.601 602.796 942.601 605.984V607.164C884.591 650.87 831.486 662.818 790.404 662.603C789.665 662.487 788.931 662.367 788.204 662.243C749.855 655.739 722.96 639.928 713.643 633.793C713.502 631.998 712.169 630.501 710.366 630.201L679.661 625.084C678.581 624.904 677.554 625.196 676.739 625.773C676.598 625.804 676.461 625.858 676.339 625.953C658.539 639.833 641.35 649.543 625.146 656.178V645.89H577.681V662.191H561.526V641.975H554.323V630.584L532.24 632.94V641.977H511.84V651.16C511.557 650.99 511.257 650.814 510.987 650.649V640.021C510.987 638.245 509.704 636.728 507.951 636.436L494.003 634.111V595.026L455.404 600.01V472.484H445.907V435.015H434.656V405.621H429.833V390.516L420.087 380.719H418.81V349.896H416.769V322.798H413.199V349.896H411.158V380.719H409.88L400.135 390.516V405.621H395.312V435.015H384.061V472.484H374.564V645.89H371.002V638.827H338.43V645.89H325.087V618.501H308.194V609.265L290.483 607.622V594.937L268.4 597.292V605.572L242.61 603.179V618.501H225.712V641.977H204.791V701.372H178.908V679.798H139.836V663.172L130.492 664.168V654.929L108.41 657.285V666.523L99.0657 667.519V679.798H79.5332V692.839H3.09013V701.372H0.871094V772.11H1035V719.014L1026.29 718.42V712.867L1005.51 711.451V717.005L996.723 716.406V726.402H992.968V695.779L1035 695.406V674.679L1031.77 674.774V656.848C1032.83 657.134 1033.92 657.42 1035 657.705V654.629C1033.92 654.341 1032.83 654.054 1031.77 653.766V646.678C1032.84 646.972 1033.92 647.266 1035 647.56V644.482C1033.92 644.188 1032.84 643.892 1031.77 643.598V639.077C1032.84 639.456 1033.92 639.835 1035 640.214V637.069C1033.92 636.689 1032.84 636.31 1031.77 635.929V631.596C1032.82 632.021 1033.92 632.453 1035 632.884ZM500.894 653.108C501.265 652.994 501.648 652.913 502.051 652.913C504.417 652.913 506.346 654.948 506.624 657.564C504.589 656.728 502.701 655.89 500.892 655.058L500.894 653.108ZM506.68 662.953H500.892V658.585C502.724 659.531 504.626 660.485 506.68 661.442V662.953ZM511.838 659.583C511.559 659.479 511.263 659.38 510.985 659.276V657.72C511.257 657.9 511.555 658.09 511.838 658.274V659.583ZM511.838 655.904C511.555 655.716 511.254 655.519 510.985 655.335V652.959C511.257 653.12 511.555 653.292 511.838 653.458V655.904ZM657.444 641.673C659.21 640.559 660.971 639.419 662.729 638.243V643.555C660.961 644.728 659.199 645.863 657.444 646.956V641.673ZM657.444 649.284C659.21 648.196 660.971 647.078 662.729 645.923V651.669C660.957 652.592 659.195 653.478 657.444 654.323V649.284ZM657.444 656.565C659.208 655.718 660.969 654.838 662.729 653.932V658.939C660.957 659.897 659.195 660.812 657.444 661.692V656.565ZM657.444 663.952C659.208 663.075 660.969 662.158 662.729 661.216V685.729L657.444 685.886V663.952ZM651.17 645.488C652.936 644.453 654.695 643.387 656.453 642.29V647.573C654.683 648.661 652.923 649.707 651.17 650.715V645.488ZM651.17 653.008C652.936 652.004 654.695 650.963 656.453 649.893V654.797C654.681 655.641 652.919 656.447 651.17 657.215V653.008ZM651.17 659.45C652.934 658.682 654.695 657.877 656.453 657.045V662.183C654.681 663.058 652.919 663.897 651.17 664.694V659.45ZM651.17 666.919C652.934 666.122 654.693 665.298 656.453 664.437V685.915L651.17 686.073V666.919ZM644.896 649.04C646.659 648.084 648.421 647.09 650.178 646.072V651.276C648.409 652.28 646.647 653.244 644.896 654.168V649.04ZM644.896 656.447C646.659 655.523 648.421 654.571 650.178 653.582V657.649C648.406 658.415 646.645 659.146 644.896 659.839V656.447ZM644.896 662.036C646.659 661.342 648.419 660.622 650.178 659.866V665.139C648.404 665.933 646.645 666.687 644.896 667.403V662.036ZM644.896 669.604C646.659 668.887 648.419 668.138 650.178 667.358V686.102L644.896 686.259V669.604ZM638.622 652.3C640.385 651.421 642.147 650.516 643.906 649.574V654.691C642.136 655.612 640.375 656.49 638.622 657.333V652.3ZM638.622 659.568C640.385 658.726 642.147 657.856 643.906 656.95V660.227C642.132 660.918 640.371 661.572 638.622 662.189V659.568ZM638.622 664.367C640.385 663.75 642.147 663.1 643.906 662.421V667.809C642.132 668.523 640.371 669.194 638.622 669.831V664.367ZM638.622 672.021C640.385 671.386 642.145 670.711 643.906 670.009V686.288L638.622 686.445V672.021ZM632.347 655.285C634.111 654.482 635.873 653.648 637.63 652.783V657.802C635.858 658.641 634.097 659.442 632.347 660.204V655.285ZM632.347 662.419C634.111 661.657 635.873 660.862 637.63 660.036V662.535C635.854 663.149 634.094 663.725 632.347 664.267V662.419ZM632.347 666.441C634.111 665.898 635.871 665.321 637.63 664.716V670.185C635.856 670.819 634.092 671.415 632.347 671.972V666.441ZM632.347 674.143C634.109 673.586 635.871 673.003 637.63 672.382V686.474L632.347 686.631V674.143ZM626.073 658.018C627.837 657.289 629.598 656.527 631.356 655.739V660.636C629.584 661.394 627.822 662.112 626.073 662.793V658.018ZM626.073 665.002C627.837 664.319 629.598 663.599 631.356 662.853V664.576C629.58 665.114 627.818 665.617 626.073 666.085V665.002ZM626.073 668.231C627.835 667.763 629.596 667.271 631.356 666.741V672.28C629.58 672.833 627.818 673.348 626.073 673.824V668.231ZM626.073 675.973C627.835 675.497 629.596 674.988 631.356 674.443V686.658L626.073 686.816V675.973ZM663.522 716.274H646.74V703.663H627.547V699.024L663.522 698.706V716.274ZM669.003 675.888L663.72 675.451V660.672C665.484 659.713 667.245 658.722 669.003 657.697V675.888ZM669.003 655.393C667.233 656.434 665.471 657.436 663.72 658.397V653.414C665.484 652.491 667.245 651.539 669.003 650.553V655.393ZM669.003 648.264C667.233 649.266 665.471 650.226 663.72 651.152V645.281C665.486 644.109 667.248 642.911 669.003 641.673V648.264ZM669.003 639.235C667.235 640.495 665.474 641.714 663.72 642.892V637.579C665.486 636.384 667.245 635.151 669.003 633.894V639.235ZM675.051 676.387L669.995 675.969V657.119C671.682 656.124 673.369 655.101 675.051 654.043V676.387ZM675.051 651.698C673.358 652.772 671.671 653.809 669.995 654.807V650.003C671.684 649.044 673.369 648.061 675.051 647.045V651.698ZM675.051 644.708C673.358 645.741 671.671 646.736 669.995 647.699V640.955C671.684 639.75 673.371 638.51 675.051 637.245V644.708ZM675.051 634.772C673.36 636.061 671.673 637.312 669.995 638.523V633.176C671.684 631.954 673.371 630.702 675.051 629.423V634.772ZM692.382 677.815L682.305 676.983V652.367C682.305 650.738 682.901 649.27 683.853 648.223C684.48 647.786 685.11 647.361 685.739 646.916C686.244 646.724 686.782 646.614 687.343 646.614C690.125 646.614 692.382 649.189 692.382 652.369V677.815ZM708.983 679.186L698.906 678.353V653.888C698.906 650.711 701.162 648.136 703.945 648.136C704.036 648.136 704.125 648.146 704.216 648.152C705.296 648.719 706.4 649.289 707.54 649.862C708.432 650.899 708.983 652.321 708.983 653.89V679.186ZM932.698 617.959C934.24 616.893 935.783 615.821 937.32 614.722V621.791C935.776 622.894 934.236 623.968 932.698 625.026V617.959ZM932.698 628.632C934.24 627.585 935.783 626.525 937.32 625.44V633.244C935.774 634.109 934.234 634.96 932.698 635.784V628.632ZM932.698 639.193C934.24 638.374 935.783 637.527 937.32 636.672V644.08C935.774 644.991 934.232 645.886 932.698 646.749V639.193ZM932.698 650.193C934.24 649.334 935.783 648.463 937.32 647.564V677.577L932.698 677.714V650.193ZM927.084 621.753C928.627 620.733 930.169 619.698 931.709 618.644V625.703C930.165 626.757 928.622 627.796 927.084 628.802V621.753ZM927.084 632.36C928.629 631.36 930.169 630.34 931.709 629.303V636.312C930.162 637.134 928.622 637.931 927.084 638.711V632.36ZM927.084 642.11C928.627 641.334 930.169 640.52 931.709 639.709V647.299C930.162 648.163 928.62 649.001 927.084 649.819V642.11ZM927.084 653.242C928.627 652.429 930.169 651.595 931.709 650.744V677.745L927.084 677.882V653.242ZM921.471 625.388C923.015 624.413 924.555 623.416 926.095 622.405V629.444C924.549 630.447 923.009 631.429 921.471 632.387V625.388ZM921.471 635.91C923.015 634.958 924.555 633.985 926.095 632.996V639.216C924.549 639.994 923.007 640.75 921.471 641.487V635.91ZM921.471 644.855C923.013 644.122 924.555 643.362 926.095 642.596V650.353C924.549 651.168 923.007 651.959 921.471 652.731V644.855ZM921.471 656.12C923.013 655.352 924.555 654.563 926.095 653.758V677.911L921.471 678.047V656.12ZM915.857 628.86C917.401 627.93 918.941 626.968 920.479 626.003V633.004C918.935 633.96 917.393 634.892 915.857 635.803V628.86ZM915.857 639.282C917.399 638.378 918.941 637.459 920.479 636.519V641.959C918.933 642.692 917.391 643.41 915.857 644.101V639.282ZM915.857 647.432C917.399 646.743 918.941 646.051 920.479 645.327V653.224C918.933 653.992 917.391 654.745 915.857 655.47V647.432ZM820.417 668.101C821.125 668.109 821.833 668.121 822.541 668.124C821.831 668.2 821.123 668.279 820.417 668.347V668.101ZM814.803 664.393C816.344 664.228 817.886 664.048 819.426 663.847V665.064C817.867 665.043 816.325 665.006 814.803 664.952V664.393ZM814.803 667.968C816.344 668.026 817.884 668.068 819.426 668.09V668.438C817.873 668.583 816.331 668.713 814.803 668.821V667.968ZM814.803 671.91C816.344 671.806 817.886 671.684 819.426 671.545V676.656C817.867 676.606 816.327 676.538 814.803 676.451V671.91ZM814.803 679.486C816.344 679.577 817.884 679.641 819.426 679.695V681.078L814.803 681.214V679.486ZM813.814 664.499V664.915C812.895 664.878 811.984 664.834 811.077 664.787C811.99 664.702 812.901 664.592 813.814 664.499ZM809.19 667.685C810.73 667.784 812.272 667.869 813.814 667.935V668.887C812.261 668.989 810.717 669.078 809.19 669.142V667.685ZM809.19 672.212C810.732 672.15 812.272 672.073 813.814 671.976V676.391C812.253 676.294 810.713 676.178 809.19 676.045V672.212ZM809.19 679.068C810.73 679.204 812.272 679.316 813.814 679.415V681.243L809.19 681.38V679.068ZM803.576 667.238C805.116 667.378 806.656 667.505 808.2 667.612V669.179C806.646 669.239 805.103 669.283 803.576 669.306V667.238ZM803.576 672.357C805.116 672.338 806.658 672.303 808.2 672.249V675.954C806.637 675.809 805.097 675.648 803.576 675.468V672.357ZM803.576 678.484C805.116 678.666 806.656 678.825 808.2 678.97V681.411L803.576 681.547V678.484ZM797.962 666.643C799.502 666.828 801.042 666.993 802.584 667.142V669.312C801.03 669.326 799.487 669.326 797.962 669.306V666.643ZM797.962 672.348C799.011 672.365 800.059 672.392 801.108 672.392C801.601 672.392 802.092 672.375 802.584 672.373V675.35C801.019 675.157 799.479 674.946 797.962 674.721V672.348ZM797.962 677.73C799.5 677.96 801.042 678.167 802.584 678.358V681.576L797.962 681.713V677.73ZM792.348 665.904C793.888 666.13 795.428 666.337 796.972 666.528V669.289C795.416 669.26 793.874 669.214 792.348 669.152V665.904ZM792.348 672.183C793.888 672.249 795.43 672.303 796.972 672.334V674.572C795.405 674.329 793.865 674.069 792.348 673.795V672.183ZM792.348 676.805C793.888 677.083 795.428 677.337 796.972 677.575V681.744L792.348 681.881V676.805ZM786.734 665.575C788.02 665.608 789.307 665.625 790.593 665.635C790.847 665.675 791.102 665.718 791.357 665.758V669.111C789.798 669.038 788.258 668.949 786.732 668.842L786.734 665.575ZM786.734 671.86C788.274 671.97 789.816 672.067 791.359 672.141V673.611C789.79 673.319 788.247 673.011 786.734 672.688V671.86ZM786.734 675.71C788.274 676.035 789.814 676.337 791.359 676.623V681.91L786.734 682.046V675.71ZM781.12 665.354C782.661 665.435 784.201 665.497 785.743 665.544V668.774C784.182 668.658 782.642 668.523 781.12 668.372V665.354ZM781.12 671.382C782.661 671.535 784.201 671.676 785.743 671.794V672.473C785.294 672.373 784.842 672.276 784.397 672.174C783.292 671.924 782.205 671.657 781.12 671.39V671.382ZM781.12 674.445C781.944 674.644 782.762 674.851 783.596 675.041C784.31 675.205 785.026 675.346 785.743 675.499V682.077L781.12 682.214V674.445ZM775.504 664.987C777.045 665.11 778.587 665.213 780.129 665.3V668.271C778.568 668.109 777.026 667.931 775.504 667.739V664.987ZM775.504 673.003C777.024 673.419 778.566 673.82 780.129 674.205V682.243L775.504 682.38V673.003ZM769.891 664.474C771.431 664.638 772.971 664.785 774.515 664.913V667.608C772.952 667.401 771.41 667.18 769.891 666.942V664.474ZM769.891 671.369C771.41 671.835 772.948 672.29 774.515 672.731V682.413L769.891 682.549V671.369ZM764.277 659.786C765.792 660.226 767.332 660.657 768.899 661.073V661.363C767.334 661.189 765.792 661.001 764.277 660.796V659.786ZM764.277 663.793C765.817 663.998 767.357 664.188 768.899 664.36V666.788C767.332 666.536 765.792 666.267 764.277 665.983V663.793ZM764.277 669.55C765.792 670.065 767.334 670.568 768.899 671.059V682.578L764.277 682.715V669.55ZM758.663 658.076C760.172 658.56 761.72 659.032 763.287 659.496V660.659C761.718 660.44 760.176 660.206 758.663 659.957V658.076ZM758.663 662.963C760.203 663.211 761.743 663.443 763.287 663.656V665.797C762.73 665.691 762.178 665.582 761.629 665.472C760.627 665.11 759.64 664.741 758.663 664.369V662.963ZM758.663 667.881C759.363 668.03 760.062 668.171 760.762 668.314C761.598 668.616 762.434 668.918 763.287 669.214V682.744L758.663 682.881V667.881ZM753.049 656.18C754.558 656.712 756.096 657.237 757.673 657.753V659.798C757.613 659.788 757.551 659.777 757.491 659.769C755.993 659.514 754.513 659.247 753.051 658.966L753.049 656.18ZM753.049 661.982C754.304 662.22 755.564 662.454 756.845 662.671C757.121 662.719 757.396 662.758 757.673 662.804V663.988C756.102 663.379 754.554 662.764 753.049 662.137V661.982ZM753.049 666.615C754.469 666.958 755.902 667.293 757.353 667.612C757.458 667.635 757.566 667.656 757.671 667.678V682.912L753.047 683.048V666.615H753.049ZM747.435 654.118C748.936 654.695 750.482 655.265 752.058 655.83V658.763C750.495 658.455 748.955 658.13 747.435 657.794V654.118ZM747.435 665.163C748.957 665.577 750.497 665.979 752.058 666.366V683.077L747.435 683.214V665.163ZM741.821 651.864C743.316 652.489 744.862 653.11 746.446 653.729V657.569C744.883 657.215 743.341 656.848 741.821 656.467V651.864ZM741.821 663.547C743.341 664.006 744.881 664.453 746.446 664.888V683.245L741.821 683.381V663.547ZM736.208 649.417C737.698 650.092 739.234 650.771 740.832 651.448V656.221C740.387 656.107 739.95 655.991 739.511 655.875C738.381 655.3 737.282 654.724 736.21 654.153V649.417H736.208ZM736.208 658.061C736.949 658.266 737.698 658.467 738.451 658.668C739.23 659.063 740.027 659.456 740.83 659.85V660.144C739.261 659.653 737.725 659.148 736.206 658.635L736.208 658.061ZM736.208 661.771C737.723 662.276 739.267 662.766 740.832 663.249V683.41L736.208 683.547V661.771ZM730.594 646.772C732.072 647.496 733.606 648.231 735.216 648.972V653.623C733.604 652.752 732.065 651.888 730.594 651.038V646.772ZM730.594 656.424C732.109 656.89 733.645 657.347 735.216 657.79V658.295C733.647 657.755 732.105 657.206 730.594 656.645V656.424ZM730.594 659.808C732.109 660.361 733.647 660.905 735.216 661.435V683.576L730.594 683.713V659.808ZM724.98 643.909C726.433 644.681 727.977 645.476 729.604 646.285V650.466C727.971 649.51 726.429 648.577 724.98 647.67V643.909ZM729.602 656.115V656.281C728.78 655.973 727.975 655.658 727.17 655.343C727.971 655.604 728.787 655.859 729.602 656.115ZM724.98 651.154C725.382 651.398 725.791 651.646 726.205 651.895C725.798 651.758 725.384 651.624 724.98 651.485V651.154ZM724.98 657.676C726.489 658.274 728.033 658.862 729.604 659.444V683.744L724.98 683.88V657.676ZM719.364 640.795C720.778 641.613 722.322 642.476 723.988 643.375V647.041C722.314 645.979 720.767 644.96 719.364 644.006V640.795ZM719.364 647.581C720.786 648.525 722.334 649.516 723.988 650.543V651.137C722.411 650.586 720.869 650.03 719.364 649.465V647.581ZM719.364 655.356C720.873 656.004 722.409 656.647 723.988 657.283V683.909L719.364 684.046V655.356ZM713.667 637.347C715.003 638.195 716.576 639.162 718.375 640.218V643.323C716.543 642.056 714.969 640.913 713.667 639.934V637.347ZM713.667 643.629C715.031 644.621 716.605 645.726 718.375 646.916V649.096C716.756 648.479 715.197 647.856 713.667 647.231V643.629ZM713.667 652.82C715.191 653.526 716.766 654.23 718.375 654.929V684.077L713.667 684.216V652.82ZM822.438 706.017H809.883V701.769H779.241V706.017H770.744V739.375H757.013V730.782H729.503V716.276H713.665V698.261L822.435 697.294V706.017H822.438ZM825.042 680.912L820.417 681.049V679.736C821.957 679.782 823.5 679.8 825.042 679.807V680.912ZM825.042 676.751C823.485 676.747 821.943 676.726 820.417 676.685V671.452C821.959 671.305 823.5 671.14 825.042 670.957V676.751ZM825.042 665.064C823.485 665.085 821.943 665.091 820.417 665.079V663.712C821.959 663.505 823.5 663.292 825.042 663.05V665.064ZM830.656 680.744L826.031 680.881V679.819C827.571 679.819 829.113 679.794 830.656 679.757V680.744ZM830.656 676.683C829.099 676.724 827.557 676.751 826.031 676.755V670.839C827.573 670.649 829.113 670.44 830.656 670.214V676.683ZM830.656 664.913C829.099 664.977 827.559 665.021 826.031 665.05V662.886C827.573 662.638 829.113 662.39 830.656 662.108V664.913ZM836.269 680.579L831.647 680.715V679.732C833.187 679.687 834.727 679.624 836.269 679.544V680.579ZM836.269 676.449C834.715 676.538 833.173 676.604 831.647 676.654V670.069C833.189 669.835 834.729 669.583 836.269 669.316V676.449ZM836.269 664.611C834.713 664.716 833.175 664.799 831.647 664.867V661.909C833.189 661.62 834.729 661.322 836.269 660.999V664.611ZM841.883 680.411L837.259 680.548V679.48C838.799 679.388 840.341 679.287 841.883 679.159V680.411ZM841.883 676.05C840.329 676.184 838.789 676.294 837.259 676.389V669.144C838.801 668.869 840.341 668.571 841.883 668.26V676.05ZM841.883 664.157C840.329 664.304 838.789 664.429 837.259 664.538V660.792C838.801 660.46 840.341 660.104 841.883 659.74V664.157ZM847.497 680.245L842.873 680.382V679.068C844.413 678.933 845.955 678.784 847.497 678.612V680.245ZM847.497 675.487C845.942 675.665 844.402 675.82 842.873 675.958V668.059C843.28 667.975 843.688 667.902 844.096 667.815C845.23 667.573 846.363 667.322 847.495 667.06V675.487H847.497ZM847.497 663.553C845.942 663.741 844.402 663.907 842.873 664.056V659.51C842.968 659.487 843.065 659.469 843.16 659.444C844.605 659.092 846.05 658.703 847.495 658.32V663.553H847.497ZM853.111 680.078L848.489 680.214V678.488C850.029 678.308 851.571 678.113 853.111 677.898V680.078ZM853.111 674.758C851.558 674.981 850.018 675.182 848.489 675.366V666.826C849.366 666.619 850.244 666.41 851.122 666.192C851.784 666.103 852.448 666.016 853.111 665.921V674.758ZM853.111 662.458C852.109 662.721 851.107 662.975 850.111 663.222C849.567 663.294 849.029 663.36 848.489 663.427V658.065C850.031 657.651 851.571 657.211 853.111 656.763V662.458ZM854.992 680.022L854.1 680.049V677.751C854.396 677.708 854.694 677.656 854.992 677.61V680.022ZM858.725 673.866C857.172 674.135 855.632 674.381 854.1 674.609V665.782C855.642 665.553 857.183 665.294 858.725 665.031V673.866ZM858.725 660.903C857.176 661.353 855.634 661.785 854.1 662.193V656.476C855.642 656.02 857.185 655.548 858.725 655.06V660.903ZM864.341 672.81C862.79 673.125 861.248 673.417 859.716 673.69V664.865C861.258 664.596 862.798 664.3 864.341 663.996V672.81ZM864.341 659.191C862.792 659.686 861.25 660.166 859.716 660.618V654.737C861.258 654.238 862.8 653.737 864.341 653.205V659.191ZM869.952 676.401L865.33 676.087V675.785C866.212 675.605 867.092 675.437 867.973 675.244C868.634 675.101 869.294 674.946 869.952 674.797V676.401ZM869.952 671.591C868.402 671.949 866.86 672.29 865.33 672.609V663.801C866.872 663.491 868.412 663.16 869.952 662.816V671.591ZM869.952 657.322C868.404 657.86 866.864 658.378 865.33 658.875V652.853C866.872 652.313 868.412 651.777 869.952 651.203V657.322ZM875.568 676.784L870.944 676.47V674.574C872.486 674.214 874.026 673.833 875.568 673.437V676.784ZM875.568 670.21C874.018 670.614 872.476 671.003 870.944 671.365V662.59C871.921 662.367 872.898 662.16 873.875 661.924C874.44 661.787 875.003 661.626 875.568 661.485V670.21ZM875.568 655.29C874.02 655.873 872.48 656.43 870.944 656.972V650.82C872.486 650.239 874.028 649.636 875.568 649.02V655.29ZM881.182 679.246L876.558 679.382V673.176C878.1 672.773 879.64 672.355 881.182 671.914V679.246ZM881.182 668.666C879.632 669.115 878.09 669.544 876.558 669.951V661.228C878.1 660.835 879.642 660.44 881.182 660.011V668.666ZM881.182 656.782C880.139 657.076 879.098 657.362 878.061 657.637C879.102 657.235 880.141 656.826 881.182 656.407V656.782ZM881.182 653.087C879.634 653.716 878.094 654.325 876.558 654.911V648.632C878.1 648.007 879.64 647.345 881.182 646.685V653.087ZM886.796 679.078L882.174 679.215V671.622C883.716 671.173 885.256 670.703 886.796 670.216V679.078ZM886.796 666.96C885.246 667.455 883.705 667.925 882.174 668.376V659.723C883.716 659.287 885.256 658.846 886.796 658.376V666.96ZM886.796 655.128C885.248 655.606 883.705 656.062 882.174 656.5V656C883.716 655.37 885.258 654.724 886.796 654.06V655.128ZM886.796 650.725C885.25 651.398 883.708 652.056 882.174 652.688V646.268C883.716 645.602 885.256 644.906 886.796 644.205V650.725ZM892.41 678.912L887.785 679.049V669.908C889.328 669.413 890.868 668.894 892.41 668.362V678.912ZM892.41 665.087C890.859 665.627 889.319 666.14 887.785 666.637V658.072C889.328 657.593 890.868 657.084 892.41 656.573V665.087ZM892.41 653.323C890.859 653.843 889.321 654.337 887.785 654.818V653.634C889.328 652.959 890.87 652.261 892.41 651.551V653.323ZM892.41 648.202C890.861 648.922 889.321 649.614 887.785 650.29V643.753C889.328 643.043 890.87 642.315 892.41 641.572V648.202ZM898.024 678.745L893.399 678.881V668.016C894.941 667.476 896.481 666.921 898.024 666.345V678.745ZM898.024 663.044C896.475 663.63 894.933 664.195 893.399 664.737V656.25C894.941 655.73 896.481 655.176 898.024 654.621V663.044ZM898.024 651.357C896.475 651.918 894.933 652.462 893.399 652.984V651.094C894.941 650.373 896.484 649.64 898.024 648.887V651.357ZM898.024 645.498C896.477 646.264 894.935 647.01 893.399 647.732V641.085C894.941 640.332 896.484 639.57 898.024 638.783V645.498ZM903.637 678.579L899.015 678.716V665.967C900.557 665.381 902.097 664.778 903.637 664.157V678.579ZM903.637 660.841C902.091 661.471 900.547 662.085 899.015 662.673V654.269C900.557 653.706 902.097 653.122 903.637 652.526V660.841ZM903.637 649.241C902.091 649.845 900.549 650.435 899.015 651.001V648.392C900.557 647.628 902.099 646.846 903.637 646.045V649.241ZM903.637 642.634C902.091 643.445 900.551 644.242 899.015 645.01V638.268C900.557 637.471 902.099 636.678 903.637 635.846V642.634ZM909.251 678.411L904.627 678.548V663.758C906.169 663.127 907.709 662.472 909.251 661.806V678.411ZM909.251 658.473C907.703 659.15 906.163 659.8 904.627 660.433V652.139C906.169 651.535 907.711 650.918 909.251 650.278V658.473ZM909.251 646.972C907.703 647.62 906.163 648.245 904.627 648.852V645.53C906.169 644.718 907.711 643.884 909.251 643.035V646.972ZM909.251 639.601C907.705 640.46 906.165 641.294 904.627 642.11V635.297C906.169 634.457 907.711 633.604 909.251 632.729V639.601ZM914.867 678.246L910.243 678.382V661.375C911.785 660.698 913.327 660.005 914.867 659.293V678.246ZM914.867 655.931C913.319 656.654 911.779 657.353 910.243 658.032V649.86C911.785 649.212 913.327 648.564 914.867 647.883V655.931ZM914.867 644.546C913.319 645.238 911.779 645.904 910.243 646.554V642.491C911.787 641.634 913.327 640.76 914.867 639.866V644.546ZM914.867 636.384C913.321 637.291 911.781 638.181 910.243 639.044V632.168C911.787 631.282 913.327 630.365 914.867 629.444V636.384ZM915.857 658.829C917.399 658.107 918.939 657.372 920.479 656.612V678.078L915.857 678.215V658.829ZM942.599 739.375H935.613V703.665H915.931V696.464L942.599 696.228V739.375ZM942.599 677.422L938.312 677.548V646.978C939.742 646.138 941.171 645.281 942.599 644.408V677.422ZM942.599 640.903C941.164 641.789 939.736 642.65 938.312 643.497V636.123C939.742 635.322 941.171 634.509 942.599 633.679V640.903ZM942.599 630.222C941.164 631.064 939.738 631.882 938.312 632.689V624.734C939.742 623.718 941.173 622.683 942.599 621.635V630.222ZM942.599 617.932C941.167 618.998 939.738 620.05 938.312 621.077V614.001C939.742 612.97 941.173 611.946 942.599 610.886V617.932ZM955.936 629.644C956.617 629.961 957.34 630.296 958.105 630.646C956.149 632.025 954.201 633.364 952.26 634.668C952.75 632.422 954.123 630.578 955.936 629.644ZM965.201 676.751L952.057 677.143V638.388C955.129 636.353 958.192 634.246 961.25 632.066C962.33 632.546 963.481 633.052 964.686 633.575C965.017 634.472 965.199 635.455 965.199 636.488L965.201 676.751ZM986.858 676.108L973.713 676.497V638.465C973.713 638.098 973.744 637.74 973.788 637.386C977.735 638.988 982.101 640.694 986.856 642.462V676.108H986.858ZM986.858 639.293C982.447 637.641 978.379 636.047 974.688 634.548C975.802 632.476 977.77 631.075 980.035 630.977C981.329 631.408 982.651 631.845 984.014 632.292C985.73 633.646 986.858 635.906 986.858 638.469V639.293ZM999.406 675.735L992.966 675.925V644.689C995.051 645.432 997.197 646.184 999.406 646.939V675.735ZM999.406 643.799C997.193 643.037 995.049 642.282 992.966 641.534V635.177C995.055 635.84 997.197 636.515 999.406 637.2V643.799ZM999.406 634.091C997.199 633.403 995.053 632.727 992.966 632.062V624.225C995.049 625.08 997.202 625.956 999.406 626.839V634.091ZM999.406 623.639C997.197 622.749 995.049 621.871 992.966 621.012V614.161C994.639 615.009 996.792 616.082 999.406 617.344V623.639ZM1005.68 675.549L1000.4 675.706V647.277C1002.12 647.862 1003.88 648.452 1005.68 649.042V675.549ZM1005.68 645.912C1003.88 645.318 1002.12 644.726 1000.4 644.136V637.506C1002.13 638.04 1003.89 638.581 1005.68 639.125V645.912ZM1005.68 636.022C1003.89 635.475 1002.12 634.933 1000.4 634.399V627.239C1002.12 627.928 1003.89 628.628 1005.68 629.33V636.022ZM1005.68 626.142C1003.88 625.434 1002.12 624.732 1000.4 624.039V617.823C1002 618.593 1003.77 619.427 1005.68 620.315V626.142ZM1011.96 675.364L1006.67 675.522V649.365C1008.4 649.928 1010.16 650.491 1011.96 651.054V675.364ZM1011.96 647.937C1010.16 647.372 1008.4 646.805 1006.67 646.239V639.427C1008.4 639.951 1010.17 640.479 1011.96 641.009V647.937ZM1011.96 637.912C1010.16 637.378 1008.4 636.848 1006.67 636.322V629.717C1008.4 630.396 1010.16 631.077 1011.96 631.764V637.912ZM1011.96 628.584C1010.16 627.893 1008.4 627.208 1006.67 626.529V620.772C1008.33 621.534 1010.1 622.339 1011.96 623.173V628.584ZM1018.23 675.176L1012.95 675.333V651.365C1014.68 651.903 1016.44 652.441 1018.23 652.977V675.176ZM1018.23 649.879C1016.44 649.336 1014.68 648.792 1012.95 648.249V641.303C1014.68 641.816 1016.44 642.331 1018.23 642.851V649.879ZM1018.23 639.758C1016.44 639.239 1014.68 638.721 1012.95 638.206V632.143C1014.68 632.805 1016.44 633.472 1018.23 634.14V639.758ZM1018.23 630.971C1016.44 630.3 1014.68 629.63 1012.95 628.967V623.616C1014.63 624.366 1016.39 625.14 1018.23 625.937V630.971ZM1024.5 674.99L1019.22 675.147V653.273C1019.95 653.491 1020.67 653.708 1021.41 653.923C1022.42 654.221 1023.46 654.522 1024.51 654.822L1024.5 674.99ZM1024.5 651.727C1023.78 651.516 1023.04 651.307 1022.32 651.098C1021.28 650.791 1020.25 650.483 1019.22 650.175V643.141C1020.96 643.642 1022.72 644.147 1024.5 644.65V651.727H1024.5ZM1024.5 641.563C1022.72 641.056 1020.96 640.551 1019.22 640.046V634.511C1020.96 635.159 1022.72 635.811 1024.5 636.463V641.563ZM1024.5 633.302C1022.72 632.646 1020.96 631.994 1019.22 631.342V626.363C1020.92 627.096 1022.68 627.843 1024.5 628.609V633.302ZM1030.78 674.806L1025.49 674.963V655.105C1027.22 655.596 1028.98 656.086 1030.78 656.579V674.806ZM1030.78 653.495C1028.98 653 1027.22 652.505 1025.49 652.011V644.925C1027.24 645.416 1029 645.908 1030.78 646.401V653.495ZM1030.78 643.323C1029 642.828 1027.24 642.335 1025.49 641.843V636.821C1027.23 637.454 1029 638.088 1030.78 638.723V643.323ZM1030.78 635.575C1029 634.937 1027.23 634.302 1025.49 633.666V629.021C1027.2 629.733 1028.96 630.458 1030.78 631.195V635.575Z" fill="#6C284E"/>
<path d="M1035 763.83H0V1035H1035V763.83Z" fill="#331337"/>
<path d="M281.52 612.36V594.419H258.716L257.009 579.95C257.009 579.95 261.13 577.006 262.012 574.063C262.894 571.119 261.13 546.397 261.13 546.397L264.662 539.04L264.368 526.974L267.605 523.737C267.605 520.499 261.718 466.642 261.718 466.642L263.19 461.639C263.19 461.639 269.959 462.521 272.018 457.813C274.078 453.104 278.787 428.676 278.787 428.676C278.787 428.676 286.144 426.323 287.912 424.261C289.677 422.201 292.031 414.842 292.031 414.842L294.385 413.077L295.267 408.957C295.267 408.957 298.798 407.486 298.798 404.836C298.798 402.186 296.444 398.361 296.444 398.361L298.504 394.536L296.444 390.416L269.075 376.585L262.894 386.885C262.894 386.885 259.95 384.825 258.184 382.47C256.419 380.116 251.416 373.051 247.59 360.103C243.765 347.153 239.056 344.506 239.056 344.506C239.056 344.506 232.581 339.209 231.699 337.443C230.815 335.677 227.577 322.139 227.577 322.139C227.577 322.139 229.343 320.374 229.049 318.314C228.755 316.254 225.812 304.776 225.812 304.776C225.812 304.776 228.167 304.776 228.461 303.011C228.755 301.245 226.402 296.536 226.402 296.536L228.167 292.416L253.477 290.651L228.755 287.119L227.284 283.588L252.006 273.875L225.518 278.585L223.164 275.347L236.996 256.512L216.689 272.404L210.214 270.344L205.505 247.388L204.327 270.344C201.384 270.344 194.909 272.11 194.909 272.11L176.662 259.454L190.493 275.347L186.372 279.172L169.597 280.056V272.11L163.122 254.744L160.768 236.203C160.768 236.203 161.65 216.191 161.65 215.013C161.65 213.835 157.235 202.357 157.235 202.357L158.117 193.822C160.766 193.234 169.007 187.053 169.007 187.053V175.281L162.532 171.75L165.475 165.569L164.888 156.444L162.532 159.388C162.532 159.388 163.71 155.856 163.71 151.735C163.71 147.614 161.65 140.257 161.65 140.257C161.65 140.257 159.296 143.2 158.119 144.672C156.941 146.144 141.637 150.853 140.755 152.029C139.874 153.207 138.106 161.447 138.696 162.919C139.286 164.391 141.049 169.1 141.049 169.1C135.752 169.982 130.749 173.809 130.749 173.809V185.875L136.34 191.173L138.694 194.704L140.166 198.529L138.988 201.473L140.166 205.004L139.282 207.358L141.047 210.301L140.459 213.833C140.459 213.833 141.931 220.308 142.225 222.957C142.519 225.607 144.875 236.789 144.875 236.789C144.875 236.789 146.64 245.618 146.347 255.92C146.053 266.22 150.466 291.236 150.466 291.236C150.466 291.236 144.285 301.537 143.109 306.834C141.931 312.131 139.578 328.024 140.166 328.906C140.753 329.79 145.463 334.793 145.463 334.793C145.463 334.793 144.875 339.797 145.169 341.268C145.463 342.74 150.76 347.155 150.76 347.155C150.76 347.155 151.054 369.522 151.642 372.759C152.229 375.997 156.351 382.178 156.645 385.119C156.939 388.063 147.816 417.492 148.404 422.201C148.992 426.91 154.291 433.091 155.761 436.329C157.233 439.566 151.052 460.757 151.052 463.994C151.052 467.232 157.821 482.829 157.821 486.067C157.821 489.304 152.523 523.739 152.523 524.621C152.523 525.503 156.939 529.036 157.233 530.802C157.527 532.567 152.523 566.708 152.523 573.183C152.523 575.913 151.37 584.88 150.037 594.423H131.093V612.364H111.082V631.683H124.883V799.02H287.73V631.679H301.53V612.36H281.52Z" fill="#331337"/>
</g>
<defs>
<linearGradient id="paint0_linear_1607_4721" x1="517.5" y1="620.147" x2="517.5" y2="-331.578" gradientUnits="userSpaceOnUse">
<stop stop-color="#F0AE76"/>
<stop offset="1" stop-color="#DC886D"/>
</linearGradient>
<clipPath id="clip0_1607_4721">
<rect width="1035" height="1035" fill="white"/>
</clipPath>
</defs>
</svg>
