<svg width="108" height="57" viewBox="0 0 108 57" fill="none" xmlns="http://www.w3.org/2000/svg">
<path d="M107.067 0.572876H0.933594V56.5729H107.067V0.572876Z" fill="#010066"/>
<path d="M51.8503 25.9116V29.3235H48.9154L34.334 21.5046L31.9493 20.2258L28.6201 18.4405L28.569 18.4131L27.9528 18.0826L26.8959 17.5159L26.5402 17.3251L26.1155 17.0975L26.0531 17.064L24.7033 16.3401L24.5371 16.251L25.1697 15.8736L26.4495 15.1099L26.5086 15.0746L27.1492 14.6924L28.0582 14.15L28.9379 13.6251L29.4438 13.8963L30.8491 14.6499L30.8562 14.6537L30.9665 14.7128L31.9493 15.2398L32.2617 15.4073L32.929 15.7652L33.4193 16.0282L34.334 16.5186L35.3511 17.064L37.8668 18.4131L51.8503 25.9116Z" fill="white"/>
<path d="M51.8502 26.7497V28.2666L37.926 20.7998L35.5413 19.5211L34.3339 18.8736L33.4973 18.425L33.4753 18.4131L32.8314 18.0679L32.1641 17.71L31.9492 17.5947L30.9819 17.0761L30.9595 17.0641L30.7515 16.9526L28.7617 15.8856L29.9606 15.1701L30.1005 15.0867L30.2266 15.1543L31.9492 16.078L32.0625 16.1388L33.475 16.8962L33.788 17.0641L33.8104 17.0761L34.1423 17.254L35.5413 18.0042L36.304 18.4131L36.3261 18.425L37.926 19.283L51.8502 26.7497Z" fill="#E4002B"/>
<path d="M0.785156 1.63487V3.1517V3.86828L15.059 11.5224L17.5747 12.8714L21.9421 15.2133L22.1538 15.3268L22.5287 15.5279L23.1611 15.1505L24.4999 14.3515L24.5385 14.3285L24.754 14.2L26.3628 13.24L26.9294 12.902L26.8725 12.8714L26.6798 12.7681L26.0126 12.4104L24.5385 11.6199L24.3568 11.5224L22.1538 10.3411L3.97143 0.591064H0.785156V1.63487Z" fill="white"/>
<path d="M24.4999 14.3515L23.1611 15.1505L22.5745 14.8359L22.1538 14.6104L18.9112 12.8714L16.3952 11.5224L0.785156 3.15172V1.63489L19.224 11.5224L21.7397 12.8714L22.1538 13.0935L23.9134 14.0371L24.4999 14.3515Z" fill="#E4002B"/>
<path d="M2.91232 29.3444H5.59379H7.07539L20.3465 21.4255L22.155 20.3462L22.7312 20.0024L23.6954 19.4271L24.5397 18.9233L24.5624 18.9097L25.0275 18.6323L25.3949 18.413L25.6601 18.2548L25.9561 18.0782L26.8985 17.5159L26.9924 17.4598L26.9992 17.4558L27.6557 17.064L28.3314 16.6609L28.8108 16.3747L26.924 15.3629L26.4521 15.1099L26.2481 15.0005L24.8358 14.2431L24.7551 14.1999L24.5397 14.0844L24.1685 13.8854L23.9145 14.0369L22.7312 14.7429L22.5756 14.8358L22.2698 15.0184L21.9433 15.2132L20.9306 15.8175L20.3465 16.166L20.298 16.195L18.8416 17.064L17.142 18.0782L16.5808 18.413L14.8813 19.4271L1.05859 27.6753V29.3444H2.91232Z" fill="white"/>
<path d="M26.2268 17.0324L26.1738 17.064L26.1178 17.0974L24.5395 18.0392L24.367 18.1421L23.9131 18.413L23.0279 18.9412L22.71 19.1308L22.3953 19.3187L22.1548 19.4622L21.0692 20.11L20.3252 20.554L18.8085 21.459L5.59358 29.3443H2.91211L16.1269 21.459L18.3876 20.11L20.3252 18.9539L20.9565 18.5771L21.2316 18.413L21.5891 18.1997L22.71 17.5309L22.9282 17.4007L23.4923 17.064L24.5395 16.4392L24.7056 16.34L24.8144 16.275L26.2268 17.0324Z" fill="#E4002B"/>
<path d="M51.8531 0.572876V2.25119L36.3161 11.5223L34.6167 12.5364L34.3367 12.7035L34.0554 12.8713L32.5284 13.7826L32.3559 13.8854L31.9521 14.1264L30.9693 14.7128L30.2295 15.1543L30.1435 15.2056L30.0895 15.2377L29.9635 15.1701L28.061 14.15L27.5674 13.8854L27.5269 13.8635L26.3642 13.2399L26.1146 13.1061L25.6766 12.8713L25.4473 12.7484L25.8027 12.5364L26.014 12.4103L27.5021 11.5223L30.1435 9.9461L31.9521 8.86704L32.5284 8.52309L34.3367 7.44403L45.8517 0.572876H51.8531Z" fill="white"/>
<path d="M49.7989 0.572876L34.3355 9.79996L32.5271 10.879L31.9508 11.223L31.4491 11.5223L30.1422 12.3022L29.7496 12.5364L29.1883 12.8713L27.5256 13.8635L26.3629 13.2399L26.1133 13.1061L26.5068 12.8713L26.6799 12.768L27.0681 12.5364L28.7676 11.5223L30.1422 10.7021L31.9508 9.62291L32.5271 9.27898L34.3355 8.19991L47.1173 0.572876H49.7989Z" fill="#E4002B"/>
<path d="M51.8517 11.5225H0.785156V18.4132H51.8517V11.5225Z" fill="white"/>
<path d="M51.8517 12.8715H0.785156V17.0642H51.8517V12.8715Z" fill="#E4002B"/>
<path d="M30.3693 0.572876H22.2676V12.8713H30.3693V0.572876Z" fill="white"/>
<path d="M30.3693 17.0552H22.2676V29.3536H30.3693V17.0552Z" fill="white"/>
<path d="M28.7831 0.572876H23.8535V29.3444H28.7831V0.572876Z" fill="#E4002B"/>
<path d="M68.643 23.0874L69.6788 25.1862L71.995 25.5228L70.319 27.1564L70.7146 29.4632L68.643 28.3741L66.5714 29.4632L66.967 27.1564L65.291 25.5228L67.6072 25.1862L68.643 23.0874Z" fill="white"/>
<path d="M68.6433 27.7715L67.28 28.4883L67.5404 26.9702L66.4375 25.8951L67.9617 25.6736L68.6433 24.2925L69.325 25.6736L70.8492 25.8951L69.7463 26.9702L70.0066 28.4883L68.6433 27.7715Z" fill="#E4002B"/>
<path d="M79.3012 14.0468L80.337 16.1455L82.6531 16.4821L80.9772 18.1158L81.3728 20.4226L79.3012 19.3335L77.2295 20.4226L77.6252 18.1158L75.9492 16.4821L78.2654 16.1455L79.3012 14.0468Z" fill="white"/>
<path d="M79.3016 18.7309L77.9383 19.4476L78.1986 17.9296L77.0957 16.8545L78.6199 16.633L79.3016 15.2518L79.9832 16.633L81.5074 16.8545L80.4045 17.9296L80.6649 19.4476L79.3016 18.7309Z" fill="#E4002B"/>
<path d="M88.1117 20.7462L89.1475 22.845L91.4637 23.1816L89.7877 24.8152L90.1834 27.122L88.1117 26.0329L86.0401 27.122L86.4358 24.8152L84.7598 23.1816L87.0759 22.845L88.1117 20.7462Z" fill="white"/>
<path d="M88.1121 25.4303L86.7488 26.1471L87.0092 24.629L85.9062 23.5539L87.4305 23.3325L88.1121 21.9513L88.7938 23.3325L90.318 23.5539L89.215 24.629L89.4754 26.1471L88.1121 25.4303Z" fill="#E4002B"/>
<path d="M78.0082 36.7231L79.044 38.8219L81.3602 39.1585L79.6842 40.7922L80.0798 43.099L78.0082 42.0098L75.9366 43.099L76.3322 40.7922L74.6562 39.1585L76.9724 38.8219L78.0082 36.7231Z" fill="white"/>
<path d="M78.0086 41.4073L76.6453 42.124L76.9057 40.606L75.8027 39.5309L77.3269 39.3094L78.0086 37.9282L78.6902 39.3094L80.2144 39.5309L79.1115 40.606L79.3719 42.124L78.0086 41.4073Z" fill="#E4002B"/>
</svg>
