<svg width="214" height="248" viewBox="0 0 214 248" fill="none" xmlns="http://www.w3.org/2000/svg">
<g filter="url(#filter0_i_254_412)">
<path d="M17.8722 4.41819C20.5427 5.03444 23.2974 5.20519 26.0251 5.48481C31.4069 5.94265 36.8132 6.13322 42.2168 6.26442C46.2919 6.25702 50.367 6.45994 54.4421 6.28919C60.7068 6.29414 66.9689 6.01445 73.2174 5.61112C76.5074 5.30917 79.8354 5.10625 83.0465 4.33906C83.8914 4.16084 84.6413 3.73768 85.1628 3.10657C83.6198 1.78505 81.4192 1.66872 79.4441 1.3346C72.4268 0.409015 65.3198 0.228353 58.24 0.0179583C51.1901 0.0328227 44.1293 -0.125587 37.0902 0.285219C31.2655 0.537618 25.4137 0.851919 19.6949 1.95573C18.4018 2.21309 16.8722 2.31211 15.9974 3.3416C16.3698 3.97271 17.1522 4.24492 17.8722 4.41819Z" fill="#30589F"/>
<path d="M13.1123 11.5233C13.5524 11.9391 14.1609 12.1469 14.745 12.34C16.6549 12.9042 18.6625 13.0775 20.6322 13.3819C22.83 13.7234 25.055 13.9016 27.2773 14.0551C31.8061 14.3025 36.3322 14.6738 40.8746 14.6911C47.3947 14.8272 53.9258 14.8371 60.4459 14.6292C67.2486 14.2976 74.0839 14.0997 80.8159 13.0677C82.6362 12.8028 84.4699 12.5183 86.2169 11.9515C86.801 11.7362 87.6051 11.417 87.4938 10.7116C87.5617 8.7021 87.3362 6.69252 87.415 4.6805C80.4439 6.64053 73.0706 6.72468 65.8523 7.17261C51.9997 7.62801 38.1145 7.5636 24.2863 6.60096C20.5155 6.26441 16.7038 5.97976 13.0634 4.95767C12.9303 6.63313 12.9873 8.31348 12.9656 9.99146C12.9792 10.5012 12.9357 11.0309 13.1123 11.5233Z" fill="#30589F"/>
<path d="M87.6085 11.7634C88.6952 11.5283 89.7683 11.2313 90.8686 11.0383C89.0565 11.6644 87.1114 11.8872 85.3618 12.6716C87.5162 12.3598 89.82 12.1965 91.7434 11.1818C91.632 10.8923 91.4581 10.6076 91.1458 10.4666C90.1541 9.95678 89.0104 9.78358 87.9129 9.56579C88.0541 10.0038 88.2009 10.4691 88.6464 10.7388C88.5187 10.6993 88.2606 10.6201 88.1303 10.5804C87.9535 10.9739 87.7796 11.3699 87.6085 11.7634Z" fill="#30589F"/>
<path d="M61.7827 15.2702C55.0806 15.3172 48.3784 15.2628 41.6762 15.2628C34.9061 14.9411 28.1143 14.7827 21.3877 13.9635C21.4257 15.5993 21.3388 17.2377 21.4203 18.8711C21.4067 19.4106 22.0995 19.569 22.5314 19.7595C24.8461 20.4698 27.283 20.7445 29.6954 21.034C34.9143 21.7988 40.2011 21.9893 45.4715 22.2046C50.2638 22.5066 55.0697 22.4422 59.8675 22.4471C65.9856 22.3407 72.1091 22.1823 78.2054 21.6799C81.7562 21.3557 85.3314 21.1899 88.8388 20.5588C90.4905 20.2346 92.2183 20.0366 93.7316 19.309C94.4407 19.0294 94.4706 18.2548 94.4978 17.6509C94.5086 15.8864 94.4597 14.1219 94.3673 12.3573C87.4206 14.2555 80.1099 14.5153 72.9214 14.9385C69.2049 15.0128 65.4992 15.3321 61.7827 15.2702Z" fill="#30589F"/>
<path d="M92.9304 20.0441C90.0506 20.9672 87.0024 21.2914 84.014 21.779C88.9639 21.6527 93.8758 20.9103 98.7469 20.1283C99.8308 19.9748 100.934 19.6729 101.686 18.8983C99.8961 17.3466 97.2418 17.656 95.0249 17.0595C94.9733 17.7054 94.9923 18.3811 94.7179 18.9874C94.3539 19.5838 93.5797 19.8016 92.9304 20.0441ZM99.8987 18.9948C99.4287 19.0591 98.9587 19.1087 98.4915 19.1507C98.4317 18.9948 98.3149 18.6829 98.2578 18.5295C98.8365 18.5741 99.3961 18.7226 99.8987 18.9948Z" fill="#30589F"/>
<path d="M78.3681 23.0238C67.8543 23.1822 57.3324 23.1896 46.8295 22.754C41.5998 22.6599 36.3755 22.2293 31.1892 21.6057C31.1675 23.0955 31.1702 24.5878 31.1675 26.0776C31.1947 26.5577 31.0969 27.2358 31.7298 27.4313C33.6615 28.2431 35.805 28.4658 37.8805 28.7801C53.8984 30.6956 70.1146 30.6239 86.2194 29.8665C91.7588 29.4482 97.3743 29.2008 102.762 27.852C103.574 27.5823 104.633 27.414 105.112 26.7161C105.228 24.4888 105.139 22.2515 105.141 20.0217C103.329 20.6453 101.444 21.0636 99.5395 21.3754C92.5413 22.4248 85.4534 22.9124 78.3681 23.0238Z" fill="#30589F"/>
<path d="M30.5352 26.7806C30.212 26.7014 29.886 26.642 29.5573 26.6049C29.7909 27.1443 30.3125 27.4685 30.8586 27.7284C30.7689 27.4066 30.6629 27.0899 30.5352 26.7806Z" fill="#30589F"/>
<path d="M22.1025 33.6605C20.9941 33.8535 19.8829 34.0713 18.837 34.4624C18.405 34.6455 17.7937 34.836 17.8562 35.3706C19.2662 36.556 21.3336 36.4248 23.0941 36.7936C27.7451 37.3281 32.4234 37.7488 37.1124 37.9122C36.7973 37.7339 36.023 37.9394 36.0203 37.5014C36.1018 37.4766 36.262 37.4271 36.3435 37.4049C42.6464 37.7637 48.9492 38.3577 55.2765 38.2834C62.8969 38.4715 70.5227 38.2438 78.135 37.8924C81.0257 37.8108 83.8999 37.5237 86.7715 37.2168C89.6947 36.9198 92.6397 36.5783 95.4542 35.769C96.0818 35.5636 96.7637 35.3607 97.2309 34.9004C97.356 32.9898 97.2473 31.0719 97.2717 29.1589C94.2588 29.6984 91.1971 29.9038 88.1489 30.1859C77.6705 30.9754 67.1513 31.1981 56.6403 31.114C49.0062 31.1758 41.3722 30.8739 33.7789 30.1735C30.978 29.8196 28.1444 29.5127 25.4711 28.6267C25.4711 30.4209 25.4657 32.2152 25.463 34.0094C25.4848 34.5093 25.4332 35.128 25.9412 35.4621C26.5905 35.8705 27.3947 35.9942 28.1472 36.1699C30.5189 36.6005 32.9069 36.947 35.3086 37.2069C35.3548 37.2638 35.4444 37.3752 35.4879 37.4296V37.5905C32.9097 37.4791 30.3723 36.999 27.8511 36.5337C26.9682 36.3209 25.9223 36.2045 25.3083 35.5215C25.004 34.8236 25.0611 34.044 24.9986 33.3066C24.1401 33.4031 23.2762 33.4699 22.415 33.5268C22.9148 33.8089 23.5071 33.8337 24.0777 33.903C23.6729 33.9278 23.2681 33.95 22.8687 33.9822C22.1813 34.252 21.4152 34.299 20.6899 34.4499C21.2305 34.2569 21.7847 34.0961 22.3308 33.9179C22.2736 33.8535 22.1596 33.7248 22.1025 33.6605ZM21.35 36.0635C20.9126 35.7839 20.4888 35.4869 20.0921 35.1627C20.861 34.7098 21.1788 35.5166 21.35 36.0635Z" fill="#30589F"/>
<path d="M15.6259 43.9136C18.1715 44.6758 20.8556 44.9135 23.5017 45.2351C31.1493 46.131 38.8621 46.2894 46.5613 46.4503C53.8096 46.5641 61.0606 46.2944 68.3006 45.9702C74.0926 45.5767 79.9554 45.3465 85.5926 43.9779C86.2284 43.7873 87.152 43.6388 87.2933 42.9261C87.5785 41.117 87.0977 39.2807 87.421 37.4666C82.2402 38.1621 77.0078 38.417 71.7889 38.7486C67.5481 38.8377 63.3127 39.1544 59.0692 39.1149C54.2714 39.2633 49.4683 39.1594 44.6678 39.1941C38.058 39.1149 31.4536 38.7906 24.8682 38.2759C21.388 37.9517 17.8698 37.6374 14.512 36.692C14.5283 38.7684 14.4794 40.8447 14.5256 42.9211C14.4359 43.5053 15.1423 43.7404 15.6259 43.9136Z" fill="#30589F"/>
<path d="M89.6247 37.3777C89.6519 37.0263 88.994 37.0337 88.8282 37.2663C88.7873 37.6202 89.4588 37.6202 89.6247 37.3777Z" fill="#30589F"/>
<path d="M86.812 43.9013C88.26 43.6761 89.9226 43.587 90.9903 42.5401C90.1101 41.7977 88.9392 41.523 87.8118 41.2557C87.7574 41.81 87.7058 42.3644 87.6542 42.9213C88.3551 42.7851 89.0642 42.6985 89.7814 42.6886C88.7815 43.092 87.5645 43.0747 86.812 43.9013Z" fill="#30589F"/>
<path d="M46.8494 53.8723C56.5291 54.2905 66.2197 53.8896 75.8859 53.3675C81.4498 52.8775 87.1115 52.6299 92.4878 51.1055C93.0121 50.8704 93.9685 50.7788 93.9114 50.0858C93.9711 48.0664 93.9141 46.0445 93.9223 44.0251C90.2058 45.1165 86.3127 45.5446 82.4413 45.8614C78.7275 46.0866 75.0192 46.4009 71.2973 46.532C67.8525 46.5989 64.4077 46.7771 60.9628 46.8637C54.6301 46.8835 48.2974 46.8736 41.9647 46.8587C34.7002 46.5419 27.4003 46.386 20.2146 45.2773C20.2636 47.121 20.1467 48.9697 20.3151 50.8085C23.8468 52.3256 27.8241 52.5186 31.6411 52.9665C36.6862 53.5605 41.7746 53.6446 46.8494 53.8723Z" fill="#30589F"/>
<path d="M87.3448 53.6892C74.1551 54.7162 60.8919 54.8103 47.6696 54.3722C45.4718 54.3796 43.2766 54.2559 41.0897 54.0926C35.8898 53.8649 30.7009 53.4169 25.5608 52.672C25.607 54.6098 25.4765 56.5575 25.6994 58.4879C25.6912 58.9185 26.1911 59.0422 26.5497 59.1709C28.5437 59.7995 30.6628 59.9381 32.7329 60.2325C37.058 60.8142 41.4211 61.0938 45.7787 61.3487C55.9855 61.903 66.2276 61.9798 76.4371 61.47C82.3378 61.272 88.2521 60.9181 94.0687 59.9406C96.0383 59.5347 98.103 59.1808 99.8336 58.1859C100.018 55.9388 99.8337 53.6744 99.9152 51.4198C95.9106 52.8452 91.5829 53.2437 87.3448 53.6892Z" fill="#30589F"/>
<path d="M23.3632 58.124C23.9065 58.4804 24.477 58.7996 25.0638 59.0941C24.9959 58.6437 24.9633 58.1859 24.8356 57.7454C24.3222 57.6191 23.8386 57.9879 23.3632 58.124ZM24.5259 58.5274C24.075 58.6314 23.9119 58.4903 24.0314 58.1017C24.4824 57.9929 24.6454 58.1339 24.5259 58.5274Z" fill="#30589F"/>
<path d="M19.2849 66.5532C19.7195 66.9864 20.396 67.1125 20.991 67.2858C24.2973 68.0703 27.7095 68.3574 31.0973 68.6766C34.5258 69.0874 37.9842 69.1914 41.4344 69.3473C45.4987 69.5898 49.571 69.6517 53.6434 69.6319C59.0905 69.6492 64.5402 69.6195 69.9818 69.32C75.3202 69.0874 80.6613 68.7137 85.9399 67.9268C87.7411 67.5902 89.6211 67.3179 91.2267 66.4468C91.4115 64.5907 91.2566 62.7099 91.2919 60.8414C81.0526 62.0169 70.7316 62.4154 60.419 62.4549C50.2774 62.4673 40.125 62.4104 30.0133 61.6234C26.381 61.2621 22.6971 60.9627 19.2169 59.8836C19.274 62.106 19.1219 64.3358 19.2849 66.5532Z" fill="#30589F"/>
<path d="M20.5701 74.5048C22.0072 75.0369 23.553 75.2472 25.0717 75.4848C30.4808 76.2174 35.9278 76.747 41.3939 76.9004C48.8133 77.336 56.2544 77.3731 63.6847 77.2642C68.6155 77.2023 73.5437 76.9722 78.4556 76.6084C82.0389 76.2 85.6658 76.059 89.2057 75.3759C90.5069 75.116 91.8817 74.9552 93.0417 74.3192C93.8187 73.938 93.7236 73.0348 93.748 72.3517C93.6475 70.7505 93.6421 69.1468 93.6611 67.5431C88.1896 69.1022 82.4084 69.3126 76.7331 69.716C68.6835 70.2208 60.6093 70.1688 52.5461 70.1367C45.0126 70.1936 37.4818 69.8125 29.9809 69.1765C26.441 68.7063 22.8169 68.5281 19.4073 67.4763C19.4154 69.4363 19.3801 71.3989 19.4263 73.3589C19.3394 73.9974 20.0403 74.287 20.5701 74.5048Z" fill="#30589F"/>
<path d="M98.5354 72.7798C97.1472 72.3962 95.7019 72.2304 94.3136 71.8567C94.2022 72.8021 94.6152 74.1707 93.4416 74.6804C91.3469 75.6704 88.9562 75.8856 86.6877 76.3559C88.7308 76.3584 90.7384 75.9426 92.7705 75.7867C94.5717 75.5219 96.3865 75.3165 98.1714 74.9626C98.9565 74.777 99.8938 74.5691 100.269 73.8267C99.9319 73.2179 99.1955 72.9729 98.5354 72.7798ZM96.9407 73.4133C97.6118 73.3985 98.2964 73.4455 98.9293 73.6658C98.2719 73.6782 97.3673 74.0865 96.9407 73.4133Z" fill="#30589F"/>
<path d="M90.6232 77.237C84.2959 77.8656 77.9252 77.9176 71.568 78.0487C65.9499 78.066 60.3316 78.0536 54.7161 77.8903C52.7166 77.9151 50.7226 77.8086 48.7312 77.6923C41.8062 77.4968 34.8813 77.1058 28.0079 76.2916C28.0188 77.9522 27.9998 79.6128 27.9373 81.2709C27.8667 82.2707 29.024 82.8003 29.9259 83.028C32.4416 83.6219 35.0416 83.8471 37.617 84.1342C51.4914 85.3815 65.4581 85.4657 79.3813 85.0326C86.0726 84.6589 92.821 84.451 99.3955 83.1567C100.591 82.9365 101.716 82.496 102.786 81.9663C102.827 79.7117 102.797 77.4547 102.802 75.1977C98.8793 76.4426 94.7309 76.8484 90.6232 77.237Z" fill="#30589F"/>
<path d="M27.3269 81.3897C26.5037 81.6842 25.6833 81.9985 24.9388 82.439C25.9414 82.6865 26.9764 82.7731 28.0033 82.9043C27.7724 82.3994 27.5496 81.8946 27.3269 81.3897Z" fill="#30589F"/>
<path d="M30.0106 86.5645C37.2942 86.9283 44.6158 87.1115 51.8369 88.1237C53.3582 88.4924 55.2029 88.5765 56.2733 89.7595C56.7922 90.8113 56.4308 92.0314 56.5287 93.1524C59.0933 93.3108 61.6579 93.0856 64.2225 93.1401C72.0358 92.9717 79.8654 92.7169 87.6217 91.7691C90.8709 91.4201 94.1473 91.0192 97.258 90.0515C97.9724 89.8164 98.7006 89.5639 99.3037 89.1284C99.6297 87.2773 99.3091 85.3964 99.3906 83.5329C95.1524 84.3793 90.8464 84.9138 86.5187 85.1539C82.0062 85.6414 77.4557 85.6167 72.9269 85.8914C66.5018 86.1587 60.0659 86.03 53.6381 86.0424C47.0229 85.8419 40.394 85.6489 33.8277 84.8545C30.842 84.5081 27.7613 84.2185 25.0282 82.9761C25.1287 84.1294 25.1043 85.2851 25.1206 86.4409C26.7505 86.4507 28.3806 86.4754 30.0106 86.5645Z" fill="#30589F"/>
<path d="M-14.0541 90.9648C-8.75373 91.8804 -3.35288 92.2071 2.02629 92.462C13.5996 92.9595 25.2 92.7689 36.7651 92.17C40.957 91.8161 45.1762 91.6873 49.3354 91.0712C50.7645 90.841 52.2886 90.7791 53.5844 90.1258C54.0544 89.9773 54.106 89.3189 53.6605 89.1136C52.7667 88.5765 51.661 88.4726 50.6313 88.3068C45.5076 87.6188 40.3213 87.4258 35.1595 87.1115C25.4037 86.6042 15.6262 86.5299 5.85683 86.7527C-0.978489 87.0125 -7.84369 87.3293 -14.5839 88.4677C-15.2848 88.589 -16.0074 88.7003 -16.6459 89.0072C-16.9746 89.1878 -17.4418 89.4402 -17.2136 89.8535C-16.3253 90.5292 -15.1571 90.747 -14.0541 90.9648Z" fill="#30589F"/>
<path d="M-21.099 97.5998C-20.3437 98.2655 -19.2815 98.5204 -18.3035 98.7926C-14.242 99.7232 -10.0637 100.087 -5.90977 100.498C-0.0253258 101.05 5.89443 101.201 11.8033 101.394C17.954 101.577 24.1046 101.379 30.2472 101.094C36.762 100.889 43.2794 100.458 49.7154 99.4955C51.2557 99.2357 52.7989 98.9239 54.2577 98.3893C54.8174 98.1443 55.6025 97.8225 55.5238 97.1395C55.5726 95.0409 55.5074 92.9422 55.521 90.8435C51.3807 92.3309 46.8981 92.6279 42.5187 93.0857C36.6315 93.4817 30.7363 93.8133 24.8328 93.895C19.4917 94.0929 14.1479 93.8751 8.80674 93.8851C1.46882 93.7316 -5.86089 93.2441 -13.1526 92.4967C-15.8639 92.128 -18.6078 91.7245 -21.1534 90.7594C-21.1289 93.0387 -21.262 95.3254 -21.099 97.5998Z" fill="#30589F"/>
<path d="M62.0601 101.728C68.3005 101.74 74.5435 101.671 80.7703 101.324C86.8775 100.881 93.0417 100.587 99.0158 99.2751C100.168 98.9435 101.428 98.7258 102.398 98.0402C102.512 95.8154 102.409 93.5831 102.436 91.3557C98.0406 92.8678 93.3107 93.2316 88.676 93.687C81.5418 94.1943 74.3887 94.5161 67.2328 94.479C63.6712 94.5631 60.1068 94.6076 56.5506 94.4122C56.5288 94.7636 56.5098 95.1175 56.4908 95.4738C58.36 96.0653 60.6447 96.1866 61.9786 97.6715C62.1714 99.0128 61.9759 100.376 62.0601 101.728Z" fill="#30589F"/>
<path d="M56.105 98.6515C57.1971 98.3297 58.5854 98.2011 59.0988 97.1072C58.455 96.4193 57.4986 96.2485 56.5587 96.2213C56.5098 96.7113 56.4609 97.2038 56.4201 97.6963C57.0422 97.6344 57.6671 97.5651 58.2919 97.5131C57.7051 97.7928 57.064 97.9388 56.4038 97.966C56.3033 98.1912 56.2028 98.4214 56.105 98.6515Z" fill="#30589F"/>
<path d="M-13.6928 106.291C-12.3969 106.766 -11.0196 107.021 -9.65304 107.269C-2.23362 108.548 5.31618 109.105 12.8579 109.36C26.4497 109.632 40.1149 109.565 53.6007 107.826C55.6736 107.492 57.7573 107.088 59.7107 106.353C60.2133 106.133 60.8898 105.883 60.9305 105.289C61.1668 103.123 60.8191 100.941 61.0202 98.7678C55.7388 100.359 50.175 100.876 44.6654 101.319C31.2882 102.245 17.8513 102.22 4.45234 101.705C-1.99721 101.322 -8.48475 101.062 -14.8446 99.931C-14.9261 101.634 -14.9505 103.336 -14.9043 105.039C-14.9832 105.7 -14.2525 106.059 -13.6928 106.291Z" fill="#30589F"/>
<path d="M94.0632 101.394C87.4914 102.072 80.8707 102.121 74.2691 102.371C70.1695 102.401 66.0701 102.386 61.9705 102.379C61.9243 103.401 62.1633 104.44 61.965 105.45C61.1582 106.588 59.5471 106.841 58.2485 107.286C55.8551 108.063 53.2959 108.239 50.8672 108.877C57.0233 109.335 63.2066 109.521 69.3817 109.476C75.9888 109.474 82.604 109.38 89.1922 108.892C93.0471 108.724 96.8913 108.338 100.681 107.662C102.401 107.259 104.281 106.959 105.71 105.94C105.859 103.702 105.612 101.45 105.753 99.2058C102.04 100.572 98.0161 101 94.0632 101.394Z" fill="#30589F"/>
<path d="M-25.4436 113.446C-24.4602 114.25 -23.129 114.577 -21.8875 114.909C-17.6167 115.876 -13.2401 116.384 -8.87431 116.836C4.22035 117.965 17.4074 117.928 30.5265 117.21C34.7266 117.005 38.9212 116.624 43.0832 116.052C45.3028 115.619 47.661 115.324 49.636 114.238C49.9892 112.449 49.6495 110.617 49.8044 108.816C44.5747 109.229 39.3531 109.763 34.1017 109.843C23.0473 110.399 11.963 110.308 0.908636 109.857C-5.08718 109.692 -11.0776 109.241 -17.0164 108.474C-19.869 107.999 -22.7921 107.581 -25.4247 106.42C-25.3295 108.761 -25.6311 111.11 -25.4436 113.446Z" fill="#30589F"/>
<path d="M82.6958 109.83C72.1331 110.481 61.5324 110.454 50.948 110.293C50.9236 111.503 50.9236 112.716 50.8992 113.929C51.7712 114.032 52.7982 113.946 53.5045 114.515C53.7925 115.522 53.5725 116.606 53.6295 117.646C58.4327 117.685 63.2358 117.586 68.039 117.542C71.6605 117.423 75.2791 117.232 78.9005 117.111C82.2692 116.992 85.6136 116.621 88.9687 116.339C91.9816 116.067 94.97 115.577 97.9041 114.906C98.8114 114.678 99.8058 114.399 100.387 113.674C100.572 111.847 100.365 110.008 100.344 108.179C94.5082 109.068 88.6074 109.625 82.6958 109.83Z" fill="#30589F"/>
<path d="M98.614 115.134C99.9235 114.933 101.246 114.758 102.507 114.364C102.993 114.198 103.575 113.98 103.694 113.461C103.146 112.55 101.964 112.3 100.994 111.934C101.103 112.476 101.42 113.018 101.339 113.582C100.733 114.438 99.5296 114.646 98.614 115.134Z" fill="#30589F"/>
<path d="M97.1089 117.136C82.6667 118.465 68.1349 118.086 53.6412 118.138C53.6358 118.341 53.6249 118.747 53.6222 118.95C55.4478 119.299 57.2653 119.757 58.9633 120.479C59.2839 120.635 59.6615 120.789 59.8408 121.103C59.9794 122.422 59.7566 123.744 59.7946 125.068C66.3963 125.365 73.0115 125.273 79.6186 125.199C84.3675 125.135 89.0973 124.756 93.8353 124.491C96.2423 124.328 98.652 124.117 101.035 123.761C103.249 123.397 105.525 123.115 107.579 122.232C107.816 122.073 108.283 121.982 108.215 121.63C108.28 119.452 108.223 117.27 108.231 115.092C104.675 116.339 100.869 116.75 97.1089 117.136Z" fill="#30589F"/>
<path d="M-25.8021 122.239C-25.2805 122.981 -24.1449 123.152 -23.2756 123.444C-15.9567 125.241 -8.34714 125.629 -0.819101 126.107C7.90977 126.545 16.6603 126.508 25.3947 126.213C32.7543 125.793 40.1655 125.543 47.4192 124.221C48.9243 123.912 50.4348 123.546 51.8257 122.924C52.1952 122.724 52.7141 122.531 52.706 122.071C52.9776 119.858 52.6842 117.623 52.8907 115.408C50.2527 116.391 47.4518 116.928 44.6373 117.289C41.0376 117.717 37.4297 118.126 33.8002 118.242C26.2123 118.747 18.6001 118.742 10.9959 118.72C4.02476 118.774 -2.94094 118.445 -9.89032 117.965C-15.2694 117.47 -20.7437 117.032 -25.8647 115.344C-25.832 117.641 -25.9842 119.95 -25.8021 122.239Z" fill="#30589F"/>
<path d="M55.9204 120.596C55.4423 119.898 54.4344 119.908 53.6574 119.727C53.6465 120.62 53.6439 121.519 53.47 122.402C54.4725 122.118 56.0889 121.88 55.9204 120.596Z" fill="#30589F"/>
<path d="M-17.3314 129.327C-16.8206 129.725 -16.1795 129.941 -15.5546 130.143C-12.6613 131.019 -9.64031 131.458 -6.62742 131.836C-2.95169 132.331 0.751251 132.678 4.46498 132.853C11.2432 133.264 18.0378 133.398 24.8269 133.294C29.8692 133.106 34.9169 132.985 39.9537 132.683C45.705 132.207 51.5705 131.908 57.0909 130.23C57.7347 129.997 58.7209 129.809 58.7617 129.032C58.8513 126.793 58.7589 124.548 58.7943 122.308C54.4828 123.947 49.7992 124.377 45.2378 125.1C40.114 125.931 34.9142 126.211 29.7361 126.587C23.8517 126.887 17.959 126.894 12.0665 126.887C2.1966 126.926 -7.70048 126.491 -17.4644 125.112C-17.383 126.513 -17.6112 127.941 -17.3314 129.327Z" fill="#30589F"/>
<path d="M104.202 124.226C99.0324 125.073 93.7755 125.323 88.5405 125.612C81.8899 125.711 75.2394 125.941 68.5887 125.733C65.6845 125.753 62.7858 125.642 59.8843 125.602C59.8435 126.82 59.9712 128.042 59.8191 129.255C59.2621 129.983 58.1999 130.188 57.5614 130.836C57.4936 131.368 57.5234 131.908 57.5234 132.448C61.5414 132.883 65.5975 132.846 69.6373 132.933C74.8833 133.084 80.132 132.91 85.378 132.787C90.7381 132.591 96.101 132.309 101.426 131.708C103.876 131.371 106.381 131.064 108.671 130.161C108.927 129.987 109.443 129.918 109.383 129.54C109.467 127.335 109.386 125.127 109.418 122.922C107.712 123.457 105.984 123.947 104.202 124.226Z" fill="#30589F"/>
<path d="M-21.9851 137.301C-20.135 138.511 -17.8475 138.931 -15.666 139.379C-12.1397 140.003 -8.57805 140.468 -4.9947 140.723C1.30539 141.223 7.63267 141.451 13.96 141.401C20.9446 141.436 27.9375 141.339 34.9032 140.84C39.5244 140.612 44.1401 140.203 48.7069 139.501C50.8314 139.075 52.9994 138.743 55.0369 138.023C55.6428 137.781 56.4469 137.501 56.4659 136.786C56.6453 134.858 56.4415 132.92 56.4306 130.99C52.4153 131.995 48.2858 132.561 44.1401 132.88C41.5293 133.165 38.9077 133.385 36.2779 133.455C29.4942 133.989 22.6806 133.997 15.8752 133.979C7.97769 134.019 0.0719929 133.762 -7.79571 133.103C-12.6043 132.608 -17.4917 132.093 -22.0287 130.473C-22.053 132.747 -22.11 135.026 -21.9851 137.301Z" fill="#30589F"/>
<path d="M87.6377 133.437C80.3922 133.868 73.1276 133.767 65.8739 133.732C63.0866 133.772 60.3128 133.517 57.5308 133.462C57.4602 134.675 57.7101 135.937 57.3624 137.12C56.5528 138.016 55.2977 138.446 54.1295 138.823C53.0862 139.172 51.8909 139.181 50.9753 139.81C53.2112 140.085 55.4824 140.077 57.7292 140.293C62.5106 140.689 67.3165 140.607 72.1088 140.741C80.077 140.746 88.056 140.629 95.9807 139.822C98.7491 139.659 101.447 139.033 104.147 138.491C106.223 138.033 108.369 137.756 110.32 136.927C110.32 134.756 110.325 132.586 110.298 130.418C106.576 131.886 102.49 132.272 98.5019 132.688C94.8833 132.965 91.2727 133.38 87.6377 133.437Z" fill="#30589F"/>
<path d="M98.4264 140.166C98.6981 140.763 99.1762 141.265 99.4968 141.844C104.876 142.884 110.342 143.525 115.83 143.802C124.607 144.421 133.434 144.272 142.201 143.616C145.776 143.379 149.327 142.866 152.821 142.144C153.562 141.916 154.69 141.735 154.815 140.889C154.375 139.988 153.179 139.768 152.239 139.53C148.743 138.892 145.217 138.367 141.666 138.07C131.926 137.172 122.105 137.108 112.333 137.546C107.612 137.659 103.17 139.3 98.5296 139.894C98.5025 139.961 98.4535 140.097 98.4264 140.166ZM152.764 140.627C153.035 140.399 153.693 140.708 153.435 141.048C153.158 141.29 152.508 140.958 152.764 140.627Z" fill="#30589F"/>
<path d="M-25.0226 145.024C-24.3651 145.586 -23.4714 145.826 -22.6319 146.074C-17.1767 147.551 -11.4797 147.965 -5.84252 148.462C8.20026 149.541 22.3409 149.326 36.3674 148.153C38.9537 147.969 41.521 147.601 44.0693 147.17C45.9901 146.829 47.9271 146.462 49.7364 145.76C50.1467 145.601 50.5216 145.274 50.5324 144.846C50.6547 143.121 50.4781 141.394 50.4455 139.669C43.3602 140.951 36.1364 141.453 28.929 141.725C24.7588 141.721 20.5994 142.02 16.432 141.998C9.91725 142.027 3.40795 141.77 -3.09323 141.458C-9.07549 141.003 -15.0767 140.513 -20.9558 139.374C-22.3766 139.125 -23.7811 138.783 -25.0852 138.206C-24.9845 140.476 -25.1666 142.758 -25.0226 145.024Z" fill="#30589F"/>
<path d="M96.3669 140.406C97.0597 141.223 98.1328 141.584 99.1923 141.832L99.2656 141.56C98.5946 141.325 98.2197 140.807 98.1382 140.176C97.7715 139.723 96.913 140.364 96.3669 140.406Z" fill="#30589F"/>
<path d="M88.9715 140.864C76.4473 141.468 63.8825 141.498 51.3556 140.869C51.3719 141.213 51.3909 141.562 51.4099 141.911C53.6729 142.822 56.1913 142.866 58.5196 143.579C59.2286 143.812 60.098 143.968 60.5272 144.594C60.0654 145.74 60.1034 146.962 60.1578 148.163C71.2801 148.207 82.4486 147.972 93.4785 146.579C93.397 144.586 93.6496 142.572 93.3345 140.597C91.8729 140.503 90.4304 140.82 88.9715 140.864Z" fill="#30589F"/>
<path d="M101.112 238.82C103.927 235.709 105.524 231.739 105.831 227.733C106.013 225.889 105.457 224.085 105.313 222.258C105.81 224.045 105.954 225.896 106.041 227.735C116.079 228.403 126.161 228.502 136.21 228.035C138.565 227.955 140.926 227.891 143.273 227.671C147.927 227.257 152.627 226.923 157.159 225.807C158.384 225.451 159.75 225.151 160.652 224.258C161.228 223.548 160.373 222.766 159.742 222.397C157.583 221.236 155.026 220.994 152.722 220.162C149.335 222.54 145.542 224.448 141.432 225.56C134.7 227.497 127.468 227.757 120.505 226.861C115.248 226.065 110.075 224.446 105.641 221.711C105.234 221.444 104.943 221.061 104.663 220.697C104.549 220.848 104.438 221.001 104.329 221.159C104.992 223.426 105.052 225.869 104.327 228.131C103.291 231.262 101.094 233.999 98.4312 236.157C94.4376 239.409 89.4307 241.446 84.315 242.757C78.5882 244.22 72.5733 244.606 66.6536 244.247C60.7148 243.866 54.8168 242.492 49.5409 239.946C45.6777 238.137 42.1323 235.56 39.8095 232.18C37.6932 228.985 36.7396 225.005 37.9268 221.37C39.2037 217.432 42.4285 214.28 46.0281 211.941C48.101 210.478 50.5351 209.55 52.9177 208.597C55.5149 207.652 58.2099 206.934 60.9267 206.335C65.0534 205.521 69.2888 205.375 73.497 205.306C73.4725 205.244 73.4236 205.118 73.3991 205.054C72.3858 204.925 71.2665 205.158 70.3645 204.606C65.3603 201.814 61.2825 197.424 59.7094 192.219C58.2397 187.953 58.7613 183.137 61.2118 179.251C62.0539 177.63 63.195 176.158 64.556 174.861C67.2918 171.884 70.9838 169.77 74.8036 168.124C79.3867 166.132 84.4398 165.246 89.4712 164.875C91.0034 161.098 94.163 158.109 97.6241 155.711C100.327 153.912 103.318 152.402 106.584 151.652L106.144 151.585C106.32 151.447 106.5 151.315 106.682 151.187C109.181 151.541 111.716 151.556 114.234 151.714C116.763 151.843 119.293 151.991 121.827 152.075C124.634 152.226 127.44 151.939 130.249 151.956C135.615 151.845 140.978 151.583 146.321 151.103C149.516 150.727 152.768 150.437 155.808 149.4C156.387 149.19 157.039 148.997 157.422 148.514C157.68 147.903 157.585 147.232 157.58 146.596C157.465 145.099 157.493 143.599 157.522 142.102C153.866 143.441 149.91 143.837 146.028 144.282C139.334 144.849 132.613 145.121 125.889 145.032C120.271 145.126 114.658 144.802 109.053 144.463C104.196 144.092 99.2839 143.795 94.5676 142.599C94.5812 144.748 94.5295 146.898 94.5948 149.049C96.7763 149.905 99.1535 150.172 101.484 150.501C102.995 150.677 104.497 150.949 106.027 150.987C106.062 151.105 106.138 151.338 106.176 151.454C102.984 151.192 99.7973 150.826 96.6677 150.197C96.6406 152.145 96.6352 154.095 96.6596 156.043C96.1597 156.453 95.6191 156.817 95.0213 157.099C95.1599 156.52 95.3609 155.954 95.6951 155.444C95.7141 155.278 95.7548 154.946 95.7766 154.78C93.1033 154.934 90.4599 155.355 87.7948 155.587C82.5705 155.934 77.3435 156.243 72.1057 156.335C66.7021 156.372 61.3012 156.357 55.8976 156.414C55.846 158.005 55.99 159.601 55.8487 161.188C55.7183 162.193 54.5962 162.636 53.7893 163.145C55.3623 162.989 56.938 163.158 58.5138 163.178C67.1204 163.173 75.7541 163.328 84.3309 162.519C86.5043 162.366 88.6586 162.014 90.8428 161.957C90.4244 162.46 89.9545 163.039 89.1856 163.034C82.8746 163.564 76.5419 163.932 70.2011 164.019C63.3549 164.229 56.5006 163.915 49.6571 164.204C49.5539 165.227 49.5267 166.254 49.6028 167.281C53.1889 167.919 56.881 168.261 60.3176 169.458C61.005 169.622 61.005 170.327 61.1463 170.844C63.7543 171.013 66.3679 170.731 68.9786 170.909C68.3917 171.253 67.7696 171.592 67.0606 171.649C65.0936 171.827 63.1159 171.738 61.1435 171.763C61.0973 173.69 61.2983 175.613 61.426 177.539C61.5509 178.62 60.7468 179.682 59.6329 180.041C57.1662 180.9 54.5173 181.159 51.9528 181.674C54.7211 181.543 57.408 180.862 60.1601 180.615C59.902 181.268 59.7878 182.248 58.8017 182.243C46.4895 183.936 33.9979 183.889 21.5798 183.773C11.1829 183.458 0.794058 182.731 -9.48336 181.216C-9.52143 183.063 -9.68712 184.919 -9.52143 186.762C-9.478 187.428 -8.81507 187.819 -8.20921 188.064C-6.25046 188.849 -4.12594 189.188 -2.02594 189.497C-0.529032 189.707 0.946192 190.101 2.47565 190.108C2.50553 190.215 2.56804 190.433 2.59792 190.539C4.55399 190.138 6.50997 189.722 8.50411 189.507C14.4565 188.883 20.5393 189.599 26.1982 191.361C28.2602 191.87 30.1076 192.875 31.9848 193.774C34.9243 195.169 37.6247 196.964 40.0807 198.988C40.0834 198.857 40.0916 198.597 40.0943 198.466C46.5737 198.174 53.0531 197.545 59.394 196.273C58.9539 194.348 58.5925 192.405 58.5463 190.435L58.7148 190.46C58.5816 194.518 60.2036 198.446 62.5644 201.834C63.3142 203.126 64.4525 204.207 65.0366 205.581C64.4226 205.024 64.0043 204.331 63.556 203.668C62.9149 204.054 61.896 204.229 61.8798 205.091C61.7902 204.873 61.7005 204.658 61.6136 204.445C56.8512 205.546 51.9719 206.204 47.0736 206.519C47.0329 206.42 46.9568 206.222 46.916 206.123C50.6026 205.737 54.3137 205.477 57.9541 204.799C59.7906 204.425 61.6896 204.187 63.3984 203.42C62.8469 202.359 62.0373 201.435 61.4478 200.394C60.8908 199.441 60.3909 198.461 59.8612 197.496C57.2532 197.901 54.6288 198.206 51.9935 198.421C48.2227 198.733 44.4383 199.159 40.6484 199.003C40.4963 199.087 40.3468 199.173 40.2001 199.267C43.9085 202.153 46.685 205.957 48.6193 210.016C48.1792 210.278 47.7364 210.535 47.2881 210.785C44.9652 205.6 41.0477 201.037 36.1413 197.674C28.5181 192.343 18.6482 189.752 9.07993 190.63C0.975908 191.479 -7.09004 194.503 -12.7327 199.995C-16.9192 203.96 -19.3697 209.402 -19.5408 214.893C-19.6821 221.1 -16.7779 227.117 -12.3198 231.725C-7.78276 236.422 -1.863 240.062 4.73323 241.864C16.1435 245.207 29.4745 243.579 38.9315 236.679C38.4995 235.838 38.0051 235.026 37.66 234.155C36.6929 231.618 36.5407 228.918 36.3641 226.263C36.8015 228.317 36.7065 230.443 37.3041 232.477C38.1545 235.578 40.0318 238.37 42.4225 240.684C45.8184 243.782 50.1298 245.92 54.6152 247.42C60.8882 249.489 67.6555 250.07 74.2843 249.714C80.0954 249.378 85.8875 248.19 91.1444 245.876C94.9482 244.19 98.5315 241.911 101.112 238.82ZM56.3869 190.566C48.2693 191.544 40.0756 191.939 31.8928 191.888C30.6078 191.878 29.3065 191.972 28.046 191.704C30.7599 191.39 33.5174 191.566 36.2478 191.4C42.0534 191.244 47.8646 191.021 53.6376 190.405C55.3845 190.262 57.1069 189.91 58.8564 189.806C58.2614 190.492 57.2291 190.39 56.3869 190.566ZM44.3844 211.891C43.9389 212.018 43.1428 212.337 42.9744 211.733C43.2434 211.515 43.5341 211.327 43.822 211.137C44.0122 211.379 44.2132 211.627 44.3844 211.891ZM43.121 208.919C43.5611 209.85 42.1756 209.446 41.6513 209.31C41.9692 208.909 42.7815 208.112 43.121 208.919ZM40.7412 205.922C41.1542 205.742 41.3497 206.18 41.472 206.464C41.2384 206.88 40.4206 207.249 40.1897 206.65C39.8827 206.256 40.4369 206.076 40.7412 205.922ZM38.7933 203.638C39.2172 203.452 39.5132 203.905 39.5486 204.242C39.1954 204.536 38.6575 204.734 38.2635 204.373C38.0055 204.012 38.4619 203.739 38.7933 203.638ZM24.5359 194.461C24.8375 194.672 25.1499 194.887 25.4243 195.139C25.3156 195.429 24.9923 196.171 24.5685 195.835C23.8485 195.607 24.4082 194.884 24.5359 194.461ZM20.9471 193.796C21.2514 193.798 21.5583 193.806 21.8654 193.815C21.9279 193.954 22.0528 194.229 22.118 194.365C21.7214 194.674 21.2432 194.852 20.7325 194.939C20.7949 194.553 20.8683 194.174 20.9471 193.796ZM18.6759 193.177C18.5347 193.711 18.051 194.58 17.3556 194.041C16.8665 193.224 18.013 192.954 18.6759 193.177ZM13.8346 192.994C14.1362 192.526 15.231 193.105 14.8317 193.635C14.4676 194.449 13.1962 193.647 13.8346 192.994ZM10.7512 192.583C10.9278 192.91 11.2076 193.221 11.2429 193.607C11.0962 194.115 10.3057 194.053 10.1155 193.61C10.1073 193.182 10.5148 192.9 10.7512 192.583ZM7.67582 193.397C8.03439 193.81 7.71114 194.293 7.18678 194.365C6.839 194.179 6.62988 193.845 6.36628 193.588C6.73858 193.395 7.37155 192.803 7.67582 193.397ZM-14.3922 207.12C-13.9521 206.595 -12.629 207.608 -13.588 207.86C-14.1368 208.13 -15.1638 207.585 -14.3922 207.12ZM-15.8619 209.785C-15.3132 209.726 -14.7997 209.936 -14.2971 210.11C-14.3921 210.268 -14.5769 210.585 -14.6693 210.743C-15.248 210.612 -15.9054 210.446 -15.8619 209.785ZM-16.1065 212.488C-15.7342 212.505 -15.3729 212.659 -15.1447 212.936C-14.7454 213.691 -15.9923 213.342 -16.4515 213.349C-16.4515 213.03 -16.3482 212.72 -16.1065 212.488ZM-16.351 215.515C-15.8865 215.396 -15.3458 215.5 -15.0877 215.903C-15.4164 216.363 -16.0657 216.376 -16.5819 216.215C-16.533 215.997 -16.7856 215.465 -16.351 215.515ZM-14.8839 218.749C-15.0823 218.979 -15.3105 219.214 -15.6283 219.306C-15.9489 219.177 -16.2423 219.002 -16.5439 218.846C-16.1309 218.469 -15.0985 217.989 -14.8839 218.749ZM-15.8538 221.939C-15.7886 221.464 -15.4789 220.954 -14.8513 221.095C-14.3568 220.981 -14.308 221.617 -14.4655 221.9C-14.9219 221.991 -15.392 221.949 -15.8538 221.939ZM-14.2075 224.723C-14.5688 224.587 -14.5797 224.065 -14.2075 223.941C-13.8108 223.597 -13.2648 223.904 -13.1398 224.322C-13.3435 224.639 -13.7999 224.993 -14.2075 224.723ZM-13.0881 227.017C-13.1561 226.458 -12.2976 226.631 -11.9145 226.47C-11.8901 226.686 -11.8439 227.119 -11.8194 227.334C-12.2106 227.253 -13.1018 227.592 -13.0881 227.017ZM-12.9496 205.021C-13.4142 204.752 -12.9007 204.497 -12.6643 204.291C-12.2188 204.479 -11.8655 204.804 -11.5205 205.118C-11.9879 205.227 -12.6317 205.556 -12.9496 205.021ZM-11.2815 229.302C-10.9881 229 -10.5588 228.854 -10.1242 228.893C-10.078 229.21 -10.078 229.532 -10.0699 229.859C-10.548 229.794 -11.2843 229.935 -11.2815 229.302ZM-11.1022 202.787C-11.2733 202.438 -10.8957 202.116 -10.8006 201.804C-10.3931 202.121 -10.0019 202.462 -9.62696 202.819C-10.1106 202.908 -10.7002 203.192 -11.1022 202.787ZM-8.97499 232.051C-9.23583 231.16 -8.0975 230.93 -7.47265 231.445C-7.8503 231.838 -8.3339 232.388 -8.97499 232.051ZM-8.77399 200.728C-9.04018 200.443 -8.67616 200.111 -8.53491 199.861C-7.93181 199.646 -7.77968 200.416 -7.45365 200.73C-7.89106 200.757 -8.3529 200.908 -8.77399 200.728ZM-6.25826 234.264C-7.00805 234.241 -6.43482 233.447 -6.03005 233.316C-4.90804 232.757 -5.37265 234.571 -6.25826 234.264ZM-6.36696 198.602C-6.13064 198.31 -5.89424 198.013 -5.64972 197.728C-5.41608 198.07 -4.99767 198.364 -5.01675 198.805C-5.42428 199.228 -5.93499 198.73 -6.36696 198.602ZM-3.02812 235.838C-3.16394 236.318 -3.94093 236.023 -4.0252 235.664C-3.78068 235.291 -3.44921 234.976 -3.12863 234.665C-3.03892 235.041 -2.71565 235.469 -3.02812 235.838ZM-2.77816 197.664C-3.07431 197.24 -3.55783 196.79 -3.18837 196.275C-2.70477 196.342 -2.28645 196.577 -1.87624 196.805C-2.16963 197.094 -2.46846 197.387 -2.77816 197.664ZM-1.19431 237.563C-1.178 236.964 -0.547703 236.033 0.115145 236.719C0.0635948 237.367 -0.585777 237.538 -1.19431 237.563ZM-0.148378 195.8C-0.631975 195.469 -0.0315514 195.13 0.223846 194.867C0.67757 194.993 0.932886 195.389 1.26435 195.671C0.837824 195.827 0.231958 196.288 -0.148378 195.8ZM2.01414 238.899C1.89464 238.619 1.88919 238.278 2.15815 238.067C2.48417 237.597 2.98134 237.951 3.26385 238.251C3.0764 238.716 2.56569 239.035 2.01414 238.899ZM3.16602 193.81C3.63874 193.984 4.10327 194.189 4.55431 194.412C4.25004 194.706 3.93489 194.991 3.6143 195.275C3.2584 194.845 3.08184 194.345 3.16602 193.81ZM4.69288 209.446C5.96979 207.608 8.26267 206.64 10.5202 206.175C10.5338 204.576 10.5176 202.977 10.5338 201.381C12.9762 201.388 15.4185 201.317 17.8582 201.43C17.869 203.116 17.8229 204.803 17.9722 206.486C19.8957 206.697 21.8789 206.585 23.7589 207.043C24.1039 208.795 24.006 210.604 24.4271 212.354C22.031 212.508 19.6294 212.394 17.2305 212.428C17.2414 213.408 17.1598 214.398 17.293 215.376C17.839 215.646 18.4721 215.695 19.0697 215.819C19.0616 215.871 19.0425 215.975 19.0316 216.027C18.3307 215.977 17.6326 215.91 16.9398 215.812C16.7116 213.606 17.0593 211.374 16.7089 209.179C15.4836 209.09 14.253 209.105 13.025 209.045C12.9326 210.835 12.9815 212.626 13.0331 214.416C13.0521 214.97 13.0087 215.534 12.8294 216.069C12.4164 213.616 12.6854 211.124 12.6093 208.654C14.1198 208.741 15.6357 208.729 17.1408 208.857C17.3201 209.889 17.2033 210.944 17.225 211.988C19.469 211.998 21.713 212.082 23.957 212.082C23.7506 210.478 23.6283 208.867 23.3186 207.276C21.387 207.026 19.4337 207.026 17.5048 206.778C17.5211 205.145 17.3662 203.519 17.407 201.886C16.38 201.844 15.3532 201.789 14.3262 201.779C14.3371 203.477 14.3234 205.172 14.3615 206.87L14.0192 206.863C13.9214 205.172 14.0246 203.48 13.8643 201.794C12.9352 201.745 12.006 201.705 11.0769 201.685C10.9058 203.274 11.009 204.868 10.9655 206.462C9.10729 206.858 7.18654 207.417 5.82545 208.704C4.6708 209.78 3.95365 211.411 4.52955 212.894C4.91808 214.069 6.09708 214.824 7.27349 215.304C9.09374 216.096 11.1503 216.108 13.1199 216.255C15.4645 216.358 17.7982 216.601 20.1454 216.636C19.9579 216.759 19.7677 216.888 19.5803 217.017C16.7033 216.888 13.829 216.725 10.9601 216.502C8.91165 216.227 6.73825 215.804 5.13816 214.53C3.57899 213.262 3.53824 210.953 4.69288 209.446ZM17.5131 225.822C15.6658 225.825 13.8021 225.886 11.9737 225.622C13.0387 225.216 12.6121 224.115 12.7208 223.313C12.8974 221.486 12.748 219.657 12.7941 217.829C11.683 217.658 10.5257 217.678 9.46611 217.299C10.7213 217.133 11.9981 217.272 13.2369 217.482C13.2097 220.1 13.332 222.724 13.1608 225.337C14.4839 225.436 15.8096 225.486 17.1354 225.468C17.2387 222.761 16.9371 220.053 17.1191 217.353C17.7167 217.596 17.8363 217.974 17.4315 218.427C17.399 220.89 17.5593 223.355 17.5131 225.822ZM5.50787 239.976C4.99715 239.837 5.38292 239.216 5.65188 239.018C5.90451 238.906 6.53749 239.015 6.40443 239.389C6.51037 239.82 5.93715 240.312 5.50787 239.976ZM9.34662 240.953C8.66469 240.824 8.45013 239.966 9.18636 239.75C10.1263 239.537 9.99323 240.668 9.34662 240.953ZM13.2071 241.208C12.5089 241.745 11.8162 240.466 12.7263 240.25C13.3728 240 13.87 240.921 13.2071 241.208ZM16.4644 241.668C16.0678 241.25 15.9048 240.74 15.9836 240.198C16.3205 240.317 16.6737 240.428 16.967 240.634C17.0404 241.045 16.6818 241.349 16.4644 241.668ZM20.2869 241.233C19.8169 241.324 19.4909 241.02 19.3414 240.649C19.5316 240.374 19.7381 240.114 19.9608 239.867C20.3114 240.268 20.7297 240.74 20.2869 241.233ZM23.2889 240.842C23.0091 240.535 22.8705 240.156 22.7183 239.795C23.1313 239.795 23.7616 239.446 23.9354 239.98C24.2588 240.404 23.7806 240.874 23.2889 240.842ZM18.9367 228.045C18.9339 229.735 18.9448 231.428 18.9665 233.12C16.4943 233.14 14.0248 233.148 11.5526 233.115C11.4765 231.358 11.5798 229.599 11.4684 227.842C9.41724 227.493 7.3118 227.416 5.2851 226.948C4.77431 226.909 4.70912 226.371 4.61406 226.015C4.39397 224.6 4.28259 223.174 4.00276 221.768C6.32828 221.731 8.65649 221.766 10.9821 221.739C11.5037 221.751 12.0498 221.702 12.5496 221.875C12.5632 221.937 12.5904 222.063 12.6067 222.127C9.91172 222.224 7.2113 222.12 4.51632 222.177C4.76352 223.637 4.85322 225.119 5.1928 226.567C7.17875 226.961 9.20544 227.149 11.2076 227.458C11.4548 227.522 11.8813 227.547 11.8895 227.869C12.096 229.477 11.8841 231.103 12.039 232.719C13.0224 232.719 14.0032 232.719 14.9866 232.722C14.954 231.237 14.9567 229.752 14.9594 228.27C14.9241 227.861 15.0899 227.48 15.3018 227.134C15.5245 228.987 15.3941 230.858 15.3914 232.722C16.4319 232.717 17.4724 232.719 18.5129 232.722C18.4721 231.064 18.5482 229.403 18.4368 227.748C20.5967 227.416 22.8026 226.824 24.468 225.466C26.2393 224.147 27.0189 221.608 25.7204 219.784C24.4924 218.076 22.1967 217.244 20.026 217.123C20.2108 216.994 20.3983 216.871 20.5857 216.749C22.5689 217.128 24.6716 217.779 25.8915 219.355C27.2444 221.004 26.8614 223.394 25.4976 224.939C23.8947 226.75 21.3628 227.582 18.9367 228.045ZM27.22 239.802C26.5028 240.401 25.666 238.931 26.6169 238.82C27.3015 238.763 27.5922 239.3 27.22 239.802ZM27.364 196.978C27.489 196.505 27.6194 195.736 28.3475 195.837C29.1652 196.387 28.0404 197.104 27.364 196.978ZM30.4747 238.592C29.9856 239.065 29.5021 238.444 29.1869 238.147C29.4314 237.926 29.6705 237.706 29.9449 237.523C30.2981 237.726 31.1131 238.295 30.4747 238.592ZM31.3005 198.545C30.8604 198.676 30.5724 198.305 30.2627 198.109C30.6458 197.671 31.1538 197.382 31.7814 197.401C31.6836 197.792 31.7651 198.32 31.3005 198.545ZM33.0311 237.407C32.7839 237.107 32.1346 236.696 32.61 236.34C32.9903 235.763 33.4549 236.548 33.7646 236.805C33.6532 237.112 33.3381 237.28 33.0311 237.407ZM33.9793 200.554C33.7728 200.272 33.1506 199.963 33.531 199.594C33.7103 199.25 34.2075 199.206 34.5362 199.401C34.8594 199.876 34.2319 200.198 33.9793 200.554ZM36.783 234.67C36.495 235.056 36.1825 235.429 35.8593 235.796C35.5958 235.415 35.373 235.014 35.1964 234.598C35.7261 234.506 36.264 234.526 36.783 234.67ZM36.6688 202.465C36.3537 202.358 36.0603 202.19 35.7669 202.054C36.1309 201.75 36.5656 201.091 37.1415 201.48C37.4594 201.903 37.0274 202.225 36.6688 202.465Z" fill="#30589F"/>
<path d="M50.2313 146.106C52.0787 145.779 53.9777 145.628 55.7681 145.064C56.3413 144.906 56.7678 144.507 57.1835 144.136C56.2707 143.381 55.0019 143.371 53.8772 143.092C53.0241 142.906 52.2064 142.617 51.3778 142.362C51.4294 143.191 51.5489 144.032 51.3859 144.859C51.1686 145.376 50.6225 145.703 50.2313 146.106ZM54.6705 143.656C55.2492 143.76 55.8332 143.849 56.4173 143.936L56.42 144.121C56.0397 144.092 55.662 144.064 55.2844 144.042C54.646 144.28 53.9885 144.47 53.3229 144.624C53.7549 144.282 54.2086 143.963 54.6705 143.656Z" fill="#30589F"/>
<path d="M59.1448 151.556C59.0443 149.672 59.0605 147.789 59.0661 145.906C56.9769 146.69 54.7817 147.22 52.5595 147.591C47.1804 148.479 41.7251 148.979 36.2645 149.197C32.6376 149.271 29.0189 149.551 25.3894 149.571C17.7663 149.779 10.1404 149.595 2.51993 149.442C-4.13338 149.14 -10.8057 148.742 -17.3665 147.65C-17.3393 149.279 -17.3855 150.91 -17.3992 152.541C-17.4644 153.216 -16.6738 153.488 -16.1168 153.711C-12.5579 154.877 -8.76803 155.223 -5.05155 155.736C9.10805 157.211 23.4144 157.332 37.6283 156.466C42.3419 156.25 47.0446 155.792 51.7064 155.124C53.9233 154.748 56.1863 154.387 58.2592 153.548C59.0986 153.206 59.191 152.286 59.1448 151.556Z" fill="#30589F"/>
<path d="M159.512 148.314C159.175 147.962 158.83 147.618 158.487 147.279C158.156 147.905 157.827 148.536 157.493 149.162C158.18 148.91 158.851 148.62 159.512 148.314Z" fill="#30589F"/>
<path d="M68.0442 155.669C77.2838 155.429 86.5887 155.53 95.7413 154.166C95.8174 152.971 95.8717 151.771 95.7821 150.575C95.8228 149.472 94.2254 149.803 93.481 149.395C93.2012 148.9 93.3724 148.323 93.3587 147.796C88.7131 148.116 84.073 148.544 79.4138 148.608C72.9941 148.781 66.5691 148.838 60.1467 148.744C60.0897 150.061 60.3042 151.405 60.0271 152.704C59.2013 154.02 57.381 154.335 55.9303 154.815C55.9087 154.986 55.8651 155.325 55.8434 155.495C59.9104 155.495 63.9746 155.696 68.0442 155.669Z" fill="#30589F"/>
<path d="M213.732 193.939C212.113 194.518 210.467 195.045 208.758 195.357C201.518 196.736 194.104 196.986 186.744 197.401C186.334 197.429 185.962 197.332 185.628 197.107C190.705 196.837 195.804 196.694 200.83 195.936C203.083 195.57 205.365 195.216 207.495 194.432C207.921 194.236 208.538 194.026 208.549 193.511C208.717 191.749 208.641 189.977 208.598 188.21C203.884 189.484 198.972 189.873 194.098 190.266C190.11 190.511 186.128 190.853 182.134 190.905C181.577 190.949 181.072 190.739 180.607 190.502C182.104 190.232 183.634 190.358 185.15 190.284C192.737 189.967 200.431 189.878 207.823 188.118C208.552 187.908 209.339 187.698 209.888 187.185C210.005 185.074 209.894 182.958 209.94 180.845C207.397 181.741 204.683 182.072 201.999 182.399C196.304 182.983 190.575 183.154 184.851 183.307C180.594 183.295 176.334 183.52 172.079 183.3C170.911 183.248 169.762 182.958 168.743 182.434C169.672 182.453 170.601 182.567 171.533 182.565C176.798 182.56 182.063 182.614 187.326 182.424C193.226 182.134 199.162 181.931 204.984 180.932C205.99 180.721 207.106 180.506 207.821 179.766C207.603 178.885 206.585 178.546 205.759 178.279C204.18 177.826 202.542 177.598 200.917 177.355C193.164 176.378 185.323 176.311 177.513 176.215C170.419 176.165 163.329 176.316 156.246 176.645C156.624 178.073 156.993 179.504 157.406 180.927L157.224 180.954C156.629 178.749 156.127 176.507 155.105 174.425C150.997 166.011 143.828 158.629 134.526 154.803C132.706 153.976 130.693 153.637 128.78 153.05C132.434 153.506 135.781 155.062 138.927 156.74C140.071 157.31 141.013 158.2 142.209 158.676C147.675 158.46 153.176 157.998 158.479 156.708C159.457 156.391 160.617 156.08 161.185 155.226C161.345 153.372 160.968 151.501 161.185 149.643C157.941 150.64 154.573 151.293 151.163 151.551C147.645 151.919 144.119 152.216 140.582 152.36C136.596 152.632 132.6 152.449 128.614 152.704C125.987 152.64 123.363 152.419 120.733 152.452C116.511 152.442 112.2 151.588 108.051 152.647C106.131 153.1 104.188 153.558 102.422 154.402C99.0209 156.003 95.8641 158.119 93.4624 160.854C92.2453 162.158 91.4167 163.719 90.1561 164.994C90.8217 164.91 91.5553 164.969 92.1529 164.628C93.6988 163.784 95.2962 163.026 96.8964 162.274C100.298 160.75 103.99 159.878 107.698 159.223C111.977 158.601 116.354 158.163 120.665 158.792C120.842 158.693 121.021 158.592 121.2 158.49L120.744 158.262C121.089 158.225 121.437 158.191 121.787 158.158C121.643 158.398 121.507 158.641 121.371 158.888C122.578 159.059 123.838 159.287 124.987 158.77C125.142 159.032 125.275 159.312 125.414 159.591C120.684 158.888 115.851 158.505 111.075 159.03C104.381 159.626 97.7549 161.507 92.1339 164.92C94.9159 165.095 97.6897 165.474 100.385 166.137C103.52 166.895 106.44 168.226 109.252 169.674C114.772 172.757 119.619 177.336 121.461 183.112C122.181 185.827 122.244 188.712 121.456 191.422C120.771 194.063 119.328 196.491 117.554 198.651C114.593 202.316 110.363 204.969 105.832 206.793C102.281 208.204 98.521 209.226 94.6659 209.632C93.5222 209.79 92.4871 209.206 91.5499 208.701C94.2258 208.298 96.9507 208.108 99.5697 207.427C106.052 205.848 112.281 202.722 116.457 197.847C118.782 195.045 120.209 191.648 120.575 188.156C120.885 184.758 119.741 181.345 117.698 178.519C114.626 174.344 110.198 171.072 105.242 168.909C100.784 166.892 95.7908 166.051 90.8463 165.917C83.397 166.028 75.8554 167.951 69.8296 172.035C66.1077 174.445 63.0404 177.781 61.4403 181.704C59.9706 184.988 60.2069 188.67 61.1306 192.048C62.0407 194.704 63.6327 197.149 65.6567 199.225C67.9061 201.445 70.4898 203.46 73.5325 204.719C73.6031 204.836 73.7417 205.071 73.8096 205.19C74.7278 205.529 75.7792 205.43 76.7545 205.576C84.0924 206.229 91.5634 208.149 97.4098 212.394C100.366 214.589 103.207 217.294 104.194 220.744C104.294 220.608 104.395 220.477 104.498 220.345C106.144 221.994 108.364 223.016 110.532 223.981C115.433 226.003 120.798 227.025 126.172 227.114C132.559 227.317 139.079 226.532 144.958 224.159C149.351 222.531 153.242 219.848 156.263 216.529C157.184 215.43 157.961 214.242 158.83 213.111C158.268 214.416 157.14 215.413 156.442 216.645C156.504 217.517 156.792 218.46 157.409 219.155C158.865 218.846 160.215 218.232 161.623 217.781C160.867 215.995 159.957 214.265 159.216 212.47C159.96 210.743 160.561 208.971 161.166 207.202C161.395 206.345 162.31 205.84 162.582 205.006C163.044 203.576 162.639 202.039 161.84 200.775C161.212 199.79 160.881 198.688 160.694 197.575C160.49 196.436 159.827 195.441 159.354 194.395C160.036 195.273 160.62 196.223 160.957 197.263C162.049 197.226 163.193 197.164 164.22 197.577C166.146 198.317 167.7 200.092 167.64 202.054C167.605 203.645 166.839 205.12 166.111 206.536C167.537 206.764 169.08 207.009 170.156 207.974C172.104 209.55 172.612 212.404 171.3 214.455C170.42 215.891 168.686 216.574 167.1 217.178C167.768 219.024 168.483 220.855 169.213 222.679C167.64 223.167 166.081 223.689 164.489 224.125C163.451 222.132 162.745 220.014 161.718 218.019C160.169 218.44 158.724 219.202 157.127 219.435C156.594 218.697 156.39 217.816 156.062 217.002C155.198 217.863 154.296 218.69 153.386 219.509C155.483 219.969 157.605 220.38 159.65 221.024C161.346 221.561 163.025 222.603 163.476 224.283C162.87 224.934 162.174 225.538 161.297 225.869C158.944 226.785 156.415 227.238 153.915 227.671C141.345 229.584 128.555 229.621 115.849 229.473C112.545 229.455 109.244 229.101 105.951 229.094C105.623 230.104 105.471 231.155 105.136 232.168C104.618 233.821 103.778 235.37 102.922 236.897C106.856 237.303 110.814 237.464 114.77 237.56C122.005 237.672 129.253 237.721 136.477 237.248C142.771 236.924 149.093 236.551 155.279 235.377C158.069 234.897 160.821 234.123 163.324 232.888C161.892 234.197 159.784 234.467 157.977 235.145C158.042 235.751 158.102 236.357 158.164 236.969C163.938 237.404 169.833 236.011 174.625 233.044C178.263 230.792 181.308 227.748 183.397 224.221C188.956 214.97 188.415 202.982 182.091 194.155C179.828 191.012 176.894 188.257 173.443 186.186C168.151 182.949 161.503 181.597 155.206 182.516C152.611 182.85 150.139 183.659 147.705 184.5C147.354 184.357 147.012 184.213 146.673 184.072C148.093 183.176 149.759 182.691 151.381 182.189C157.214 180.61 163.668 180.855 169.273 183.045C173.519 184.649 177.173 187.334 180.251 190.405C183.601 193.86 185.905 198.092 187.176 202.539C188.518 207.526 188.521 212.805 187.241 217.801C187.114 217.72 186.856 217.559 186.728 217.477C186.839 217.569 187.068 217.754 187.182 217.846C186.538 220.115 185.535 222.288 184.381 224.379C183.34 226.369 181.794 228.089 180.268 229.779C180.249 229.584 180.216 229.19 180.197 228.995L180.216 229.925L179.597 229.614C179.768 229.742 179.939 229.878 180.113 230.019C179.711 230.356 179.322 230.707 178.936 231.061C175.301 234.519 170.417 236.798 165.277 237.711C162.834 238.174 160.332 238.09 157.854 238.077C157.825 237.125 157.757 236.172 157.8 235.221C149.213 237.068 140.381 237.565 131.603 238.008C121.934 238.28 112.24 238.216 102.607 237.409C101.928 238.065 101.395 238.835 100.751 239.52C98.9801 241.577 96.6437 243.143 94.2856 244.601C98.3661 245.165 102.468 245.559 106.595 245.682C115.18 246.054 123.781 245.92 132.366 245.645C138.62 245.289 144.901 244.868 151.046 243.69C153.029 243.235 155.086 242.849 156.876 241.908C158.324 241.178 157.672 239.466 157.819 238.256C160.759 238.481 163.755 238.454 166.621 237.758C169.39 237.09 172.096 236.122 174.519 234.717C175.999 233.917 177.252 232.828 178.662 231.945C185.823 231.749 193.05 231.566 200.086 230.202C202.235 229.755 204.408 229.26 206.362 228.297C207.09 227.903 207.986 227.406 207.997 226.532C208.133 224.939 207.943 223.345 207.883 221.753C202.732 224.048 197.011 225.06 191.344 225.584C188.746 225.822 186.16 226.218 183.547 226.233C184.579 225.503 185.97 225.688 187.184 225.476C191.412 224.916 195.72 224.213 199.556 222.409C200.363 222.088 200.792 221.348 200.839 220.571C200.991 218.94 201.154 217.306 201.159 215.67C196.829 217.732 191.979 218.586 187.211 219.35C187.26 219.046 187.315 218.744 187.372 218.447C190.233 217.908 193.142 217.472 195.883 216.522C196.538 216.264 197.25 216.032 197.741 215.542C198.059 214.873 197.424 214.364 196.926 213.985C196.731 214.633 196.581 215.433 195.767 215.67C193.191 216.675 190.398 217.185 187.63 217.497C188.687 216.98 189.915 216.965 191.058 216.707C192.55 216.378 194.06 216.032 195.443 215.41C196.006 215.173 196.359 214.693 196.723 214.257C196.454 212.79 196.476 211.292 196.628 209.815C193.9 210.166 191.17 210.723 188.407 210.656C189.339 210.258 190.39 210.302 191.39 210.176C195.397 209.726 199.472 209.285 203.246 207.899C203.789 207.664 204.433 207.461 204.767 206.974C204.824 205.578 204.702 204.18 204.87 202.791C199.149 203.46 193.387 203.873 187.622 203.969C187.999 203.709 188.448 203.563 188.928 203.598C195.747 203.44 202.621 203.101 209.277 201.648C210.795 201.247 212.434 200.948 213.705 200.037C214.028 198.02 213.667 195.971 213.732 193.939ZM112.575 196.352C113.08 196.404 113.517 196.647 113.941 196.894C113.485 197.02 112.156 197.07 112.575 196.352ZM113.792 194.541C114.36 194.192 114.965 194.395 115.498 194.694C114.938 195.06 114.33 194.766 113.792 194.541ZM114.873 192.303C115.49 192.251 116.117 192.246 116.737 192.316C116.18 192.811 115.419 192.734 114.873 192.303ZM115.59 190.175C116.204 189.868 117.063 189.727 117.424 190.437C116.805 190.388 116.191 190.318 115.59 190.175ZM117.927 187.935C117.269 188.042 116.59 188.029 115.984 187.755C116.639 187.495 117.37 187.463 117.927 187.935ZM117.402 185.782C116.981 185.79 116.555 185.73 116.144 185.688C116.465 185.366 117.78 185.02 117.402 185.782ZM117.049 184.037C116.704 184.027 116.359 184.015 116.019 184.005C116.359 183.795 116.707 183.597 117.06 183.406C117.057 183.565 117.052 183.879 117.049 184.037ZM116.756 181.701C116.737 182.577 115.696 182.045 115.175 181.872C115.691 181.773 116.221 181.669 116.756 181.701ZM115.903 180.033C115.441 180.397 114.857 180.167 114.349 180.05C114.849 179.882 115.514 179.457 115.903 180.033ZM114.667 177.823C114.406 178.125 114.15 178.474 113.716 178.578C113.474 178.459 113.238 178.333 113.009 178.202C113.553 178.051 114.104 177.917 114.667 177.823ZM113.036 175.88C113.055 175.967 113.094 176.135 113.11 176.22C112.77 176.467 112.433 176.714 112.097 176.962C112.007 176.799 111.92 176.638 111.841 176.479C112.238 176.279 112.637 176.081 113.036 175.88ZM111.616 198.961C111.137 198.961 110.825 198.612 110.529 198.327C110.942 198.441 112.311 198.295 111.616 198.961ZM111.33 174.472C111.061 174.769 110.79 175.066 110.515 175.361C110.333 175.111 110.157 174.861 109.98 174.613C110.426 174.561 110.879 174.517 111.33 174.472ZM110.059 200.586C109.54 200.525 108.858 200.629 108.597 200.101C109.119 199.421 109.738 200.156 110.059 200.586ZM109.415 172.814C109.154 173.329 108.679 173.675 108.021 173.651C108.413 173.282 108.899 173.015 109.415 172.814ZM106.256 201.537C106.978 201.21 107.378 201.915 107.671 202.391C107.1 202.257 106.527 202.042 106.256 201.537ZM107.057 171.686C107.133 171.795 107.288 172.012 107.364 172.121C106.951 172.393 106.473 172.475 105.978 172.369C106.332 172.134 106.693 171.908 107.057 171.686ZM66.5559 178.009C66.8277 178.316 67.1564 178.605 67.2732 179.004C66.9037 179.009 66.5424 178.976 66.1892 178.905C66.162 178.566 66.401 178.293 66.5559 178.009ZM65.0454 180.268C65.5209 180.13 65.7871 180.506 66.056 180.793C65.6621 181.427 64.6107 180.857 65.0454 180.268ZM65.404 182.901C64.9449 183.025 64.4804 183.129 64.0184 183.233C64.0103 183.067 63.994 182.733 63.9859 182.567C64.4586 182.674 64.9286 182.78 65.404 182.901ZM63.5267 184.673C63.9234 184.817 64.3227 184.965 64.7004 185.161C64.4124 185.517 63.8826 185.342 63.4779 185.404C63.4887 185.22 63.5132 184.857 63.5267 184.673ZM64.7656 187.604C64.1651 187.651 63.5675 187.668 62.9671 187.653C63.2633 186.891 64.2929 187.138 64.7656 187.604ZM64.8389 190.172C64.2984 190.069 63.7821 189.888 63.323 189.611C63.9126 189.477 64.8417 189.353 64.8389 190.172ZM65.3008 191.848C65.2437 191.987 65.1269 192.266 65.0698 192.407C64.8117 192.38 64.2956 192.323 64.0402 192.296C64.1462 191.66 64.7492 191.742 65.3008 191.848ZM65.6159 195.035C65.4176 194.825 65.222 194.615 65.0291 194.407C65.5045 194.234 65.9935 194.08 66.507 194.026C66.2245 194.372 65.9283 194.709 65.6159 195.035ZM66.5723 196.822C66.9499 196.555 67.3492 196.312 67.7621 196.092C67.9333 196.849 67.2107 196.944 66.5723 196.822ZM67.5177 176.291C68.1887 176.267 68.7293 176.638 69.1233 177.103C68.4604 177.071 67.7866 176.89 67.5177 176.291ZM68.1398 198.775C68.5446 198.451 68.9956 198.176 69.471 197.941C69.5308 198.708 68.7483 198.72 68.1398 198.775ZM69.5118 174.21C70.0333 174.477 70.5359 174.779 70.9924 175.138C70.2615 175.356 69.6068 174.868 69.5118 174.21ZM70.0686 200.527C70.4816 200.21 70.881 199.611 71.5086 199.854C71.8074 200.638 70.5577 200.411 70.0686 200.527ZM71.9269 172.629C72.3996 172.898 72.8017 173.257 73.2065 173.611C72.8397 173.614 72.4757 173.621 72.1171 173.569C71.8373 173.312 71.8508 172.95 71.9269 172.629ZM72.4513 202.101C72.8805 201.834 73.3423 201.611 73.834 201.448C73.7145 202.116 73.0733 202.255 72.4513 202.101ZM74.2742 171.297C74.7007 171.329 75.2115 171.416 75.3147 171.874C75.5184 172.814 73.9998 171.891 74.2742 171.297ZM74.9941 203.799C75.3364 203.366 75.714 202.965 76.1134 202.579C76.1949 202.779 76.2656 202.987 76.3308 203.197C75.9178 203.452 75.4396 203.603 74.9941 203.799ZM94.4622 206.051C94.7366 205.878 94.8453 205.269 95.2529 205.365C95.4458 205.615 95.6088 205.892 95.7799 206.165C95.337 206.133 94.8996 206.095 94.4622 206.051ZM98.2304 205.826C98.0022 205.469 97.7522 205.071 98.2738 204.821C98.4911 204.41 98.8525 205.056 98.896 205.251C98.8307 205.514 98.4096 205.618 98.2304 205.826ZM101.477 204.836C101.173 204.596 100.588 204.267 101.05 203.895C101.675 203.554 102.319 204.749 101.477 204.836ZM103.615 203.019C103.99 202.301 104.511 202.987 104.924 203.294C104.408 203.556 103.895 203.527 103.615 203.019ZM105.166 170.53C104.805 171.06 104.286 171.399 103.585 171.159C103.998 170.745 104.498 170.324 105.166 170.53ZM101.667 169.567C101.985 169.547 102.295 169.567 102.618 169.587C102.216 169.929 101.787 170.248 101.325 170.52C101.382 170.181 101.496 169.864 101.667 169.567ZM98.9747 168.572C99.2572 168.572 99.5235 168.619 99.806 168.664C99.5126 168.944 99.2083 169.211 98.8931 169.468C98.3553 169.335 98.5427 168.706 98.9747 168.572ZM96.1954 167.82C96.6899 168.147 96.9996 168.651 96.3612 169.04C95.7499 168.765 96.0569 168.253 96.1954 167.82ZM93.4054 167.686C93.7369 167.845 94.0493 168.048 94.3101 168.3C94.1227 168.513 93.8809 168.629 93.582 168.649C93.3619 168.359 93.237 168.023 93.4054 167.686ZM90.6995 167.627C90.9903 167.793 91.2837 167.966 91.577 168.144C91.5119 168.248 91.3815 168.461 91.3163 168.565C91.1533 168.55 90.83 168.515 90.6697 168.498C90.675 168.204 90.686 167.914 90.6995 167.627ZM88.0888 167.516C88.4067 167.855 89.3358 168.515 88.4121 168.765C87.8714 168.513 88.0752 167.944 88.0888 167.516ZM85.4182 168.117C85.698 168.065 85.9833 168.053 86.274 168.04C86.0513 168.414 85.8095 168.775 85.5595 169.137C85.4236 168.81 85.2498 168.463 85.4182 168.117ZM83.655 168.788C83.3534 168.961 83.0546 169.144 82.7368 169.292C82.3673 169.095 82.4624 168.689 82.4461 168.369C82.859 168.473 83.253 168.632 83.655 168.788ZM80.2021 169.228C80.4139 169.54 80.5362 169.884 80.6938 170.23C80.2129 170.035 79.7511 169.822 79.2947 169.592C79.5908 169.458 79.8897 169.327 80.2021 169.228ZM77.3523 171.114C77.0806 170.795 76.9746 170.399 76.8523 170.025C77.2246 170.223 77.6021 170.428 77.9526 170.668C77.7625 170.827 77.5614 170.975 77.3523 171.114ZM78.0423 204.744C78.3221 204.469 78.6129 204.207 78.9008 203.945C79.0285 204.059 79.2811 204.286 79.4061 204.4C79.0149 204.702 78.5585 204.9 78.0423 204.744ZM81.1067 205.519C81.4681 205.11 82.0087 205.009 82.5575 205.004C82.3375 205.618 81.6935 205.608 81.1067 205.519ZM85.3421 206.249C85.0161 206.118 84.6929 205.986 84.3723 205.858C84.7227 205.68 85.0759 205.506 85.4372 205.343C85.4128 205.571 85.3666 206.021 85.3421 206.249ZM88.1132 206.813C88.0398 206.464 88.0099 206.108 88.1431 205.771C89.1157 205.499 88.9826 206.89 88.1132 206.813ZM90.2078 196.528C87.5862 196.359 84.7662 196.206 82.5412 194.788C81.0199 193.823 80.4358 192.105 80.232 190.504C82.5032 190.44 84.7799 190.378 87.0538 190.363C87.5455 190.93 87.6786 191.722 88.26 192.246C88.8386 192.746 89.5694 193.063 90.2677 193.405C90.2975 191.457 90.3954 189.499 90.235 187.562C87.6379 186.827 84.8722 186.247 82.6798 184.696C81.2345 183.679 80.2402 181.917 80.7781 180.246C81.1015 178.986 82.1691 178.029 83.3508 177.383C85.3368 176.291 87.6813 175.905 89.9634 175.762C89.9362 174.591 89.9444 173.421 89.9471 172.252C90.9768 172.25 92.0091 172.24 93.0387 172.24C93.0305 173.445 93.0278 174.651 93.0387 175.858C95.4919 175.994 98.0864 176.405 100.094 177.784C101.482 178.751 101.863 180.41 102.015 181.912C99.9283 181.892 97.8391 181.934 95.7527 181.899C95.4294 181.231 95.3262 180.447 94.7529 179.902C94.1987 179.417 93.4489 179.209 92.7616 178.947C92.7507 180.83 92.7344 182.716 92.7832 184.602C95.5272 185.218 98.3987 185.8 100.727 187.347C102.061 188.188 102.987 189.685 102.756 191.19C102.566 192.776 101.325 194.115 99.8333 194.872C97.85 195.87 95.587 196.298 93.3512 196.466C93.4001 197.657 93.4083 198.852 93.3484 200.047C92.3378 200.062 91.3299 200.079 90.3247 200.109C90.2757 198.916 90.2024 197.723 90.2078 196.528ZM91.7211 205.546C92.1557 205.65 92.3758 206.081 92.1014 206.439C91.8161 206.538 91.5119 206.58 91.2185 206.645C91.3271 206.259 91.3896 205.833 91.7211 205.546ZM163.875 230.985C163.913 231.658 163.774 232.333 163.402 232.925C164.187 230.131 163.369 227.225 163.818 224.397C163.981 226.587 163.81 228.787 163.875 230.985ZM166.179 232.457C166.113 232.912 165.703 233.479 165.13 233.38C164.364 233.086 164.119 231.947 164.804 231.482C165.445 231.153 166.415 231.789 166.179 232.457ZM168.982 232.346C167.754 233.066 166.98 230.749 168.365 230.586C169.306 230.435 169.941 231.947 168.982 232.346ZM178.844 225.52C178.344 225.555 177.92 225.228 177.589 224.931C177.597 224.389 178.094 224.006 178.393 223.58C178.817 223.973 179.23 224.379 179.629 224.8C179.368 225.04 179.132 225.305 178.844 225.52ZM180.273 223.293C179.678 223.045 179.374 222.476 179.308 221.909C179.613 222.191 179.833 222.558 180.24 222.746C180.417 222.587 180.675 222.454 180.784 222.253C180.659 222.253 180.412 222.256 180.287 222.256L180.197 222.1C180.091 221.984 179.879 221.753 179.773 221.637C180.279 221.464 180.949 221.538 181.132 222.08C181.072 222.56 180.887 223.196 180.273 223.293ZM182.074 220.971C181.357 220.679 180.537 220.286 180.705 219.405C181.004 219.707 181.224 220.066 181.458 220.417C181.517 220.167 181.64 219.667 181.702 219.417C181.544 219.378 181.232 219.299 181.074 219.259C181.773 218.828 182.321 219.566 182.533 220.073C182.419 220.385 182.226 220.667 182.074 220.971ZM182.794 218.341C182.46 218.019 182.091 217.729 181.841 217.356C181.889 216.987 182.004 216.636 182.107 216.284C182.623 216.534 183.158 216.777 183.612 217.126C183.547 217.618 183.106 217.965 182.794 218.341ZM183.337 215.287C182.547 215.136 182.275 214.087 183.02 213.7C183.441 213.366 183.851 213.866 184.218 214.022C184.063 214.203 183.911 214.386 183.761 214.569C183.617 214.384 183.327 214.015 183.183 213.829C183.131 214.171 183.098 214.52 183.139 214.866C183.541 214.742 183.946 214.634 184.362 214.54C184.011 214.705 183.889 215.547 183.337 215.287ZM184.478 212.107C183.992 212.428 183.324 212.282 182.941 211.901C182.876 211.409 183.003 210.694 183.628 210.572C184.421 210.567 184.962 211.515 184.478 212.107ZM184.065 209.214C183.536 209.461 183.218 208.736 182.81 208.59C183.362 208.632 183.916 208.662 184.473 208.682C183.938 208.459 183.343 208.362 182.783 208.248C183.267 207.667 183.995 207.845 184.663 207.956C184.606 208.409 184.758 209.129 184.065 209.214ZM184.302 205.92C183.984 206.18 183.424 206.556 183.033 206.207C182.707 205.835 182.395 205.256 182.778 204.833C183.528 204.284 184.383 205.227 184.302 205.92ZM183.688 202.504C183.65 202.975 183.001 203.601 182.503 203.187C181.841 202.92 181.623 201.757 182.55 201.703C183.096 201.586 183.745 201.948 183.688 202.504ZM182.528 199.787C182.245 200.119 181.835 200.594 181.308 200.408C180.922 200.153 180.759 199.728 180.667 199.327C180.974 198.941 181.476 198.768 181.917 198.542C182.156 198.938 182.43 199.332 182.528 199.787ZM180.224 195.978C180.738 196.206 180.86 196.763 181.102 197.191C180.784 197.377 180.471 197.565 180.162 197.755C179.787 197.498 179.42 197.236 179.059 196.968C179.425 196.619 179.795 196.268 180.224 195.978ZM178.167 193.699C178.76 193.578 179.624 194.328 179.203 194.86C179.021 195.117 178.727 195.459 178.347 195.402C177.953 195.238 177.67 194.922 177.494 194.578C177.611 194.231 177.817 193.892 178.167 193.699ZM177.63 226.81C177.51 227.253 177.157 227.609 176.703 227.79C175.948 227.587 175.383 226.703 175.972 226.094C176.48 225.565 177.246 226.443 177.63 226.81ZM175.622 191.638C175.812 191.967 175.956 192.311 176.106 192.667C176.339 192.566 176.576 192.469 176.815 192.375C176.554 191.991 176.277 191.625 176.019 191.249C177.247 191.256 177.429 192.796 176.402 193.174C175.625 193.098 174.994 192.264 175.622 191.638ZM175.032 229.18C174.706 229.406 174.342 229.574 173.997 229.767C173.663 229.324 173.193 228.901 173.209 228.327C173.525 228.025 173.913 227.799 174.283 227.557C174.59 228.057 175.201 228.549 175.032 229.18ZM173.53 189.504C173.992 189.192 174.535 189.571 174.712 189.982C174.714 190.596 174.068 191.506 173.34 190.992C172.72 190.593 173.084 189.875 173.53 189.504ZM171.289 231.257C170.601 230.997 170.023 229.769 171.082 229.606C171.843 229.109 172.389 229.883 172.5 230.512C172.348 230.997 171.805 231.234 171.289 231.257ZM170.781 187.727C171.59 187.391 172.481 188.408 171.976 189.118C171.715 189.875 170.77 189.321 170.357 188.977C170.3 188.532 170.463 188.069 170.781 187.727ZM168.903 186.584C169.528 187.079 168.759 187.745 168.493 188.232C168.129 188.049 167.751 187.891 167.425 187.666C167.034 186.973 168.222 186.042 168.903 186.584ZM164.644 185.579C164.896 185.178 165.426 185.352 165.798 185.5C166.026 186.054 165.855 186.705 165.535 187.2C165.059 187.123 164.562 186.958 164.277 186.591C164.326 186.238 164.432 185.881 164.644 185.579ZM161.642 184.906C162.345 184.659 162.913 185.342 162.766 185.948C162.851 186.849 160.935 186.854 161.106 185.965C161.066 185.579 161.215 185.055 161.642 184.906ZM105.066 156.602C105.316 156.226 106.041 156.599 105.71 156.973C105.451 157.324 104.707 156.973 105.066 156.602ZM97.7793 161.509C97.4125 161.329 97.0485 161.148 96.7062 160.938C97.1843 160.809 97.6815 160.829 98.1732 160.873C98.0728 161.032 97.8771 161.348 97.7793 161.509ZM99.7463 160.284C99.2138 159.965 99.4827 159.304 100.053 159.203C100.436 159.46 100.749 159.792 101.058 160.123C100.618 160.183 100.189 160.292 99.7463 160.284ZM101.754 158.101C102.02 157.505 102.824 157.525 103.411 157.416C103.335 157.854 103.267 158.299 103.069 158.71C102.653 158.995 102.055 158.388 101.754 158.101ZM118.943 165.679C120.665 166.394 122.442 167.008 124.153 167.753C123.298 169.013 122.551 170.329 121.787 171.636C120.01 171.055 118.188 170.612 116.419 170.018C117.215 168.55 118.122 167.134 118.943 165.679ZM114.634 206.135C118.486 202.895 121.092 198.51 122.14 193.843C122.298 193.125 122.45 192.405 122.676 191.704C122.825 191.833 123.121 192.086 123.271 192.214C123.993 192.318 124.854 192.234 125.36 192.818C125.335 193.568 125.765 194.303 125.58 195.048C124.857 195.773 123.779 196.476 123.999 197.599C123.923 198.978 125.819 198.936 126.84 199.332C126.484 197.929 125.824 196.57 125.822 195.11C125.729 193.808 125.39 192.548 124.808 191.358C124.705 191.425 124.499 191.561 124.398 191.63C124.507 190.541 123.415 190.017 122.782 189.267C123.936 189.435 125.134 189.485 126.216 188.997C126.591 189.91 126.903 190.848 127.118 191.806C129.337 191.717 131.693 191.477 133.784 192.326C135.211 192.885 135.914 194.241 136.455 195.479C134.654 195.842 132.812 196.035 131.038 196.52C130.655 196.001 130.304 195.437 129.745 195.06C129.139 194.677 128.37 194.659 127.675 194.548C128.245 196.082 128.72 197.654 129.372 199.164C131.763 199.307 134.249 199.193 136.52 200.03C137.995 200.485 139.329 201.604 139.576 203.054C139.796 204.388 138.998 205.672 137.927 206.531C136.455 207.704 134.559 208.293 132.687 208.709C133.007 209.684 133.374 210.647 133.64 211.639C132.766 211.83 131.885 212.01 131.011 212.186C130.652 211.231 130.315 210.271 129.992 209.308C128.014 209.686 125.952 209.8 123.953 209.501C121.994 209.216 120.279 207.783 119.869 206.009C121.861 205.531 123.915 205.296 125.89 204.754C126.349 205.37 126.805 206.076 127.601 206.37C128.174 206.536 128.777 206.586 129.375 206.68C128.913 205.12 128.34 203.596 127.824 202.054C126.009 202 124.173 202.158 122.38 201.824C121.347 201.668 120.331 201.445 119.326 201.198C117.832 203.051 116.441 205.014 114.479 206.499C113.433 207.259 112.493 208.241 111.249 208.706C112.33 207.815 113.58 207.07 114.634 206.135ZM122.708 184.31C122.776 184.04 122.838 183.77 122.944 183.513C123.401 183.481 123.863 183.515 124.325 183.54C124.281 183.706 124.194 184.035 124.148 184.198C123.702 184.406 123.184 184.3 122.708 184.31ZM128.226 183.159C128.826 182.983 129.304 183.438 129.742 183.73C129.187 183.956 128.389 184.418 127.859 183.909C127.394 183.679 127.87 183.206 128.226 183.159ZM132.521 183.592C133.154 183.33 133.836 183.594 134.466 183.731C134.192 184.621 132.331 184.619 132.521 183.592ZM137.069 184.379C137.694 184.463 138.587 184.272 138.897 184.909C138.495 185.386 137.81 185.277 137.234 185.314C137.175 185 137.12 184.688 137.069 184.379ZM139.498 216.856C138.93 217.408 137.903 217.648 137.172 217.235C136.64 216.794 137.096 216.17 137.645 215.99C138.365 215.708 139.688 215.903 139.498 216.856ZM133.844 218.177C133.173 218.598 131.861 218.717 131.494 217.893C131.399 217.432 131.869 217.187 132.257 217.041C133.037 216.487 134.664 217.341 133.844 218.177ZM127.922 217.65C127.557 219.031 125.091 219.093 124.507 217.868C124.637 217.455 125.028 217.175 125.457 217.041C126.289 216.762 127.405 216.947 127.922 217.65ZM120.763 216.895C120.258 217.385 119.644 217.937 118.831 217.814C118.158 217.796 117.128 217.437 117.25 216.693C118.005 215.497 120.01 215.878 120.763 216.895ZM114.042 214.678C113.55 215.898 111.409 215.915 111.034 214.624C111.684 213.579 113.265 213.96 114.042 214.678ZM157.759 184.785C158.001 184.933 158.24 185.089 158.479 185.255L157.882 185.453C157.952 185.53 158.091 185.683 158.161 185.762C158.21 185.854 158.305 186.037 158.352 186.129C158.493 186.151 158.77 186.195 158.909 186.218C158.928 185.807 158.944 185.384 158.553 185.104C158.542 184.958 158.517 184.668 158.504 184.525C159.43 184.79 159.224 185.718 159.36 186.393C158.928 186.45 158.498 186.507 158.074 186.567C157.789 186.01 157.49 185.396 157.759 184.785ZM154.45 185.238C154.842 185.069 155.279 185.04 155.706 184.973C155.937 185.52 156.146 186.079 156.344 186.641C155.928 186.663 155.518 186.688 155.111 186.71C155.094 186.24 155.075 185.77 155.029 185.307C154.923 185.839 154.912 186.381 154.882 186.923C154.35 186.532 154.181 185.787 154.45 185.238ZM152.494 186.223C152.907 186.455 152.712 186.953 152.815 187.317C152.106 187.059 151.511 186.621 151.112 186.03C151.571 186.067 152.057 186.054 152.494 186.223ZM152.182 187.507C154.054 188.93 155.901 190.437 157.317 192.266C158.949 194.204 159.922 196.543 160.541 198.901C160.903 201.45 160.568 204.091 159.599 206.506C157.773 210.733 154.249 214.228 150.071 216.643C141.492 221.489 130.97 222.914 121.062 221.697C115.753 220.999 110.594 219.293 106.068 216.67C104.207 215.576 102.607 214.173 100.847 212.958C103.889 212.23 106.821 211.122 109.518 209.649C109.986 209.414 110.418 209.085 110.945 208.966C109.157 210.218 107.125 211.223 104.984 211.886C104.21 212.141 103.452 212.438 102.702 212.748C104.316 213.757 105.758 214.987 107.475 215.861C112.004 218.346 117.147 219.86 122.387 220.42C129.022 221.112 135.835 220.541 142.16 218.558C146.615 217.19 150.826 215.002 154.113 211.911C157.477 208.627 159.767 204.083 159.099 199.52C158.61 195.612 155.991 192.209 152.858 189.628C146.754 184.876 138.786 182.382 130.82 182.03C127.761 181.929 124.672 181.929 121.654 182.453C120.733 179.694 118.905 177.276 116.921 175.064C115.384 173.505 113.607 172.153 111.768 170.901C109.515 169.369 106.948 168.303 104.452 167.154C106.467 166.026 108.6 165.093 110.651 164.024C111.871 165.093 113.653 165.172 115.028 165.996C114.411 166.496 113.319 166.788 113.202 167.624C113.732 168.478 114.609 169.082 115.34 169.785C115.172 170.164 114.59 170.55 114.933 170.98C115.199 171.374 115.596 171.673 115.951 172.005C116.872 172.822 117.603 173.814 118.644 174.522C120.238 174.002 121.442 172.839 122.906 172.099C124.566 171.181 126.685 170.678 128.546 171.399C130.209 171.953 131.293 173.46 131.532 175.019C131.7 176.225 131.608 177.45 131.437 178.652C132.983 178.779 134.507 179.051 136.012 179.392C135.909 179.882 135.827 180.38 135.669 180.862C134.311 180.961 132.961 180.682 131.611 180.6C129.633 180.377 127.609 180.543 125.664 180.095C124.447 179.838 123.091 179.531 121.923 180.093C121.464 180.256 121.513 180.763 121.371 181.115C123.876 181.097 126.367 180.657 128.88 180.798C132.127 180.929 135.409 181.075 138.552 181.902C143.467 182.879 148.047 184.936 152.182 187.507ZM109.491 212.456C109.1 212.938 108.32 213.176 107.72 212.896C107.13 212.666 106.997 212.025 106.728 211.565C107.674 211.508 109.247 211.349 109.491 212.456ZM145.238 214.131C145.928 215.22 143.725 215.849 143.043 215.114C142.565 214.797 142.953 214.186 143.388 214.017C143.948 213.75 144.754 213.693 145.238 214.131ZM145.181 187.688C145.803 187.465 146.724 187.544 147.031 188.17C146.863 189.281 144.404 188.707 145.181 187.688ZM142.717 186.703C142.32 186.799 141.848 186.851 141.494 186.636C141.128 186.458 140.777 185.765 141.456 185.799C141.888 185.695 142.361 185.767 142.782 185.906C143.312 186.02 142.969 186.502 142.717 186.703ZM153.671 204.076C154.032 203.336 155.043 203.799 155.624 204.039C155.388 204.348 155.176 204.685 154.871 204.95C154.358 204.935 153.383 204.695 153.671 204.076ZM154.203 206.818C154.274 207.999 151.921 208.051 152.258 206.803C152.777 206.209 153.578 206.635 154.203 206.818ZM154.086 201.557C154.385 201.193 154.597 200.591 155.236 200.784C155.779 200.683 156.529 201.277 155.942 201.705C155.369 202.128 154.654 201.779 154.086 201.557ZM155.773 198.81C155.7 199.772 153.358 198.889 154.526 198.218C155.005 197.926 155.955 198.178 155.773 198.81ZM153.002 195.587C153.103 195.55 153.307 195.476 153.407 195.441C153.98 195.204 154.717 195.461 154.814 196.067C154.66 197.062 152.666 196.525 153.002 195.587ZM151.158 193.382C151.37 192.915 151.935 192.61 152.489 192.724C153.127 192.813 153.141 193.533 153.391 193.956C152.611 193.919 151.603 194.14 151.158 193.382ZM152.258 209.454C152.462 210.184 151.242 210.483 150.696 210.142C150.019 209.919 150.473 209.169 150.938 208.974C151.37 208.709 151.986 209.117 152.258 209.454ZM148.759 190.851C148.694 190.662 148.561 190.289 148.495 190.101C149.164 190.031 150.226 189.821 150.462 190.63C150.579 191.484 149.123 191.378 148.759 190.851ZM149.636 211.931C149.441 212.758 148.001 212.961 147.612 212.161C147.281 211.795 147.862 211.372 148.221 211.26C148.813 211.005 149.609 211.275 149.636 211.931ZM127.155 160.056C127.373 159.599 128.036 159.166 128.527 159.571C128.962 159.772 128.709 160.205 128.631 160.527C128.095 160.502 127.631 160.242 127.155 160.056ZM130.793 161.479C131.097 161.234 131.407 160.997 131.722 160.764C132.135 161.143 132.344 161.63 132.35 162.165C131.806 161.984 131.285 161.749 130.793 161.479ZM134.61 162.947C135.197 162.808 135.613 163.108 135.71 163.635C135.422 164.415 134.151 163.435 134.61 162.947ZM137.857 165.731C138.375 165.353 138.916 165.741 139.256 166.137C139.112 166.357 138.965 166.575 138.81 166.79C138.473 166.449 138.155 166.095 137.857 165.731ZM141.57 169.003C142.415 169.114 142.807 169.76 142.812 170.488C142.334 170.037 141.929 169.53 141.57 169.003ZM144.189 172.443C144.605 172.262 145.094 172.874 144.879 173.213C144.464 173.388 143.948 172.779 144.189 172.443ZM145.279 174.363C145.741 174.029 146.289 174.982 145.73 175.143C145.341 175.136 145.056 174.653 145.279 174.363ZM146.547 177.811C146.289 177.477 146.298 177.093 146.572 176.774C147.17 176.737 147.417 177.301 147.612 177.719C147.273 177.84 146.901 177.917 146.547 177.811ZM147.235 180.37C146.988 179.813 147.86 179.64 148.273 179.474C148.455 180.001 148.618 180.536 148.753 181.075C148.177 181.011 147.395 181.011 147.235 180.37ZM152.16 181.6C149.587 172.827 143.255 165.142 135.028 160.076C131.948 158.163 128.487 156.743 124.846 155.998C121.276 155.253 117.527 154.867 113.909 155.557C111.04 156.05 108.366 157.201 105.864 158.537C104.949 159.039 103.941 159.371 102.922 159.651C103.004 159.458 103.161 159.072 103.24 158.879C105.041 157.792 106.712 156.503 108.709 155.711C113.061 153.845 118.057 153.352 122.776 154.105C129.035 155.362 134.89 158.156 139.718 161.984C143.651 164.957 146.898 168.637 149.414 172.68C151.152 175.4 152.32 178.365 153.41 181.337C152.991 181.424 152.57 181.508 152.16 181.6Z" fill="#30589F"/>
<path d="M153.285 158.359C155.847 158.379 158.387 157.973 160.908 157.584C162.37 157.339 163.962 157.092 165.027 156.055C164.291 155.028 163.003 154.622 161.767 154.332C161.59 154.874 161.574 155.498 161.207 155.973C158.906 157.54 155.806 157.332 153.285 158.359ZM162.09 155.832C163.16 155.698 162.041 156.943 161.791 156.107C161.865 156.037 162.014 155.901 162.09 155.832Z" fill="#30589F"/>
<path d="M54.7222 160.975C54.7385 159.067 54.7004 157.159 54.7195 155.25C48.1015 157.02 41.2092 157.631 34.3576 158.106C19.3395 158.98 4.22623 159.069 -10.762 157.705C-15.3587 157.201 -20.026 156.624 -24.3375 155.02C-24.2695 157.23 -24.5467 159.455 -24.2777 161.658C-23.1285 162.653 -21.4795 162.979 -20.0043 163.417C-12.6529 165.202 -5.02424 165.753 2.54999 166.122C12.0613 166.375 21.5916 166.35 31.0866 165.746C38.1909 165.231 45.3983 164.855 52.2554 162.964C53.2469 162.591 54.8199 162.207 54.7222 160.975Z" fill="#30589F"/>
<path d="M161.15 158.933C155.385 159.666 149.558 159.957 143.739 159.893C146.037 161.987 148.333 164.081 150.305 166.444C153.386 166.182 156.502 166.199 159.564 165.716C162.166 165.313 164.951 165.182 167.301 163.996C167.507 161.925 167.298 159.802 167.377 157.713C165.326 158.223 163.25 158.646 161.15 158.933Z" fill="#30589F"/>
<path d="M153.315 158.24C152.981 158.079 152.245 158.067 152.106 158.418C152.437 158.547 153.185 158.604 153.315 158.24Z" fill="#30589F"/>
<path d="M-27.2823 170.067C-26.0625 170.8 -24.6037 171.092 -23.2099 171.431C-19.8032 172.114 -16.3665 172.653 -12.9027 173.044C-1.81837 174.022 9.33653 174.532 20.4724 174.079C26.001 173.816 31.5486 173.663 37.0309 172.908C40.3181 172.497 43.6353 172.047 46.7568 170.978C47.5256 170.659 48.7319 170.332 48.6504 169.374C48.6776 167.711 48.6286 166.046 48.6613 164.385C47.599 164.519 46.5422 164.679 45.4908 164.87C41.0951 165.64 36.6261 165.897 32.1788 166.266C29.0845 166.518 25.9765 166.484 22.8821 166.709C20.7305 166.862 18.5761 166.771 16.4245 166.862C12.9769 166.979 9.52942 166.781 6.08456 166.81C-1.91896 166.528 -9.92516 166.068 -17.8662 165.068C-21.1833 164.576 -24.5575 164.108 -27.6736 162.905C-27.6899 164.897 -27.6872 166.892 -27.6899 168.884C-27.6437 169.288 -27.7577 169.834 -27.2823 170.067Z" fill="#30589F"/>
<path d="M150.547 166.706C151.982 168.698 153.318 170.743 154.573 172.834C157.619 172.468 160.724 172.121 163.579 171.027C163.992 170.814 164.677 170.673 164.555 170.112C164.606 168.483 164.522 166.855 164.598 165.226C159.963 166.058 155.261 166.508 150.547 166.706Z" fill="#30589F"/>
<path d="M56.0448 168.832C53.9203 168.335 51.7525 168.008 49.5736 167.785C49.4976 168.582 49.7665 169.537 49.1281 170.193C48.2777 170.931 47.134 171.272 46.0582 171.634C41.9532 172.908 37.6227 173.406 33.3221 173.735C33.3385 173.777 33.3683 173.861 33.3847 173.903C39.97 173.453 46.5934 173.203 53.1217 172.22C54.6024 171.955 56.1373 171.785 57.5147 171.193C57.9386 171.003 58.471 170.713 58.4438 170.221C57.9792 169.396 56.9631 169.057 56.0448 168.832ZM54.0073 169.391C54.8413 169.498 55.6998 169.713 56.2948 170.295C55.401 170.374 54.5072 170.097 54.0073 169.391Z" fill="#30589F"/>
<path d="M60.0769 171.891C56.7869 172.98 53.3041 173.42 49.8539 173.851C39.6688 174.999 29.3887 175.034 19.1412 174.977C13.3409 174.965 7.54077 174.868 1.74863 174.579C-4.99698 174.198 -11.7617 173.804 -18.4231 172.73C-18.2275 174.626 -18.5372 176.554 -18.252 178.435C-16.7849 179.432 -14.9158 179.714 -13.1716 180.085C-4.68451 181.61 3.97365 182.065 12.5966 182.468C24.0232 182.874 35.4824 182.61 46.8682 181.605C50.8265 181.152 54.8418 180.796 58.637 179.615C59.3081 179.37 60.2698 179.063 60.2291 178.256C60.2833 176.133 60.1421 174.01 60.0769 171.891Z" fill="#30589F"/>
<path d="M124.808 175.791C123.849 175.749 123.026 176.244 122.249 176.685C124.189 177.638 126.291 178.318 128.467 178.637C128.125 177.073 126.579 175.801 124.808 175.791Z" fill="#30589F"/>
<path d="M87.4014 181.246C87.377 182.746 88.931 183.587 90.2024 184.208C90.2214 182.429 90.2432 180.649 90.1861 178.87C88.9092 179.13 87.3199 179.845 87.4014 181.246Z" fill="#30589F"/>
<path d="M161.848 185.097C161.704 185.448 161.568 185.807 161.435 186.166C161.747 186.039 162.062 185.918 162.383 185.799C162.204 185.562 162.024 185.327 161.848 185.097Z" fill="#30589F"/>
<path d="M171.213 187.923C170.933 188.141 170.8 188.457 170.645 188.752C170.844 188.856 171.246 189.064 171.447 189.168C171.748 188.717 171.664 188.257 171.213 187.923Z" fill="#30589F"/>
<path d="M95.5549 192.212C96.226 191.477 96.1471 190.343 95.4979 189.623C94.8187 188.876 93.7863 188.529 92.8491 188.138C92.8464 189.898 92.8382 191.657 92.9143 193.414C93.8651 193.187 94.9273 192.964 95.5549 192.212Z" fill="#30589F"/>
<path d="M24.5823 243.997C12.4059 246.328 -0.895187 243.215 -10.2761 235.758C-15.533 231.465 -19.6298 225.74 -20.7736 219.318C-21.7897 213.943 -20.6513 208.239 -17.5162 203.578C-15.4542 200.537 -12.8026 197.763 -9.52356 195.77C-5.8777 193.429 -1.78631 191.635 2.53603 190.603C2.20189 190.469 1.85955 190.299 1.48197 190.336C-1.25652 190.259 -3.96507 189.804 -6.70356 189.742C-10.1674 189.544 -13.6366 189.425 -17.1059 189.413C-17.3069 189.081 -17.5134 188.759 -17.7334 188.445C-17.7171 188.688 -17.6872 189.173 -17.6709 189.415C-23.9466 189.39 -30.225 189.539 -36.4898 189.848C-42.904 190.328 -49.397 190.613 -55.6454 192.105C-56.7376 192.447 -58.2264 192.689 -58.6094 193.843C-58.3404 194.276 -57.9057 194.602 -57.4167 194.82C-55.5775 195.649 -53.5318 195.966 -51.535 196.315C-47.3077 197.05 -43.0099 197.327 -38.7283 197.649C-30.2439 198.203 -21.727 198.263 -13.2263 198.018C-13.7452 198.453 -14.2695 198.886 -14.8021 199.309C-16.9782 201.859 -19.2114 204.408 -20.7218 207.35C-24.4546 214.653 -24.2155 223.511 -20.211 230.68C-19.0971 232.858 -17.5133 234.791 -15.9104 236.689C-14.2885 238.488 -12.6042 240.277 -10.5802 241.718C-4.41595 246.331 3.3023 249.202 11.2596 249.798C18.3611 250.454 25.6719 249.521 32.2083 246.87C35.9222 245.435 39.1849 243.223 42.1787 240.79C41.3392 239.783 40.4645 238.798 39.5544 237.842C35.2047 240.956 29.994 243.005 24.5823 243.997Z" fill="#30589F"/>
<path d="M173.775 189.759C173.487 190.096 173.368 190.499 173.705 190.865C174.248 190.662 174.591 189.772 173.775 189.759Z" fill="#30589F"/>
<path d="M178.099 194.149C178.088 194.34 178.069 194.726 178.059 194.917C178.265 194.902 178.676 194.872 178.882 194.857C178.774 194.471 178.684 193.934 178.099 194.149Z" fill="#30589F"/>
<path d="M180.219 197.245C180.678 197.161 180.434 196.508 180.018 196.632C179.575 196.728 179.795 197.362 180.219 197.245Z" fill="#30589F"/>
<path d="M161.079 207.909C160.631 209.441 159.941 210.899 159.449 212.419C160.158 214.443 161.128 216.381 162.063 218.326C162.946 220.16 163.668 222.053 164.576 223.879C165.325 223.696 166.064 223.471 166.792 223.224C165.874 221.224 165.157 219.145 164.491 217.069C165.467 219.024 166.032 221.127 166.882 223.132C167.556 222.964 168.227 222.793 168.898 222.61C168.235 220.741 167.613 218.858 166.752 217.059C168.447 216.522 170.267 215.797 171.182 214.299C172.432 212.228 171.824 209.335 169.726 207.907C168.572 207.031 167.01 206.942 165.589 206.781C166.651 205.39 167.365 203.744 167.441 202.042C167.482 200.322 166.173 198.79 164.573 197.995C163.437 197.401 162.084 197.513 160.829 197.463C160.997 198.362 161.169 199.285 161.704 200.074C162.581 201.428 163.241 203.032 162.915 204.62C162.66 205.875 161.378 206.67 161.079 207.909ZM165.564 209.466C167.135 210.592 167.569 212.728 166.874 214.386C166.404 215.314 165.214 215.596 164.206 215.769C163.301 213.693 162.584 211.53 161.353 209.59C162.712 209.33 164.252 208.778 165.564 209.466Z" fill="#30589F"/>
<path d="M181.608 199.163C181.218 199.908 182.52 199.168 181.608 199.163V199.163Z" fill="#30589F"/>
<path d="M133.741 204.019C133.295 202.586 131.519 202.264 130.136 202.004C130.717 203.477 131.217 204.974 131.788 206.449C132.673 205.878 134.045 205.212 133.741 204.019Z" fill="#30589F"/>
<path d="M183.137 202.655C183.453 202.324 182.849 201.732 182.501 202.081C182.175 202.423 182.768 202.985 183.137 202.655Z" fill="#30589F"/>
<path d="M60.3102 207.578C54.173 208.892 48.0767 211.253 43.5995 215.411C40.948 217.732 39.0191 220.91 38.8833 224.308C38.6741 227.75 40.353 231.108 42.8416 233.635C46.2158 237.038 50.8097 239.203 55.488 240.745C65.1487 243.643 75.7929 243.695 85.5269 241.037C90.4931 239.592 95.2447 237.293 98.9394 233.9C102.316 230.695 104.128 226 103.072 221.598C102.409 219.103 100.874 216.824 98.8172 215.076C95.2121 211.775 90.5392 209.639 85.7143 208.231C79.5338 206.526 72.9647 206.093 66.5532 206.662C64.4586 206.875 62.3613 207.12 60.3102 207.578ZM97.5566 231.148C96.9589 231.524 96.0597 231.529 95.5543 231.017C95.6114 230.7 95.7798 230.455 96.0569 230.282C96.6628 230.188 98.0022 230.319 97.5566 231.148ZM97.2822 228.836C96.9073 228.423 97.2767 227.943 97.8173 227.953C98.4014 227.817 99.0018 228.186 99.0644 228.742C98.5047 228.968 97.8636 228.995 97.2822 228.836ZM99.5316 226.52C98.9828 226.602 98.3254 226.522 98.0293 226.04C98.2276 225.216 99.3768 225.577 100.029 225.523C99.9283 225.867 100.012 226.379 99.5316 226.52ZM98.5916 223.191C99.0888 222.983 99.6458 223.137 100.146 223.261C100.42 224.461 97.8228 224.28 98.5916 223.191ZM99.2518 220.38C99.6186 220.749 99.8658 221.187 99.988 221.677C99.4257 221.627 98.8008 221.739 98.2928 221.476C97.5212 220.924 98.8199 220.65 99.2518 220.38ZM97.3691 217.527C97.8636 217.517 98.1597 217.96 98.5482 218.177C97.9505 218.447 97.1599 218.878 96.5894 218.321C96.3096 217.841 96.91 217.524 97.3691 217.527ZM95.9618 215.732C96.2199 215.913 96.4264 216.141 96.6546 216.358C96.1112 216.648 95.3233 217.004 94.8643 216.386C94.8833 215.888 95.4864 215.651 95.9618 215.732ZM95.1414 232.784C95.9592 233.915 93.4081 234.269 93.1392 233.219C93.294 232.917 93.5195 232.611 93.8971 232.534C94.3237 232.38 94.7855 232.561 95.1414 232.784ZM94.196 214.178C94.0221 214.398 93.8727 214.678 93.5657 214.77C93.1473 214.638 92.8077 214.364 92.4546 214.143C92.9762 213.755 93.7287 213.641 94.196 214.178ZM92.3541 235.444C92.0199 236.164 90.7485 236.508 90.1698 235.84C89.7786 235.494 90.2975 235.108 90.6262 234.954C91.2157 234.687 92.1394 234.788 92.3541 235.444ZM90.1454 212.307C90.6615 212.092 91.2728 212.131 91.7374 212.436C91.5798 213.322 90.4687 213.01 89.9145 212.651C89.9715 212.565 90.0883 212.394 90.1454 212.307ZM87.339 210.352C87.6786 210.508 88.0182 210.669 88.3577 210.835C88.0698 210.993 87.7899 211.164 87.4884 211.3C87.2358 211.161 87.0212 210.981 86.7984 210.817C86.9341 210.701 87.2058 210.468 87.339 210.352ZM86.3147 237.035C86.8417 236.914 87.4476 237.006 87.7872 237.431C87.7247 238.374 86.111 238.575 85.535 237.911C85.5106 237.476 85.8502 237.105 86.3147 237.035ZM60.5438 208.855C61.0057 208.798 61.4729 208.808 61.9429 208.815C61.769 209.013 61.587 209.206 61.3914 209.394C61.022 209.414 60.2884 209.34 60.5438 208.855ZM43.3822 219.667C43.863 219.511 44.6319 219.516 44.7161 220.113C44.4037 220.845 43.499 220.855 42.7791 220.771C42.8986 220.38 42.8633 219.816 43.3822 219.667ZM42.3227 222.429C42.722 222.157 43.2437 222.35 43.567 222.632C43.7599 223.434 42.0564 223.506 41.7739 222.865C41.9124 222.756 42.1868 222.538 42.3227 222.429ZM41.4235 226.112C41.6354 225.81 41.7413 225.344 42.1815 225.258C42.6623 225.097 43.1323 225.382 43.5806 225.505C43.1812 226.342 42.2412 226.245 41.4235 226.112ZM43.0318 229.104C42.7846 228.931 42.5836 228.723 42.4313 228.48C42.6242 227.913 43.4012 228 43.9119 227.859C44.0097 228.163 44.1076 228.47 44.2053 228.782C43.8169 228.893 43.4311 229.02 43.0318 229.104ZM43.7789 231.195C43.9473 230.93 44.1592 230.658 44.5015 230.579C44.9335 230.477 45.3655 230.646 45.6046 230.992C45.4741 231.715 44.1021 231.92 43.7789 231.195ZM45.2839 217.492C45.3192 216.613 46.501 216.089 47.1367 216.858C46.8949 217.618 45.9631 217.527 45.2839 217.492ZM46.3842 233.605C45.8435 233.373 46.1098 232.566 46.7184 232.657C47.0525 232.655 47.6937 232.563 47.7236 232.994C48.0197 233.702 46.8786 233.875 46.3842 233.605ZM48.7885 214.814C48.1963 214.678 48.2615 213.876 48.851 213.772C49.3345 213.47 49.9105 213.757 50.1822 214.163C49.8698 214.569 49.3699 214.943 48.7885 214.814ZM49.2911 235.667C49.7665 235.358 50.2718 234.902 50.9157 235.051C51.8856 235.14 52.5349 235.877 53.176 236.469C51.9399 237.357 50.0355 236.884 49.2911 235.667ZM52.1545 212.275C51.6954 212.057 51.9752 211.587 52.3773 211.535C52.8282 211.453 53.2955 211.535 53.7248 211.679C53.7357 212.384 52.6653 212.666 52.1545 212.275ZM54.8631 238.407C54.8958 238.087 55.0534 237.857 55.3304 237.711C56.0395 237.397 57.1778 237.617 57.3218 238.431C56.6914 239.055 55.4174 239.171 54.8631 238.407ZM57.3788 210.612C56.8544 210.909 56.3655 210.454 56.0042 210.154C56.4878 210.045 56.9958 209.652 57.5065 209.887C57.6124 210.1 57.751 210.538 57.3788 210.612ZM63.5458 240.522C62.7172 240.985 61.7365 240.567 61.2203 239.909C61.943 239.31 63.1764 238.983 63.9289 239.726C64.3554 239.933 63.8447 240.428 63.5458 240.522ZM68.0882 240.807C67.7893 240.443 68.2893 240.072 68.656 239.998C69.3378 239.763 70.1991 240.03 70.5223 240.644C69.9627 241.305 68.6559 241.631 68.0882 240.807ZM73.5977 240.733C73.4863 240.448 73.4728 240.124 73.7987 239.961C74.4616 239.669 75.6217 239.639 75.8906 240.428C75.4125 241.079 74.2307 241.327 73.5977 240.733ZM83.3074 209.28C83.7583 209.332 84.1876 209.449 84.6277 209.57C84.2691 209.728 83.9104 209.902 83.5192 209.983C83.2285 209.798 83.1579 209.563 83.3074 209.28ZM80.1125 239.812C79.5202 239.327 80.433 238.867 80.9221 238.78C81.5361 238.56 82.0115 239.033 82.4272 239.367C81.8484 239.842 80.7834 240.458 80.1125 239.812ZM80.2537 208.951C79.7267 209.201 79.2294 208.949 78.9931 208.491C79.4007 208.612 80.4248 208.246 80.2537 208.951ZM76.2166 208.164C75.8445 208.286 75.4695 208.399 75.0892 208.489C75.0131 208.239 74.9642 207.986 74.9181 207.739C75.3527 207.87 75.7847 208.011 76.2166 208.164ZM74.3937 211.538C74.2063 212.592 74.0079 213.646 73.7662 214.693C76.1406 214.943 78.6699 215.401 80.5472 216.844C81.6746 217.705 81.7969 219.128 81.6882 220.378C79.6479 220.209 77.6022 220.103 75.5565 220.001C75.388 219.422 75.3337 218.779 74.8991 218.304C74.4318 217.774 73.6982 217.561 73.0489 217.286C72.6577 218.88 72.329 220.486 72.0437 222.097C74.4263 222.813 76.9094 223.412 79.0176 224.696C80.0635 225.322 80.9383 226.339 80.9872 227.517C80.9682 229.029 79.8434 230.363 78.4145 231.046C75.9667 232.197 73.163 232.437 70.4517 232.492C70.2724 233.489 70.1664 234.501 69.9111 235.486C68.9303 235.588 67.9469 235.454 66.9662 235.409C67.0612 234.343 67.2379 233.289 67.4171 232.234C64.8145 231.93 62 231.573 59.9406 229.955C58.7697 229.062 58.5741 227.592 58.5795 226.287C60.8779 226.399 63.1763 226.55 65.4773 226.636C65.6593 227.245 65.7816 227.908 66.2462 228.406C66.7298 228.96 67.466 229.232 68.1534 229.524C68.4413 227.834 68.7673 226.149 69.0716 224.463C66.488 223.666 63.6708 222.988 61.7093 221.152C60.7041 220.261 60.3536 218.791 60.9758 217.635C61.7229 216.41 63.0867 215.608 64.5021 215.138C66.5478 214.473 68.743 214.332 70.9001 214.314C71.0522 213.359 71.1908 212.401 71.3646 211.451C72.3752 211.421 73.3858 211.461 74.3937 211.538ZM71.3999 208.105C70.7207 208.323 69.8975 208.511 69.4982 207.798C70.1583 207.694 70.8294 207.768 71.3999 208.105ZM64.8253 208.261C65.4175 208.231 66.0153 208.244 66.6075 208.298C66.1185 208.798 65.2818 208.803 64.8253 208.261Z" fill="#30589F"/>
<path d="M164.475 215.554C165.097 215.356 165.787 215.235 166.306 214.844C166.917 214.275 166.909 213.411 166.923 212.671C166.896 211.481 166.436 210.127 165.214 209.533C164.078 209.162 162.875 209.525 161.739 209.701C162.698 211.634 163.418 213.661 164.475 215.554Z" fill="#30589F"/>
<path d="M183.77 210.949C183.503 211.194 183.262 211.463 183.031 211.738C183.414 211.785 183.808 211.859 184.204 211.872C184.508 211.461 184.077 211.191 183.77 210.949Z" fill="#30589F"/>
<path d="M205.381 218.987C204.506 218.754 203.637 218.502 202.76 218.286C202.662 218.021 202.569 217.757 202.48 217.497C202.627 217.383 202.92 217.158 203.067 217.044C203.246 217.088 203.599 217.18 203.778 217.225C203.061 216.925 202.306 216.72 201.551 216.539C201.483 217.331 201.445 218.123 201.428 218.92C202.847 218.853 204.248 218.984 205.612 219.291C205.555 219.214 205.438 219.063 205.381 218.987Z" fill="#30589F"/>
<path d="M67.1762 218.851C67.0675 220.172 68.5183 220.925 69.5642 221.558C70.0234 220.068 70.2053 218.524 70.5151 217.007C69.1811 217.089 67.5918 217.546 67.1762 218.851Z" fill="#30589F"/>
<path d="M181.899 219.962C181.487 220.702 182.814 219.969 181.899 219.962V219.962Z" fill="#30589F"/>
<path d="M201.369 220.024C201.048 220.835 200.999 221.867 200.151 222.404C198.752 223.3 197.019 223.573 195.541 224.327C197.598 223.944 199.698 223.555 201.605 222.731C202.482 222.397 203.14 221.541 202.727 220.672C202.453 221.137 202.189 221.622 201.752 221.984C201.904 221.509 202.102 221.048 202.36 220.615C202.026 220.415 201.695 220.217 201.369 220.024Z" fill="#30589F"/>
<path d="M70.6147 229.811C71.5927 229.666 72.6604 229.579 73.4727 229C74.1085 228.512 74.5404 227.644 74.1356 226.918C73.6221 226.099 72.6686 225.607 71.7503 225.241C71.37 225.335 71.427 225.74 71.3319 226.015C71.0875 227.277 70.8675 228.547 70.6147 229.811Z" fill="#30589F"/>
<path d="M176.747 226.738C176.63 226.904 176.391 227.235 176.272 227.399C176.492 227.324 176.932 227.171 177.152 227.097C177.236 226.537 176.535 226.386 176.117 226.201C176.323 226.379 176.533 226.557 176.747 226.738Z" fill="#30589F"/>
<path d="M171.36 229.643C171.01 229.985 170.768 230.44 171.238 230.787C171.656 231.252 172.026 230.556 172.243 230.274C171.936 230.326 171.634 230.386 171.336 230.45C171.341 230.247 171.352 229.844 171.36 229.643Z" fill="#30589F"/>
<path d="M168.651 231.824C168.483 231.616 168.143 231.202 167.972 230.997C168.157 231.447 168.146 232.165 168.887 232.073C169.089 231.66 168.836 231.244 168.727 230.848C168.708 231.093 168.67 231.579 168.651 231.824Z" fill="#30589F"/>
</g>
<defs>
<filter id="filter0_i_254_412" x="-75.1475" y="0" width="288.989" height="250" filterUnits="userSpaceOnUse" color-interpolation-filters="sRGB">
<feFlood flood-opacity="0" result="BackgroundImageFix"/>
<feBlend mode="normal" in="SourceGraphic" in2="BackgroundImageFix" result="shape"/>
<feColorMatrix in="SourceAlpha" type="matrix" values="0 0 0 0 0 0 0 0 0 0 0 0 0 0 0 0 0 0 127 0" result="hardAlpha"/>
<feOffset dy="3.17468"/>
<feComposite in2="hardAlpha" operator="arithmetic" k2="-1" k3="1"/>
<feColorMatrix type="matrix" values="0 0 0 0 0.054902 0 0 0 0 0.105882 0 0 0 0 0.172549 0 0 0 0.2 0"/>
<feBlend mode="normal" in2="shape" result="effect1_innerShadow_254_412"/>
</filter>
</defs>
</svg>
