<svg width="49" height="49" viewBox="0 0 49 49" fill="none" xmlns="http://www.w3.org/2000/svg">
<path d="M13.84 28.75H8.5C6.3 28.75 4.5 30.55 4.5 32.75V42.75C4.5 43.85 5.4 44.75 6.5 44.75H13.84C14.94 44.75 15.84 43.85 15.84 42.75V30.75C15.84 29.65 14.94 28.75 13.84 28.75Z" fill="#209F71"/>
<path d="M27.1603 20.75H21.8203C19.6203 20.75 17.8203 22.55 17.8203 24.75V42.75C17.8203 43.85 18.7203 44.75 19.8203 44.75H29.1603C30.2603 44.75 31.1603 43.85 31.1603 42.75V24.75C31.1603 22.55 29.3803 20.75 27.1603 20.75Z" fill="#209F71"/>
<path d="M40.5002 34.75H35.1602C34.0602 34.75 33.1602 35.65 33.1602 36.75V42.75C33.1602 43.85 34.0602 44.75 35.1602 44.75H42.5002C43.6002 44.75 44.5002 43.85 44.5002 42.75V38.75C44.5002 36.55 42.7002 34.75 40.5002 34.75Z" fill="#209F71"/>
<path d="M30.5199 10.45C31.1399 9.82996 31.3799 9.08996 31.1799 8.44996C30.9799 7.80996 30.3599 7.34996 29.4799 7.20996L27.5599 6.88996C27.4799 6.88996 27.2999 6.74996 27.2599 6.66996L26.1999 4.54996C25.3999 2.92996 23.5799 2.92996 22.7799 4.54996L21.7199 6.66996C21.6999 6.74996 21.5199 6.88996 21.4399 6.88996L19.5199 7.20996C18.6399 7.34996 18.0399 7.80996 17.8199 8.44996C17.6199 9.08996 17.8599 9.82996 18.4799 10.45L19.9599 11.95C20.0399 12.01 20.0999 12.25 20.0799 12.33L19.6599 14.17C19.3399 15.55 19.8599 16.17 20.1999 16.41C20.5399 16.65 21.2799 16.97 22.4999 16.25L24.2999 15.19C24.3799 15.13 24.6399 15.13 24.7199 15.19L26.4999 16.25C27.0599 16.59 27.5199 16.69 27.8799 16.69C28.2999 16.69 28.5999 16.53 28.7799 16.41C29.1199 16.17 29.6399 15.55 29.3199 14.17L28.8999 12.33C28.8799 12.23 28.9399 12.01 29.0199 11.95L30.5199 10.45Z" fill="#209F71"/>
</svg>
