<svg width="55" height="54" viewBox="0 0 55 54" fill="none" xmlns="http://www.w3.org/2000/svg">
<rect x="0.5" width="54" height="54" rx="8" fill="#30589F"/>
<path d="M21.6758 31.0772C21.6758 33.3347 23.4083 35.1547 25.5608 35.1547H29.9533C31.8258 35.1547 33.3483 33.5622 33.3483 31.6022C33.3483 29.4672 32.4208 28.7147 31.0383 28.2247L23.9858 25.7747C22.6033 25.2847 21.6758 24.5322 21.6758 22.3972C21.6758 20.4372 23.1983 18.8447 25.0708 18.8447H29.4633C31.6158 18.8447 33.3483 20.6647 33.3483 22.9222" stroke="white" stroke-width="2.5" stroke-linecap="round" stroke-linejoin="round"/>
<path d="M27.5 16.5V37.5" stroke="white" stroke-width="2.5" stroke-linecap="round" stroke-linejoin="round"/>
<path d="M27.5 44.5C37.165 44.5 45 36.665 45 27C45 17.335 37.165 9.5 27.5 9.5C17.835 9.5 10 17.335 10 27C10 36.665 17.835 44.5 27.5 44.5Z" stroke="white" stroke-width="2.5" stroke-linecap="round" stroke-linejoin="round"/>
</svg>
