<svg width="32" height="32" viewBox="0 0 32 32" fill="none" xmlns="http://www.w3.org/2000/svg">
<path d="M13.4 3.37338L5.37336 8.61338C2.80003 10.2934 2.80003 14.0534 5.37336 15.7334L13.4 20.9734C14.84 21.92 17.2134 21.92 18.6534 20.9734L26.64 15.7334C29.2 14.0534 29.2 10.3067 26.64 8.62671L18.6534 3.38671C17.2134 2.42671 14.84 2.42671 13.4 3.37338Z" stroke="#30589F" stroke-width="2.66667" stroke-linecap="round" stroke-linejoin="round"/>
<path d="M7.50662 17.4402L7.49329 23.6935C7.49329 25.3869 8.79995 27.2002 10.4 27.7335L14.6533 29.1469C15.3866 29.3869 16.6 29.3869 17.3466 29.1469L21.6 27.7335C23.2 27.2002 24.5066 25.3869 24.5066 23.6935V17.5069" stroke="#30589F" stroke-width="2.66667" stroke-linecap="round" stroke-linejoin="round"/>
<path d="M28.5333 20V12" stroke="#30589F" stroke-width="2.66667" stroke-linecap="round" stroke-linejoin="round"/>
</svg>
