<svg width="65" height="65" viewBox="0 0 65 65" fill="none" xmlns="http://www.w3.org/2000/svg">
<path d="M32.12 64.414C14.4469 64.414 0.118347 50.1271 0.118347 32.5033C0.118347 14.8794 14.4452 0.592529 32.12 0.592529C49.7932 0.592529 64.1217 14.8794 64.1217 32.5033C64.1217 50.1271 49.7949 64.414 32.12 64.414Z" fill="#233F7B"/>
<path d="M32.1198 18.1576C36.8046 18.1576 37.3595 18.1761 39.2092 18.2599C40.9193 18.3371 41.8492 18.6221 42.468 18.8619C43.287 19.1788 43.8721 19.5578 44.4859 20.1699C45.0997 20.7819 45.4797 21.3655 45.7992 22.1821C46.0397 22.7992 46.3255 23.7248 46.4029 25.4319C46.4869 27.2764 46.5055 27.8298 46.5055 32.5015C46.5055 37.1733 46.4869 37.7267 46.4029 39.5712C46.3255 41.2782 46.0397 42.2039 45.7992 42.8209C45.4814 43.6376 45.1013 44.2211 44.4859 44.8332C43.8721 45.4453 43.287 45.8242 42.468 46.1428C41.8492 46.3826 40.9193 46.6677 39.2092 46.7448C37.3595 46.8287 36.8046 46.8471 32.1198 46.8471C27.4349 46.8471 26.88 46.8287 25.0303 46.7448C23.3202 46.6677 22.3903 46.3826 21.7732 46.1428C20.9542 45.8259 20.369 45.4453 19.7553 44.8332C19.1415 44.2211 18.7615 43.6376 18.442 42.8209C18.2015 42.2039 17.9156 41.2782 17.8383 39.5712C17.7542 37.7267 17.7357 37.1733 17.7357 32.5015C17.7357 27.8298 17.7542 27.2764 17.8383 25.4319C17.9173 23.7248 18.2032 22.7992 18.442 22.1821C18.7598 21.3655 19.1398 20.7836 19.7553 20.1699C20.369 19.5578 20.9542 19.1788 21.7732 18.8619C22.392 18.6221 23.3202 18.3371 25.0303 18.2599C26.88 18.1761 27.4349 18.1576 32.1198 18.1576ZM32.1198 15.0051C27.3542 15.0051 26.7573 15.0253 24.8857 15.1108C23.0175 15.1963 21.7429 15.4914 20.6263 15.9241C19.4728 16.3718 18.4941 16.9687 17.5188 17.943C16.5435 18.9156 15.9432 19.8915 15.4959 21.0418C15.0621 22.1553 14.7661 23.4263 14.6803 25.2893C14.5946 27.1557 14.5744 27.751 14.5744 32.5032C14.5744 37.2554 14.5946 37.8507 14.6803 39.7171C14.7661 41.5801 15.0621 42.8511 15.4959 43.9646C15.9449 45.1149 16.5435 46.0908 17.5188 47.0634C18.4941 48.036 19.4728 48.6346 20.6263 49.0824C21.7429 49.515 23.0175 49.8101 24.8857 49.8956C26.7573 49.9812 27.3542 50.0013 32.1198 50.0013C36.8853 50.0013 37.4822 49.9812 39.3538 49.8956C41.222 49.8101 42.4966 49.515 43.6132 49.0824C44.7667 48.6346 45.7454 48.036 46.7207 47.0634C47.696 46.0908 48.2963 45.1149 48.7453 43.9646C49.1791 42.8511 49.4751 41.5801 49.5608 39.7171C49.6466 37.8507 49.6668 37.2554 49.6668 32.5032C49.6668 27.751 49.6466 27.1557 49.5608 25.2893C49.4751 23.4263 49.1791 22.1553 48.7453 21.0418C48.2963 19.8915 47.6977 18.9156 46.7207 17.943C45.7454 16.9704 44.7667 16.3718 43.6132 15.9241C42.4966 15.4914 41.222 15.1963 39.3538 15.1108C37.4822 15.0253 36.8853 15.0051 32.1198 15.0051Z" fill="white"/>
<path d="M32.1193 23.5186C27.1436 23.5186 23.1096 27.5414 23.1096 32.5032C23.1096 37.465 27.1436 41.4878 32.1193 41.4878C37.0951 41.4878 41.1291 37.465 41.1291 32.5032C41.1291 27.5414 37.0967 23.5186 32.1193 23.5186ZM32.1193 38.3354C28.8891 38.3354 26.2709 35.7245 26.2709 32.5032C26.2709 29.2819 28.8891 26.6711 32.1193 26.6711C35.3496 26.6711 37.9678 29.2819 37.9678 32.5032C37.9678 35.7245 35.3496 38.3354 32.1193 38.3354Z" fill="white"/>
<path d="M43.5926 23.1636C43.5926 24.3224 42.6493 25.2631 41.4873 25.2631C40.3237 25.2631 39.382 24.3224 39.382 23.1636C39.382 22.0049 40.3254 21.0642 41.4873 21.0642C42.6493 21.0642 43.5926 22.0033 43.5926 23.1636Z" fill="white"/>
</svg>
