<svg width="65" height="65" viewBox="0 0 65 65" fill="none" xmlns="http://www.w3.org/2000/svg">
<path d="M32.781 64.1647C15.1078 64.1647 0.779297 49.8778 0.779297 32.254C0.779297 14.6301 15.1061 0.343262 32.7793 0.343262C50.4524 0.343262 64.7793 14.6301 64.7793 32.254C64.781 49.8778 50.4541 64.1647 32.781 64.1647Z" fill="#233F7B"/>
<mask id="path-2-inside-1_185_1572" fill="white">
<path d="M46.7029 16.6333H19.4345C18.1545 16.6189 17.0889 17.6568 17.0732 18.9333V46.2386C17.0883 47.5159 18.1537 48.555 19.4345 48.5413H46.7029C47.9868 48.5574 49.056 47.5184 49.0732 46.2386V18.9314C49.056 17.6523 47.9854 16.6145 46.7029 16.6313M44.3394 43.821H39.5977V36.4163C39.5977 34.6504 39.5662 32.3775 37.1317 32.3775C34.6622 32.3775 34.2843 34.3011 34.2843 36.2876V43.8203H29.5429V28.5933H34.0946V30.6741H34.1584C35.0853 29.094 36.8149 28.1467 38.6496 28.2147C43.4551 28.2147 44.3413 31.3668 44.3413 35.4677L44.3394 43.821ZM24.1929 26.5118C22.6834 26.5118 21.4408 25.2734 21.4408 23.7681C21.4408 22.2628 22.6829 21.0242 24.1923 21.0242C25.7017 21.0242 26.9436 22.2626 26.9439 23.7675C26.9439 25.2725 25.7021 26.5117 24.1929 26.5118ZM26.5636 43.821H21.8172V28.5933H26.5636V43.821Z"/>
</mask>
<path d="M46.7029 16.6333H19.4345C18.1545 16.6189 17.0889 17.6568 17.0732 18.9333V46.2386C17.0883 47.5159 18.1537 48.555 19.4345 48.5413H46.7029C47.9868 48.5574 49.056 47.5184 49.0732 46.2386V18.9314C49.056 17.6523 47.9854 16.6145 46.7029 16.6313M44.3394 43.821H39.5977V36.4163C39.5977 34.6504 39.5662 32.3775 37.1317 32.3775C34.6622 32.3775 34.2843 34.3011 34.2843 36.2876V43.8203H29.5429V28.5933H34.0946V30.6741H34.1584C35.0853 29.094 36.8149 28.1467 38.6496 28.2147C43.4551 28.2147 44.3413 31.3668 44.3413 35.4677L44.3394 43.821ZM24.1929 26.5118C22.6834 26.5118 21.4408 25.2734 21.4408 23.7681C21.4408 22.2628 22.6829 21.0242 24.1923 21.0242C25.7017 21.0242 26.9436 22.2626 26.9439 23.7675C26.9439 25.2725 25.7021 26.5117 24.1929 26.5118ZM26.5636 43.821H21.8172V28.5933H26.5636V43.821Z" fill="white"/>
<path d="M46.7029 18.4111C47.6848 18.4111 48.4807 17.6151 48.4807 16.6333C48.4807 15.6515 47.6848 14.8555 46.7029 14.8555V18.4111ZM19.4345 16.6333L19.4145 18.411L19.4245 18.4111H19.4345V16.6333ZM17.0732 18.9333L15.2956 18.9116L15.2955 18.9224V18.9333H17.0732ZM17.0732 46.2386H15.2955V46.249L15.2956 46.2595L17.0732 46.2386ZM19.4345 48.5413V46.7635H19.425L19.4155 46.7636L19.4345 48.5413ZM46.7029 48.5413L46.7253 46.7637L46.7141 46.7635H46.7029V48.5413ZM49.0732 46.2386L50.8509 46.2625L50.851 46.2506V46.2386H49.0732ZM49.0732 18.9314H50.851V18.9195L50.8509 18.9075L49.0732 18.9314ZM46.6796 14.8537C45.6978 14.8666 44.9124 15.6729 44.9253 16.6546C44.9382 17.6364 45.7445 18.4218 46.7263 18.4089L46.6796 14.8537ZM44.3394 43.821V45.5988H46.1167L46.1172 43.8214L44.3394 43.821ZM39.5977 43.821H37.8199V45.5988H39.5977V43.821ZM34.2843 43.8203V45.5981H36.062V43.8203H34.2843ZM29.5429 43.8203H27.7652V45.5981H29.5429V43.8203ZM29.5429 28.5933V26.8155H27.7652V28.5933H29.5429ZM34.0946 28.5933H35.8724V26.8155H34.0946V28.5933ZM34.0946 30.6741H32.3168V32.4519H34.0946V30.6741ZM34.1584 30.6741V32.4519H35.1766L35.6918 31.5737L34.1584 30.6741ZM38.6496 28.2147L38.5838 29.9912L38.6167 29.9924H38.6496V28.2147ZM44.3413 35.4677L46.1191 35.4681V35.4677H44.3413ZM24.1929 26.5118V28.2896H24.1931L24.1929 26.5118ZM26.9439 23.7675H28.7217V23.7672L26.9439 23.7675ZM26.5636 43.821V45.5988H28.3414V43.821H26.5636ZM21.8172 43.821H20.0394V45.5988H21.8172V43.821ZM21.8172 28.5933V26.8155H20.0394V28.5933H21.8172ZM26.5636 28.5933H28.3414V26.8155H26.5636V28.5933ZM46.7029 14.8555H19.4345V18.4111H46.7029V14.8555ZM19.4545 14.8556C17.1981 14.8302 15.3233 16.6493 15.2956 18.9116L18.8509 18.955C18.8544 18.6644 19.1109 18.4076 19.4145 18.411L19.4545 14.8556ZM15.2955 18.9333V46.2386H18.851V18.9333H15.2955ZM15.2956 46.2595C15.3222 48.5223 17.1962 50.343 19.4534 50.319L19.4155 46.7636C19.1113 46.7669 18.8543 46.5095 18.8509 46.2177L15.2956 46.2595ZM19.4345 50.3191H46.7029V46.7635H19.4345V50.3191ZM46.6806 50.3189C48.941 50.3474 50.8203 48.5281 50.8509 46.2625L47.2956 46.2146C47.2917 46.5087 47.0327 46.7675 46.7253 46.7637L46.6806 50.3189ZM50.851 46.2386V18.9314H47.2955V46.2386H50.851ZM50.8509 18.9075C50.8203 16.6405 48.9373 14.824 46.6796 14.8537L46.7263 18.4089C47.0336 18.4049 47.2917 18.664 47.2956 18.9554L50.8509 18.9075ZM44.3394 42.0432H39.5977V45.5988H44.3394V42.0432ZM41.3755 43.821V36.4163H37.8199V43.821H41.3755ZM41.3755 36.4163C41.3755 35.6128 41.3906 34.2428 40.9307 33.0806C40.6804 32.4479 40.2605 31.7895 39.5607 31.3017C38.8573 30.8115 38.0234 30.5997 37.1317 30.5997V34.1552C37.2984 34.1552 37.401 34.1747 37.4565 34.1903C37.5089 34.205 37.5268 34.2182 37.5275 34.2187C37.5285 34.2194 37.5354 34.2236 37.5494 34.2427C37.5653 34.2643 37.5929 34.3087 37.6246 34.3887C37.6926 34.5608 37.7506 34.8218 37.7839 35.1975C37.817 35.57 37.8199 35.9691 37.8199 36.4163H41.3755ZM37.1317 30.5997C36.2839 30.5997 35.4866 30.7656 34.7855 31.1529C34.0739 31.5459 33.5686 32.1079 33.2261 32.7274C32.5873 33.8829 32.5065 35.2614 32.5065 36.2876H36.062C36.062 35.3273 36.1702 34.7508 36.3377 34.4478C36.3984 34.3381 36.4506 34.295 36.5045 34.2653C36.5688 34.2297 36.7448 34.1552 37.1317 34.1552V30.5997ZM32.5065 36.2876V43.8203H36.062V36.2876H32.5065ZM34.2843 42.0425H29.5429V45.5981H34.2843V42.0425ZM31.3207 43.8203V28.5933H27.7652V43.8203H31.3207ZM29.5429 30.3711H34.0946V26.8155H29.5429V30.3711ZM32.3168 28.5933V30.6741H35.8724V28.5933H32.3168ZM34.0946 32.4519H34.1584V28.8964H34.0946V32.4519ZM35.6918 31.5737C36.2868 30.5593 37.4013 29.9474 38.5838 29.9912L38.7154 26.4381C36.2285 26.346 33.8838 27.6287 32.625 29.7746L35.6918 31.5737ZM38.6496 29.9924C40.6168 29.9924 41.3817 30.5998 41.7949 31.2533C42.3264 32.0941 42.5636 33.4564 42.5636 35.4677H46.1191C46.1191 33.3781 45.9132 31.1139 44.8002 29.3534C43.5689 27.4056 41.4879 26.4369 38.6496 26.4369V29.9924ZM42.5636 35.4672L42.5616 43.8206L46.1172 43.8214L46.1191 35.4681L42.5636 35.4672ZM24.1929 24.7341C23.66 24.7341 23.2185 24.2862 23.2185 23.7681H19.663C19.663 26.2605 21.7069 28.2896 24.1929 28.2896V24.7341ZM23.2185 23.7681C23.2185 23.2494 23.66 22.802 24.1923 22.802V19.2464C21.7057 19.2464 19.663 21.2763 19.663 23.7681H23.2185ZM24.1923 22.802C24.7246 22.802 25.166 23.2493 25.1661 23.7679L28.7217 23.7672C28.7212 21.2759 26.6787 19.2464 24.1923 19.2464V22.802ZM25.1661 23.7675C25.1661 24.2867 24.7242 24.734 24.1927 24.7341L24.1931 28.2896C26.68 28.2894 28.7217 26.2583 28.7217 23.7675H25.1661ZM26.5636 42.0432H21.8172V45.5988H26.5636V42.0432ZM23.595 43.821V28.5933H20.0394V43.821H23.595ZM21.8172 30.3711H26.5636V26.8155H21.8172V30.3711ZM24.7858 28.5933V43.821H28.3414V28.5933H24.7858Z" fill="white" mask="url(#path-2-inside-1_185_1572)"/>
</svg>
