<svg width="49" height="49" viewBox="0 0 49 49" fill="none" xmlns="http://www.w3.org/2000/svg">
<path d="M37.5796 8.73993L26.5796 4.61993C25.4396 4.19993 23.5796 4.19993 22.4396 4.61993L11.4396 8.73993C9.31961 9.53993 7.59961 12.0199 7.59961 14.2799V30.4799C7.59961 32.0999 8.65961 34.2399 9.95961 35.1999L20.9596 43.4199C22.8996 44.8799 26.0796 44.8799 28.0196 43.4199L39.0196 35.1999C40.3196 34.2199 41.3796 32.0999 41.3796 30.4799V14.2799C41.3996 12.0199 39.6796 9.53993 37.5796 8.73993ZM31.4596 19.9399L22.8596 28.5399C22.5596 28.8399 22.1796 28.9799 21.7996 28.9799C21.4196 28.9799 21.0396 28.8399 20.7396 28.5399L17.5396 25.2999C16.9596 24.7199 16.9596 23.7599 17.5396 23.1799C18.1196 22.5999 19.0796 22.5999 19.6596 23.1799L21.8196 25.3399L29.3596 17.7999C29.9396 17.2199 30.8996 17.2199 31.4796 17.7999C32.0596 18.3799 32.0596 19.3599 31.4596 19.9399Z" fill="white"/>
</svg>
