<svg width="74" height="70" viewBox="0 0 74 70" fill="none" xmlns="http://www.w3.org/2000/svg">
<path d="M69.4568 35.0376C44.8006 40.4321 40.4641 44.805 35.1145 69.6674C29.7649 44.805 25.4284 40.4321 0.772217 35.0376C25.4284 29.6432 29.7649 25.2703 35.1145 0.407883C40.4641 25.2703 44.8006 29.6432 69.4568 35.0376Z" fill="#30589F"/>
<path d="M73.4856 12.7657C65.7182 14.4649 64.3519 15.8429 62.6667 23.6751C60.9815 15.8429 59.6151 14.4649 51.8478 12.7657C59.6151 11.0665 60.9815 9.6885 62.6667 1.85631C64.3519 9.68908 65.7182 11.0665 73.4856 12.7657Z" fill="#61CAF2"/>
<path d="M16.7716 56.8071C12.0571 57.8385 11.2279 58.675 10.2052 63.4288C9.18251 58.675 8.35328 57.8385 3.63879 56.8071C8.35328 55.7758 9.18251 54.9398 10.2052 50.1854C11.2279 54.9392 12.0571 55.7752 16.7716 56.8071Z" fill="#2B7CD6"/>
</svg>
