<svg width="108" height="57" viewBox="0 0 108 57" fill="none" xmlns="http://www.w3.org/2000/svg">
<path d="M107.022 0.548584H0.976562V56.1322H107.022V0.548584Z" fill="white"/>
<path d="M107.023 0.3396H0.980469V4.73651H107.023V0.3396Z" fill="#B22234"/>
<path d="M107.023 8.94006H0.980469V13.3369H107.023V8.94006Z" fill="#B22234"/>
<path d="M107.023 17.5404H0.980469V21.9373H107.023V17.5404Z" fill="#B22234"/>
<path d="M107.023 26.1407H0.980469V30.5376H107.023V26.1407Z" fill="#B22234"/>
<path d="M107.023 34.7412H0.980469V39.1382H107.023V34.7412Z" fill="#B22234"/>
<path d="M107.023 43.3417H0.980469V47.7385H107.023V43.3417Z" fill="#B22234"/>
<path d="M107.023 51.942H0.980469V56.3389H107.023V51.942Z" fill="#B22234"/>
<path d="M43.3293 0.338867H0.976562V30.5387H43.3293V0.338867Z" fill="#3C3B6E"/>
<path d="M4.57943 1.49536L4.97575 2.72811H6.25836L5.22066 3.48997L5.61708 4.72277L4.57943 3.96091L3.54178 4.72277L3.9381 3.48997L2.90039 2.72811H4.183L4.57943 1.49536Z" fill="white"/>
<path d="M8.07146 4.59412L8.46778 5.82692H9.75039L8.71284 6.58878L9.10911 7.82153L8.07146 7.05972L7.0338 7.82153L7.43012 6.58878L6.39258 5.82692H7.67519L8.07146 4.59412Z" fill="white"/>
<path d="M8.07146 10.6486L8.46778 11.8814H9.75039L8.71284 12.6432L9.10911 13.876L8.07146 13.1142L7.0338 13.876L7.43012 12.6432L6.39258 11.8814H7.67519L8.07146 10.6486Z" fill="white"/>
<path d="M8.07146 16.703L8.46778 17.9358H9.75039L8.71284 18.6977L9.10911 19.9304L8.07146 19.1686L7.0338 19.9304L7.43012 18.6977L6.39258 17.9358H7.67519L8.07146 16.703Z" fill="white"/>
<path d="M8.07146 22.7574L8.46778 23.9902H9.75039L8.71284 24.7521L9.10911 25.9849L8.07146 25.223L7.0338 25.9849L7.43012 24.7521L6.39258 23.9902H7.67519L8.07146 22.7574Z" fill="white"/>
<path d="M15.1458 4.59412L15.5421 5.82692H16.8247L15.7871 6.58878L16.1835 7.82153L15.1458 7.05972L14.1081 7.82153L14.5044 6.58878L13.4668 5.82692H14.7494L15.1458 4.59412Z" fill="white"/>
<path d="M15.1458 10.6486L15.5421 11.8814H16.8247L15.7871 12.6432L16.1835 13.876L15.1458 13.1142L14.1081 13.876L14.5044 12.6432L13.4668 11.8814H14.7494L15.1458 10.6486Z" fill="white"/>
<path d="M15.1458 16.703L15.5421 17.9358H16.8247L15.7871 18.6977L16.1835 19.9304L15.1458 19.1686L14.1081 19.9304L14.5044 18.6977L13.4668 17.9358H14.7494L15.1458 16.703Z" fill="white"/>
<path d="M15.1458 22.7574L15.5421 23.9902H16.8247L15.7871 24.7521L16.1835 25.9849L15.1458 25.223L14.1081 25.9849L14.5044 24.7521L13.4668 23.9902H14.7494L15.1458 22.7574Z" fill="white"/>
<path d="M22.222 4.59412L22.6183 5.82692H23.9009L22.8632 6.58878L23.2597 7.82153L22.222 7.05972L21.1844 7.82153L21.5806 6.58878L20.543 5.82692H21.8256L22.222 4.59412Z" fill="white"/>
<path d="M22.222 10.6486L22.6183 11.8814H23.9009L22.8632 12.6432L23.2597 13.876L22.222 13.1142L21.1844 13.876L21.5806 12.6432L20.543 11.8814H21.8256L22.222 10.6486Z" fill="white"/>
<path d="M22.222 16.703L22.6183 17.9358H23.9009L22.8632 18.6977L23.2597 19.9304L22.222 19.1686L21.1844 19.9304L21.5806 18.6977L20.543 17.9358H21.8256L22.222 16.703Z" fill="white"/>
<path d="M22.222 22.7574L22.6183 23.9902H23.9009L22.8632 24.7521L23.2597 25.9849L22.222 25.223L21.1844 25.9849L21.5806 24.7521L20.543 23.9902H21.8256L22.222 22.7574Z" fill="white"/>
<path d="M29.298 4.59412L29.6944 5.82692H30.9771L29.9394 6.58878L30.3357 7.82153L29.298 7.05972L28.2605 7.82153L28.6568 6.58878L27.6191 5.82692H28.9017L29.298 4.59412Z" fill="white"/>
<path d="M29.298 10.6486L29.6944 11.8814H30.9771L29.9394 12.6432L30.3357 13.876L29.298 13.1142L28.2605 13.876L28.6568 12.6432L27.6191 11.8814H28.9017L29.298 10.6486Z" fill="white"/>
<path d="M29.298 16.703L29.6944 17.9358H30.9771L29.9394 18.6977L30.3357 19.9304L29.298 19.1686L28.2605 19.9304L28.6568 18.6977L27.6191 17.9358H28.9017L29.298 16.703Z" fill="white"/>
<path d="M29.298 22.7574L29.6944 23.9902H30.9771L29.9394 24.7521L30.3357 25.9849L29.298 25.223L28.2605 25.9849L28.6568 24.7521L27.6191 23.9902H28.9017L29.298 22.7574Z" fill="white"/>
<path d="M36.3742 4.59412L36.7706 5.82692H38.0531L37.0156 6.58878L37.4118 7.82153L36.3742 7.05972L35.3366 7.82153L35.733 6.58878L34.6953 5.82692H35.9779L36.3742 4.59412Z" fill="white"/>
<path d="M36.3742 10.6486L36.7706 11.8814H38.0531L37.0156 12.6432L37.4118 13.876L36.3742 13.1142L35.3366 13.876L35.733 12.6432L34.6953 11.8814H35.9779L36.3742 10.6486Z" fill="white"/>
<path d="M36.3742 16.703L36.7706 17.9358H38.0531L37.0156 18.6977L37.4118 19.9304L36.3742 19.1686L35.3366 19.9304L35.733 18.6977L34.6953 17.9358H35.9779L36.3742 16.703Z" fill="white"/>
<path d="M36.3742 22.7574L36.7706 23.9902H38.0531L37.0156 24.7521L37.4118 25.9849L36.3742 25.223L35.3366 25.9849L35.733 24.7521L34.6953 23.9902H35.9779L36.3742 22.7574Z" fill="white"/>
<path d="M4.57943 7.5498L4.97575 8.78255H6.25836L5.22066 9.54442L5.61708 10.7772L4.57943 10.0154L3.54178 10.7772L3.9381 9.54442L2.90039 8.78255H4.183L4.57943 7.5498Z" fill="white"/>
<path d="M4.57943 13.6042L4.97575 14.837H6.25836L5.22066 15.5989L5.61708 16.8317L4.57943 16.0698L3.54178 16.8317L3.9381 15.5989L2.90039 14.837H4.183L4.57943 13.6042Z" fill="white"/>
<path d="M4.57943 19.6587L4.97575 20.8914H6.25836L5.22066 21.6533L5.61708 22.8861L4.57943 22.1242L3.54178 22.8861L3.9381 21.6533L2.90039 20.8914H4.183L4.57943 19.6587Z" fill="white"/>
<path d="M4.57943 25.7131L4.97575 26.9459H6.25836L5.22066 27.7077L5.61708 28.9405L4.57943 28.1787L3.54178 28.9405L3.9381 27.7077L2.90039 26.9459H4.183L4.57943 25.7131Z" fill="white"/>
<path d="M11.5617 1.49536L11.958 2.72811H13.2407L12.2031 3.48997L12.5994 4.72277L11.5617 3.96091L10.524 4.72277L10.9205 3.48997L9.88281 2.72811H11.1654L11.5617 1.49536Z" fill="white"/>
<path d="M11.5617 7.5498L11.958 8.78255H13.2407L12.2031 9.54442L12.5994 10.7772L11.5617 10.0154L10.524 10.7772L10.9205 9.54442L9.88281 8.78255H11.1654L11.5617 7.5498Z" fill="white"/>
<path d="M11.5617 13.6042L11.958 14.837H13.2407L12.2031 15.5989L12.5994 16.8317L11.5617 16.0698L10.524 16.8317L10.9205 15.5989L9.88281 14.837H11.1654L11.5617 13.6042Z" fill="white"/>
<path d="M11.5617 19.6587L11.958 20.8914H13.2407L12.2031 21.6533L12.5994 22.8861L11.5617 22.1242L10.524 22.8861L10.9205 21.6533L9.88281 20.8914H11.1654L11.5617 19.6587Z" fill="white"/>
<path d="M11.5617 25.7131L11.958 26.9459H13.2407L12.2031 27.7077L12.5994 28.9405L11.5617 28.1787L10.524 28.9405L10.9205 27.7077L9.88281 26.9459H11.1654L11.5617 25.7131Z" fill="white"/>
<path d="M18.7317 1.49536L19.128 2.72811H20.4105L19.373 3.48997L19.7693 4.72277L18.7317 3.96091L17.6941 4.72277L18.0904 3.48997L17.0527 2.72811H18.3353L18.7317 1.49536Z" fill="white"/>
<path d="M18.7317 7.5498L19.128 8.78255H20.4105L19.373 9.54442L19.7693 10.7772L18.7317 10.0154L17.6941 10.7772L18.0904 9.54442L17.0527 8.78255H18.3353L18.7317 7.5498Z" fill="white"/>
<path d="M18.7317 13.6042L19.128 14.837H20.4105L19.373 15.5989L19.7693 16.8317L18.7317 16.0698L17.6941 16.8317L18.0904 15.5989L17.0527 14.837H18.3353L18.7317 13.6042Z" fill="white"/>
<path d="M18.7317 19.6587L19.128 20.8914H20.4105L19.373 21.6533L19.7693 22.8861L18.7317 22.1242L17.6941 22.8861L18.0904 21.6533L17.0527 20.8914H18.3353L18.7317 19.6587Z" fill="white"/>
<path d="M18.7317 25.7131L19.128 26.9459H20.4105L19.373 27.7077L19.7693 28.9405L18.7317 28.1787L17.6941 28.9405L18.0904 27.7077L17.0527 26.9459H18.3353L18.7317 25.7131Z" fill="white"/>
<path d="M25.761 1.49536L26.1573 2.72811H27.44L26.4023 3.48997L26.7986 4.72277L25.761 3.96091L24.7234 4.72277L25.1197 3.48997L24.082 2.72811H25.3646L25.761 1.49536Z" fill="white"/>
<path d="M25.761 7.5498L26.1573 8.78255H27.44L26.4023 9.54442L26.7986 10.7772L25.761 10.0154L24.7234 10.7772L25.1197 9.54442L24.082 8.78255H25.3646L25.761 7.5498Z" fill="white"/>
<path d="M25.761 13.6042L26.1573 14.837H27.44L26.4023 15.5989L26.7986 16.8317L25.761 16.0698L24.7234 16.8317L25.1197 15.5989L24.082 14.837H25.3646L25.761 13.6042Z" fill="white"/>
<path d="M25.761 19.6587L26.1573 20.8914H27.44L26.4023 21.6533L26.7986 22.8861L25.761 22.1242L24.7234 22.8861L25.1197 21.6533L24.082 20.8914H25.3646L25.761 19.6587Z" fill="white"/>
<path d="M25.761 25.7131L26.1573 26.9459H27.44L26.4023 27.7077L26.7986 28.9405L25.761 28.1787L24.7234 28.9405L25.1197 27.7077L24.082 26.9459H25.3646L25.761 25.7131Z" fill="white"/>
<path d="M32.7884 1.49536L33.1847 2.72811H34.4673L33.4296 3.48997L33.8261 4.72277L32.7884 3.96091L31.7507 4.72277L32.147 3.48997L31.1094 2.72811H32.392L32.7884 1.49536Z" fill="white"/>
<path d="M32.7884 7.5498L33.1847 8.78255H34.4673L33.4296 9.54442L33.8261 10.7772L32.7884 10.0154L31.7507 10.7772L32.147 9.54442L31.1094 8.78255H32.392L32.7884 7.5498Z" fill="white"/>
<path d="M32.7884 13.6042L33.1847 14.837H34.4673L33.4296 15.5989L33.8261 16.8317L32.7884 16.0698L31.7507 16.8317L32.147 15.5989L31.1094 14.837H32.392L32.7884 13.6042Z" fill="white"/>
<path d="M32.7884 19.6587L33.1847 20.8914H34.4673L33.4296 21.6533L33.8261 22.8861L32.7884 22.1242L31.7507 22.8861L32.147 21.6533L31.1094 20.8914H32.392L32.7884 19.6587Z" fill="white"/>
<path d="M32.7884 25.7131L33.1847 26.9459H34.4673L33.4296 27.7077L33.8261 28.9405L32.7884 28.1787L31.7507 28.9405L32.147 27.7077L31.1094 26.9459H32.392L32.7884 25.7131Z" fill="white"/>
<path d="M39.9582 1.49536L40.3546 2.72811H41.6372L40.5995 3.48997L40.9958 4.72277L39.9582 3.96091L38.9206 4.72277L39.3169 3.48997L38.2793 2.72811H39.5619L39.9582 1.49536Z" fill="white"/>
<path d="M39.9582 7.5498L40.3546 8.78255H41.6372L40.5995 9.54442L40.9958 10.7772L39.9582 10.0154L38.9206 10.7772L39.3169 9.54442L38.2793 8.78255H39.5619L39.9582 7.5498Z" fill="white"/>
<path d="M39.9582 13.6042L40.3546 14.837H41.6372L40.5995 15.5989L40.9958 16.8317L39.9582 16.0698L38.9206 16.8317L39.3169 15.5989L38.2793 14.837H39.5619L39.9582 13.6042Z" fill="white"/>
<path d="M39.9582 19.6587L40.3546 20.8914H41.6372L40.5995 21.6533L40.9958 22.8861L39.9582 22.1242L38.9206 22.8861L39.3169 21.6533L38.2793 20.8914H39.5619L39.9582 19.6587Z" fill="white"/>
<path d="M39.9582 25.7131L40.3546 26.9459H41.6372L40.5995 27.7077L40.9958 28.9405L39.9582 28.1787L38.9206 28.9405L39.3169 27.7077L38.2793 26.9459H39.5619L39.9582 25.7131Z" fill="white"/>
</svg>
