<svg width="40" height="41" viewBox="0 0 40 41" fill="none" xmlns="http://www.w3.org/2000/svg">
<path d="M30.066 23.2497C29.366 23.933 28.966 24.9164 29.066 25.9664C29.216 27.7664 30.866 29.083 32.666 29.083H35.8327V31.0664C35.8327 34.5164 33.016 37.3331 29.566 37.3331H10.4327C6.98268 37.3331 4.16602 34.5164 4.16602 31.0664V19.8498C4.16602 16.3998 6.98268 13.5831 10.4327 13.5831H29.566C33.016 13.5831 35.8327 16.3998 35.8327 19.8498V22.2498H32.466C31.5327 22.2498 30.6827 22.6164 30.066 23.2497Z" stroke="#292D32" stroke-width="2.5" stroke-linecap="round" stroke-linejoin="round"/>
<path d="M4.16602 21.3499V13.7333C4.16602 11.7499 5.38268 9.98321 7.23268 9.28321L20.466 4.28321C22.5327 3.49988 24.7493 5.03326 24.7493 7.24993V13.5832" stroke="#292D32" stroke-width="2.5" stroke-linecap="round" stroke-linejoin="round"/>
<path d="M37.5974 23.9501V27.3835C37.5974 28.3002 36.864 29.0501 35.9307 29.0835H32.664C30.864 29.0835 29.214 27.7668 29.064 25.9668C28.964 24.9168 29.364 23.9335 30.064 23.2501C30.6807 22.6168 31.5307 22.2502 32.464 22.2502H35.9307C36.864 22.2835 37.5974 23.0334 37.5974 23.9501Z" stroke="#292D32" stroke-width="2.5" stroke-linecap="round" stroke-linejoin="round"/>
<path d="M11.666 20.6665H23.3327" stroke="#292D32" stroke-width="2.5" stroke-linecap="round" stroke-linejoin="round"/>
</svg>
