<svg width="64" height="65" viewBox="0 0 64 65" fill="none" xmlns="http://www.w3.org/2000/svg">
<path d="M32.0017 64.414C14.3285 64.414 0 50.1271 0 32.5033C0 14.8794 14.3268 0.592529 32 0.592529C49.6731 0.592529 64 14.8794 64 32.5033C64.0017 50.1271 49.6748 64.414 32.0017 64.414Z" fill="#233F7B"/>
<path fill-rule="evenodd" clip-rule="evenodd" d="M49.5457 31.6184C49.3119 22.3973 41.6945 14.9956 32.3198 14.9956C23.0578 14.9956 15.5059 22.2296 15.1024 31.3048C15.094 31.5546 15.0855 31.8028 15.0855 32.0527C15.0855 35.279 15.9885 38.2889 17.5541 40.8629L14.4482 50.0102L23.9927 46.9851C26.4613 48.3367 29.3014 49.1097 32.3198 49.1097C41.8408 49.1097 49.5541 41.475 49.5541 32.0527C49.5541 31.9085 49.5541 31.7626 49.5457 31.6184ZM32.3198 46.3898C29.3754 46.3898 26.6395 45.5212 24.3492 44.0154L18.7816 45.7862L20.5893 40.4605C18.8539 38.0944 17.8299 35.1901 17.8299 32.0527C17.8299 31.5865 17.8551 31.1187 17.9022 30.6609C18.6118 23.4034 24.8083 17.7155 32.3198 17.7155C39.9288 17.7155 46.1809 23.5493 46.7627 30.9342C46.7946 31.3048 46.8115 31.6737 46.8115 32.0527C46.8098 39.9608 40.3072 46.3898 32.3198 46.3898Z" fill="white"/>
<path fill-rule="evenodd" clip-rule="evenodd" d="M40.2198 35.4965C39.7927 35.2869 37.7176 34.274 37.3309 34.1365C36.9441 33.9923 36.6616 33.9269 36.3791 34.3461C36.0966 34.7637 35.2827 35.7061 35.0389 35.9794C34.7883 36.2612 34.5479 36.293 34.1191 36.0834C33.6987 35.8738 32.3366 35.4394 30.7224 34.0074C29.4713 32.9057 28.617 31.5374 28.3749 31.1199C28.1328 30.7007 28.3514 30.4759 28.5599 30.2663C28.7532 30.0735 28.9803 29.775 29.1972 29.5336C29.2543 29.4615 29.3014 29.396 29.3502 29.3323C29.4477 29.1797 29.52 29.0339 29.6159 28.8326C29.7605 28.5509 29.6882 28.3094 29.5839 28.0998C29.4797 27.8902 28.6322 25.831 28.2774 24.9943C27.931 24.1575 27.5762 24.3017 27.3256 24.3017C27.0835 24.3017 26.801 24.2615 26.5185 24.2615C26.236 24.2615 25.7752 24.3655 25.3885 24.7847C25.0017 25.2039 23.912 26.2167 23.912 28.2759C23.912 28.7588 24.0012 29.2418 24.1306 29.6996C24.5578 31.1719 25.4776 32.3859 25.639 32.5955C25.8492 32.8688 28.5599 37.2287 32.8512 38.9106C37.1509 40.5757 37.1509 40.0206 37.9261 39.9485C38.6996 39.8831 40.4283 38.9424 40.7747 37.9615C41.1295 36.9872 41.1295 36.1504 41.0252 35.9744C40.921 35.81 40.6385 35.7044 40.2198 35.4965Z" fill="white"/>
</svg>
