<svg width="55" height="54" viewBox="0 0 55 54" fill="none" xmlns="http://www.w3.org/2000/svg">
<rect x="0.5" width="54" height="54" rx="8" fill="#30589F"/>
<path d="M22.3029 43.9575L26.3804 40.5275C26.9929 40.0025 28.0079 40.0025 28.6204 40.5275L32.6979 43.9575C33.6429 44.43 34.7979 43.9575 35.1479 42.9425L35.9179 40.615C36.1104 40.055 35.9179 39.2325 35.4979 38.8125L31.5254 34.8225C31.2279 34.5425 31.0004 33.9825 31.0004 33.58V28.5925C31.0004 27.8575 31.5429 27.5075 32.2254 27.7875L40.8179 31.4975C42.1654 32.075 43.2679 31.3575 43.2679 29.8875V27.63C43.2679 26.4575 42.3929 25.11 41.3079 24.655L31.5254 20.4375C31.2454 20.315 31.0004 19.9475 31.0004 19.6325V14.3825C31.0004 12.7375 29.7929 10.795 28.3229 10.0425C27.7979 9.78 27.1854 9.78 26.6604 10.0425C25.1904 10.795 23.9829 12.755 23.9829 14.4V19.65C23.9829 19.965 23.7379 20.3325 23.4579 20.455L13.6929 24.6725C12.6079 25.11 11.7329 26.4575 11.7329 27.63V29.8875C11.7329 31.3575 12.8354 32.075 14.1829 31.4975L22.7754 27.7875C23.4404 27.49 24.0004 27.8575 24.0004 28.5925V33.58C24.0004 33.9825 23.7729 34.5425 23.4929 34.8225L19.5204 38.8125C19.1004 39.2325 18.9079 40.0375 19.1004 40.615L19.8704 42.9425C20.1854 43.9575 21.3404 44.4475 22.3029 43.9575Z" stroke="white" stroke-width="2.5" stroke-linecap="round" stroke-linejoin="round"/>
</svg>
