<svg width="41" height="41" viewBox="0 0 41 41" fill="none" xmlns="http://www.w3.org/2000/svg">
<path d="M28.88 0.25H12.12C4.84 0.25 0.5 4.59 0.5 11.87V28.61C0.5 35.91 4.84 40.25 12.12 40.25H28.86C36.14 40.25 40.48 35.91 40.48 28.63V11.87C40.5 4.59 36.16 0.25 28.88 0.25ZM11.76 32.55C11.76 33.37 11.08 34.05 10.26 34.05C9.44 34.05 8.76 33.37 8.76 32.55V28.41C8.76 27.59 9.44 26.91 10.26 26.91C11.08 26.91 11.76 27.59 11.76 28.41V32.55ZM22 32.55C22 33.37 21.32 34.05 20.5 34.05C19.68 34.05 19 33.37 19 32.55V24.25C19 23.43 19.68 22.75 20.5 22.75C21.32 22.75 22 23.43 22 24.25V32.55ZM32.24 32.55C32.24 33.37 31.56 34.05 30.74 34.05C29.92 34.05 29.24 33.37 29.24 32.55V20.11C29.24 19.29 29.92 18.61 30.74 18.61C31.56 18.61 32.24 19.29 32.24 20.11V32.55ZM32.24 13.79C32.24 14.61 31.56 15.29 30.74 15.29C29.92 15.29 29.24 14.61 29.24 13.79V11.85C24.14 17.09 17.76 20.79 10.62 22.57C10.5 22.61 10.38 22.61 10.26 22.61C9.58 22.61 8.98 22.15 8.8 21.47C8.6 20.67 9.08 19.85 9.9 19.65C16.64 17.97 22.64 14.43 27.4 9.43H24.9C24.08 9.43 23.4 8.75 23.4 7.93C23.4 7.11 24.08 6.43 24.9 6.43H30.76C30.84 6.43 30.9 6.47 30.98 6.47C31.08 6.49 31.18 6.49 31.28 6.53C31.38 6.57 31.46 6.63 31.56 6.69C31.62 6.73 31.68 6.75 31.74 6.79C31.76 6.81 31.76 6.83 31.78 6.83C31.86 6.91 31.92 6.99 31.98 7.07C32.04 7.15 32.1 7.21 32.12 7.29C32.16 7.37 32.16 7.45 32.18 7.55C32.2 7.65 32.24 7.75 32.24 7.87C32.24 7.89 32.26 7.91 32.26 7.93V13.79H32.24Z" fill="#C9851E"/>
</svg>
