<svg width="49" height="49" viewBox="0 0 49 49" fill="none" xmlns="http://www.w3.org/2000/svg">
<path d="M32.88 4.5H16.12C8.84 4.5 4.5 8.84 4.5 16.12V32.86C4.5 40.16 8.84 44.5 16.12 44.5H32.86C40.14 44.5 44.48 40.16 44.48 32.88V16.12C44.5 8.84 40.16 4.5 32.88 4.5ZM15.76 36.8C15.76 37.62 15.08 38.3 14.26 38.3C13.44 38.3 12.76 37.62 12.76 36.8V32.66C12.76 31.84 13.44 31.16 14.26 31.16C15.08 31.16 15.76 31.84 15.76 32.66V36.8ZM26 36.8C26 37.62 25.32 38.3 24.5 38.3C23.68 38.3 23 37.62 23 36.8V28.5C23 27.68 23.68 27 24.5 27C25.32 27 26 27.68 26 28.5V36.8ZM36.24 36.8C36.24 37.62 35.56 38.3 34.74 38.3C33.92 38.3 33.24 37.62 33.24 36.8V24.36C33.24 23.54 33.92 22.86 34.74 22.86C35.56 22.86 36.24 23.54 36.24 24.36V36.8ZM36.24 18.04C36.24 18.86 35.56 19.54 34.74 19.54C33.92 19.54 33.24 18.86 33.24 18.04V16.1C28.14 21.34 21.76 25.04 14.62 26.82C14.5 26.86 14.38 26.86 14.26 26.86C13.58 26.86 12.98 26.4 12.8 25.72C12.6 24.92 13.08 24.1 13.9 23.9C20.64 22.22 26.64 18.68 31.4 13.68H28.9C28.08 13.68 27.4 13 27.4 12.18C27.4 11.36 28.08 10.68 28.9 10.68H34.76C34.84 10.68 34.9 10.72 34.98 10.72C35.08 10.74 35.18 10.74 35.28 10.78C35.38 10.82 35.46 10.88 35.56 10.94C35.62 10.98 35.68 11 35.74 11.04C35.76 11.06 35.76 11.08 35.78 11.08C35.86 11.16 35.92 11.24 35.98 11.32C36.04 11.4 36.1 11.46 36.12 11.54C36.16 11.62 36.16 11.7 36.18 11.8C36.2 11.9 36.24 12 36.24 12.12C36.24 12.14 36.26 12.16 36.26 12.18V18.04H36.24Z" fill="white"/>
</svg>
