<svg width="106" height="55" viewBox="0 0 106 55" fill="none" xmlns="http://www.w3.org/2000/svg">
<path d="M106.308 0.178955H-0.308594V54.499H106.308V0.178955Z" fill="#10467F"/>
<path d="M29.2676 27.4532H31.0465V18.5667H53.3984V16.4708H29.2676V27.4532Z" fill="white"/>
<path d="M-0.208984 16.4708V18.5667H22.1607V27.4532H23.9219V16.4708H-0.208984Z" fill="white"/>
<path d="M31.0465 9.56826V0.234741H29.2676V11.2172H53.3984V9.56826H31.0465Z" fill="white"/>
<path d="M23.9219 0.234741H22.1607V9.56826H-0.208984V11.2172H23.9219V0.234741Z" fill="white"/>
<path d="M29.2683 0.234741H23.9219V11.2172H-0.208984V16.4708H23.9219V27.4532H29.2683V16.4708H53.3992V11.2172H29.2683V0.234741Z" fill="#D21D10"/>
<path d="M27.8199 35.6318L29.0729 38.8953L32.3355 37.8678L30.6353 40.91L33.4507 42.8922L30.0778 43.4222L30.326 46.9216L27.8199 44.5403L25.3141 46.9216L25.5623 43.4222L22.1895 42.8922L25.0046 40.91L23.3047 37.8678L26.567 38.8953L27.8199 35.6318Z" fill="white"/>
<path d="M80.9683 41.5934L81.6414 43.3428L83.3943 42.792L82.4809 44.4226L83.9934 45.485L82.1814 45.7692L82.3145 47.6448L80.9683 46.3685L79.622 47.6448L79.7554 45.7692L77.9434 45.485L79.4558 44.4226L78.5425 42.792L80.2951 43.3428L80.9683 41.5934Z" fill="white"/>
<path d="M69.072 19.6099L69.7451 21.3592L71.4978 20.8085L70.5844 22.439L72.0969 23.5015L70.2849 23.7856L70.4182 25.6613L69.072 24.385L67.7257 25.6613L67.8589 23.7856L66.0469 23.5015L67.5593 22.439L66.646 20.8085L68.3989 21.3592L69.072 19.6099Z" fill="white"/>
<path d="M80.9683 7.9104L81.6414 9.65956L83.3943 9.10883L82.4809 10.7396L83.9934 11.8021L82.1814 12.086L82.3145 13.9619L80.9683 12.6853L79.622 13.9619L79.7554 12.086L77.9434 11.8021L79.4558 10.7396L78.5425 9.10883L80.2951 9.65956L80.9683 7.9104Z" fill="white"/>
<path d="M93.1091 18.7567L93.7822 20.5061L95.5349 19.9554L94.6215 21.5859L96.134 22.6484L94.322 22.9325L94.4553 24.8082L93.1091 23.5318L91.7628 24.8082L91.8962 22.9325L90.084 22.6484L91.5966 21.5859L90.6831 19.9554L92.436 20.5061L93.1091 18.7567Z" fill="white"/>
<path d="M88.8509 27.8724L89.4071 29.0573L90.6508 29.2473L89.7508 30.1695L89.9632 31.4717L88.8509 30.857L87.7383 31.4717L87.9507 30.1695L87.0508 29.2473L88.2945 29.0573L88.8509 27.8724Z" fill="white"/>
<path d="M22.1607 9.56826V8.55742L5.35281 0.234741H-0.208984V0.590439L17.922 9.56826H22.1607Z" fill="white"/>
<path d="M-0.208984 0.590454V2.46963L14.127 9.56827H17.922L-0.208984 0.590454Z" fill="#D21D10"/>
<path d="M-0.208984 9.56825H11.7205L-0.208984 3.66125V9.56825Z" fill="#10467F"/>
<path d="M22.1614 0.234741H5.35352L22.1614 8.55742V0.234741Z" fill="#10467F"/>
<path d="M-0.208984 3.66125L11.7205 9.56824H14.127L-0.208984 2.4696V3.66125Z" fill="white"/>
<path d="M31.0469 0.234741V8.74194L47.7662 0.234741H31.0469Z" fill="#10467F"/>
<path d="M53.3998 0.234741H49.7791L31.4355 9.56826H35.2654L53.3998 0.341122V0.234741Z" fill="#D21D10"/>
<path d="M53.3981 0.341187L35.2637 9.56832H41.611L53.3981 3.57071V0.341187Z" fill="white"/>
<path d="M53.4004 3.57068L41.6133 9.56829H53.4004V3.57068Z" fill="#10467F"/>
<path d="M47.7662 0.234741L31.0469 8.74194V9.56826H31.4345L49.778 0.234741H47.7662Z" fill="white"/>
<path d="M-0.208984 18.5667V24.4463L11.678 18.5667H-0.208984Z" fill="#10467F"/>
<path d="M11.678 18.5667L-0.208984 24.4463V27.4532H-0.0825027L17.8836 18.5667H11.678Z" fill="white"/>
<path d="M17.884 18.5667L-0.0820312 27.4532H3.80806L21.7741 18.5667H17.884Z" fill="#D21D10"/>
<path d="M21.7747 18.5667L3.80859 27.4532H6.12403L22.1617 19.5206V18.5667H21.7747Z" fill="white"/>
<path d="M22.1608 27.4531V19.5205L6.12305 27.4531H22.1608Z" fill="#10467F"/>
<path d="M53.4003 24.4099L41.5996 18.5667H39.1934L53.4003 25.6016V24.4099Z" fill="white"/>
<path d="M39.1927 18.5667H35.4902L53.3997 27.4348V25.6016L39.1927 18.5667Z" fill="#D21D10"/>
<path d="M31.0469 18.5667V19.3919L47.3268 27.4532H53.3988V27.4348L35.4893 18.5667H31.0469Z" fill="white"/>
<path d="M31.0469 27.4532H47.3268L31.0469 19.3918V27.4532Z" fill="#10467F"/>
<path d="M53.3984 18.5667H41.5977L53.3984 24.4099V18.5667Z" fill="#10467F"/>
</svg>
