<svg width="102" height="57" viewBox="0 0 102 57" fill="none" xmlns="http://www.w3.org/2000/svg">
<path d="M99.7011 17.373L54.0961 0.892166C52.0979 0.170222 49.8971 0.170222 47.8992 0.892166L2.29414 17.373C1.0358 17.8277 0.222656 18.9862 0.222656 20.3241C0.222656 21.6621 1.03577 22.8205 2.29414 23.2752L17.4538 28.7536V35.2108V44.0716C17.4538 47.561 21.0901 50.7364 27.6929 53.0133C33.9342 55.1654 42.2106 56.3507 50.9976 56.3507C59.7846 56.3507 68.0609 55.1654 74.3022 53.0133C80.905 50.7364 84.5413 47.561 84.5413 44.0716V35.2108V28.7536L99.7011 23.2752C100.959 22.8205 101.772 21.6621 101.772 20.3241C101.772 18.9862 100.959 17.8278 99.7011 17.373ZM73.5934 50.9577C67.5743 53.0333 59.5496 54.1764 50.9976 54.1764C42.4456 54.1764 34.4209 53.0333 28.4018 50.9577C22.8261 49.0351 19.6282 46.5252 19.6282 44.0716V39.7005C21.3549 41.3897 24.0781 42.906 27.6929 44.1525C33.9343 46.3046 42.2107 47.4899 50.9976 47.4899C59.7846 47.4899 68.061 46.3046 74.3023 44.1525C77.9171 42.906 80.6404 41.3897 82.3671 39.7005V44.0716C82.367 46.5252 79.1691 49.0351 73.5934 50.9577ZM82.367 35.2108C82.367 37.6644 79.1691 40.1743 73.5934 42.0969C67.5743 44.1725 59.5496 45.3155 50.9976 45.3155C42.4456 45.3155 34.4209 44.1725 28.4018 42.0969C22.8261 40.1743 19.6282 37.6644 19.6282 35.2108V29.5394L47.8992 39.756C48.8984 40.1171 49.9478 40.2976 50.9977 40.2976C52.0473 40.2976 53.0972 40.1171 54.0961 39.756L82.3671 29.5394V35.2108H82.367ZM98.9621 21.2302L53.357 37.7111C51.8355 38.2608 50.1596 38.2608 48.6381 37.7111L3.03305 21.2302C2.44288 21.017 2.39701 20.4828 2.39701 20.3241C2.39701 20.1655 2.44288 19.6313 3.03305 19.418L48.6382 2.9371C49.3989 2.6622 50.1982 2.52472 50.9976 2.52472C51.797 2.52472 52.5963 2.6622 53.357 2.93717L98.9621 19.418C99.5522 19.6313 99.5981 20.1655 99.5981 20.3241C99.5981 20.4828 99.5522 21.017 98.9621 21.2302Z" fill="#282F39"/>
<path d="M98.9635 19.418L53.3584 2.93718C52.5976 2.6622 51.7984 2.52472 50.999 2.52472C50.1996 2.52472 49.4003 2.6622 48.6396 2.9371L3.03448 19.418C2.44431 19.6313 2.39844 20.1655 2.39844 20.3241C2.39844 20.4828 2.44431 21.017 3.03448 21.2302L48.6396 37.7111C50.1611 38.2608 51.8369 38.2608 53.3584 37.7111L98.9635 21.2302C99.5536 21.017 99.5995 20.4828 99.5995 20.3241C99.5995 20.1655 99.5536 19.6313 98.9635 19.418Z" fill="#474A56"/>
<path d="M98.9635 19.418L96.7433 18.6157L53.3584 34.2942C51.8369 34.8439 50.161 34.8439 48.6395 34.2942L5.25467 18.6157L3.03448 19.418C2.44431 19.6313 2.39844 20.1655 2.39844 20.3241C2.39844 20.4828 2.44431 21.017 3.03448 21.2302L48.6396 37.7111C50.1611 38.2607 51.8369 38.2607 53.3584 37.7111L98.9635 21.2302C99.5536 21.017 99.5995 20.4828 99.5995 20.3241C99.5995 20.1655 99.5536 19.6313 98.9635 19.418Z" fill="#3B3D4A"/>
<path d="M50.9983 47.4898C42.2114 47.4898 33.9349 46.3045 27.6936 44.1525C24.0789 42.9059 21.3556 41.3897 19.6289 39.7004V44.0716C19.6289 46.5252 22.8267 49.035 28.4025 50.9577C34.4216 53.0333 42.4463 54.1763 50.9983 54.1763C59.5503 54.1763 67.575 53.0333 73.5941 50.9577C79.1698 49.035 82.3677 46.5252 82.3677 44.0716V39.7004C80.641 41.3896 77.9178 42.9059 74.3029 44.1525C68.0617 46.3045 59.7853 47.4898 50.9983 47.4898Z" fill="#2B7CD6"/>
<path d="M50.9984 40.2976C49.9485 40.2976 48.8991 40.1171 47.8999 39.756L19.6289 29.5394V35.2108C19.6289 37.6644 22.8267 40.1743 28.4025 42.0969C34.4216 44.1725 42.4463 45.3155 50.9983 45.3155C59.5503 45.3155 67.575 44.1725 73.5941 42.0969C79.1698 40.1743 82.3677 37.6644 82.3677 35.2108V29.5394L54.0967 39.756C53.0979 40.1171 52.048 40.2976 50.9984 40.2976Z" fill="#3B3D4A"/>
<path d="M29.0848 44.6056C28.6104 44.4595 28.145 44.3089 27.6915 44.1525C25.3323 43.339 23.3557 42.4099 21.7852 41.3935V47.6023C23.2833 48.8181 25.5245 49.9661 28.4003 50.9577C28.6254 51.0354 28.8542 51.1112 29.0848 51.1863L29.0848 44.6056Z" fill="white"/>
<path d="M74.3032 44.1525C72.0527 44.9284 69.5364 45.578 66.8281 46.0924V52.7405C69.2759 52.2591 71.551 51.6623 73.5944 50.9577C79.1701 49.035 82.3679 46.5252 82.3679 44.0716V39.7004C80.6413 41.3897 77.918 42.9059 74.3032 44.1525Z" fill="#30589F"/>
<path d="M60.9258 37.288V44.7784C65.6567 44.2497 69.9859 43.3411 73.5939 42.0969C79.1696 40.1743 82.3674 37.6644 82.3674 35.2108V29.5394L60.9258 37.288Z" fill="#2F313A"/>
</svg>
