<svg width="573" height="404" viewBox="0 0 573 404" fill="none" xmlns="http://www.w3.org/2000/svg">
<path d="M61.5423 402.793L504.541 403.9C504.541 403.9 591.082 363.565 568.15 258.054C545.215 152.544 499.351 156.239 420.128 146.134C340.905 136.029 370.092 57.5811 288.784 22.486C207.476 -12.609 65.7102 17.924 51.1167 146.134C36.5243 274.344 7.33515 289.774 1.08241 324.378C-5.17195 358.984 34.433 402.905 61.5423 402.793Z" fill="#5FD3FF"/>
<path d="M86.912 19.2275C86.912 29.8464 78.22 38.455 67.4961 38.455C56.7733 38.455 48.0791 29.847 48.0791 19.2275C48.0791 8.60853 56.7733 2.48665e-08 67.4961 2.48665e-08C78.22 -0.000534236 86.912 8.60799 86.912 19.2275Z" fill="#5FD3FF"/>
<path d="M445.812 101.305C445.812 112.863 436.349 122.233 424.676 122.233C413.002 122.233 403.54 112.863 403.54 101.305C403.54 89.7472 413.002 80.3762 424.676 80.3762C436.349 80.3762 445.812 89.7472 445.812 101.305Z" fill="#5FD3FF"/>
<path d="M302.394 228.415C302.394 228.415 341.891 242.992 378.589 262.686C415.285 282.38 452.541 313.447 446.378 344.515C440.216 375.581 399.877 375.581 373.266 371.697L356.739 366.149L360.101 403.596H126.755C126.755 403.596 94.2604 390.282 107.147 360.048C120.033 329.812 143.282 278.496 169.614 258.802C195.947 239.109 218.636 230.509 223.678 230.233C228.72 229.955 302.394 228.415 302.394 228.415Z" fill="#0F62AF"/>
<path d="M174.564 121.869C174.564 121.869 172.714 58.7521 189.018 42.3514C205.32 25.9528 262.337 -5.35808 326.579 34.2146C326.579 34.2146 353.964 54.4887 353.022 96.7332C352.077 138.977 346.374 148.498 346.374 148.498L239.551 131.115L166.734 134.485L174.564 121.869Z" fill="#8F3A27"/>
<path d="M383.351 316.006C383.351 316.006 395.676 301.058 396.236 300.318C396.796 299.577 399.298 291.071 393.005 290.887C386.713 290.702 372.52 305.496 372.52 305.496C372.52 305.496 377.935 294.052 379.615 286.645C381.296 279.237 380.922 269.436 373.826 270.915C373.826 270.915 372.52 269.991 368.782 281.456C365.048 292.923 360.752 295.326 360.752 295.326C360.752 295.326 360.941 278.383 359.26 270.766C357.579 263.149 351.044 261.3 347.494 264.073C343.946 266.847 348.802 287.373 346.186 295.326C346.186 295.326 336.848 284.416 332.739 281.827C328.633 279.237 318.26 278.543 313.082 289.431C307.903 300.319 316.12 297.174 320.976 295.511C325.83 293.846 329.753 297.729 330.873 300.319C331.992 302.907 328.818 312.153 328.818 312.153L322.655 310.305C322.655 310.305 317.613 300.319 314.999 299.763C312.385 299.209 304.166 293.661 306.782 307.343C309.395 321.03 313.878 328.24 317.24 329.535C320.601 330.83 342.824 350.431 347.119 351.911C351.415 353.39 369.595 355.795 369.595 355.795C369.595 355.795 384.843 355.054 385.03 354.499C385.217 353.945 382.975 327.131 382.975 327.131L383.351 316.006Z" fill="#FBB98E"/>
<path d="M339.267 346.563C339.267 346.563 361.874 351.912 366.915 342.481C371.957 333.049 376.439 320.658 376.439 320.658L382.603 334.366L379.267 355.214L357.579 355.794L347.119 351.911L339.267 346.563Z" fill="#EB9C72"/>
<path d="M258.415 278.774L245.234 399.16H284.105L269.059 278.774H258.415Z" fill="#0E1B2C"/>
<path d="M234.697 383.533C234.697 383.533 240.298 384.457 253.371 385.012C266.444 385.569 294.829 386.676 300.059 395.554C305.287 404.429 298.938 402.394 298.938 402.394C298.938 402.394 298.564 396.293 295.017 394.443C295.017 394.443 300.991 401.596 295.95 402.596C290.908 403.597 286.985 397.033 280.263 395.924C273.542 394.815 284.557 396.478 287.734 401.1C290.908 405.724 272.607 401.801 263.643 402.699C254.679 403.597 226.294 401.656 226.294 401.656C226.294 401.656 232.469 383.239 234.697 383.533Z" fill="#FBB98E"/>
<path d="M245.248 267.957C245.248 267.957 255.333 284.045 258.695 286.265C262.056 288.482 274.381 280.994 282.784 263.796C291.188 246.598 256.733 247.43 256.733 247.43C256.733 247.43 244.743 262.688 245.248 267.957Z" fill="#0E1B2C"/>
<path d="M228.515 220.104C228.515 220.104 209.954 233.283 217.515 253.532C225.08 273.781 237.686 282.658 237.686 282.658L264.446 251.382L293.15 282.658C293.15 282.658 314.159 262.409 313.038 244.934C311.918 227.458 294.181 223.156 294.181 223.156L228.515 220.104Z" fill="white"/>
<path d="M178.857 109.732C178.857 109.732 175.778 60.7523 195.946 41.8897C216.116 23.0276 276.622 2.2246 330.966 41.8897C330.966 41.8897 347.892 50.4924 346.374 114.01L353.424 119.28C353.424 119.28 353.657 93.76 351.415 74.3433C349.174 54.9273 337.689 31.6271 302.954 18.0355C268.218 4.44446 217.515 14.9833 194.547 32.7368C171.575 50.4902 170.113 104.036 173.121 125.117C176.128 146.199 179.139 125.117 179.139 125.117L178.857 109.732Z" fill="#0E1B2C"/>
<path d="M174.378 114.01C174.378 114.01 159.252 117.615 156.729 132.038C154.21 146.463 156.168 171.611 177.598 173.184L174.378 114.01Z" fill="#CCCCCD"/>
<path d="M349.734 114.01C349.734 114.01 365.703 116.506 367.942 133.149C370.183 149.792 361.217 179.472 344.131 173.645C327.045 167.821 349.734 114.01 349.734 114.01Z" fill="#CCCCCD"/>
<path d="M235.071 222.837C235.071 222.837 181.659 208.042 189.878 124.827C189.878 124.827 189.878 57.8859 207.058 56.4071C224.239 54.9267 269.06 80.8164 307.904 80.8164C307.904 80.8164 288.108 84.1448 277.65 80.0759C277.65 80.0759 300.434 88.2122 317.614 85.6237C334.796 83.0352 335.542 132.225 333.302 146.279C331.061 160.333 330.686 200.646 298.939 215.81C267.191 230.973 239.648 224.612 235.071 222.837Z" fill="#FBB98E"/>
<path d="M234.323 216.55C234.323 216.55 233.949 235.411 236.192 238.74C238.433 242.069 250.384 254.643 273.915 250.575C297.445 246.507 291.725 234.066 293.71 225.678C295.696 217.29 293.71 205.454 293.71 205.454L234.323 216.55Z" fill="#FBB98E"/>
<path d="M189.944 120.399C189.944 120.399 190.25 109.293 185.395 110.034C180.539 110.773 171.948 108.159 172.322 115.199C172.695 122.238 177.925 176.607 177.925 176.607C177.925 176.607 188.476 179.472 192.957 175.309C192.957 175.309 190.717 137.863 190.717 134.998C190.718 132.131 189.944 120.399 189.944 120.399Z" fill="#0E1B2C"/>
<path d="M333.357 145.903C333.314 145.632 334.701 112.437 337.689 110.958C340.677 109.478 352.816 108.092 353.375 114.75C353.937 121.406 349.361 174.572 347.586 176.606C345.812 178.64 328.461 178.53 329.944 169.821C331.426 161.11 333.695 148.024 333.357 145.903Z" fill="#0E1B2C"/>
<path d="M182.594 333.049L187.45 365.595L239.927 382.607L160.558 360.972L173.816 357.828L182.594 333.049Z" fill="#30589F"/>
<path d="M231.522 376.875C231.522 376.875 217.888 397.402 217.329 402.394H227.6L239.927 381.5C239.927 381.5 235.257 376.32 231.522 376.875Z" fill="white"/>
<path d="M346.186 349.692C346.186 349.692 346.749 364.855 361.127 366.52C375.507 368.184 391.567 360.972 392.875 341.185C394.181 321.399 385.218 313.816 385.218 313.816L376.44 320.658C376.44 320.658 384.043 337.301 377.747 351.726L361.875 350.431L346.186 349.692Z" fill="white"/>
<g opacity="0.4">
<path d="M378.042 351.027C378.042 351.027 373.452 365.595 360.007 365.41C346.56 365.225 346.186 349.692 346.186 349.692L378.042 351.027Z" fill="#898C9A"/>
</g>
<path d="M338.529 324.544C338.529 324.544 331.665 313.018 330.5 311.783C329.335 310.549 329.192 311.006 329.192 311.006L327.86 311.865L322.655 310.305L338.529 324.544Z" fill="#EB9C72"/>
<path d="M155.872 141.01H153.009C153.009 141.01 150.714 168.584 161.483 181.694C172.25 194.803 183.017 208.787 207.2 213.506C207.2 213.506 210.73 222.595 220.439 222.944C230.148 223.293 233.324 211.933 230.676 207.389C228.031 202.844 218.144 195.503 208.082 208.787C208.082 208.787 181.781 204.066 171.19 188.511C160.599 172.956 155.206 153.29 155.872 141.01Z" fill="#0E1B2C"/>
<path d="M488.015 161.834H403.61V186.195H488.015V161.834Z" fill="#30589F"/>
<path d="M439.831 183.828L449.401 193.302L456.92 183.828H439.831Z" fill="#30589F"/>
<path d="M479.133 169.507H409.866V172.186H479.133V169.507Z" fill="white"/>
<path d="M445.813 176.207H410.482V178.277H445.813V176.207Z" fill="white"/>
<path d="M51.1707 177.483L55.507 193.241C55.507 193.241 48.8933 195.744 53.85 203.638C58.8057 211.532 69.3845 222.056 69.3845 222.056L76.5782 219.049L90.814 228.832C90.814 228.832 82.1139 238.239 77.4485 235.994C72.7815 233.749 22.4304 207.596 51.1707 177.483Z" fill="#30589F"/>
<path d="M56.9059 191.589L52.6915 177.483L54.7984 176.53L58.5547 191.589H56.9059Z" fill="#30589F"/>
<path d="M78.8918 217.671L90.8135 227.511L92.634 226.06L80.1743 216.625L78.8918 217.671Z" fill="#30589F"/>
</svg>
