<svg width="49" height="49" viewBox="0 0 49 49" fill="none" xmlns="http://www.w3.org/2000/svg">
<path d="M13.84 28.5H8.5C6.3 28.5 4.5 30.3 4.5 32.5V42.5C4.5 43.6 5.4 44.5 6.5 44.5H13.84C14.94 44.5 15.84 43.6 15.84 42.5V30.5C15.84 29.4 14.94 28.5 13.84 28.5Z" fill="white"/>
<path d="M27.1603 20.5H21.8203C19.6203 20.5 17.8203 22.3 17.8203 24.5V42.5C17.8203 43.6 18.7203 44.5 19.8203 44.5H29.1603C30.2603 44.5 31.1603 43.6 31.1603 42.5V24.5C31.1603 22.3 29.3803 20.5 27.1603 20.5Z" fill="white"/>
<path d="M40.5002 34.5H35.1602C34.0602 34.5 33.1602 35.4 33.1602 36.5V42.5C33.1602 43.6 34.0602 44.5 35.1602 44.5H42.5002C43.6002 44.5 44.5002 43.6 44.5002 42.5V38.5C44.5002 36.3 42.7002 34.5 40.5002 34.5Z" fill="white"/>
<path d="M30.5199 10.2C31.1399 9.57996 31.3799 8.83996 31.1799 8.19996C30.9799 7.55996 30.3599 7.09996 29.4799 6.95996L27.5599 6.63996C27.4799 6.63996 27.2999 6.49996 27.2599 6.41996L26.1999 4.29996C25.3999 2.67996 23.5799 2.67996 22.7799 4.29996L21.7199 6.41996C21.6999 6.49996 21.5199 6.63996 21.4399 6.63996L19.5199 6.95996C18.6399 7.09996 18.0399 7.55996 17.8199 8.19996C17.6199 8.83996 17.8599 9.57996 18.4799 10.2L19.9599 11.7C20.0399 11.76 20.0999 12 20.0799 12.08L19.6599 13.92C19.3399 15.3 19.8599 15.92 20.1999 16.16C20.5399 16.4 21.2799 16.72 22.4999 16L24.2999 14.94C24.3799 14.88 24.6399 14.88 24.7199 14.94L26.4999 16C27.0599 16.34 27.5199 16.44 27.8799 16.44C28.2999 16.44 28.5999 16.28 28.7799 16.16C29.1199 15.92 29.6399 15.3 29.3199 13.92L28.8999 12.08C28.8799 11.98 28.9399 11.76 29.0199 11.7L30.5199 10.2Z" fill="white"/>
</svg>
