<svg width="49" height="48" viewBox="0 0 49 48" fill="none" xmlns="http://www.w3.org/2000/svg">
<path d="M13.84 28H8.5C6.3 28 4.5 29.8 4.5 32V42C4.5 43.1 5.4 44 6.5 44H13.84C14.94 44 15.84 43.1 15.84 42V30C15.84 28.9 14.94 28 13.84 28Z" fill="#2B7CD6"/>
<path d="M27.1603 20H21.8203C19.6203 20 17.8203 21.8 17.8203 24V42C17.8203 43.1 18.7203 44 19.8203 44H29.1603C30.2603 44 31.1603 43.1 31.1603 42V24C31.1603 21.8 29.3803 20 27.1603 20Z" fill="#2B7CD6"/>
<path d="M40.5002 34H35.1602C34.0602 34 33.1602 34.9 33.1602 36V42C33.1602 43.1 34.0602 44 35.1602 44H42.5002C43.6002 44 44.5002 43.1 44.5002 42V38C44.5002 35.8 42.7002 34 40.5002 34Z" fill="#2B7CD6"/>
<path d="M30.5199 9.69996C31.1399 9.07996 31.3799 8.33996 31.1799 7.69996C30.9799 7.05996 30.3599 6.59996 29.4799 6.45996L27.5599 6.13996C27.4799 6.13996 27.2999 5.99996 27.2599 5.91996L26.1999 3.79996C25.3999 2.17996 23.5799 2.17996 22.7799 3.79996L21.7199 5.91996C21.6999 5.99996 21.5199 6.13996 21.4399 6.13996L19.5199 6.45996C18.6399 6.59996 18.0399 7.05996 17.8199 7.69996C17.6199 8.33996 17.8599 9.07996 18.4799 9.69996L19.9599 11.2C20.0399 11.26 20.0999 11.5 20.0799 11.58L19.6599 13.42C19.3399 14.8 19.8599 15.42 20.1999 15.66C20.5399 15.9 21.2799 16.22 22.4999 15.5L24.2999 14.44C24.3799 14.38 24.6399 14.38 24.7199 14.44L26.4999 15.5C27.0599 15.84 27.5199 15.94 27.8799 15.94C28.2999 15.94 28.5999 15.78 28.7799 15.66C29.1199 15.42 29.6399 14.8 29.3199 13.42L28.8999 11.58C28.8799 11.48 28.9399 11.26 29.0199 11.2L30.5199 9.69996Z" fill="#2B7CD6"/>
</svg>
