<svg width="33" height="32" viewBox="0 0 33 32" fill="none" xmlns="http://www.w3.org/2000/svg">
<path d="M11.3797 8.86646H21.6063C22.4597 8.86646 23.153 9.55979 23.153 10.4131V12.1198C23.153 12.7465 22.7663 13.5198 22.3797 13.9065L19.0463 16.8531C18.5797 17.2398 18.273 18.0131 18.273 18.6398V21.9731C18.273 22.4398 17.9663 23.0531 17.5797 23.2931L16.4997 23.9731C15.4863 24.5998 14.0997 23.8931 14.0997 22.6531V18.5465C14.0997 17.9998 13.793 17.3065 13.473 16.9198L10.5263 13.8131C10.1397 13.4398 9.83301 12.7331 9.83301 12.2665V10.4931C9.83301 9.55979 10.5263 8.86646 11.3797 8.86646Z" stroke="#0E1B2C" stroke-width="1.5" stroke-miterlimit="10" stroke-linecap="round" stroke-linejoin="round"/>
<path d="M12.5003 29.3334H20.5003C27.167 29.3334 29.8337 26.6667 29.8337 20.0001V12.0001C29.8337 5.33341 27.167 2.66675 20.5003 2.66675H12.5003C5.83366 2.66675 3.16699 5.33341 3.16699 12.0001V20.0001C3.16699 26.6667 5.83366 29.3334 12.5003 29.3334Z" stroke="#0E1B2C" stroke-width="1.5" stroke-linecap="round" stroke-linejoin="round"/>
</svg>
