<svg width="1920" height="5193" viewBox="0 0 1920 5193" fill="none" xmlns="http://www.w3.org/2000/svg">
<line x1="80.1233" y1="-6.08983e-09" x2="80.1235" y2="5352" stroke="#BFBFBF" stroke-width="0.25"/>
<line x1="190.123" y1="-6.08983e-09" x2="190.124" y2="5352" stroke="#BFBFBF" stroke-width="0.25"/>
<line x1="300.124" y1="-6.08983e-09" x2="300.124" y2="5352" stroke="#BFBFBF" stroke-width="0.25"/>
<line x1="410.124" y1="-6.08983e-09" x2="410.124" y2="5352" stroke="#BFBFBF" stroke-width="0.25"/>
<line x1="520.124" y1="-6.08983e-09" x2="520.124" y2="5352" stroke="#BFBFBF" stroke-width="0.25"/>
<line x1="630.124" y1="-6.08983e-09" x2="630.124" y2="5352" stroke="#BFBFBF" stroke-width="0.25"/>
<line x1="740.125" y1="-6.08983e-09" x2="740.125" y2="5352" stroke="#BFBFBF" stroke-width="0.25"/>
<line x1="850.125" y1="-6.08983e-09" x2="850.125" y2="5352" stroke="#BFBFBF" stroke-width="0.25"/>
<line x1="960.125" y1="-6.08983e-09" x2="960.125" y2="5352" stroke="#BFBFBF" stroke-width="0.25"/>
<line x1="1070.13" y1="-6.08983e-09" x2="1070.13" y2="5352" stroke="#BFBFBF" stroke-width="0.25"/>
<line x1="1180.13" y1="-6.08983e-09" x2="1180.13" y2="5352" stroke="#BFBFBF" stroke-width="0.25"/>
<line x1="1290.13" y1="-6.08983e-09" x2="1290.13" y2="5352" stroke="#BFBFBF" stroke-width="0.25"/>
<line x1="1400.13" y1="-6.08983e-09" x2="1400.13" y2="5352" stroke="#BFBFBF" stroke-width="0.25"/>
<line x1="1510.13" y1="-6.08983e-09" x2="1510.13" y2="5352" stroke="#BFBFBF" stroke-width="0.25"/>
<line x1="1620.13" y1="-6.08983e-09" x2="1620.13" y2="5352" stroke="#BFBFBF" stroke-width="0.25"/>
<line x1="1730.13" y1="-6.08983e-09" x2="1730.13" y2="5352" stroke="#BFBFBF" stroke-width="0.25"/>
<line x1="1840.13" y1="-6.08983e-09" x2="1840.13" y2="5352" stroke="#BFBFBF" stroke-width="0.25"/>
<line x1="1920" y1="14.3875" y2="14.3875" stroke="#BFBFBF" stroke-width="0.25"/>
<line x1="1920" y1="150.912" y2="150.912" stroke="#BFBFBF" stroke-width="0.25"/>
<line x1="1920" y1="287.438" y2="287.438" stroke="#BFBFBF" stroke-width="0.25"/>
<line x1="1920" y1="423.962" y2="423.962" stroke="#BFBFBF" stroke-width="0.25"/>
<line x1="1920" y1="560.487" y2="560.487" stroke="#BFBFBF" stroke-width="0.25"/>
<line x1="1920" y1="697.012" y2="697.012" stroke="#BFBFBF" stroke-width="0.25"/>
<line x1="1920" y1="833.537" y2="833.537" stroke="#BFBFBF" stroke-width="0.25"/>
<line x1="1920" y1="970.062" y2="970.062" stroke="#BFBFBF" stroke-width="0.25"/>
<line x1="1920" y1="1106.59" y2="1106.59" stroke="#BFBFBF" stroke-width="0.25"/>
<line x1="1920" y1="1243.11" y2="1243.11" stroke="#BFBFBF" stroke-width="0.25"/>
<line x1="1920" y1="1379.64" y2="1379.64" stroke="#BFBFBF" stroke-width="0.25"/>
<line x1="1920" y1="1516.16" y2="1516.16" stroke="#BFBFBF" stroke-width="0.25"/>
<line x1="1920" y1="1652.69" y2="1652.69" stroke="#BFBFBF" stroke-width="0.25"/>
<line x1="1920" y1="1789.21" y2="1789.21" stroke="#BFBFBF" stroke-width="0.25"/>
<line x1="1920" y1="1925.74" y2="1925.74" stroke="#BFBFBF" stroke-width="0.25"/>
<line x1="1920" y1="2062.26" y2="2062.26" stroke="#BFBFBF" stroke-width="0.25"/>
<line x1="1920" y1="2198.79" y2="2198.79" stroke="#BFBFBF" stroke-width="0.25"/>
<line x1="1920" y1="2335.31" y2="2335.31" stroke="#BFBFBF" stroke-width="0.25"/>
<line x1="1920" y1="2471.84" y2="2471.84" stroke="#BFBFBF" stroke-width="0.25"/>
<line x1="1920" y1="2608.36" y2="2608.36" stroke="#BFBFBF" stroke-width="0.25"/>
<line x1="1920" y1="2744.89" y2="2744.89" stroke="#BFBFBF" stroke-width="0.25"/>
<line x1="1920" y1="2881.41" y2="2881.41" stroke="#BFBFBF" stroke-width="0.25"/>
<line x1="1920" y1="3017.94" y2="3017.94" stroke="#BFBFBF" stroke-width="0.25"/>
<line x1="1920" y1="3154.46" y2="3154.46" stroke="#BFBFBF" stroke-width="0.25"/>
<line x1="1920" y1="3290.99" y2="3290.99" stroke="#BFBFBF" stroke-width="0.25"/>
<line x1="1920" y1="3427.51" y2="3427.51" stroke="#BFBFBF" stroke-width="0.25"/>
<line x1="1920" y1="3564.04" y2="3564.04" stroke="#BFBFBF" stroke-width="0.25"/>
<line x1="1920" y1="3700.56" y2="3700.56" stroke="#BFBFBF" stroke-width="0.25"/>
<line x1="1920" y1="3837.09" y2="3837.09" stroke="#BFBFBF" stroke-width="0.25"/>
<line x1="1920" y1="3973.61" y2="3973.61" stroke="#BFBFBF" stroke-width="0.25"/>
<line x1="1920" y1="4110.14" y2="4110.14" stroke="#BFBFBF" stroke-width="0.25"/>
<line x1="1920" y1="4246.66" y2="4246.66" stroke="#BFBFBF" stroke-width="0.25"/>
<line x1="1920" y1="4383.19" y2="4383.19" stroke="#BFBFBF" stroke-width="0.25"/>
<line x1="1920" y1="4519.71" y2="4519.71" stroke="#BFBFBF" stroke-width="0.25"/>
<line x1="1920" y1="4656.24" y2="4656.24" stroke="#BFBFBF" stroke-width="0.25"/>
<line x1="1920" y1="4792.76" y2="4792.76" stroke="#BFBFBF" stroke-width="0.25"/>
<line x1="1920" y1="4929.29" y2="4929.29" stroke="#BFBFBF" stroke-width="0.25"/>
<line x1="1920" y1="5065.81" y2="5065.81" stroke="#BFBFBF" stroke-width="0.25"/>
</svg>
